<svg width="29" height="21" viewBox="0 0 29 21" fill="none" xmlns="http://www.w3.org/2000/svg">
<g filter="url(#filter0_i_34_198)">
<path d="M24.4262 2.67076C22.0712 0.775651 18.3457 0.454407 18.1862 0.442851C17.9389 0.422051 17.7032 0.560718 17.6015 0.789518C17.5923 0.803385 17.5114 0.990585 17.4212 1.28178C18.9789 1.54525 20.8925 2.0745 22.6235 3.14916C22.9009 3.32018 22.9864 3.68534 22.8154 3.96267C22.7021 4.14525 22.5103 4.24463 22.3115 4.24463C22.2052 4.24463 22.0966 4.21458 21.9995 4.1545C19.0228 2.30792 15.3066 2.21547 14.5901 2.21547C13.8737 2.21547 10.1551 2.30792 7.1807 4.1545C6.90337 4.32783 6.53821 4.24232 6.36719 3.96498C6.19386 3.68534 6.27937 3.3225 6.5567 3.14916C8.28772 2.07681 10.2013 1.54525 11.759 1.2841C11.6689 0.990585 11.588 0.805696 11.5811 0.789518C11.4771 0.560718 11.2436 0.417429 10.994 0.442851C10.8346 0.454407 7.10906 0.775651 4.72168 2.69618C3.47599 3.84943 0.9823 10.5886 0.9823 16.4149C0.9823 16.5189 1.01003 16.6183 1.06088 16.7085C2.78034 19.7314 7.47421 20.5218 8.54426 20.5565C8.54888 20.5565 8.55581 20.5565 8.56274 20.5565C8.75226 20.5565 8.93021 20.4663 9.04114 20.3138L10.1227 18.8254C7.20381 18.072 5.71314 16.7917 5.62763 16.7154C5.38266 16.5005 5.35954 16.1261 5.57679 15.8811C5.79172 15.6361 6.16612 15.613 6.4111 15.8279C6.44577 15.8603 9.19137 18.1899 14.5901 18.1899C19.9981 18.1899 22.7437 15.851 22.7715 15.8279C23.0164 15.6153 23.3885 15.6361 23.6058 15.8834C23.8207 16.1284 23.7976 16.5005 23.5526 16.7154C23.4671 16.7917 21.9764 18.072 19.0575 18.8254L20.1391 20.3138C20.25 20.4663 20.428 20.5565 20.6175 20.5565C20.6244 20.5565 20.6314 20.5565 20.636 20.5565C21.706 20.5218 26.3999 19.7314 28.1194 16.7085C28.1702 16.6183 28.1979 16.5189 28.1979 16.4149C28.1979 10.5886 25.7043 3.84943 24.4262 2.67076ZM10.7444 14.0484C9.60043 14.0484 8.67368 12.9899 8.67368 11.6818C8.67368 10.3737 9.60043 9.31521 10.7444 9.31521C11.8884 9.31521 12.8152 10.3737 12.8152 11.6818C12.8152 12.9899 11.8884 14.0484 10.7444 14.0484ZM18.4358 14.0484C17.2918 14.0484 16.3651 12.9899 16.3651 11.6818C16.3651 10.3737 17.2918 9.31521 18.4358 9.31521C19.5798 9.31521 20.5066 10.3737 20.5066 11.6818C20.5066 12.9899 19.5798 14.0484 18.4358 14.0484Z" fill="#0051FF"/>
</g>
<defs>
<filter id="filter0_i_34_198" x="0.9823" y="0.439941" width="27.2157" height="24.1167" filterUnits="userSpaceOnUse" color-interpolation-filters="sRGB">
<feFlood flood-opacity="0" result="BackgroundImageFix"/>
<feBlend mode="normal" in="SourceGraphic" in2="BackgroundImageFix" result="shape"/>
<feColorMatrix in="SourceAlpha" type="matrix" values="0 0 0 0 0 0 0 0 0 0 0 0 0 0 0 0 0 0 127 0" result="hardAlpha"/>
<feOffset dy="4"/>
<feGaussianBlur stdDeviation="7.5"/>
<feComposite in2="hardAlpha" operator="arithmetic" k2="-1" k3="1"/>
<feColorMatrix type="matrix" values="0 0 0 0 0 0 0 0 0 0 0 0 0 0 0 0 0 0 0.2 0"/>
<feBlend mode="normal" in2="shape" result="effect1_innerShadow_34_198"/>
</filter>
</defs>
</svg>
