<svg width="27" height="28" viewBox="0 0 27 28" fill="none" xmlns="http://www.w3.org/2000/svg">
<g clip-path="url(#clip0_34_3)" filter="url(#filter0_i_34_3)">
<path d="M0.341858 13.7331C0.341858 6.32585 6.14437 0.842285 13.6313 0.842285C21.1183 0.842285 26.9208 6.32585 26.9208 13.7331C26.9208 21.1403 21.1183 26.6239 13.6313 26.6239C12.2858 26.6239 10.9967 26.4461 9.78403 26.1139C9.54889 26.0484 9.29838 26.066 9.0747 26.1637L6.43674 27.3299C6.27742 27.4001 6.10328 27.4302 5.92961 27.4174C5.75595 27.4046 5.58808 27.3494 5.44077 27.2566C5.29346 27.1637 5.17121 27.0361 5.08476 26.8849C4.99831 26.7338 4.95032 26.5637 4.945 26.3896L4.87191 24.0258C4.86686 23.8819 4.83259 23.7405 4.77119 23.6103C4.70979 23.4801 4.62254 23.3637 4.51475 23.2683C1.92995 20.9559 0.341858 17.607 0.341858 13.7331ZM9.55479 11.3094L5.651 17.5023C5.27724 18.097 6.0065 18.7665 6.56632 18.3429L10.7608 15.16C10.8988 15.0552 11.0671 14.9982 11.2403 14.9976C11.4136 14.997 11.5823 15.0529 11.721 15.1567L14.8257 17.4857C15.046 17.6509 15.2981 17.7687 15.5662 17.8316C15.8343 17.8945 16.1125 17.9012 16.3832 17.8512C16.654 17.8013 16.9115 17.6958 17.1395 17.5414C17.3675 17.387 17.561 17.187 17.7079 16.9541L21.6117 10.7612C21.9871 10.1665 21.2562 9.49706 20.6963 9.92066L16.5019 13.1035C16.3639 13.2083 16.1956 13.2653 16.0223 13.2659C15.8491 13.2665 15.6804 13.2106 15.5417 13.1068L12.4369 10.7762C12.2167 10.611 11.9645 10.4932 11.6965 10.4303C11.4284 10.3674 11.1502 10.3607 10.8794 10.4106C10.6086 10.4606 10.3511 10.5661 10.1232 10.7205C9.89517 10.8749 9.70165 11.0748 9.55479 11.3077V11.3094Z" fill="#0051FF"/>
</g>
<defs>
<filter id="filter0_i_34_3" x="0.341858" y="0.842285" width="26.5789" height="30.5791" filterUnits="userSpaceOnUse" color-interpolation-filters="sRGB">
<feFlood flood-opacity="0" result="BackgroundImageFix"/>
<feBlend mode="normal" in="SourceGraphic" in2="BackgroundImageFix" result="shape"/>
<feColorMatrix in="SourceAlpha" type="matrix" values="0 0 0 0 0 0 0 0 0 0 0 0 0 0 0 0 0 0 127 0" result="hardAlpha"/>
<feOffset dy="4"/>
<feGaussianBlur stdDeviation="7.5"/>
<feComposite in2="hardAlpha" operator="arithmetic" k2="-1" k3="1"/>
<feColorMatrix type="matrix" values="0 0 0 0 0 0 0 0 0 0 0 0 0 0 0 0 0 0 0.2 0"/>
<feBlend mode="normal" in2="shape" result="effect1_innerShadow_34_3"/>
</filter>
<clipPath id="clip0_34_3">
<rect width="26.5789" height="26.5789" fill="white" transform="translate(0.341858 0.842285)"/>
</clipPath>
</defs>
</svg>
