<svg width="27" height="27" viewBox="0 0 27 27" fill="none" xmlns="http://www.w3.org/2000/svg">
<path d="M13.5 27C20.9558 27 27 20.9558 27 13.5C27 6.04416 20.9558 0 13.5 0C6.04416 0 0 6.04416 0 13.5C0 20.9558 6.04416 27 13.5 27Z" fill="#0051FF"/>
<path d="M13.7998 5.00597C7.97297 5.00597 4.8794 8.91733 4.8794 13.1756C4.8794 15.1559 5.93343 17.6207 7.6199 18.4057C7.87533 18.5247 8.01244 18.4733 8.07111 18.2256C8.11626 18.0376 8.34368 17.1207 8.44598 16.6944C8.47869 16.5583 8.46262 16.4415 8.35254 16.3075C7.79434 15.6305 7.34782 14.3864 7.34782 13.2264C7.34782 10.2486 9.6023 7.36744 13.4431 7.36744C16.7594 7.36744 19.0814 9.62764 19.0814 12.8598C19.0814 16.5116 17.2371 19.0418 14.8377 19.0418C13.5126 19.0418 12.5204 17.9457 12.8387 16.6014C13.2203 14.997 13.9571 13.2659 13.9571 12.107C13.9571 11.0706 13.4015 10.2055 12.2494 10.2055C10.8947 10.2055 9.80689 11.6064 9.80689 13.484C9.80689 14.6787 10.2108 15.4877 10.2108 15.4877C10.2108 15.4877 8.8728 21.1452 8.6277 22.1982C8.35637 23.3607 8.46213 24.9938 8.57954 26.0615C8.88404 26.1809 9.18867 26.3003 9.50347 26.3977C10.0549 25.5014 10.8771 24.0314 11.1818 22.8592C11.3464 22.2273 12.0235 19.6498 12.0235 19.6498C12.4633 20.4894 13.7489 21.2002 15.1171 21.2002C19.1883 21.2002 22.1225 17.4561 22.1225 12.8032C22.1225 8.34253 18.4832 5.00597 13.7998 5.00597Z" fill="#D4E9F6"/>
</svg>
