<svg width="341" height="83" viewBox="0 0 341 83" fill="none" xmlns="http://www.w3.org/2000/svg">
<path d="M44.8767 54.5762C44.8767 59.0358 43.2166 62.7305 39.8962 65.6602C36.6085 68.5898 31.9047 70.429 25.7849 71.1777V82.3105H19.3884V71.6172C15.6775 71.5521 12.113 71.2428 8.69507 70.6895C5.30965 70.1035 2.51017 69.306 0.296631 68.2969V60.0938C2.73804 61.2331 5.71655 62.2259 9.23218 63.0723C12.7804 63.8861 16.1658 64.3255 19.3884 64.3906V43.4922C12.7153 41.3763 7.9952 38.9023 5.22827 36.0703C2.46134 33.2057 1.07788 29.5436 1.07788 25.084C1.07788 20.7871 2.72176 17.2552 6.00952 14.4883C9.29728 11.7214 13.7569 10.0286 19.3884 9.41016V0.621094H25.7849V9.3125C31.9698 9.47526 37.8455 10.7122 43.4119 13.0234L40.6775 19.9082C35.6319 17.9225 30.6677 16.7507 25.7849 16.3926V36.998C30.9932 38.7559 34.8669 40.416 37.406 41.9785C39.9776 43.541 41.8656 45.3314 43.0701 47.3496C44.2745 49.3353 44.8767 51.7441 44.8767 54.5762ZM35.99 55.2109C35.99 52.8672 35.225 51.0117 33.6951 49.6445C32.1651 48.2448 29.5284 46.8939 25.7849 45.5918V63.9023C32.5883 62.8607 35.99 59.9635 35.99 55.2109ZM10.0134 24.9863C10.0134 27.3626 10.7133 29.2832 12.113 30.748C13.5128 32.2129 15.9379 33.5638 19.3884 34.8008V16.5879C16.3285 17.1087 14.0011 18.1016 12.406 19.5664C10.811 21.0312 10.0134 22.8379 10.0134 24.9863ZM52.222 28.2L51.122 7.6L101.922 7.1L112.122 22.1L111.022 45.5L103.422 51.9L111.622 59.6V76.5H91.922L92.222 63.2L83.522 56.1L83.822 76.3L61.622 76L61.422 27.7L52.222 28.2ZM92.122 36.9L92.622 25.9L82.922 26.4L83.122 37.3L92.122 36.9ZM125.229 5.8H158.929L169.829 13.2L171.329 64.2L165.129 73.7L126.829 74.7L117.329 67.8L114.829 14.2L125.229 5.8ZM137.929 56.9L150.929 55.9L150.229 22.2L134.929 22.9L137.929 56.9ZM184.604 5.8H218.304L229.204 13.2L230.704 64.2L224.504 73.7L186.204 74.7L176.704 67.8L174.204 14.2L184.604 5.8ZM197.304 56.9L210.304 55.9L209.604 22.2L194.304 22.9L197.304 56.9ZM232.479 27.1L231.379 6.5L288.479 3.7V25.9L265.279 25.6L265.579 31.4L289.279 42.6L290.779 66.6L283.079 76.8L244.779 76.3V56.4L267.679 57.2L268.379 51.3L244.379 41.3L243.579 26.5L232.479 27.1ZM291.847 7.1C299.78 7.1 307.68 7.13333 315.547 7.2C323.48 7.26666 331.48 7.3 339.547 7.3L340.647 29L328.347 28.8L329.047 76.3L304.847 76L304.547 28.8H291.547L291.847 7.1Z" fill="black"/>
</svg>
