<svg width="283" height="282" viewBox="0 0 283 282" fill="none" xmlns="http://www.w3.org/2000/svg">
<circle cx="141.5" cy="141" r="138.5" fill="#FF3169" stroke="white" stroke-width="5"/>
<mask id="path-2-outside-1_31_406" maskUnits="userSpaceOnUse" x="0.5" y="0" width="282" height="245" fill="black">
<rect fill="white" x="0.5" width="282" height="245"/>
<path d="M277.5 141C277.5 118.635 271.984 96.6145 261.441 76.89C250.898 57.1656 235.654 40.3456 217.058 27.9201C198.461 15.4946 177.088 7.84706 154.83 5.65488C132.573 3.46269 110.118 6.79354 89.4551 15.3524C68.7922 23.9112 50.559 37.4339 36.3706 54.7225C22.1822 72.0111 12.4765 92.5321 8.1132 114.468C3.74994 136.403 4.8638 159.076 11.3561 180.479C17.8484 201.881 29.5188 221.352 45.3335 237.167L141.5 141H277.5Z"/>
</mask>
<path d="M277.5 141C277.5 118.635 271.984 96.6145 261.441 76.89C250.898 57.1656 235.654 40.3456 217.058 27.9201C198.461 15.4946 177.088 7.84706 154.83 5.65488C132.573 3.46269 110.118 6.79354 89.4551 15.3524C68.7922 23.9112 50.559 37.4339 36.3706 54.7225C22.1822 72.0111 12.4765 92.5321 8.1132 114.468C3.74994 136.403 4.8638 159.076 11.3561 180.479C17.8484 201.881 29.5188 221.352 45.3335 237.167L141.5 141H277.5Z" fill="#9F49A3"/>
<path d="M277.5 141C277.5 118.635 271.984 96.6145 261.441 76.89C250.898 57.1656 235.654 40.3456 217.058 27.9201C198.461 15.4946 177.088 7.84706 154.83 5.65488C132.573 3.46269 110.118 6.79354 89.4551 15.3524C68.7922 23.9112 50.559 37.4339 36.3706 54.7225C22.1822 72.0111 12.4765 92.5321 8.1132 114.468C3.74994 136.403 4.8638 159.076 11.3561 180.479C17.8484 201.881 29.5188 221.352 45.3335 237.167L141.5 141H277.5Z" stroke="white" stroke-width="10" mask="url(#path-2-outside-1_31_406)"/>
<mask id="path-3-outside-2_31_406" maskUnits="userSpaceOnUse" x="0.5" y="0" width="282" height="231" fill="black">
<rect fill="white" x="0.5" width="282" height="231"/>
<path d="M249.624 223.493C262.278 206.909 270.946 187.635 274.96 167.164C278.973 146.693 278.223 125.573 272.768 105.438C267.314 85.3033 257.3 66.693 243.502 51.0471C229.705 35.4012 212.493 23.1391 193.198 15.2092C173.903 7.2794 153.043 3.89445 132.231 5.31625C111.418 6.73805 91.2123 12.9285 73.1752 23.4087C55.1382 33.8888 39.7537 48.3778 28.212 65.7548C16.6704 83.1318 9.2808 102.931 6.61502 123.621L141.5 141L249.624 223.493Z"/>
</mask>
<path d="M249.624 223.493C262.278 206.909 270.946 187.635 274.96 167.164C278.973 146.693 278.223 125.573 272.768 105.438C267.314 85.3033 257.3 66.693 243.502 51.0471C229.705 35.4012 212.493 23.1391 193.198 15.2092C173.903 7.2794 153.043 3.89445 132.231 5.31625C111.418 6.73805 91.2123 12.9285 73.1752 23.4087C55.1382 33.8888 39.7537 48.3778 28.212 65.7548C16.6704 83.1318 9.2808 102.931 6.61502 123.621L141.5 141L249.624 223.493Z" fill="#00A0CF"/>
<path d="M249.624 223.493C262.278 206.909 270.946 187.635 274.96 167.164C278.973 146.693 278.223 125.573 272.768 105.438C267.314 85.3033 257.3 66.693 243.502 51.0471C229.705 35.4012 212.493 23.1391 193.198 15.2092C173.903 7.2794 153.043 3.89445 132.231 5.31625C111.418 6.73805 91.2123 12.9285 73.1752 23.4087C55.1382 33.8888 39.7537 48.3778 28.212 65.7548C16.6704 83.1318 9.2808 102.931 6.61502 123.621L141.5 141L249.624 223.493Z" stroke="white" stroke-width="10" mask="url(#path-3-outside-2_31_406)"/>
<mask id="path-4-outside-3_31_406" maskUnits="userSpaceOnUse" x="134.5" y="16" width="148" height="229" fill="black">
<rect fill="white" x="134.5" y="16" width="148" height="229"/>
<path d="M237.667 237.167C252.417 222.416 263.577 204.469 270.283 184.716C276.988 164.962 279.059 143.931 276.337 123.248C273.614 102.566 266.169 82.7875 254.58 65.4425C242.99 48.0974 227.566 33.6509 209.5 23.2206L141.5 141L237.667 237.167Z"/>
</mask>
<path d="M237.667 237.167C252.417 222.416 263.577 204.469 270.283 184.716C276.988 164.962 279.059 143.931 276.337 123.248C273.614 102.566 266.169 82.7875 254.58 65.4425C242.99 48.0974 227.566 33.6509 209.5 23.2206L141.5 141L237.667 237.167Z" fill="#00B4B0"/>
<path d="M237.667 237.167C252.417 222.416 263.577 204.469 270.283 184.716C276.988 164.962 279.059 143.931 276.337 123.248C273.614 102.566 266.169 82.7875 254.58 65.4425C242.99 48.0974 227.566 33.6509 209.5 23.2206L141.5 141L237.667 237.167Z" stroke="white" stroke-width="10" mask="url(#path-4-outside-3_31_406)"/>
<mask id="path-5-outside-4_31_406" maskUnits="userSpaceOnUse" x="16.5" y="0" width="229" height="148" fill="black">
<rect fill="white" x="16.5" width="229" height="148"/>
<path d="M237.667 44.8335C222.916 30.0827 204.969 18.923 185.216 12.2175C165.462 5.51204 144.431 3.44063 123.748 6.1635C103.066 8.88637 83.2875 16.3305 65.9424 27.9201C48.5974 39.5097 34.1509 54.9341 23.7205 73L141.5 141L237.667 44.8335Z"/>
</mask>
<path d="M237.667 44.8335C222.916 30.0827 204.969 18.923 185.216 12.2175C165.462 5.51204 144.431 3.44063 123.748 6.1635C103.066 8.88637 83.2875 16.3305 65.9424 27.9201C48.5974 39.5097 34.1509 54.9341 23.7205 73L141.5 141L237.667 44.8335Z" fill="#FFA523"/>
<path d="M237.667 44.8335C222.916 30.0827 204.969 18.923 185.216 12.2175C165.462 5.51204 144.431 3.44063 123.748 6.1635C103.066 8.88637 83.2875 16.3305 65.9424 27.9201C48.5974 39.5097 34.1509 54.9341 23.7205 73L141.5 141L237.667 44.8335Z" stroke="white" stroke-width="10" mask="url(#path-5-outside-4_31_406)"/>
<path d="M216.233 137.684C214.776 137.684 214.022 138.521 213.821 140.213L212.046 139.995C212.33 137.6 213.57 136.109 216.25 136.109C218.678 136.109 220.018 137.148 220.018 139.275C220.018 141.218 218.461 142.122 216.082 142.692C214.039 143.261 213.436 143.68 213.369 144.902C214.307 144.819 215.613 144.735 216.501 144.735H220.102V146.36H211.744C211.728 146.025 211.728 145.673 211.728 145.321C211.728 143.043 212.749 142.122 215.161 141.452C217.556 140.782 218.142 140.246 218.142 139.208C218.142 138.32 217.573 137.684 216.233 137.684Z" fill="white"/>
<path d="M225.521 145.036C227.045 145.036 227.664 144.434 227.664 143.244C227.664 142.172 227.028 141.586 225.537 141.586C224.599 141.586 223.762 141.871 223.276 142.206L221.786 141.636V136.31H228.971V138.035C226.576 138.035 224.767 137.935 223.444 137.851V140.933C224.063 140.548 224.918 140.246 226.107 140.246C228.385 140.246 229.523 141.402 229.523 143.261C229.523 145.539 228.033 146.527 225.504 146.527C223.142 146.527 221.735 145.656 221.116 143.764L222.891 143.261C223.293 144.283 224.03 145.036 225.521 145.036Z" fill="white"/>
<path d="M239.427 146.527C237.736 146.527 236.63 145.422 236.63 143.613C236.63 141.854 237.736 140.766 239.427 140.766C241.152 140.766 242.224 141.854 242.224 143.613C242.224 145.422 241.152 146.527 239.427 146.527ZM233.431 141.904C231.706 141.904 230.634 140.799 230.634 138.99C230.634 137.198 231.706 136.126 233.431 136.126C235.123 136.126 236.228 137.198 236.228 138.99C236.228 140.799 235.123 141.904 233.431 141.904ZM233.414 140.682C234.302 140.682 234.805 140.062 234.805 138.99C234.805 137.935 234.285 137.366 233.431 137.366C232.56 137.366 232.058 137.935 232.058 138.99C232.058 140.062 232.544 140.682 233.414 140.682ZM239.427 145.304C240.298 145.304 240.801 144.685 240.801 143.613C240.801 142.558 240.298 141.988 239.427 141.988C238.573 141.988 238.054 142.558 238.054 143.613C238.054 144.685 238.54 145.304 239.427 145.304ZM236.747 140.514L239.344 136.31H241.839V136.411L237.116 140.799L236.747 140.514ZM236.161 142.156L233.582 146.36H231.086V146.259L235.81 141.871L236.161 142.156Z" fill="white"/>
<path d="M123.612 73.5025C120.983 73.5025 119.509 72.4474 119.224 70.1863L121.066 69.9686C121.284 71.2582 121.937 71.9952 123.629 71.9952C125.036 71.9952 125.739 71.4257 125.739 70.4375C125.739 69.4493 125.321 68.9636 123.73 68.9636H122.038V67.6237H123.696C124.718 67.6237 125.404 67.2218 125.404 66.1666C125.404 65.0779 124.835 64.6424 123.579 64.6424C122.122 64.6424 121.602 65.3291 121.385 66.5183L119.626 66.3508C119.911 64.3577 121.083 63.1183 123.562 63.1183C126.058 63.1183 127.18 63.9892 127.18 65.7981C127.18 67.1213 126.393 67.875 124.969 68.1597V68.3607C126.979 68.5449 127.615 69.2316 127.615 70.6385C127.615 72.3636 126.443 73.5025 123.612 73.5025Z" fill="white"/>
<path d="M133.067 72.0119C134.592 72.0119 135.211 71.409 135.211 70.2198C135.211 69.1479 134.575 68.5617 133.084 68.5617C132.146 68.5617 131.309 68.8464 130.823 69.1814L129.332 68.6119V63.2858H136.518V65.0109C134.123 65.0109 132.314 64.9104 130.991 64.8267V67.9085C131.61 67.5232 132.464 67.2218 133.654 67.2218C135.931 67.2218 137.07 68.3774 137.07 70.2365C137.07 72.5144 135.58 73.5025 133.051 73.5025C130.689 73.5025 129.282 72.6316 128.662 70.739L130.438 70.2365C130.84 71.2582 131.577 72.0119 133.067 72.0119Z" fill="white"/>
<path d="M146.974 73.5025C145.282 73.5025 144.177 72.3971 144.177 70.5883C144.177 68.8296 145.282 67.741 146.974 67.741C148.699 67.741 149.771 68.8296 149.771 70.5883C149.771 72.3971 148.699 73.5025 146.974 73.5025ZM140.978 68.8799C139.253 68.8799 138.181 67.7745 138.181 65.9656C138.181 64.1735 139.253 63.1016 140.978 63.1016C142.67 63.1016 143.775 64.1735 143.775 65.9656C143.775 67.7745 142.67 68.8799 140.978 68.8799ZM140.961 67.6572C141.849 67.6572 142.351 67.0375 142.351 65.9656C142.351 64.9104 141.832 64.341 140.978 64.341C140.107 64.341 139.605 64.9104 139.605 65.9656C139.605 67.0375 140.09 67.6572 140.961 67.6572ZM146.974 72.2799C147.845 72.2799 148.347 71.6602 148.347 70.5883C148.347 69.5331 147.845 68.9636 146.974 68.9636C146.12 68.9636 145.601 69.5331 145.601 70.5883C145.601 71.6602 146.086 72.2799 146.974 72.2799ZM144.294 67.4897L146.89 63.2858H149.386V63.3863L144.663 67.7745L144.294 67.4897ZM143.708 69.1311L141.129 73.3351H138.633V73.2346L143.356 68.8464L143.708 69.1311Z" fill="white"/>
<path d="M132.489 221.427C131.032 221.427 130.278 222.265 130.077 223.956L128.302 223.739C128.587 221.344 129.826 219.853 132.506 219.853C134.935 219.853 136.274 220.891 136.274 223.019C136.274 224.961 134.717 225.866 132.338 226.435C130.295 227.005 129.692 227.423 129.625 228.646C130.563 228.562 131.869 228.479 132.757 228.479H136.358V230.103H128.001C127.984 229.768 127.984 229.417 127.984 229.065C127.984 226.787 129.005 225.866 131.417 225.196C133.812 224.526 134.399 223.99 134.399 222.952C134.399 222.064 133.829 221.427 132.489 221.427Z" fill="white"/>
<path d="M141.777 228.78C143.301 228.78 143.921 228.177 143.921 226.988C143.921 225.916 143.284 225.33 141.794 225.33C140.856 225.33 140.018 225.615 139.532 225.95L138.042 225.38V220.054H145.227V221.779C142.832 221.779 141.023 221.679 139.7 221.595V224.677C140.32 224.291 141.174 223.99 142.363 223.99C144.641 223.99 145.78 225.146 145.78 227.005C145.78 229.283 144.289 230.271 141.76 230.271C139.398 230.271 137.992 229.4 137.372 227.507L139.147 227.005C139.549 228.026 140.286 228.78 141.777 228.78Z" fill="white"/>
<path d="M155.683 230.271C153.992 230.271 152.886 229.165 152.886 227.356C152.886 225.598 153.992 224.509 155.683 224.509C157.409 224.509 158.481 225.598 158.481 227.356C158.481 229.165 157.409 230.271 155.683 230.271ZM149.687 225.648C147.962 225.648 146.89 224.543 146.89 222.734C146.89 220.942 147.962 219.87 149.687 219.87C151.379 219.87 152.484 220.942 152.484 222.734C152.484 224.543 151.379 225.648 149.687 225.648ZM149.671 224.425C150.558 224.425 151.061 223.806 151.061 222.734C151.061 221.679 150.542 221.109 149.687 221.109C148.816 221.109 148.314 221.679 148.314 222.734C148.314 223.806 148.8 224.425 149.671 224.425ZM155.683 229.048C156.554 229.048 157.057 228.428 157.057 227.356C157.057 226.301 156.554 225.732 155.683 225.732C154.829 225.732 154.31 226.301 154.31 227.356C154.31 228.428 154.796 229.048 155.683 229.048ZM153.004 224.258L155.6 220.054H158.095V220.155L153.372 224.543L153.004 224.258ZM152.417 225.899L149.838 230.103H147.343V230.003L152.066 225.615L152.417 225.899Z" fill="white"/>
<path d="M35.6478 173.158V171.533H38.2773V164.817C37.6074 165.202 36.8537 165.52 35.9828 165.838L35.3965 164.298L39.031 163.108H40.1029V171.533H42.1296V173.158H35.6478Z" fill="white"/>
<path d="M47.6065 162.891C50.3533 162.891 51.978 164.817 51.978 168.099C51.978 171.399 50.4036 173.375 47.6065 173.375C44.8095 173.375 43.2351 171.399 43.2351 168.099C43.2351 164.817 44.91 162.891 47.6065 162.891ZM47.6065 164.549C45.8814 164.549 45.1277 165.905 45.1277 168.099C45.1277 170.31 45.8982 171.734 47.5898 171.734C49.3149 171.734 50.0853 170.31 50.0853 168.099C50.0853 165.905 49.2982 164.549 47.6065 164.549Z" fill="white"/>
<path d="M61.6601 173.325C59.9684 173.325 58.863 172.22 58.863 170.411C58.863 168.652 59.9684 167.564 61.6601 167.564C63.3852 167.564 64.4571 168.652 64.4571 170.411C64.4571 172.22 63.3852 173.325 61.6601 173.325ZM55.664 168.702C53.9389 168.702 52.8669 167.597 52.8669 165.788C52.8669 163.996 53.9389 162.924 55.664 162.924C57.3556 162.924 58.461 163.996 58.461 165.788C58.461 167.597 57.3556 168.702 55.664 168.702ZM55.6472 167.48C56.5349 167.48 57.0374 166.86 57.0374 165.788C57.0374 164.733 56.5182 164.164 55.664 164.164C54.7931 164.164 54.2906 164.733 54.2906 165.788C54.2906 166.86 54.7763 167.48 55.6472 167.48ZM61.6601 172.102C62.531 172.102 63.0335 171.483 63.0335 170.411C63.0335 169.356 62.531 168.786 61.6601 168.786C60.8059 168.786 60.2867 169.356 60.2867 170.411C60.2867 171.483 60.7724 172.102 61.6601 172.102ZM58.9802 167.312L61.5763 163.108H64.0719V163.209L59.3487 167.597L58.9802 167.312ZM58.394 168.954L55.8147 173.158H53.3192V173.057L58.0423 168.669L58.394 168.954Z" fill="white"/>
<path d="M41.705 116.22C43.2326 116.467 43.9531 115.973 44.1493 114.799C44.3261 113.741 43.7849 113.059 42.2909 112.817C41.3508 112.665 40.4645 112.81 39.9224 113.061L38.5224 112.257L39.4009 107L46.6025 108.167L46.3179 109.87C43.9174 109.481 42.121 109.088 40.8086 108.79L40.3003 111.832C40.9849 111.553 41.8908 111.394 43.0827 111.587C45.3657 111.957 46.3165 113.283 46.0099 115.118C45.6341 117.366 43.9771 118.099 41.4423 117.688C39.0753 117.305 37.8089 116.217 37.5 114.248L39.3623 114.04C39.5966 115.114 40.2109 115.978 41.705 116.22Z" fill="white"/>
<path d="M55.3974 119.95C53.7019 119.675 52.7763 118.405 53.0747 116.619C53.3648 114.884 54.6523 113.989 56.3478 114.263C58.0768 114.544 58.9716 115.792 58.6815 117.528C58.3831 119.314 57.1264 120.231 55.3974 119.95ZM50.1502 114.413C48.4212 114.133 47.5292 112.868 47.8276 111.083C48.1232 109.314 49.3744 108.43 51.1034 108.71C52.7989 108.985 53.73 110.222 53.4344 111.991C53.136 113.777 51.8457 114.688 50.1502 114.413ZM50.3351 113.204C51.2248 113.348 51.8307 112.818 52.0075 111.76C52.1815 110.719 51.7551 110.072 50.899 109.933C50.026 109.792 49.4285 110.272 49.2544 111.314C49.0776 112.372 49.4622 113.062 50.3351 113.204ZM55.5991 118.743C56.472 118.885 57.0778 118.355 57.2546 117.297C57.4287 116.255 57.019 115.612 56.1461 115.47C55.29 115.331 54.6756 115.809 54.5016 116.851C54.3248 117.909 54.7094 118.599 55.5991 118.743ZM53.7033 113.58L56.9988 109.852L59.5 110.258L59.4834 110.357L54.0257 113.921L53.7033 113.58ZM52.845 115.105L49.5664 118.835L47.0652 118.43L47.0817 118.331L52.5395 114.767L52.845 115.105Z" fill="white"/>
</svg>
