<svg width="24" height="24" viewBox="0 0 24 24" fill="none" xmlns="http://www.w3.org/2000/svg">
<path d="M12 24C18.6274 24 24 18.6274 24 12C24 5.37258 18.6274 0 12 0C5.37258 0 0 5.37258 0 12C0 18.6274 5.37258 24 12 24Z" fill="#26A17B"/>
<path fill-rule="evenodd" clip-rule="evenodd" d="M13.4414 13.0373V13.0358C13.3589 13.0418 12.9336 13.0673 11.9849 13.0673C11.2274 13.0673 10.6941 13.0448 10.5066 13.0358V13.038C7.5906 12.9098 5.4141 12.402 5.4141 11.7945C5.4141 11.1878 7.5906 10.68 10.5066 10.5495V12.5325C10.6971 12.546 11.2431 12.5783 11.9976 12.5783C12.9029 12.5783 13.3566 12.5408 13.4414 12.5333V10.551C16.3514 10.6808 18.5226 11.1885 18.5226 11.7945C18.5226 12.402 16.3514 12.9083 13.4414 13.0373V13.0373ZM13.4414 10.3448V8.57026H17.5019V5.86426H6.4461V8.57026H10.5066V10.344C7.2066 10.4955 4.72485 11.1495 4.72485 11.9325C4.72485 12.7155 7.2066 13.3688 10.5066 13.521V19.2075H13.4414V13.5195C16.7361 13.368 19.2119 12.7148 19.2119 11.9325C19.2119 11.1503 16.7361 10.497 13.4414 10.3448" fill="white"/>
</svg>
