<svg width="18" height="19" viewBox="0 0 18 19" fill="none" xmlns="http://www.w3.org/2000/svg">
<g clip-path="url(#clip0_31_483)">
<path d="M15.094 4.95627C15.1663 5.39779 15.411 5.79253 15.7743 6.05369L17.0484 6.96802C17.412 7.22895 17.6571 7.62365 17.7297 8.06527C17.8023 8.50689 17.6965 8.95927 17.4356 9.32289L16.5219 10.5961C16.2609 10.9599 16.1547 11.4127 16.2282 11.8545L16.4815 13.4002C16.5175 13.6189 16.5101 13.8426 16.4597 14.0585C16.4092 14.2744 16.3167 14.4782 16.1874 14.6583C16.0582 14.8385 15.8947 14.9913 15.7064 15.1083C15.518 15.2252 15.3084 15.3038 15.0897 15.3397L13.5433 15.594C13.1018 15.6663 12.707 15.9109 12.4459 16.2742L11.5315 17.5483C11.2706 17.912 10.8759 18.157 10.4343 18.2296C9.99267 18.3022 9.54029 18.1964 9.17668 17.9355L7.90346 17.0218C7.53974 16.7613 7.08744 16.6559 6.64601 16.7287L5.09873 16.9823C4.65742 17.0546 4.20547 16.9487 3.84215 16.688C3.47883 16.4273 3.23385 16.033 3.16103 15.5918L2.90653 14.0439C2.83422 13.6024 2.58954 13.2076 2.22628 12.9465L0.952144 12.0321C0.588686 11.7713 0.343666 11.3768 0.270943 10.9354C0.19822 10.494 0.303745 10.0418 0.564324 9.67817L1.478 8.40495C1.73852 8.04123 1.84395 7.58893 1.77109 7.1475L1.51816 5.59931C1.48213 5.38056 1.48955 5.15685 1.54 4.94097C1.59045 4.72509 1.68295 4.52127 1.8122 4.34115C1.94146 4.16103 2.10494 4.00815 2.2933 3.89124C2.48166 3.77432 2.69122 3.69567 2.90999 3.65977L4.45635 3.40554C4.89749 3.33329 5.29194 3.08897 5.55312 2.72619L6.46745 1.45206C6.72838 1.08845 7.12307 0.843378 7.5647 0.770771C8.00632 0.698164 8.4587 0.803965 8.82232 1.0649L10.0955 1.97857C10.4593 2.2391 10.9116 2.34452 11.353 2.27166L12.9005 2.01965C13.3421 1.94712 13.7943 2.05294 14.1579 2.31382C14.5214 2.5747 14.7665 2.96929 14.8391 3.41082L15.0936 4.95875L15.094 4.95627Z" fill="#B63043"/>
<path fill-rule="evenodd" clip-rule="evenodd" d="M12.8658 7.1532C12.988 6.98534 13.0289 6.78192 12.9796 6.58766C12.9303 6.39341 12.7949 6.22424 12.603 6.11738C12.4112 6.01052 12.1786 5.97471 11.9566 6.01784C11.7346 6.06096 11.5413 6.17949 11.4191 6.34734L8.06287 10.9615L6.52701 9.28182C6.38502 9.12643 6.17829 9.02676 5.95231 9.00473C5.72632 8.98269 5.49958 9.04011 5.32198 9.16434C5.14438 9.28857 5.03046 9.46944 5.00528 9.66717C4.9801 9.86489 5.04572 10.0633 5.18771 10.2187L7.47321 12.7182C7.55838 12.8115 7.66778 12.8856 7.7923 12.9344C7.91683 12.9833 8.05287 13.0054 8.18912 12.9989C8.32538 12.9924 8.4579 12.9576 8.57567 12.8973C8.69344 12.837 8.79305 12.753 8.86622 12.6522L12.8658 7.1532Z" fill="white"/>
</g>
<defs>
<clipPath id="clip0_31_483">
<rect width="18" height="18" fill="white" transform="translate(0 0.5)"/>
</clipPath>
</defs>
</svg>
