<svg width="12" height="26" viewBox="0 0 12 26" fill="none" xmlns="http://www.w3.org/2000/svg">
<path d="M3.14613 19.3357C3.02316 17.7371 3.02316 16.1385 2.90019 14.4169C2.90019 13.5561 2.53128 12.9412 1.54752 12.9412C0.932667 12.9412 0.317812 13.0642 0.194842 12.2034C0.0718712 11.0967 -0.17407 9.86696 0.194842 8.76023C0.194842 8.63726 0.686726 8.39133 0.932667 8.39133C2.77722 8.76024 3.14613 7.77647 3.14613 6.30082C3.14613 2.36577 6.46634 0.275257 10.7703 0.521198C12 0.644168 12 1.62794 12 2.48873C11.877 3.34952 12.3689 4.57924 10.7703 4.57924C9.41763 4.45627 8.43386 4.94816 8.43386 6.54678C8.43386 7.65351 8.55683 8.51428 9.90951 8.63725C11.877 8.76022 11.5081 10.1129 11.5081 11.4656C11.6311 12.9412 10.8933 13.4331 9.5406 13.4331C8.18792 13.4331 7.94198 14.1709 7.94198 15.4006C7.94198 18.106 7.94198 20.6883 7.81901 23.3937C7.69604 25.1153 7.32713 25.2382 4.99069 25.1153C3.39207 25.1153 3.14613 24.3775 3.2691 23.0248C3.02316 21.9181 3.02316 20.6884 3.14613 19.3357Z" fill="#111111"/>
</svg>
