<svg width="24" height="24" viewBox="0 0 24 24" fill="none" xmlns="http://www.w3.org/2000/svg">
<path d="M11.4971 23.5179C9.3899 23.5179 7.28274 23.644 5.29954 23.5179C2.44868 23.2656 1.33312 22.2563 0.837318 19.2285C0.217566 15.696 -0.0303272 12.2897 0.341524 8.75727C0.465474 7.49568 0.589417 6.10792 0.837318 4.84633C1.20917 2.19698 2.32473 1.06155 4.92768 0.430756C6.04324 0.178438 7.03485 0.052263 8.1504 0.178422C10.5055 0.304581 12.8605 0.304574 15.2156 0.0522553C16.3311 -0.0739039 17.3227 0.052263 18.4383 0.178422C20.5454 0.430741 22.0328 1.5662 22.2807 3.7109C23.0244 9.00959 23.6442 14.3082 22.6526 19.6069C22.1568 22.1301 21.0412 23.1394 18.5622 23.644C16.3311 23.7702 13.9761 23.644 11.4971 23.5179ZM11.9928 6.61255C9.14199 6.48639 6.66298 8.63111 6.41508 11.2805C6.16718 14.5606 8.1504 16.7053 11.4971 16.9576C14.1 17.0838 16.579 14.8129 16.8269 11.9113C17.0748 9.26191 14.8437 6.73871 11.9928 6.61255ZM19.6778 4.59399C19.5538 3.83704 19.182 3.3324 18.3143 3.3324C17.3227 3.3324 16.8269 3.96321 16.8269 4.84633C16.8269 5.72944 17.3227 6.36022 18.3143 6.36022C19.3059 6.23406 19.6778 5.60327 19.6778 4.59399Z" fill="#111111"/>
</svg>
