<svg width="24" height="23" viewBox="0 0 24 23" fill="none" xmlns="http://www.w3.org/2000/svg">
<path d="M8.72251 15.2488C8.72251 13.4216 8.72251 11.7248 8.72251 9.89758C8.85303 7.54824 10.1582 6.37358 12.2465 7.28721C13.2907 7.67876 13.9433 7.80929 14.7264 7.41773C16.6841 6.37358 18.3809 7.15668 20.2081 7.80927C21.3828 8.20083 22.0354 9.11445 22.427 10.2891C23.4711 13.6826 23.4711 17.0761 23.3406 20.4696C23.3406 21.3832 22.949 22.0358 21.9049 22.1663C21.6439 22.1663 21.5133 22.1663 21.2523 22.2968C17.5978 22.9494 17.2062 22.6884 17.5978 19.0339C17.7283 17.4677 17.9893 15.9014 17.5978 14.3352C17.3367 13.5521 17.0757 12.6385 16.0316 12.508C15.1179 12.3774 14.4653 13.03 13.9433 13.6826C13.4212 14.3352 13.2907 15.1183 13.2907 16.0319C13.2907 17.3371 13.2907 18.5118 13.2907 19.817C13.2907 22.4274 13.1601 22.5579 10.8108 22.4274C8.592 22.4274 8.59198 22.4274 8.59198 20.2085C8.7225 18.6423 8.72251 16.9456 8.72251 15.2488Z" fill="#111111"/>
<path d="M1.54422 14.9897C1.54422 13.1625 1.54422 11.4657 1.54422 9.63844C1.54422 8.07222 2.45787 7.81118 3.76306 7.68066C5.19876 7.68066 5.45978 8.46378 5.45978 9.63844C5.72082 13.0319 5.72083 16.4254 5.59031 19.8189C5.59031 20.9936 5.59032 22.4293 3.76306 22.4293C2.19683 22.5598 1.4137 21.9072 1.4137 20.341C1.4137 18.5137 1.4137 16.5559 1.4137 14.7287C1.4137 14.9897 1.54422 14.9897 1.54422 14.9897Z" fill="#111111"/>
<path d="M2.71879 0.498291C4.67657 0.498291 5.72074 1.2814 5.72074 2.45607C5.72074 3.89177 4.02398 5.58851 2.71879 5.58851C1.41361 5.58851 0.5 4.54437 0.5 3.10866C0.630519 1.41192 1.41361 0.498291 2.71879 0.498291Z" fill="#111111"/>
</svg>
