<svg width="23" height="25" viewBox="0 0 23 25" fill="none" xmlns="http://www.w3.org/2000/svg">
<path d="M14.349 18.3817C10.8735 18.0093 10.9976 18.5058 10.7493 20.9883C10.5011 23.8432 10.1287 24.4639 8.63922 24.7121C7.39796 24.9604 5.78432 23.595 4.91543 21.8572C4.66718 21.2366 4.17069 20.4918 4.41894 19.8712C5.16369 17.3887 3.55005 16.5198 1.81228 15.4026C-0.173741 14.1614 -0.173763 13.6649 0.819246 11.4306C1.19163 10.6859 1.19165 9.94109 1.19165 9.07221C1.19165 7.58269 1.19165 6.09321 1.19165 4.6037C1.19165 1.50054 2.18463 0.383383 5.16366 0.507509C9.75634 0.755762 14.2249 0.755769 18.8176 0.631643C20.1829 0.631643 21.0518 1.25227 21.4242 2.49354C21.6725 3.48654 21.7966 4.60369 21.9207 5.72082C22.0448 7.95509 21.6725 10.1894 22.4172 12.4236C22.9137 13.9131 21.6725 14.782 20.5553 15.4026C19.19 16.1474 18.5693 17.0163 18.5693 18.6299C18.5693 20.616 17.7004 22.4778 16.2109 23.9673C15.342 24.7121 14.349 25.3327 13.2319 24.7121C12.363 24.3397 11.9906 23.2226 11.9906 22.2296C11.9906 20.7401 11.1218 18.6299 14.349 18.3817ZM10.0046 2.7418C8.26685 2.7418 6.90145 2.61768 5.53607 2.7418C3.30179 2.86593 2.92941 3.23829 2.92941 5.47256C2.92941 7.5827 2.92941 9.56872 2.92941 11.6789C2.92941 14.0373 4.04656 14.9061 6.28083 14.1614C7.89447 13.6649 9.38399 13.5408 10.6252 15.0303C10.9976 15.5268 11.4941 15.5268 11.8665 15.0303C12.8595 13.2925 14.349 13.789 15.8385 14.1614C18.8176 14.782 20.4312 13.5408 20.4312 10.4376C20.4312 8.57571 20.3071 6.71382 20.0588 4.85192C19.8106 3.36241 19.0658 2.86593 17.7004 2.7418C15.0938 2.36942 12.363 2.86593 10.0046 2.7418Z" fill="#111111"/>
<path d="M8.39065 8.32938C9.63191 8.32938 10.749 9.69474 10.749 10.936C10.6249 12.0531 9.25955 13.0462 8.01829 13.1703C6.52877 13.1703 5.6599 12.4255 5.6599 11.1843C5.53577 9.57063 6.90114 8.20526 8.39065 8.32938Z" fill="#111111"/>
<path d="M14.7209 12.7992C13.7279 12.7992 12.6107 12.6751 12.6107 11.0615C12.6107 9.44784 13.4796 8.33072 14.9691 8.20659C16.3345 8.08247 17.4517 9.32372 17.4517 10.565C17.4517 11.9304 16.4586 12.7992 14.7209 12.7992Z" fill="#111111"/>
</svg>
