<svg width="25" height="24" viewBox="0 0 25 24" fill="none" xmlns="http://www.w3.org/2000/svg">
<path d="M4.17776 14.4762C3.43848 13.7369 2.6992 12.9976 2.10778 12.2584C1.3685 11.2234 -0.110063 10.1884 1.95992 8.85769C2.55135 8.41412 2.10778 7.52696 1.95992 6.93553C1.51635 5.60483 1.3685 4.27415 1.3685 2.20416C3.29063 5.01343 5.21276 6.63985 8.02202 7.37913C8.90916 7.67484 9.7963 7.67482 10.8313 7.82268C12.6056 7.97053 13.3448 7.08338 13.4927 5.30911C13.9363 0.725567 16.4498 -0.752994 20.4419 1.6127C21.9205 2.49984 22.5119 1.16914 23.6948 1.02129C24.1383 2.20414 24.8776 3.38699 23.6948 4.71769C23.1033 5.30911 23.2512 6.19626 23.2512 7.0834C23.1033 14.0326 18.8155 19.799 12.162 21.869C10.092 22.6083 7.87416 23.0518 5.50846 23.0518C3.58633 22.904 1.81206 22.6083 0.333496 20.6862C2.25563 20.3905 4.47347 21.4255 5.80418 19.2076C4.91704 17.8769 2.55134 17.4333 2.40348 15.2155C2.6992 14.4762 3.7342 15.2155 4.17776 14.4762Z" fill="#111111"/>
</svg>
