<svg width="24" height="31" viewBox="0 0 24 31" fill="none" xmlns="http://www.w3.org/2000/svg">
<path d="M12.0007 0.874023H10.666V2.20494H12.0007V0.874023Z" fill="#FCCB25"/>
<path d="M10.666 0.874023H9.3313V2.20494H10.666V0.874023Z" fill="#FFEC8A"/>
<path d="M9.33737 0.874023H8.00269V2.20494H9.33737V0.874023Z" fill="#FFEC8A"/>
<path d="M8.00265 2.20496H6.66797V3.53588H8.00265V2.20496Z" fill="#FFCA45"/>
<path d="M6.66745 3.53601H5.33276V4.86693H6.66745V3.53601Z" fill="#FFF2BD"/>
<path d="M5.33273 4.86108H3.99805V6.192H5.33273V4.86108Z" fill="#FCCB25"/>
<path d="M4.00412 6.19202H2.66943V7.52294H4.00412V6.19202Z" fill="#FFCA45"/>
<path d="M2.6694 7.52307H1.33472V8.85399H2.6694V7.52307Z" fill="#FFCA45"/>
<path d="M2.6694 8.854H1.33472V10.1849H2.6694V8.854Z" fill="#FFCA45"/>
<path d="M1.33468 10.179H0V11.5099H1.33468V10.179Z" fill="#FFEC8A"/>
<path d="M1.33468 11.51H0V12.8409H1.33468V11.51Z" fill="#FFEC8A"/>
<path d="M1.33468 12.8411H0V14.172H1.33468V12.8411Z" fill="#FFEC8A"/>
<path d="M1.33468 14.1721H0V15.503H1.33468V14.1721Z" fill="#FFEC8A"/>
<path d="M1.33468 15.4969H0V16.8279H1.33468V15.4969Z" fill="#FFEC8A"/>
<path d="M1.33468 16.828H0V18.1589H1.33468V16.828Z" fill="#FFEC8A"/>
<path d="M1.33468 18.1591H0V19.49H1.33468V18.1591Z" fill="#FFEC8A"/>
<path d="M1.33468 19.49H0V20.8209H1.33468V19.49Z" fill="#FFEC8A"/>
<path d="M2.6694 20.8149H1.33472V22.1459H2.6694V20.8149Z" fill="#FFCA45"/>
<path d="M2.6694 22.146H1.33472V23.4769H2.6694V22.146Z" fill="#FFCA45"/>
<path d="M4.00412 23.4771H2.66943V24.808H4.00412V23.4771Z" fill="#FFCA45"/>
<path d="M5.33273 24.8081H3.99805V26.139H5.33273V24.8081Z" fill="#FCCB25"/>
<path d="M6.66745 26.1389H5.33276V27.4698H6.66745V26.1389Z" fill="#D86100"/>
<path d="M8.00265 27.464H6.66797V28.7949H8.00265V27.464Z" fill="#FFCA45"/>
<path d="M15.9998 3.53174H17.3345V2.20082H15.9998V3.53174Z" fill="#FCCB25"/>
<path d="M17.3318 4.85999H18.6665V3.52907H17.3318V4.85999Z" fill="#FCCB25"/>
<path d="M18.6634 6.19409H19.998V4.86317H18.6634V6.19409Z" fill="#FCCB25"/>
<path d="M20.0017 7.52222H21.3364V6.1913H20.0017V7.52222Z" fill="#FCCB25"/>
<path d="M21.3333 8.85046H22.668V7.51954H21.3333V8.85046Z" fill="#FCCB25"/>
<path d="M21.3333 10.1786H22.668V8.84767H21.3333V10.1786Z" fill="#FCCB25"/>
<path d="M22.6653 11.5128H24V10.1819H22.6653V11.5128Z" fill="#FCCB25"/>
<path d="M22.6653 12.8411H24V11.5101H22.6653V12.8411Z" fill="#FCCB25"/>
<path d="M22.6653 14.1692H24V12.8383H22.6653V14.1692Z" fill="#FCCB25"/>
<path d="M22.6653 15.4973H24V14.1664H22.6653V15.4973Z" fill="#FCCB25"/>
<path d="M22.6653 16.8315H24V15.5006H22.6653V16.8315Z" fill="#FCCB25"/>
<path d="M22.6653 18.1597H24V16.8287H22.6653V18.1597Z" fill="#FCCB25"/>
<path d="M22.6653 19.4878H24V18.1569H22.6653V19.4878Z" fill="#FCCB25"/>
<path d="M22.6653 20.816H24V19.4851H22.6653V20.816Z" fill="#FCCB25"/>
<path d="M21.3333 22.1501H22.668V20.8192H21.3333V22.1501Z" fill="#FCCB25"/>
<path d="M21.3333 23.4783H22.668V22.1474H21.3333V23.4783Z" fill="#FCCB25"/>
<path d="M20.0017 24.8065H21.3364V23.4756H20.0017V24.8065Z" fill="#FCCB25"/>
<path d="M18.6634 26.1346H19.998V24.8037H18.6634V26.1346Z" fill="#FCCB25"/>
<path d="M17.3318 27.4629H18.6665V26.132H17.3318V27.4629Z" fill="#FCCB25"/>
<path d="M15.9998 28.797H17.3345V27.4661H15.9998V28.797Z" fill="#FCCB25"/>
<path d="M9.33737 28.795H8.00269V30.126H9.33737V28.795Z" fill="#FFEC8A"/>
<path d="M10.666 28.795H9.3313V30.126H10.666V28.795Z" fill="#FFEC8A"/>
<path d="M12.0007 28.795H10.666V30.126H12.0007V28.795Z" fill="#FCCB25"/>
<path d="M13.3354 28.795H12.0007V30.126H13.3354V28.795Z" fill="#FCCB25"/>
<path d="M14.6701 28.795H13.3354V30.126H14.6701V28.795Z" fill="#FCCB25"/>
<path d="M13.3354 0.874023H12.0007V2.20494H13.3354V0.874023Z" fill="#FCCB25"/>
<path d="M14.6701 0.874023H13.3354V2.20494H14.6701V0.874023Z" fill="#FCCB25"/>
<path d="M15.9987 28.795H14.6641V30.126H15.9987V28.795Z" fill="#FCCB25"/>
<path d="M15.9987 0.874023H14.6641V2.20494H15.9987V0.874023Z" fill="#FCCB25"/>
<path d="M12.0007 2.20496H10.666V3.53588H12.0007V2.20496Z" fill="#FBA71A"/>
<path d="M10.666 2.20496H9.3313V3.53588H10.666V2.20496Z" fill="#FBA71A"/>
<path d="M9.33737 2.20496H8.00269V3.53588H9.33737V2.20496Z" fill="#FFCA45"/>
<path d="M13.3354 2.20496H12.0007V3.53588H13.3354V2.20496Z" fill="#FBA71A"/>
<path d="M14.6701 2.20496H13.3354V3.53588H14.6701V2.20496Z" fill="#FBA71A"/>
<path d="M15.9987 2.20496H14.6641V3.53588H15.9987V2.20496Z" fill="#FBA71A"/>
<path d="M12.0007 3.53601H10.666V4.86693H12.0007V3.53601Z" fill="#FBA71A"/>
<path d="M10.666 3.53601H9.3313V4.86693H10.666V3.53601Z" fill="#FBA71A"/>
<path d="M9.33737 3.53601H8.00269V4.86693H9.33737V3.53601Z" fill="#FBA71A"/>
<path d="M13.3354 3.53601H12.0007V4.86693H13.3354V3.53601Z" fill="#FBA71A"/>
<path d="M14.6701 3.53601H13.3354V4.86693H14.6701V3.53601Z" fill="#FBA71A"/>
<path d="M15.9987 3.53601H14.6641V4.86693H15.9987V3.53601Z" fill="#FBA71A"/>
<path d="M12.0007 4.86108H10.666V6.192H12.0007V4.86108Z" fill="#D86100"/>
<path d="M10.666 4.86108H9.3313V6.192H10.666V4.86108Z" fill="#FBA71A"/>
<path d="M9.33737 4.86108H8.00269V6.192H9.33737V4.86108Z" fill="#FBA71A"/>
<path d="M13.3354 4.86108H12.0007V6.192H13.3354V4.86108Z" fill="#D86100"/>
<path d="M14.6701 4.86108H13.3354V6.192H14.6701V4.86108Z" fill="#D86100"/>
<path d="M15.9987 4.86108H14.6641V6.192H15.9987V4.86108Z" fill="#FBA71A"/>
<path d="M12.0007 6.19202H10.666V7.52294H12.0007V6.19202Z" fill="#FCCB25"/>
<path d="M10.666 6.19202H9.3313V7.52294H10.666V6.19202Z" fill="#D86100"/>
<path d="M9.33737 6.19202H8.00269V7.52294H9.33737V6.19202Z" fill="#FBA71A"/>
<path d="M13.3354 6.19202H12.0007V7.52294H13.3354V6.19202Z" fill="#FCCB25"/>
<path d="M14.6701 6.19202H13.3354V7.52294H14.6701V6.19202Z" fill="#FCCB25"/>
<path d="M15.9987 6.19202H14.6641V7.52294H15.9987V6.19202Z" fill="#D86100"/>
<path d="M12.0007 7.52307H10.666V8.85399H12.0007V7.52307Z" fill="#FCCB25"/>
<path d="M10.666 7.52307H9.3313V8.85399H10.666V7.52307Z" fill="#FCCB25"/>
<path d="M9.33737 7.52307H8.00269V8.85399H9.33737V7.52307Z" fill="#D86100"/>
<path d="M13.3354 7.52307H12.0007V8.85399H13.3354V7.52307Z" fill="#FCCB25"/>
<path d="M14.6701 7.52307H13.3354V8.85399H14.6701V7.52307Z" fill="#FCCB25"/>
<path d="M15.9987 7.52307H14.6641V8.85399H15.9987V7.52307Z" fill="#FCCB25"/>
<path d="M12.0007 8.854H10.666V10.1849H12.0007V8.854Z" fill="#FCCB25"/>
<path d="M10.666 8.854H9.3313V10.1849H10.666V8.854Z" fill="#FCCB25"/>
<path d="M9.33737 8.854H8.00269V10.1849H9.33737V8.854Z" fill="#FCCB25"/>
<path d="M13.3354 8.854H12.0007V10.1849H13.3354V8.854Z" fill="#FCCB25"/>
<path d="M14.6701 8.854H13.3354V10.1849H14.6701V8.854Z" fill="#FCCB25"/>
<path d="M15.9987 8.854H14.6641V10.1849H15.9987V8.854Z" fill="#FCCB25"/>
<path d="M12.0007 10.179H10.666V11.5099H12.0007V10.179Z" fill="#FCCB25"/>
<path d="M10.666 10.179H9.3313V11.5099H10.666V10.179Z" fill="#FCCB25"/>
<path d="M9.33737 10.179H8.00269V11.5099H9.33737V10.179Z" fill="#FCCB25"/>
<path d="M13.3354 10.179H12.0007V11.5099H13.3354V10.179Z" fill="#FCCB25"/>
<path d="M14.6701 10.179H13.3354V11.5099H14.6701V10.179Z" fill="#FCCB25"/>
<path d="M15.9987 10.179H14.6641V11.5099H15.9987V10.179Z" fill="#FCCB25"/>
<path d="M12.0007 11.51H10.666V12.8409H12.0007V11.51Z" fill="#FCCB25"/>
<path d="M10.666 11.51H9.3313V12.8409H10.666V11.51Z" fill="#FCCB25"/>
<path d="M9.33737 11.51H8.00269V12.8409H9.33737V11.51Z" fill="#FCCB25"/>
<path d="M13.3354 11.51H12.0007V12.8409H13.3354V11.51Z" fill="#FCCB25"/>
<path d="M14.6701 11.51H13.3354V12.8409H14.6701V11.51Z" fill="#FCCB25"/>
<path d="M15.9987 11.51H14.6641V12.8409H15.9987V11.51Z" fill="#FBA71A"/>
<path d="M12.0007 12.8411H10.666V14.172H12.0007V12.8411Z" fill="#FCCB25"/>
<path d="M10.666 12.8411H9.3313V14.172H10.666V12.8411Z" fill="#FCCB25"/>
<path d="M9.33737 12.8411H8.00269V14.172H9.33737V12.8411Z" fill="#FCCB25"/>
<path d="M13.3354 12.8411H12.0007V14.172H13.3354V12.8411Z" fill="#FCCB25"/>
<path d="M14.6701 12.8411H13.3354V14.172H14.6701V12.8411Z" fill="#FBA71A"/>
<path d="M15.9987 12.8411H14.6641V14.172H15.9987V12.8411Z" fill="#FBA71A"/>
<path d="M12.0007 14.1721H10.666V15.503H12.0007V14.1721Z" fill="#FCCB25"/>
<path d="M10.666 14.1721H9.3313V15.503H10.666V14.1721Z" fill="#FCCB25"/>
<path d="M9.33737 14.1721H8.00269V15.503H9.33737V14.1721Z" fill="#FCCB25"/>
<path d="M13.3354 14.1721H12.0007V15.503H13.3354V14.1721Z" fill="#FBA71A"/>
<path d="M14.6701 14.1721H13.3354V15.503H14.6701V14.1721Z" fill="#FBA71A"/>
<path d="M15.9987 14.1721H14.6641V15.503H15.9987V14.1721Z" fill="#FBA71A"/>
<path d="M12.0007 15.4969H10.666V16.8279H12.0007V15.4969Z" fill="#FBA71A"/>
<path d="M10.666 15.4969H9.3313V16.8279H10.666V15.4969Z" fill="#FCCB25"/>
<path d="M9.33737 15.4969H8.00269V16.8279H9.33737V15.4969Z" fill="#FCCB25"/>
<path d="M13.3354 15.4969H12.0007V16.8279H13.3354V15.4969Z" fill="#FBA71A"/>
<path d="M14.6701 15.4969H13.3354V16.8279H14.6701V15.4969Z" fill="#FBA71A"/>
<path d="M15.9987 15.4969H14.6641V16.8279H15.9987V15.4969Z" fill="#FBA71A"/>
<path d="M12.0007 16.828H10.666V18.1589H12.0007V16.828Z" fill="#FBA71A"/>
<path d="M10.666 16.828H9.3313V18.1589H10.666V16.828Z" fill="#FBA71A"/>
<path d="M9.33737 16.828H8.00269V18.1589H9.33737V16.828Z" fill="#FCCB25"/>
<path d="M13.3354 16.828H12.0007V18.1589H13.3354V16.828Z" fill="#FBA71A"/>
<path d="M14.6701 16.828H13.3354V18.1589H14.6701V16.828Z" fill="#FBA71A"/>
<path d="M15.9987 16.828H14.6641V18.1589H15.9987V16.828Z" fill="#FFCA45"/>
<path d="M12.0007 18.1591H10.666V19.49H12.0007V18.1591Z" fill="#FBA71A"/>
<path d="M10.666 18.1591H9.3313V19.49H10.666V18.1591Z" fill="#FBA71A"/>
<path d="M9.33737 18.1591H8.00269V19.49H9.33737V18.1591Z" fill="#FBA71A"/>
<path d="M13.3354 18.1591H12.0007V19.49H13.3354V18.1591Z" fill="#FBA71A"/>
<path d="M14.6701 18.1591H13.3354V19.49H14.6701V18.1591Z" fill="#FFCA45"/>
<path d="M15.9987 18.1591H14.6641V19.49H15.9987V18.1591Z" fill="#FFCA45"/>
<path d="M12.0007 19.49H10.666V20.8209H12.0007V19.49Z" fill="#FBA71A"/>
<path d="M10.666 19.49H9.3313V20.8209H10.666V19.49Z" fill="#FBA71A"/>
<path d="M9.33737 19.49H8.00269V20.8209H9.33737V19.49Z" fill="#FBA71A"/>
<path d="M13.3354 19.49H12.0007V20.8209H13.3354V19.49Z" fill="#FFCA45"/>
<path d="M14.6701 19.49H13.3354V20.8209H14.6701V19.49Z" fill="#FFCA45"/>
<path d="M15.9987 19.49H14.6641V20.8209H15.9987V19.49Z" fill="#FFCA45"/>
<path d="M12.0007 20.8149H10.666V22.1459H12.0007V20.8149Z" fill="#FFCA45"/>
<path d="M10.666 20.8149H9.3313V22.1459H10.666V20.8149Z" fill="#FBA71A"/>
<path d="M9.33737 20.8149H8.00269V22.1459H9.33737V20.8149Z" fill="#FCCB25"/>
<path d="M13.3354 20.8149H12.0007V22.1459H13.3354V20.8149Z" fill="#FFCA45"/>
<path d="M14.6701 20.8149H13.3354V22.1459H14.6701V20.8149Z" fill="#FFCA45"/>
<path d="M15.9987 20.8149H14.6641V22.1459H15.9987V20.8149Z" fill="#FFCA45"/>
<path d="M12.0007 22.146H10.666V23.4769H12.0007V22.146Z" fill="#FFCA45"/>
<path d="M10.666 22.146H9.3313V23.4769H10.666V22.146Z" fill="#FBA71A"/>
<path d="M9.33737 22.146H8.00269V23.4769H9.33737V22.146Z" fill="#D86100"/>
<path d="M13.3354 22.146H12.0007V23.4769H13.3354V22.146Z" fill="#FFCA45"/>
<path d="M14.6701 22.146H13.3354V23.4769H14.6701V22.146Z" fill="#FFCA45"/>
<path d="M15.9987 22.146H14.6641V23.4769H15.9987V22.146Z" fill="#FFEC8A"/>
<path d="M12.0007 23.4771H10.666V24.808H12.0007V23.4771Z" fill="#FFEC8A"/>
<path d="M10.666 23.4771H9.3313V24.808H10.666V23.4771Z" fill="#D86100"/>
<path d="M9.33737 23.4771H8.00269V24.808H9.33737V23.4771Z" fill="#FBA71A"/>
<path d="M13.3354 23.4771H12.0007V24.808H13.3354V23.4771Z" fill="#FFEC8A"/>
<path d="M14.6701 23.4771H13.3354V24.808H14.6701V23.4771Z" fill="#FFEC8A"/>
<path d="M15.9987 23.4771H14.6641V24.808H15.9987V23.4771Z" fill="#D86100"/>
<path d="M12.0007 24.8081H10.666V26.139H12.0007V24.8081Z" fill="#D86100"/>
<path d="M10.666 24.8081H9.3313V26.139H10.666V24.8081Z" fill="#FBA71A"/>
<path d="M9.33737 24.8081H8.00269V26.139H9.33737V24.8081Z" fill="#FBA71A"/>
<path d="M13.3354 24.8081H12.0007V26.139H13.3354V24.8081Z" fill="#D86100"/>
<path d="M14.6701 24.8081H13.3354V26.139H14.6701V24.8081Z" fill="#D86100"/>
<path d="M15.9987 24.8081H14.6641V26.139H15.9987V24.8081Z" fill="#FBA71A"/>
<path d="M12.0007 26.1389H10.666V27.4698H12.0007V26.1389Z" fill="#FBA71A"/>
<path d="M10.666 26.1389H9.3313V27.4698H10.666V26.1389Z" fill="#FBA71A"/>
<path d="M9.33737 26.1389H8.00269V27.4698H9.33737V26.1389Z" fill="#FBA71A"/>
<path d="M8.00265 3.53601H6.66797V4.86693H8.00265V3.53601Z" fill="#FFF2BD"/>
<path d="M8.00265 4.86108H6.66797V6.192H8.00265V4.86108Z" fill="#FBA71A"/>
<path d="M8.00265 6.19202H6.66797V7.52294H8.00265V6.19202Z" fill="#FBA71A"/>
<path d="M8.00265 7.52307H6.66797V8.85399H8.00265V7.52307Z" fill="#FBA71A"/>
<path d="M8.00265 8.854H6.66797V10.1849H8.00265V8.854Z" fill="#D86100"/>
<path d="M8.00265 10.179H6.66797V11.5099H8.00265V10.179Z" fill="#FCCB25"/>
<path d="M8.00265 11.51H6.66797V12.8409H8.00265V11.51Z" fill="#FCCB25"/>
<path d="M8.00265 12.8411H6.66797V14.172H8.00265V12.8411Z" fill="#FCCB25"/>
<path d="M8.00265 14.1721H6.66797V15.503H8.00265V14.1721Z" fill="#FCCB25"/>
<path d="M8.00265 15.4969H6.66797V16.8279H8.00265V15.4969Z" fill="#FCCB25"/>
<path d="M8.00265 16.828H6.66797V18.1589H8.00265V16.828Z" fill="#FCCB25"/>
<path d="M8.00265 18.1591H6.66797V19.49H8.00265V18.1591Z" fill="#FCCB25"/>
<path d="M8.00265 19.49H6.66797V20.8209H8.00265V19.49Z" fill="#FCCB25"/>
<path d="M8.00265 20.8149H6.66797V22.1459H8.00265V20.8149Z" fill="#D86100"/>
<path d="M8.00265 22.146H6.66797V23.4769H8.00265V22.146Z" fill="#FBA71A"/>
<path d="M8.00265 23.4771H6.66797V24.808H8.00265V23.4771Z" fill="#FBA71A"/>
<path d="M8.00265 24.8081H6.66797V26.139H8.00265V24.8081Z" fill="#FBA71A"/>
<path d="M6.66745 4.86108H5.33276V6.192H6.66745V4.86108Z" fill="#FCCB25"/>
<path d="M6.66745 6.19202H5.33276V7.52294H6.66745V6.19202Z" fill="#FBA71A"/>
<path d="M6.66745 7.52307H5.33276V8.85399H6.66745V7.52307Z" fill="#FBA71A"/>
<path d="M6.66745 8.854H5.33276V10.1849H6.66745V8.854Z" fill="#FBA71A"/>
<path d="M6.66745 10.179H5.33276V11.5099H6.66745V10.179Z" fill="#D86100"/>
<path d="M6.66745 11.51H5.33276V12.8409H6.66745V11.51Z" fill="#D86100"/>
<path d="M6.66745 12.8411H5.33276V14.172H6.66745V12.8411Z" fill="#D86100"/>
<path d="M6.66745 14.1721H5.33276V15.503H6.66745V14.1721Z" fill="#D86100"/>
<path d="M6.66745 15.4969H5.33276V16.8279H6.66745V15.4969Z" fill="#D86100"/>
<path d="M6.66745 16.828H5.33276V18.1589H6.66745V16.828Z" fill="#D86100"/>
<path d="M6.66745 18.1591H5.33276V19.49H6.66745V18.1591Z" fill="#D86100"/>
<path d="M6.66745 19.49H5.33276V20.8209H6.66745V19.49Z" fill="#D86100"/>
<path d="M6.66745 20.8149H5.33276V22.1459H6.66745V20.8149Z" fill="#FBA71A"/>
<path d="M6.66745 22.146H5.33276V23.4769H6.66745V22.146Z" fill="#FBA71A"/>
<path d="M6.66745 23.4771H5.33276V24.808H6.66745V23.4771Z" fill="#FBA71A"/>
<path d="M5.33273 6.19202H3.99805V7.52294H5.33273V6.19202Z" fill="#FFCA45"/>
<path d="M5.33273 7.52307H3.99805V8.85399H5.33273V7.52307Z" fill="#FBA71A"/>
<path d="M5.33273 8.854H3.99805V10.1849H5.33273V8.854Z" fill="#FBA71A"/>
<path d="M5.33273 10.179H3.99805V11.5099H5.33273V10.179Z" fill="#FBA71A"/>
<path d="M5.33273 11.51H3.99805V12.8409H5.33273V11.51Z" fill="#FBA71A"/>
<path d="M5.33273 12.8411H3.99805V14.172H5.33273V12.8411Z" fill="#FBA71A"/>
<path d="M5.33273 14.1721H3.99805V15.503H5.33273V14.1721Z" fill="#FBA71A"/>
<path d="M5.33273 15.4969H3.99805V16.8279H5.33273V15.4969Z" fill="#FBA71A"/>
<path d="M5.33273 16.828H3.99805V18.1589H5.33273V16.828Z" fill="#FBA71A"/>
<path d="M5.33273 18.1591H3.99805V19.49H5.33273V18.1591Z" fill="#FBA71A"/>
<path d="M5.33273 19.49H3.99805V20.8209H5.33273V19.49Z" fill="#FBA71A"/>
<path d="M5.33273 20.8149H3.99805V22.1459H5.33273V20.8149Z" fill="#FBA71A"/>
<path d="M5.33273 22.146H3.99805V23.4769H5.33273V22.146Z" fill="#FBA71A"/>
<path d="M4.00412 7.52307H2.66943V8.85399H4.00412V7.52307Z" fill="#FFCA45"/>
<path d="M4.00412 8.854H2.66943V10.1849H4.00412V8.854Z" fill="#FFCA45"/>
<path d="M4.00412 10.179H2.66943V11.5099H4.00412V10.179Z" fill="#FBA71A"/>
<path d="M4.00412 11.51H2.66943V12.8409H4.00412V11.51Z" fill="#FBA71A"/>
<path d="M4.00412 12.8411H2.66943V14.172H4.00412V12.8411Z" fill="#FBA71A"/>
<path d="M4.00412 14.1721H2.66943V15.503H4.00412V14.1721Z" fill="#FBA71A"/>
<path d="M4.00412 15.4969H2.66943V16.8279H4.00412V15.4969Z" fill="#FBA71A"/>
<path d="M4.00412 16.828H2.66943V18.1589H4.00412V16.828Z" fill="#FBA71A"/>
<path d="M4.00412 18.1591H2.66943V19.49H4.00412V18.1591Z" fill="#FBA71A"/>
<path d="M4.00412 19.49H2.66943V20.8209H4.00412V19.49Z" fill="#FBA71A"/>
<path d="M2.6694 10.179H1.33472V11.5099H2.6694V10.179Z" fill="#FFEC8A"/>
<path d="M2.6694 11.51H1.33472V12.8409H2.6694V11.51Z" fill="#FFEC8A"/>
<path d="M2.6694 12.8411H1.33472V14.172H2.6694V12.8411Z" fill="#FFEC8A"/>
<path d="M2.6694 14.1721H1.33472V15.503H2.6694V14.1721Z" fill="#FFEC8A"/>
<path d="M2.6694 15.4969H1.33472V16.8279H2.6694V15.4969Z" fill="#FFEC8A"/>
<path d="M2.6694 16.828H1.33472V18.1589H2.6694V16.828Z" fill="#FFEC8A"/>
<path d="M2.6694 18.1591H1.33472V19.49H2.6694V18.1591Z" fill="#FFEC8A"/>
<path d="M2.6694 19.49H1.33472V20.8209H2.6694V19.49Z" fill="#FFEC8A"/>
<path d="M4.00412 20.8149H2.66943V22.1459H4.00412V20.8149Z" fill="#FFCA45"/>
<path d="M4.00412 22.146H2.66943V23.4769H4.00412V22.146Z" fill="#FFCA45"/>
<path d="M5.33273 23.4771H3.99805V24.808H5.33273V23.4771Z" fill="#FFCA45"/>
<path d="M6.66745 24.8081H5.33276V26.139H6.66745V24.8081Z" fill="#FCCB25"/>
<path d="M8.00265 26.1389H6.66797V27.4698H8.00265V26.1389Z" fill="#D86100"/>
<path d="M13.3354 26.1389H12.0007V27.4698H13.3354V26.1389Z" fill="#FBA71A"/>
<path d="M14.6701 26.1389H13.3354V27.4698H14.6701V26.1389Z" fill="#FBA71A"/>
<path d="M15.9987 26.1389H14.6641V27.4698H15.9987V26.1389Z" fill="#FBA71A"/>
<path d="M17.3339 3.53601H15.9993V4.86693H17.3339V3.53601Z" fill="#FBA71A"/>
<path d="M17.3339 4.86108H15.9993V6.192H17.3339V4.86108Z" fill="#FBA71A"/>
<path d="M17.3339 6.19202H15.9993V7.52294H17.3339V6.19202Z" fill="#FBA71A"/>
<path d="M17.3339 7.52307H15.9993V8.85399H17.3339V7.52307Z" fill="#D86100"/>
<path d="M17.3339 8.854H15.9993V10.1849H17.3339V8.854Z" fill="#FCCB25"/>
<path d="M17.3339 10.179H15.9993V11.5099H17.3339V10.179Z" fill="#FBA71A"/>
<path d="M17.3339 11.51H15.9993V12.8409H17.3339V11.51Z" fill="#FBA71A"/>
<path d="M17.3339 12.8411H15.9993V14.172H17.3339V12.8411Z" fill="#FBA71A"/>
<path d="M17.3339 14.1721H15.9993V15.503H17.3339V14.1721Z" fill="#FBA71A"/>
<path d="M17.3339 15.4969H15.9993V16.8279H17.3339V15.4969Z" fill="#FFCA45"/>
<path d="M17.3339 16.828H15.9993V18.1589H17.3339V16.828Z" fill="#FFCA45"/>
<path d="M17.3339 18.1591H15.9993V19.49H17.3339V18.1591Z" fill="#FFCA45"/>
<path d="M17.3339 19.49H15.9993V20.8209H17.3339V19.49Z" fill="#FFCA45"/>
<path d="M17.3339 20.8149H15.9993V22.1459H17.3339V20.8149Z" fill="#FFEC8A"/>
<path d="M17.3339 22.146H15.9993V23.4769H17.3339V22.146Z" fill="#D86100"/>
<path d="M17.3339 23.4771H15.9993V24.808H17.3339V23.4771Z" fill="#FBA71A"/>
<path d="M17.3339 24.8081H15.9993V26.139H17.3339V24.8081Z" fill="#FBA71A"/>
<path d="M18.6682 4.86108H17.3335V6.192H18.6682V4.86108Z" fill="#FBA71A"/>
<path d="M18.6682 6.19202H17.3335V7.52294H18.6682V6.19202Z" fill="#FBA71A"/>
<path d="M18.6682 7.52307H17.3335V8.85399H18.6682V7.52307Z" fill="#FBA71A"/>
<path d="M18.6682 8.854H17.3335V10.1849H18.6682V8.854Z" fill="#D86100"/>
<path d="M18.6682 10.179H17.3335V11.5099H18.6682V10.179Z" fill="#FFEC8A"/>
<path d="M18.6682 11.51H17.3335V12.8409H18.6682V11.51Z" fill="#FFEC8A"/>
<path d="M18.6682 12.8411H17.3335V14.172H18.6682V12.8411Z" fill="#FFEC8A"/>
<path d="M18.6682 14.1721H17.3335V15.503H18.6682V14.1721Z" fill="#FFEC8A"/>
<path d="M18.6682 15.4969H17.3335V16.8279H18.6682V15.4969Z" fill="#FFEC8A"/>
<path d="M18.6682 16.828H17.3335V18.1589H18.6682V16.828Z" fill="#FFEC8A"/>
<path d="M18.6682 18.1591H17.3335V19.49H18.6682V18.1591Z" fill="#FFEC8A"/>
<path d="M18.6682 19.49H17.3335V20.8209H18.6682V19.49Z" fill="#FFEC8A"/>
<path d="M18.6682 20.8149H17.3335V22.1459H18.6682V20.8149Z" fill="#D86100"/>
<path d="M18.6682 22.146H17.3335V23.4769H18.6682V22.146Z" fill="#FBA71A"/>
<path d="M18.6682 23.4771H17.3335V24.808H18.6682V23.4771Z" fill="#FBA71A"/>
<path d="M20.0034 6.19202H18.6687V7.52294H20.0034V6.19202Z" fill="#FBA71A"/>
<path d="M20.0034 7.52307H18.6687V8.85399H20.0034V7.52307Z" fill="#FBA71A"/>
<path d="M20.0034 8.854H18.6687V10.1849H20.0034V8.854Z" fill="#FBA71A"/>
<path d="M20.0034 10.179H18.6687V11.5099H20.0034V10.179Z" fill="#D86100"/>
<path d="M20.0034 11.51H18.6687V12.8409H20.0034V11.51Z" fill="#D86100"/>
<path d="M20.0034 12.8411H18.6687V14.172H20.0034V12.8411Z" fill="#D86100"/>
<path d="M20.0034 14.1721H18.6687V15.503H20.0034V14.1721Z" fill="#D86100"/>
<path d="M20.0034 15.4969H18.6687V16.8279H20.0034V15.4969Z" fill="#D86100"/>
<path d="M20.0034 16.828H18.6687V18.1589H20.0034V16.828Z" fill="#D86100"/>
<path d="M20.0034 18.1591H18.6687V19.49H20.0034V18.1591Z" fill="#D86100"/>
<path d="M20.0034 19.49H18.6687V20.8209H20.0034V19.49Z" fill="#D86100"/>
<path d="M20.0034 20.8149H18.6687V22.1459H20.0034V20.8149Z" fill="#FBA71A"/>
<path d="M20.0034 22.146H18.6687V23.4769H20.0034V22.146Z" fill="#FBA71A"/>
<path d="M21.332 7.52307H19.9973V8.85399H21.332V7.52307Z" fill="#FBA71A"/>
<path d="M21.332 8.854H19.9973V10.1849H21.332V8.854Z" fill="#FBA71A"/>
<path d="M21.332 10.179H19.9973V11.5099H21.332V10.179Z" fill="#FBA71A"/>
<path d="M21.332 11.51H19.9973V12.8409H21.332V11.51Z" fill="#FBA71A"/>
<path d="M21.332 12.8411H19.9973V14.172H21.332V12.8411Z" fill="#FBA71A"/>
<path d="M21.332 14.1721H19.9973V15.503H21.332V14.1721Z" fill="#FBA71A"/>
<path d="M21.332 15.4969H19.9973V16.8279H21.332V15.4969Z" fill="#FBA71A"/>
<path d="M21.332 16.828H19.9973V18.1589H21.332V16.828Z" fill="#FBA71A"/>
<path d="M21.332 18.1591H19.9973V19.49H21.332V18.1591Z" fill="#FBA71A"/>
<path d="M21.332 19.49H19.9973V20.8209H21.332V19.49Z" fill="#FBA71A"/>
<path d="M22.6667 10.179H21.332V11.5099H22.6667V10.179Z" fill="#FBA71A"/>
<path d="M22.6667 11.51H21.332V12.8409H22.6667V11.51Z" fill="#FBA71A"/>
<path d="M22.6667 12.8411H21.332V14.172H22.6667V12.8411Z" fill="#FBA71A"/>
<path d="M22.6667 14.1721H21.332V15.503H22.6667V14.1721Z" fill="#FBA71A"/>
<path d="M22.6667 15.4969H21.332V16.8279H22.6667V15.4969Z" fill="#FBA71A"/>
<path d="M22.6667 16.828H21.332V18.1589H22.6667V16.828Z" fill="#FBA71A"/>
<path d="M22.6667 18.1591H21.332V19.49H22.6667V18.1591Z" fill="#FBA71A"/>
<path d="M22.6667 19.49H21.332V20.8209H22.6667V19.49Z" fill="#FBA71A"/>
<path d="M21.332 20.8149H19.9973V22.1459H21.332V20.8149Z" fill="#FBA71A"/>
<path d="M21.332 22.146H19.9973V23.4769H21.332V22.146Z" fill="#FBA71A"/>
<path d="M20.0034 23.4771H18.6687V24.808H20.0034V23.4771Z" fill="#FBA71A"/>
<path d="M18.6682 24.8081H17.3335V26.139H18.6682V24.8081Z" fill="#FBA71A"/>
<path d="M17.3339 26.1389H15.9993V27.4698H17.3339V26.1389Z" fill="#FBA71A"/>
<path d="M12.0007 27.464H10.666V28.7949H12.0007V27.464Z" fill="#FBA71A"/>
<path d="M10.666 27.464H9.3313V28.7949H10.666V27.464Z" fill="#FBA71A"/>
<path d="M9.33737 27.464H8.00269V28.7949H9.33737V27.464Z" fill="#FFCA45"/>
<path d="M13.3354 27.464H12.0007V28.7949H13.3354V27.464Z" fill="#FBA71A"/>
<path d="M14.6701 27.464H13.3354V28.7949H14.6701V27.464Z" fill="#FBA71A"/>
<path d="M15.9987 27.464H14.6641V28.7949H15.9987V27.464Z" fill="#FBA71A"/>
</svg>
