<svg width="100" height="104" viewBox="0 0 100 104" fill="none" xmlns="http://www.w3.org/2000/svg">
<path d="M0.013101 4.33129C-0.0202234 4.21897 0.00877849 4.12378 0.11446 4.08051C0.198774 4.04595 0.295048 4.02628 0.386304 4.02535C0.878996 4.02018 1.37176 4.02288 1.86453 4.02288C2.01025 3.9027 2.16923 3.80381 2.34102 3.72405C3.08558 3.50219 3.85212 3.6044 4.61063 3.5666C5.58707 3.48985 6.56397 3.52765 7.53994 3.52757C35.6539 3.52487 63.7679 3.52549 91.8819 3.52487C92.4986 3.52487 93.1152 3.51793 93.7319 3.50952C94.5631 3.49818 95.1165 3.18353 95.1985 2.2884C95.2301 1.50419 95.0818 0.682962 95.6665 0.0134659C95.7806 -0.0208614 95.8772 0.00922355 95.9203 0.117759C95.9544 0.203847 95.9716 0.301892 95.9726 0.394922C95.9778 0.84133 95.975 1.28782 95.975 1.69411C96.0585 1.83188 96.141 1.86235 96.245 1.86621C96.7377 1.88442 97.2349 1.80766 97.7222 1.91998C97.8326 1.94543 97.8606 2.05829 97.7996 2.20748C97.5202 2.67687 96.414 2.3815 96.5476 3.43346C97.6425 3.60949 97.285 2.44183 97.7996 2.20748C97.9405 2.13813 98.0371 2.16821 98.0802 2.27675C98.1143 2.36284 98.1315 2.46088 98.1326 2.55391C98.1377 3.00024 98.1349 3.44665 98.1349 3.8531C98.2184 3.99087 98.3009 4.02134 98.4049 4.0252C98.8976 4.0434 99.3949 3.96665 99.8822 4.07897C99.9925 4.10442 100.021 4.21728 99.9862 4.33144C99.4201 4.82244 98.7325 4.76227 98.0599 4.75996C97.5402 4.79128 96.9704 4.61246 96.5256 5.07276C96.6214 6.07311 97.9052 5.64999 98.1091 6.46806C98.3221 7.86838 98.5864 9.26855 97.8551 10.6078C97.2782 10.9794 96.694 10.932 96.1898 10.6996C95.6057 10.2849 95.5707 9.66011 95.2433 9.17359C94.8576 8.77369 94.2169 8.76675 93.803 8.36262C93.4306 7.98787 93.3679 7.43794 93.0512 6.80948C64.374 6.67125 35.6968 6.67302 7.01817 6.67233C6.5821 8.5358 4.9104 9.09521 4.16253 10.4588C3.81054 11.1005 2.90029 11.0133 2.19631 10.6365C1.37184 9.30719 1.69143 7.89091 1.88043 6.4875C2.14702 5.55766 3.44412 6.11692 3.78307 5.17397C3.29239 4.51797 2.58486 4.83471 1.97754 4.75949C1.28652 4.77438 0.589721 4.82576 0.013101 4.33129Z" fill="#D9A749"/>
<path d="M97.8264 4.33105C98.5463 4.33105 99.2663 4.33105 99.9863 4.33105C99.9863 36.1207 99.9863 67.9103 99.9844 99.7C99.9844 99.7449 99.9552 99.7899 99.9438 99.823C99.9007 99.8683 99.8658 99.9374 99.8302 99.9378C99.1623 99.9442 98.4943 99.9425 97.8264 99.9425C97.7661 99.8783 97.7056 99.8141 97.6442 99.7505C97.321 99.0834 97.43 98.3665 97.4012 97.6645C97.3596 96.9406 97.3836 96.2169 97.3864 95.4923C97.3284 94.1529 97.3489 92.8144 97.3735 91.4748C97.2676 81.3852 97.3477 71.2965 97.3313 61.2079C97.3264 58.1868 97.2718 55.1651 97.3669 52.1442C97.2714 42.3343 97.3488 32.5243 97.3261 22.7144C97.3184 19.3758 97.3165 16.0372 97.331 12.6986C97.3343 11.9348 97.2611 11.1421 97.8264 10.4996C97.8264 9.06034 97.8264 7.62099 97.8264 6.18172C97.3446 5.56475 97.3449 4.94794 97.8264 4.33105Z" fill="#020201"/>
<path d="M0.013192 4.33105C0.733138 4.33105 1.45316 4.33105 2.17311 4.33105C2.65461 4.94794 2.65477 5.56475 2.17311 6.18164C2.17311 7.62099 2.17311 9.06027 2.17311 10.4995C2.6641 11.044 2.6658 11.7218 2.66565 12.389C2.66225 25.5279 2.71185 38.6669 2.64675 51.8058C2.67074 65.0183 2.72211 78.2311 2.62708 91.4426C2.64952 92.7832 2.6729 94.125 2.61489 95.4653C2.62091 96.1923 2.64119 96.9204 2.60154 97.6476C2.57685 98.3543 2.68408 99.0774 2.35878 99.75C2.29761 99.8145 2.23536 99.8785 2.17311 99.9425C1.50515 99.9425 0.837273 99.9425 0.169242 99.9425C0.117173 99.8618 0.0228301 99.7822 0.0202073 99.6999C0.00562788 99.2381 0.013192 98.7757 0.013192 98.3134C0.013192 66.9859 0.013192 35.6585 0.013192 4.33105Z" fill="#020202"/>
<path d="M4.33287 103.952C4.2187 103.987 4.12212 103.957 4.07908 103.848C4.0449 103.762 4.02778 103.664 4.02663 103.571C4.02146 103.125 4.02431 102.678 4.02431 102.272C3.94077 102.134 3.85838 102.104 3.75432 102.1C3.26155 102.081 2.76438 102.158 2.27702 102.046C2.16671 102.02 2.13863 101.908 2.17295 101.794C2.56822 101.35 3.22591 101.497 3.57065 101.226C4.02539 100.768 3.95095 100.175 4.33664 99.81C4.49123 99.7023 4.65531 99.6281 4.83582 99.5777C5.65088 99.3968 6.4752 99.4468 7.29511 99.4467C35.8948 99.4436 64.4944 99.4437 93.0941 99.4463C93.8631 99.4464 94.6354 99.4058 95.3937 99.5509C95.5668 99.5868 95.7334 99.6539 95.8863 99.7429C96.331 100.058 96.2802 100.636 96.6208 101.129C96.8807 101.465 97.4878 101.404 97.8263 101.794C97.8607 101.908 97.8306 102.004 97.722 102.047C97.6359 102.081 97.5377 102.099 97.4446 102.1C96.998 102.105 96.5513 102.102 96.1449 102.102C96.0071 102.185 95.9766 102.268 95.9727 102.372C95.9545 102.864 96.0314 103.361 95.9189 103.848C95.8934 103.959 95.7805 103.987 95.6663 103.952C95.3498 103.617 95.1301 103.204 94.6407 102.598C64.9802 102.598 35.1504 102.598 5.64417 102.598C4.85063 103.06 4.70962 103.607 4.33287 103.952Z" fill="#954E41"/>
<path d="M95.6664 0.0136779C95.6664 0.733315 95.6664 1.45303 95.6664 2.17267C94.8211 2.86469 93.8071 2.6652 92.8499 2.66574C74.4029 2.67732 55.956 2.67415 37.5089 2.67415C27.3862 2.67415 17.2634 2.67747 7.14073 2.66868C6.27484 2.66791 5.38726 2.78485 4.56187 2.3828C4.48504 2.31352 4.40898 2.2431 4.33284 2.17267C4.33284 1.50502 4.33284 0.837454 4.33276 0.169732C4.41353 0.117663 4.49306 0.0233206 4.57545 0.0206979C5.03736 0.00611845 5.49996 0.0136779 5.96242 0.0136779C35.8637 0.0136779 65.7651 0.0136779 95.6664 0.0136779Z" fill="#020403"/>
<path d="M4.33284 103.953C4.33284 103.387 4.33284 102.822 4.33276 102.257C4.41415 102.205 4.49367 102.113 4.57722 102.109C4.93638 102.093 5.2967 102.102 5.65656 102.102C35.2185 102.102 64.7806 102.102 94.3426 102.105C94.7473 102.105 95.1555 102.055 95.5451 102.137C95.5933 102.184 95.6612 102.22 95.6617 102.257C95.6684 102.822 95.6664 103.387 95.6664 103.953C65.2218 103.953 34.7774 103.953 4.33284 103.953Z" fill="black"/>
<path d="M4.33304 4.02336C3.61309 4.02336 2.89307 4.02336 2.17312 4.02336C1.938 3.40655 1.93877 2.78966 2.17312 2.17285C2.89307 2.17285 3.61309 2.17285 4.33304 2.17285C4.81454 2.78966 4.81454 3.40655 4.33304 4.02336Z" fill="#0C0A08"/>
<path d="M4.33301 99.9427C4.33301 100.495 4.33463 101.048 4.32962 101.601C4.32923 101.64 4.27994 101.679 4.2534 101.719C4.21345 101.744 4.17364 101.79 4.13352 101.79C3.48007 101.795 2.82655 101.793 2.1731 101.793C2.1731 101.176 2.1731 100.56 2.1731 99.9427C2.89304 99.42 3.61306 99.3738 4.33301 99.9427Z" fill="#0F0D0D"/>
<path d="M97.8264 101.793C97.2746 101.793 96.7227 101.795 96.1708 101.79C96.1311 101.789 96.0917 101.742 96.0522 101.716C96.0265 101.676 95.9788 101.637 95.9784 101.597C95.9735 101.046 95.9751 100.494 95.9751 99.9424C96.5922 99.4085 97.2093 99.4882 97.8264 99.9424C97.8264 100.559 97.8264 101.176 97.8264 101.793Z" fill="#080909"/>
<path d="M2.17303 2.17285C2.17303 2.78966 2.17303 3.40655 2.17303 4.02336C2.0702 4.02336 1.9673 4.02336 1.86447 4.02336C1.86447 3.48161 1.8637 2.93978 1.86509 2.39802C1.86532 2.27792 1.9592 2.21188 2.17303 2.17285Z" fill="#E0D6A3"/>
<path d="M2.1731 51.8287C2.1731 38.0524 2.1731 24.2762 2.1731 10.4998C2.73807 10.4998 3.30304 10.4998 3.87233 10.4998C4.01419 10.3558 4.15821 10.2096 4.30532 10.0603C4.38917 9.51909 4.26597 8.95882 4.38732 8.39455C4.95468 8.26611 5.51626 8.40534 6.06912 8.30753C6.3118 7.99087 6.14009 7.62323 6.18306 7.28088C6.22633 6.93583 6.09249 6.57428 6.27192 6.24304C6.37305 6.22175 6.46747 6.18441 6.56197 6.18441C35.5808 6.18187 64.5996 6.18194 93.6185 6.18518C93.659 6.18518 93.6994 6.23448 93.7399 6.26078C93.7651 6.30174 93.8117 6.34247 93.812 6.38359C93.8167 6.99538 93.8153 7.60726 93.8153 8.19977C94.1649 8.46868 94.5328 8.2965 94.8753 8.33947C95.2205 8.38274 95.5821 8.24929 95.9153 8.42887C96.0336 8.78009 95.9594 9.13663 95.9728 9.48785C95.9842 9.78977 95.9752 10.0925 95.9752 10.3339C96.0614 10.4254 96.0961 10.4946 96.1317 10.4951C96.6966 10.5019 97.2616 10.4998 97.8265 10.4998C97.8265 24.3789 97.8265 38.258 97.8265 52.1371C95.7957 53.0377 93.7503 52.6052 91.9402 52.4155C91.2967 51.8488 91.238 51.3002 90.9655 50.8695C90.6627 50.424 90.0674 50.3768 89.5148 49.6498C89.2344 49.2304 89.3766 48.387 89.3758 47.5784C89.3658 36.699 89.357 25.8195 89.3877 14.9402C89.3912 13.7211 89.1954 12.7981 87.824 12.5623C87.2137 12.1921 87.3108 11.3911 86.8275 10.9443C86.2892 10.5052 85.6491 10.631 85.0436 10.6308C61.6976 10.6255 38.3516 10.6254 15.0056 10.6316C14.3995 10.6318 13.763 10.5049 13.1073 10.9746C12.6856 11.2431 12.8084 11.9467 12.3705 12.3855C12.0087 12.8155 11.3138 12.6594 10.747 13.0836C10.6231 25.3348 10.6394 37.5858 10.4988 49.8349C10.0582 50.2907 9.5047 50.4002 9.18063 50.6807C8.79987 51.1505 8.74935 51.7027 8.18746 52.3521C6.30826 52.5026 4.18914 53.3517 2.1731 51.8287Z" fill="#E9C95C"/>
<path d="M4.33301 4.02336C4.33301 3.40655 4.33301 2.78966 4.33301 2.17285C34.7775 2.17285 65.222 2.17285 95.6665 2.17285C95.6665 2.73775 95.6665 3.30264 95.6666 3.86761C95.5857 3.91961 95.5062 4.01379 95.4236 4.01634C94.9617 4.03092 94.499 4.02336 94.0367 4.02336C64.1354 4.02336 34.2343 4.02336 4.33301 4.02336Z" fill="#EFE1AE"/>
<path d="M2.1731 6.18172C2.1731 5.56491 2.1731 4.94802 2.1731 4.33113C2.83874 4.33113 3.50429 4.33113 4.17001 4.33105C4.22439 4.4092 4.32345 4.48603 4.32576 4.56571C4.34011 5.07052 4.33309 5.57594 4.33309 6.0316C4.24414 6.11345 4.20735 6.17701 4.16994 6.17732C3.5043 6.18334 2.83874 6.18172 2.1731 6.18172Z" fill="#E0D6A3"/>
<path d="M97.8263 4.33133C97.8263 4.94821 97.8263 5.56502 97.8263 6.18191C97.2634 6.18191 96.7004 6.18191 96.1374 6.18199C96.0832 6.10377 95.9844 6.02678 95.9822 5.94702C95.9678 5.44245 95.9749 4.93726 95.9749 4.48175C96.0635 4.39983 96.1002 4.33626 96.1376 4.3358C96.7004 4.3294 97.2634 4.33133 97.8263 4.33133Z" fill="#E1D9A8"/>
<path d="M97.8265 2.17214C97.8265 2.76835 97.8265 3.36457 97.8265 3.90956C97.697 3.97852 97.6558 4.01948 97.6141 4.01987C97.1113 4.02427 96.6085 4.02272 96.1159 4.02272C95.9412 3.61242 95.9412 3.61242 96.0414 2.26016C96.0799 2.23084 96.1181 2.17638 96.1568 2.176C96.7133 2.17037 97.2699 2.17214 97.8265 2.17214Z" fill="#020000"/>
<path d="M87.6438 12.3507C88.3116 12.3507 88.9795 12.3507 89.6475 12.3506C89.6996 12.4313 89.7941 12.5107 89.7967 12.593C89.8113 13.0546 89.8038 13.517 89.8038 13.9792C89.8038 25.43 89.8038 36.8809 89.8038 48.3318C89.8038 48.8408 89.8038 49.3498 89.8038 49.8335C90.1036 50.0858 90.4213 49.9364 90.7128 49.9773C91.0066 50.0185 91.3188 49.8932 91.6268 50.0899C91.7009 50.7239 91.613 51.3834 91.6762 52.0059C91.7419 52.0678 91.7788 52.133 91.8158 52.1331C93.8193 52.138 95.8227 52.1374 97.8263 52.1374C97.8263 65.2968 97.8263 78.4562 97.8263 91.6156C97.4951 91.9541 96.997 92.0033 96.6677 92.2665C96.3138 92.7011 96.3285 93.2738 95.9617 93.655C95.5959 94.1404 94.9325 94.0794 94.5024 94.4477C94.1663 94.7813 94.1728 95.3061 93.8367 95.6391C93.4598 96.0184 92.8886 96.0022 92.4753 96.3072C91.9282 96.7799 92.1557 97.7381 91.3704 98.0681C90.6224 98.3385 89.8455 98.2823 89.0776 98.2824C63.0247 98.2864 36.9718 98.2864 10.9189 98.2824C10.151 98.2823 9.37401 98.339 8.63261 98.0722C7.89516 97.7625 8.0553 96.9426 7.66929 96.3745C7.31044 95.9536 6.63354 96.0905 6.34727 95.8132C5.85203 95.3789 5.82596 94.8729 5.49009 94.4574C5.21401 94.1715 4.70751 94.1487 4.4295 93.9181C3.91051 93.4484 3.99667 92.8001 3.6561 92.3491C3.23067 91.9657 2.57506 92.0461 2.17285 91.6155C2.17285 78.3533 2.17285 65.0911 2.17285 51.8289C2.2243 51.8289 2.29296 51.8075 2.32397 51.8327C2.44153 51.9278 2.5469 52.038 2.64217 52.1287C4.51034 52.1287 6.35869 52.1287 8.19832 52.1287C8.24337 52.0837 8.30616 52.0512 8.3121 52.0104C8.40698 51.3611 8.27253 50.6985 8.38616 50.0748C8.46592 50.0274 8.50704 49.9819 8.54846 49.9815C9.05789 49.9767 9.56748 49.9784 10.041 49.9784C10.1125 49.907 10.1613 49.8764 10.1817 49.8327C10.2014 49.7903 10.1949 49.7343 10.1949 49.6843C10.1954 37.3001 10.1952 24.9158 10.1991 12.5316C10.1991 12.4926 10.2556 12.4537 10.2886 12.4109C10.6302 12.2887 10.9875 12.3673 11.3388 12.3533C11.6413 12.3412 11.9447 12.3507 12.201 12.3507C12.2819 12.2699 12.3495 12.2339 12.3499 12.1972C12.3565 11.5807 12.3545 10.9641 12.3545 10.3477C12.4361 10.2955 12.5153 10.2028 12.5985 10.1989C12.9576 10.1823 13.3179 10.1918 13.6778 10.1918C37.8917 10.1918 62.1056 10.1914 86.3195 10.1955C86.724 10.1955 87.1346 10.1287 87.5335 10.2409C87.6496 10.2735 87.68 10.3824 87.6436 10.5002C86.7964 11.1895 85.7823 10.9874 84.8252 10.9879C62.0056 10.999 39.186 10.996 16.3663 10.9972C15.6985 10.9972 15.0308 10.9919 14.3627 11.0287C13.7241 11.0639 13.299 11.3498 13.1173 11.9708C13.0605 12.1517 12.9827 12.324 12.8904 12.4879C12.7888 12.6419 12.6548 12.7651 12.4955 12.8586C12.0424 13.0874 11.4599 13.0592 11.1343 13.5454C10.7999 14.2351 10.9463 14.9667 10.946 15.675C10.9373 39.5289 10.9405 63.3827 10.9404 87.2336C10.9534 87.7352 10.9092 88.2481 11.1742 88.7364C11.7274 89.2033 12.6586 89.1646 12.9869 89.9909C13.2436 90.7852 13.7981 91.132 14.6182 91.1118C14.9257 91.1042 15.2345 91.1245 15.5428 91.1245C38.6159 91.1256 61.6889 91.1293 84.762 91.1092C85.6178 91.1084 86.6861 91.4624 87.1411 90.2559C87.197 90.0882 87.2606 89.9218 87.3213 89.7579C87.3873 89.6045 87.4852 89.4691 87.6067 89.3542C87.9769 89.0728 88.5016 89.1457 88.8721 88.8113C89.2001 88.3679 89.0475 87.8426 89.0671 87.3371C89.0553 87.1568 89.0439 86.982 89.0244 86.8029C88.9757 63.0945 89.0167 39.3906 88.988 15.6867C88.9869 14.7182 89.3269 13.5597 88.0275 13.0319C87.8504 12.9358 87.7045 12.8046 87.5865 12.6421C87.6057 12.5451 87.6248 12.4479 87.6438 12.3507Z" fill="#FCCB25"/>
<path d="M91.6553 97.784C91.6553 97.2207 91.6553 96.6572 91.6553 96.0818C91.7968 95.9464 91.9445 95.8051 92.102 95.6544C92.6309 95.5602 93.1912 95.7 93.7128 95.5824C93.7605 95.5128 93.8112 95.4731 93.8116 95.4329C93.817 94.9239 93.8152 94.4148 93.8152 93.9286C93.8742 93.8696 93.91 93.8024 93.9467 93.8019C94.4559 93.795 94.9652 93.7973 95.4735 93.7973C95.6311 93.6471 95.777 93.5082 95.9456 93.3477C96.0208 92.8219 95.9397 92.2656 95.9857 91.7569C96.0619 91.685 96.0984 91.6205 96.1356 91.62C96.6992 91.6135 97.2629 91.6155 97.8265 91.6155C97.8265 92.9521 97.8265 94.2885 97.8265 95.625C97.5141 95.9921 96.9782 95.9428 96.637 96.2594C96.2469 96.7014 96.4275 97.3493 96.0782 97.81C95.956 97.9359 95.8146 98.0246 95.6506 98.0844C94.3009 98.2024 92.9337 98.5754 91.6553 97.784Z" fill="#C87435"/>
<path d="M97.8265 99.9428C97.2094 99.9428 96.5923 99.9428 95.9751 99.9428C95.4357 99.2232 95.4357 98.5035 95.9751 97.7838C96.5923 97.3025 97.2094 97.3025 97.8265 97.7838C97.8265 98.5034 97.8265 99.2231 97.8265 99.9428Z" fill="#975042"/>
<path d="M97.8264 97.7833C97.2093 97.7833 96.5921 97.7833 95.975 97.7833C95.975 97.13 95.9737 96.4769 95.9783 95.8237C95.9785 95.7836 96.0249 95.7438 96.0498 95.7038C96.089 95.6773 96.1282 95.628 96.1677 95.6277C96.7205 95.6227 97.2735 95.6243 97.8265 95.6243C97.8264 96.344 97.8264 97.0636 97.8264 97.7833Z" fill="#ECD9A0"/>
<path d="M2.173 91.6152C2.8732 91.6152 3.57332 91.6152 4.26796 91.6152C4.4055 92.3487 4.27182 93.0041 4.35899 93.6456C4.51088 93.8542 4.72965 93.7581 4.9198 93.7711C5.12214 93.785 5.32686 93.7634 5.52912 93.7774C5.72243 93.7907 5.93056 93.7056 6.10489 93.8478C6.13289 93.8916 6.18057 93.9314 6.18096 93.9719C6.18605 94.4773 6.18427 94.9829 6.18427 95.4706C6.23788 95.5241 6.26975 95.5857 6.31032 95.5922C6.95421 95.694 7.61082 95.5441 8.24383 95.6763C8.28355 95.7264 8.33994 95.7644 8.34025 95.8029C8.34565 96.4632 8.34411 97.1235 8.34411 97.7838C7.18339 98.5341 5.93071 98.1955 4.69979 98.0953C4.54081 98.0463 4.39625 97.9645 4.26905 97.8573C3.89985 97.4198 4.02544 96.7766 3.68711 96.3705C3.24132 95.9256 2.56395 96.0713 2.17285 95.6249C2.17301 94.2882 2.173 92.9518 2.173 91.6152Z" fill="#C87435"/>
<path d="M4.33301 99.9423C3.61306 99.9423 2.89304 99.9423 2.1731 99.9423C2.1731 99.2227 2.1731 98.503 2.1731 97.7833C2.89304 97.2441 3.61306 97.2441 4.33301 97.7833C4.87245 98.5029 4.87245 99.2226 4.33301 99.9423Z" fill="#995445"/>
<path d="M4.33301 97.784C3.61306 97.784 2.89304 97.784 2.1731 97.784C2.1731 97.0643 2.1731 96.3447 2.1731 95.625C2.72295 95.625 3.27273 95.625 3.91546 95.625C4.03919 95.7487 4.20928 95.9187 4.33301 96.0424C4.33301 96.6848 4.33301 97.2344 4.33301 97.784Z" fill="#E9D49B"/>
<path d="M4.33301 99.9432C4.33301 99.2235 4.33301 98.5039 4.33301 97.7842C5.67007 97.7842 7.00721 97.7842 8.34428 97.7842C36.1146 97.7842 63.8849 97.7842 91.6553 97.7842C93.0952 97.7842 94.5351 97.7842 95.9751 97.7842C95.9751 98.5038 95.9751 99.2235 95.9751 99.9432C65.4277 99.9432 34.8804 99.9432 4.33301 99.9432Z" fill="#EDDCA3"/>
<path d="M12.6641 12.3506C12.6641 11.7858 12.6641 11.221 12.6641 10.6561C12.7448 10.6041 12.8243 10.5096 12.9067 10.507C13.3685 10.4924 13.831 10.5 14.2933 10.5C38.7436 10.5 63.1938 10.5 87.644 10.5C87.644 11.1169 87.644 11.7337 87.644 12.3505C87.0919 12.8533 86.4035 12.7813 85.7422 12.7815C62.0145 12.7885 38.2868 12.7888 14.5591 12.7796C13.9035 12.7794 13.2069 12.8829 12.6641 12.3506Z" fill="#010000"/>
<path d="M12.3554 12.6592C12.4582 12.6592 12.5611 12.6592 12.664 12.6592C12.7276 12.7301 12.7912 12.801 12.856 12.8714C13.1805 13.5018 13.0598 14.1926 13.1282 14.8595C13.2093 28.0541 13.1588 41.2476 13.1597 54.4411C13.1604 64.7596 13.215 75.0782 13.1299 85.3959C13.1569 85.813 13.2629 86.2 13.5379 86.526C14.3782 86.9251 15.2643 86.7949 16.1269 86.7951C39.1943 86.8022 62.2615 86.7999 85.3289 86.8028C86.0474 86.8029 86.7675 86.7624 87.4844 86.8468C88.1883 86.8464 88.9095 86.7723 89.4953 87.2977C89.4953 87.4005 89.4953 87.5032 89.4953 87.6061C89.177 87.9748 88.6362 87.9319 88.291 88.2526C87.972 88.5989 88.0127 89.1383 87.6439 89.4566C87.0912 89.9567 86.404 89.8872 85.7423 89.8874C62.0214 89.8934 38.3006 89.8925 14.5797 89.8958C13.5537 89.896 12.6332 89.7905 12.1165 88.7294C11.7955 88.0704 10.9602 88.0996 10.5041 87.606C10.5041 63.1671 10.5037 38.7282 10.5067 14.2892C10.5067 13.7822 10.4534 13.2713 10.5546 12.7688C10.5779 12.6531 10.695 12.6227 10.8127 12.659C11.5028 13.5055 11.3026 14.5192 11.3031 15.4762C11.3141 38.29 11.3094 61.1039 11.3201 83.9177C11.3205 84.6659 11.1457 85.4508 11.5841 86.2204C12.022 85.4507 11.8477 84.6659 11.8481 83.9176C11.8588 61.1038 11.8541 38.29 11.8652 15.4762C11.8655 14.5193 11.6655 13.5056 12.3554 12.6592Z" fill="#020202"/>
<path d="M87.644 87.2976C62.7315 87.2976 37.8189 87.2976 12.9064 87.2957C12.8615 87.2957 12.8166 87.2665 12.7847 87.2554C12.7385 87.2118 12.6693 87.177 12.6689 87.1413C12.6621 86.5767 12.6641 86.0119 12.6641 85.447C13.2564 84.9252 13.9759 84.9941 14.6848 85.0099C38.267 85.0053 61.8491 85.0297 85.4302 84.9932C85.8414 84.9465 86.241 84.8697 86.5813 84.534C86.9636 83.7392 86.8321 82.8536 86.8324 81.9918C86.8394 60.1228 86.8384 38.2537 86.8374 16.3848C86.8374 15.7688 86.8273 15.1528 86.8694 14.5381C86.8328 14.123 86.7313 13.7345 86.4361 13.416C85.5979 13.038 84.7139 13.1625 83.851 13.1622C61.0601 13.1554 38.2692 13.1596 15.4783 13.1485C14.5222 13.1481 13.5095 13.3483 12.664 12.659C12.664 12.5562 12.664 12.4533 12.664 12.3506C37.6573 12.3506 62.6506 12.3506 87.6439 12.3506C87.6439 12.4534 87.6439 12.5562 87.6439 12.659C88.1731 13.2517 88.14 13.9874 88.1403 14.7029C88.1498 38.2198 88.1498 61.7367 88.1403 85.2536C88.1401 85.9691 88.1731 86.7048 87.644 87.2976Z" fill="#6B9AD3"/>
<path d="M87.644 89.7652C87.644 90.3305 87.644 90.8957 87.6441 91.461C87.5628 91.5126 87.4833 91.6048 87.3997 91.6087C87.0406 91.6252 86.6803 91.6157 86.3205 91.6157C62.2096 91.6157 38.0986 91.616 13.9877 91.6127C13.583 91.6126 13.1748 91.6628 12.786 91.5807C12.7373 91.5328 12.6693 91.4972 12.6688 91.4608C12.662 90.8957 12.6641 90.3304 12.6641 89.7651C13.1452 89.4911 13.6709 89.6222 14.1742 89.622C38.1607 89.6148 62.1471 89.6148 86.1335 89.6219C86.6371 89.6221 87.1626 89.4928 87.644 89.7652Z" fill="#C67435"/>
<path d="M87.644 87.2968C87.644 62.4173 87.644 37.5378 87.644 12.6583C88.2091 12.6583 88.7741 12.6583 89.3392 12.6582C89.3913 12.7389 89.4858 12.8183 89.4884 12.9007C89.503 13.3623 89.4954 13.8246 89.4954 14.2867C89.4954 38.6234 89.4954 62.9601 89.4954 87.2968C88.8783 87.2968 88.2612 87.2968 87.644 87.2968Z" fill="black"/>
<path d="M12.3555 12.6592C12.3555 37.4829 12.3555 62.3067 12.3556 87.1305C12.2785 87.1863 12.2031 87.2869 12.1237 87.2902C11.7198 87.3065 11.3148 87.2977 10.9607 87.2977C10.8792 87.2057 10.8168 87.1681 10.8168 87.1304C10.8127 62.3067 10.8127 37.4829 10.8127 12.6592C11.327 12.6592 11.8412 12.6592 12.3555 12.6592Z" fill="#020202"/>
<path d="M87.644 89.7645C62.6507 89.7645 37.6574 89.7645 12.6641 89.7645C12.6141 89.7645 12.5436 89.7858 12.5177 89.7608C12.4109 89.6577 12.3176 89.5407 12.2433 89.4561C11.6923 89.4561 11.1924 89.4578 10.6926 89.4525C10.6536 89.4521 10.6152 89.4014 10.5765 89.3741C10.5524 89.3342 10.5076 89.2944 10.5072 89.2542C10.5026 88.7046 10.5042 88.155 10.5042 87.6055C11.1725 87.6055 11.8408 87.6055 12.5388 87.6055C12.843 88.1596 12.5269 88.7941 12.7264 89.3643C12.7659 89.3952 12.8047 89.4523 12.8435 89.4523C37.777 89.4561 62.7104 89.4561 87.644 89.4561C87.644 89.5588 87.644 89.6616 87.644 89.7645Z" fill="#C17033"/>
<path d="M87.6438 89.4562C87.6438 88.9046 87.6422 88.3529 87.6471 87.8013C87.6475 87.7616 87.6953 87.7223 87.7209 87.6828C87.7604 87.6571 87.7998 87.6094 87.8395 87.609C88.3914 87.6041 88.9432 87.6057 89.4952 87.6057C89.4952 88.1573 89.4968 88.709 89.4919 89.2606C89.4915 89.3003 89.4437 89.3397 89.418 89.3792C89.3785 89.4049 89.3392 89.4526 89.2995 89.4529C88.7476 89.4579 88.1957 89.4562 87.6438 89.4562Z" fill="#C87435"/>
<path d="M12.6641 12.6592C37.4738 12.6592 62.2835 12.6592 87.0932 12.6611C87.1381 12.6611 87.183 12.6903 87.2148 12.7014C87.261 12.7451 87.3302 12.7799 87.3306 12.8155C87.3374 13.3801 87.3354 13.9449 87.3354 14.5098C86.7438 15.031 86.0251 14.9626 85.317 14.9468C61.7746 14.9412 38.2324 14.9473 14.6903 14.9481C13.9784 14.9714 13.2572 15.0352 12.6641 14.5098C12.6641 13.8929 12.6641 13.2761 12.6641 12.6592Z" fill="#99BADF"/>
<path d="M12.6641 14.5098C13.2812 14.5098 13.8983 14.5098 14.5154 14.5098C15.1447 15.2651 14.9357 16.1736 14.9442 17.0272C15.1493 37.4548 14.8758 57.8825 14.9506 78.3102C14.9571 80.1067 14.9585 81.9033 14.9469 83.6998C14.9429 84.3142 14.9764 84.9432 14.5154 85.4472C13.8983 85.4472 13.2812 85.4472 12.6641 85.4472C12.6641 61.8014 12.6641 38.1556 12.6641 14.5098Z" fill="#7EA8DA"/>
<path d="M14.5154 85.4472C14.5154 61.8014 14.5154 38.1556 14.5154 14.5098C38.1716 14.5098 61.8278 14.5098 85.484 14.5098C85.574 14.7233 85.5196 14.8898 85.3221 15.0101C84.3963 15.4542 83.4032 15.3007 82.4363 15.3011C61.0448 15.3104 39.6533 15.3064 18.2619 15.314C17.399 15.3143 16.5113 15.1742 15.5385 15.6445C15.1796 16.9672 15.2453 18.3558 15.5206 19.9693C16.4764 19.2819 16.9332 18.242 17.9216 18.1282C18.3859 17.6306 18.4251 16.9983 18.8837 16.606C20.3372 16.0351 79.3252 15.9736 81.0471 16.5466C81.5388 16.8946 81.6136 17.511 82.0086 18.0284C82.7753 18.4646 83.7667 18.7842 83.9447 19.765C84.5092 20.2399 85.1448 20.2246 85.574 20.6212C86.0231 21.2532 85.976 21.9868 85.9769 22.7005C85.9868 31.2221 85.9868 39.7437 85.9781 48.2654C85.9775 48.8803 85.9861 49.5012 85.7121 50.0763C85.365 50.6662 84.672 50.3694 84.0087 50.7894C83.7022 51.0071 83.7704 51.6788 83.1506 52.3575C80.2847 53.0223 77.0408 52.2424 74.0092 52.7501C73.4426 53.3828 73.5639 54.2944 72.7588 54.5929C69.6916 54.9741 66.6168 54.7614 63.5447 54.7178C63.2367 54.7134 62.9436 54.5915 62.7005 54.3842C62.7086 53.3003 63.5984 53.5737 64.1508 53.5453C66.0976 53.4451 68.0498 53.5195 69.9997 53.4998C70.6597 53.4931 71.336 53.5826 72.2423 53.1347C72.4338 50.3991 72.3771 47.5291 72.2619 44.568C68.9797 43.864 65.756 44.7627 62.4146 43.9186C61.9936 40.4986 62.086 37.1008 62.3301 33.7013C62.5344 32.88 63.5687 33.1107 63.9379 32.5239C63.8375 31.6493 62.8648 31.9852 62.5861 31.4273C62.6814 30.7518 63.3991 30.9132 63.745 30.5277C64.3501 30.4206 63.8532 29.0959 64.9331 29.4473C65.2262 29.7417 65.2945 30.1869 65.8338 30.6475C68.4902 30.7368 71.3583 30.7586 74.4652 30.6317C73.8907 29.6215 73.2262 29.7894 72.6636 29.7814C70.6638 29.7532 68.6634 29.7833 66.6635 29.7635C66.003 29.757 65.3133 29.8123 64.7928 29.2589C65.0973 28.4189 65.8533 28.5697 66.477 28.5519C68.4286 28.4965 70.382 28.5383 72.3347 28.5276C72.9464 28.5242 73.5682 28.5739 74.4178 28.1678C74.6186 25.4047 74.5018 22.5249 74.4724 19.3623C69.934 19.264 65.6112 19.2801 61.5138 19.3471C60.8785 19.9941 60.9124 20.6523 60.3445 21.1548C59.2067 21.6765 57.8746 21.452 56.5558 21.366C56.0675 21.3079 55.5892 21.0453 55.0582 21.2831C54.5558 21.7675 54.8074 22.4091 54.7456 22.9899C54.7074 23.713 54.9152 24.4994 54.214 25.0471C53.3336 24.8495 53.9215 23.6994 53.0626 23.3832C52.2742 23.8644 52.6903 24.6791 52.6151 25.3569C52.5735 26.6653 52.8502 27.9987 52.3126 29.2206C51.6432 29.8533 50.8793 29.7747 50.1183 29.7084C49.6685 29.6795 49.2163 29.5181 48.5264 29.7206C48.1609 34.0366 48.3342 38.3616 48.3214 42.4335C48.9308 43.1735 49.7316 42.9957 50.0603 43.6072C49.6388 44.4059 48.8559 44.2721 48.1773 44.2776C45.3833 44.3002 42.5886 44.3333 39.7966 44.2661C39.1991 44.2749 38.5777 44.171 38.0721 44.6227C37.5309 45.4852 37.8551 46.4352 37.7894 47.3399C37.6751 48.9127 38.0022 50.5162 37.5648 51.959C36.9014 52.6579 36.1572 52.6092 35.447 52.6113C29.8423 52.6274 24.2375 52.6279 18.6327 52.6123C17.9659 52.6104 17.2903 52.607 16.7122 52.1947C16.2376 51.8589 16.3407 51.1203 15.4684 50.6892C15.1036 56.1139 15.4364 61.4017 15.2795 66.6753C15.3423 71.4924 15.3453 76.3086 15.2818 81.1246C15.4324 82.1781 15.1079 83.2842 15.6137 84.3044C16.4335 84.7941 17.3257 84.6351 18.1825 84.6355C39.5972 84.6445 61.012 84.6402 82.4267 84.6492C83.3928 84.6496 84.3842 84.4993 85.3119 84.936C85.3876 85.0049 85.4622 85.0749 85.5369 85.1449C85.5193 85.2457 85.5018 85.3465 85.4842 85.4472C61.8278 85.4472 38.1716 85.4472 14.5154 85.4472Z" fill="#548ACD"/>
<path d="M85.4839 50.2869C85.4839 40.4173 85.4839 30.5478 85.4839 20.6783C84.7182 18.7249 84.7182 16.7716 85.4839 14.8182C85.4839 14.7153 85.4839 14.6126 85.4839 14.5098C86.1011 14.5098 86.7182 14.5098 87.3353 14.5098C87.3353 38.0749 87.3353 61.64 87.3334 85.2052C87.3334 85.2501 87.3041 85.295 87.2932 85.3261C87.2491 85.3728 87.2144 85.442 87.1788 85.4425C86.614 85.4492 86.0489 85.4472 85.4839 85.4472C85.4839 85.3444 85.4839 85.2417 85.4839 85.1388C84.6544 83.8449 85.1039 82.4137 85.0415 81.0368C85.1073 71.6156 84.9324 62.1952 84.9934 52.7745C84.9989 51.9255 84.8109 51.0145 85.4839 50.2869Z" fill="#7CA6D7"/>
<path d="M49.9997 29.3137C50.6589 29.3137 51.3181 29.3152 51.9773 29.3099C52.0161 29.3096 52.0545 29.2552 52.0931 29.2259C52.1152 29.1844 52.1566 29.1429 52.1567 29.1014C52.1601 27.7328 52.1596 26.3643 52.1596 24.9957C52.7767 24.5144 53.3938 24.5142 54.0109 24.9957C54.124 25.0295 54.2198 25.0001 54.263 24.8933C54.2974 24.8084 54.3164 24.7113 54.3171 24.6195C54.3217 24.0253 54.3195 23.431 54.3195 22.8368C54.6426 22.4759 55.1706 22.4917 55.386 22.3169C55.8613 21.8506 55.7669 21.2834 56.1708 20.9863C57.5546 20.9863 58.9382 20.987 60.322 20.9822C60.3598 20.982 60.3973 20.9207 60.4644 20.8621C60.5353 20.2398 60.4496 19.5818 60.509 18.9838C60.5811 18.9032 60.615 18.832 60.649 18.832C65.3638 18.8271 70.0786 18.8271 74.7935 18.8305C74.8341 18.8305 74.8748 18.8785 74.9154 18.904C74.9413 18.9445 74.9897 18.985 74.9897 19.0256C74.9932 22.3031 74.993 25.5805 74.993 28.8541C74.9039 28.9072 74.8218 28.9989 74.7395 28.9991C71.6646 29.0064 68.5897 29.0044 65.5148 29.0072C65.3161 29.0073 65.1141 29.019 64.9201 29.0575C64.8049 29.0803 64.7744 29.1962 64.8105 29.3136C64.6963 29.2792 64.5998 29.3093 64.5567 29.4179C64.5225 29.504 64.5054 29.6021 64.5043 29.6951C64.4992 30.1414 64.5019 30.5878 64.5019 30.9943C64.4184 31.1321 64.3359 31.1625 64.2319 31.1664C63.7392 31.1846 63.242 31.1078 62.7547 31.2202C62.6444 31.2456 62.6163 31.3585 62.6506 31.4726C63.1323 32.0895 63.1323 32.7063 62.6506 33.3231C62.6506 36.8007 62.6506 40.2782 62.6506 43.74C63.1492 43.866 63.5568 43.7923 63.9602 43.8065C64.3706 43.8208 64.7818 43.8096 65.1927 43.8096C65.6037 43.8096 66.0145 43.8096 66.4254 43.8096C66.8876 43.8096 67.3498 43.8096 67.8121 43.8096C68.2229 43.8096 68.6339 43.8096 69.0447 43.8096C69.4555 43.8096 69.8665 43.8096 70.2773 43.8096C70.6882 43.8096 71.0991 43.8096 71.5099 43.8096C71.9152 43.8096 72.3204 43.8096 72.6788 43.8096C72.7602 43.8911 72.8283 43.9273 72.8283 43.9637C72.8331 47.2493 72.8328 50.5348 72.8329 53.8205C72.7558 53.8763 72.6788 53.9803 72.6016 53.9806C69.52 53.9888 66.4384 53.9867 63.3567 53.9895C63.1576 53.9897 62.9551 54.0009 62.7605 54.0394C62.6448 54.0622 62.6142 54.1783 62.6504 54.296C63.1651 54.8736 63.0938 55.5825 63.0969 56.2753C63.1703 60.4474 63.1611 64.6195 63.1068 68.7918C63.165 72.9085 63.1711 77.025 63.1073 81.142C63.1478 81.8597 63.1761 82.5753 62.7704 83.2199C62.2074 83.7962 61.4718 83.7692 60.763 83.7746C57.8002 83.7971 54.8371 83.8014 51.8744 83.772C51.1219 83.7645 50.3127 83.8342 49.7886 83.0877C49.4216 82.312 49.5101 81.4789 49.5093 80.6625C49.5016 72.9067 49.5088 65.1508 49.4992 57.3949C49.4982 56.6366 49.6224 55.852 49.1907 55.0694C48.2067 54.5969 47.1135 54.828 46.0561 54.7989C44.4128 54.7536 42.7675 54.826 41.1239 54.759C40.0342 54.7146 39.1636 54.3091 39.0958 53.0947C38.941 50.3254 38.9702 47.552 39.0833 44.7805C39.0983 44.4119 39.2647 44.0886 39.5084 43.8095C42.7722 43.8095 46.0359 43.8104 49.2997 43.8075C49.4972 43.8074 49.6981 43.795 49.8909 43.7562C50.0051 43.7333 50.0352 43.6179 49.9994 43.5011C49.5488 43.0059 49.5158 42.3879 49.5126 41.7715C49.4938 38.1915 49.4905 34.6115 49.5158 31.0316C49.5204 30.4255 49.4959 29.7894 49.9997 29.3137Z" fill="#FFFFFD"/>
<path d="M39.5086 43.8096C39.5086 47.1473 39.5086 50.4849 39.5086 53.8436C39.6489 53.9714 39.8001 54.1093 40.005 54.296C41.0622 54.296 42.1876 54.296 43.3132 54.296C44.392 54.296 45.4708 54.296 46.5496 54.296C47.6709 54.296 48.7923 54.296 49.8628 54.296C49.9415 54.4022 49.9961 54.4414 49.9961 54.4808C49.9998 63.9803 49.9997 73.4799 49.9997 82.9794C49.4318 83.9228 48.6615 83.6924 48.0045 83.4629C47.4277 82.957 47.4284 82.3105 47.0077 81.8739C46.3098 81.5136 45.5262 81.6259 44.7645 81.6252C35.6209 81.6173 26.4773 81.6248 17.3337 81.6137C16.4742 81.6127 15.5696 81.757 14.824 81.1288C14.824 76.2969 14.824 71.4649 14.824 66.6329C15.3657 66.1946 15.9408 66.1794 16.4947 66.4654C17.096 66.8569 17.0851 67.5919 17.537 68.0082C19.0445 68.4287 45.5824 68.4235 47.2893 67.9247C47.4102 64.3538 47.3551 60.6985 47.3086 56.9318C44.0236 56.2045 40.8002 57.0795 37.3441 56.2563C37.2265 52.0866 37.5615 47.9474 37.6573 43.8096C38.2744 43.8096 38.8915 43.8096 39.5086 43.8096Z" fill="#3C5CB5"/>
<path d="M37.6574 43.8093C37.6574 47.8693 37.6574 51.9293 37.6573 55.9894C37.7379 56.0417 37.8184 56.1395 37.8992 56.1397C40.9841 56.1474 44.069 56.1451 47.1539 56.149C47.3511 56.1492 47.558 56.0933 47.7441 56.2044C47.7771 56.245 47.8358 56.2834 47.8358 56.3219C47.84 60.4315 47.8397 64.5411 47.8397 68.6297C47.7645 68.749 47.6811 68.7925 47.5765 68.7922C47.1137 68.7908 46.651 68.7916 46.1883 68.7916C36.5223 68.7916 26.8562 68.7916 17.1578 68.7916C17.0284 68.6705 16.8818 68.5332 16.7239 68.3854C16.5788 67.8501 16.7623 67.2853 16.633 66.7461C16.5929 66.7056 16.5572 66.6378 16.5206 66.6373C15.9552 66.6306 15.3895 66.6326 14.824 66.6326C14.824 61.1482 14.8238 55.6638 14.8271 50.1795C14.8271 50.1386 14.874 50.0977 14.899 50.0569C14.9394 50.0305 14.9795 49.9816 15.0201 49.9811C15.5293 49.9759 16.0385 49.9777 16.5253 49.9777C16.7775 50.2094 16.6478 50.4798 16.6712 50.7205C16.691 50.9236 16.6611 51.1314 16.679 51.3348C16.7004 51.5796 16.592 51.8405 16.7488 52.0616C16.8031 52.0912 16.8449 52.1338 16.8868 52.1338C23.6555 52.1368 30.4242 52.1366 37.1931 52.1367C37.245 52.056 37.342 51.9754 37.3422 51.8945C37.3503 49.383 37.348 46.8714 37.3507 44.3599C37.3509 44.2125 37.362 44.0604 37.4 43.9191C37.4311 43.8036 37.5398 43.7731 37.6574 43.8093Z" fill="#4371C5"/>
<path d="M62.6506 68.7918C62.6506 64.5767 62.6506 60.3616 62.6506 56.1464C63.2981 55.5886 64.0901 55.6976 64.8497 55.6811C67.1975 55.6303 69.5505 55.7741 71.7276 55.5955C72.3565 55.208 72.4652 54.6494 72.8331 54.2959C72.9503 54.3319 73.059 54.3016 73.09 54.1864C73.1282 54.0454 73.1377 53.8938 73.1396 53.7465C73.1453 53.2862 73.1402 52.8257 73.1441 52.3652C73.1445 52.3216 73.1791 52.2783 73.1979 52.235C73.2355 52.2023 73.2731 52.141 73.3108 52.141C76.5866 52.1366 79.8623 52.1373 83.1381 52.1334C83.1775 52.1334 83.2167 52.0796 83.2752 52.037C83.4028 51.4059 83.2584 50.7456 83.3511 50.1053C83.3945 50.0619 83.4303 49.9947 83.467 49.9942C83.9773 49.9874 84.4875 49.9896 85.0193 49.9896C85.1118 50.0778 85.2167 50.1878 85.3337 50.2827C85.3645 50.3077 85.433 50.2865 85.4842 50.2865C85.4842 60.5673 85.4842 70.8481 85.4842 81.1289C85.2774 81.2201 85.1138 81.1701 84.9926 80.9802C84.6326 80.3166 84.7014 79.5884 84.6987 78.8768C84.6862 75.6522 84.703 72.4273 84.6857 69.2027C84.6825 68.6225 84.8091 67.9907 84.3427 67.4757C83.6587 67.7124 83.7913 68.4779 83.4605 68.7069C82.8271 69.2325 82.2053 69.2567 81.5925 69.2594C75.8573 69.2858 70.1219 69.278 64.3866 69.2647C63.7693 69.2631 63.1503 69.2383 62.6506 68.7918Z" fill="#4371C5"/>
<path d="M85.1755 81.1293C85.2784 81.1293 85.3813 81.1293 85.4841 81.1293C85.4841 82.4658 85.4841 83.8022 85.4841 85.1388C62.0106 85.1388 38.5371 85.1388 15.0636 85.1368C15.019 85.1368 14.9743 85.1064 14.9637 85.1025C14.9007 85.0472 14.829 85.0136 14.8288 84.9799C14.8231 83.6963 14.824 82.4128 14.824 81.1293C25.7624 81.1293 36.7007 81.1292 47.639 81.1324C47.6799 81.1324 47.7207 81.1799 47.797 81.2272C47.9122 81.8515 47.7778 82.5134 47.8685 83.1629C47.9049 83.1992 47.9408 83.2666 47.9776 83.2671C48.4888 83.2741 49.0001 83.2718 49.539 83.2718C49.6261 83.189 49.7313 83.0788 49.8487 82.9837C49.8798 82.9586 49.9484 82.9799 49.9997 82.9799C49.9635 83.0976 49.9955 83.1966 50.1098 83.2392C50.1994 83.2725 50.3012 83.2864 50.3976 83.2865C54.3504 83.2887 58.3033 83.2887 62.2561 83.2864C62.3522 83.2863 62.4483 83.2567 62.5257 83.2439C62.575 83.1992 62.6455 83.1652 62.6459 83.1306C62.6523 82.4636 62.6507 81.7965 62.6507 81.1294C63.2425 80.602 63.9768 80.6376 64.6906 80.6363C70.839 80.6252 76.9873 80.6252 83.1357 80.6363C83.8496 80.6373 84.5838 80.6018 85.1755 81.1293Z" fill="#4371C5"/>
<path d="M85.4841 14.8174C85.4841 16.7707 85.4841 18.7241 85.4841 20.6775C84.8155 20.6775 84.147 20.6775 83.4503 20.6775C83.1443 20.1231 83.4624 19.488 83.2613 18.918C83.2215 18.8872 83.1828 18.8313 83.1435 18.8308C82.6318 18.825 82.12 18.8269 81.6271 18.8269C81.463 18.6629 81.3176 18.5175 81.1682 18.3682C81.1682 17.8592 81.1682 17.3463 81.1682 16.8358C81.0865 16.778 81.0113 16.6804 80.9304 16.6755C80.623 16.6567 80.3137 16.6679 80.0052 16.6679C60.0008 16.6679 39.9965 16.6676 19.9922 16.6705C19.6399 16.6706 19.2827 16.6151 18.9374 16.7197C18.9017 16.7602 18.8399 16.7976 18.8396 16.8356C18.8335 17.4511 18.8353 18.0666 18.8353 18.6758C18.5216 18.9817 18.146 18.7808 17.8055 18.8236C17.4578 18.8671 17.0978 18.7556 16.7597 18.8951C16.7293 18.9404 16.6793 18.9804 16.6789 19.0209C16.6735 19.5312 16.6754 20.0414 16.6754 20.5402C16.2254 20.7167 15.7397 20.7261 14.8864 20.5854C14.8055 19.3498 14.798 16.61 14.8703 14.9339C14.9101 14.8918 14.9452 14.8219 14.9804 14.8219C38.4817 14.8173 61.9828 14.8174 85.4841 14.8174Z" fill="#4471C5"/>
<path d="M49.9996 29.3136C49.9996 34.0428 49.9996 38.772 49.9996 43.5011C49.3339 43.5011 48.6682 43.5011 48.0024 43.5012C47.9481 43.423 47.8466 43.3448 47.8464 43.2664C47.8388 38.6618 47.8396 34.0572 47.8396 29.4678C47.9997 29.3079 48.1445 29.1631 48.2959 29.0117C48.6971 29.0117 49.105 29.0117 49.5292 29.0117C49.6269 29.1048 49.7318 29.2148 49.849 29.3098C49.8799 29.3349 49.9484 29.3136 49.9996 29.3136Z" fill="#3D5EB6"/>
<path d="M72.8331 54.296C72.8331 54.8572 72.8331 55.4184 72.8332 55.9796C72.7566 56.0353 72.6802 56.1393 72.6034 56.1395C69.2858 56.1476 65.9682 56.1465 62.6506 56.1465C62.6506 55.5296 62.6506 54.9128 62.6506 54.2959C66.0448 54.296 69.4389 54.296 72.8331 54.296Z" fill="#425FB6"/>
<path d="M64.8106 29.3135C68.137 29.3135 71.4634 29.3132 74.7898 29.3166C74.8307 29.3166 74.8717 29.3628 74.9127 29.3874C74.9395 29.4274 74.9892 29.4673 74.9896 29.5076C74.995 30.016 74.9931 30.5244 74.9931 31.0463C74.6025 31.2858 74.1875 31.1297 73.796 31.1567C73.3375 31.1882 72.8753 31.1641 72.4147 31.1641C72.0053 31.1641 71.5959 31.1641 71.1865 31.1641C70.7771 31.1641 70.3677 31.1641 69.9583 31.1641C69.5489 31.1641 69.1394 31.1641 68.7301 31.1641C68.2695 31.1641 67.8089 31.1641 67.3483 31.1641C66.9389 31.1641 66.5292 31.1746 66.1202 31.1611C65.7179 31.1478 65.3118 31.2172 64.9245 31.1246C64.8791 31.0755 64.8154 31.0388 64.815 31.0015C64.8086 30.4389 64.8106 29.8761 64.8106 29.3135Z" fill="#4360B7"/>
<path d="M49.9996 25.0707C50.1926 25.033 50.2871 24.9997 50.3821 24.9985C50.8367 24.9929 51.2914 24.996 51.6807 24.996C51.7761 25.0839 51.8461 25.1183 51.8462 25.153C51.8518 26.3809 51.8509 27.6089 51.851 28.837C51.7747 28.8932 51.6999 28.9953 51.6217 28.9978C51.1615 29.0132 50.7006 29.0067 50.2399 29.0033C50.1952 29.003 50.1507 28.9736 50.1255 28.9646C50.0744 28.9174 50.0044 28.883 50.0043 28.8482C49.9986 27.6205 49.9996 26.3925 49.9996 25.0707Z" fill="#4262B8"/>
<path d="M56.171 20.9857C56.171 21.5373 56.1726 22.0891 56.1677 22.6406C56.1674 22.6803 56.1196 22.7197 56.0939 22.7592C56.0544 22.7849 56.015 22.8326 55.9753 22.833C55.4234 22.8379 54.8716 22.8363 54.3197 22.8363C54.3197 22.1723 54.3197 21.5083 54.3196 20.8442C54.3962 20.7885 54.4735 20.6843 54.5495 20.6852C55.0541 20.6907 55.5625 20.6255 56.0623 20.7288C56.177 20.7526 56.2069 20.8688 56.171 20.9857Z" fill="#3D5EB6"/>
<path d="M54.0111 24.9962C53.394 24.9962 52.7769 24.9962 52.1597 24.9962C52.1597 24.3308 52.1597 23.6655 52.1597 23.0002C52.2378 22.9458 52.3146 22.8471 52.3944 22.8445C52.8547 22.8295 53.3158 22.8358 53.7765 22.8395C53.8207 22.8399 53.8646 22.8718 53.9087 22.8891C53.9428 22.9261 54.0063 22.9629 54.0067 23.0003C54.0127 23.6655 54.0111 24.3308 54.0111 24.9962Z" fill="#4564B9"/>
<path d="M60.1206 18.5186C60.23 19.024 60.1703 19.4276 60.1777 19.8281C60.1823 20.0751 60.2276 20.3284 60.1453 20.5505C60.0952 20.6037 60.0609 20.6723 60.0256 20.6728C59.5169 20.6797 59.008 20.6775 58.499 20.6776C58.4429 20.6019 58.3409 20.5277 58.3383 20.4501C58.323 19.9928 58.3297 19.5347 58.3326 19.077C58.3329 19.0315 58.3576 18.9863 58.3586 18.9831C58.5209 18.805 58.6573 18.6553 58.7819 18.5186C59.2136 18.5186 59.6208 18.5186 60.1206 18.5186Z" fill="#4769BB"/>
<path d="M62.6506 33.3232C62.6506 32.7064 62.6506 32.0895 62.6506 31.4727C63.2135 31.4727 63.7765 31.4727 64.3395 31.4727C64.3937 31.5509 64.4925 31.6279 64.4947 31.7076C64.5091 32.2122 64.502 32.7174 64.502 33.1729C64.4134 33.2548 64.3767 33.3184 64.3393 33.3188C63.7765 33.3252 63.2135 33.3232 62.6506 33.3232Z" fill="#435FB6"/>
<path d="M85.1755 81.1293C77.6672 81.1293 70.1589 81.1293 62.6506 81.1293C62.6506 77.017 62.6506 72.9047 62.6506 68.7923C69.5122 68.7923 76.3738 68.7923 83.1855 68.7923C83.2648 68.6881 83.3199 68.6493 83.3203 68.6101C83.3258 67.9973 83.3241 67.3844 83.3241 66.7792C83.7291 66.5858 83.7913 66.5836 85.0971 66.7092C85.1232 66.7496 85.1722 66.79 85.1722 66.8305C85.1756 71.5968 85.1755 76.363 85.1755 81.1293Z" fill="#3C5CB5"/>
</svg>
