<svg width="100" height="104" viewBox="0 0 100 104" fill="none" xmlns="http://www.w3.org/2000/svg">
<path d="M2.16211 99.953C1.49409 99.953 0.826135 99.953 0.158031 99.9531C0.105956 99.8723 0.0116032 99.7928 0.00898012 99.7104C-0.00560092 99.2486 0.00195936 98.786 0.00195936 98.3238C0.00195936 66.9929 0.00195936 35.662 0.00195936 4.33109C0.148001 4.21884 0.312945 4.16961 0.497021 4.18335C1.10402 4.26543 1.75901 3.97358 2.32065 4.41834C2.68718 5.03761 2.6034 5.7196 2.60232 6.39126C2.74451 8.03359 2.59916 9.67446 2.59908 11.3156C2.59885 24.9184 2.5943 38.5211 2.60248 52.1237C2.58967 64.9962 2.59816 77.8687 2.60263 90.7411C2.60317 92.381 2.72807 94.0206 2.61135 95.6593C2.64074 96.3165 2.63295 96.9748 2.59299 97.6319C2.5656 98.3462 2.67654 99.0777 2.34874 99.7585C2.28725 99.8237 2.22468 99.8883 2.16211 99.953Z" fill="#030303"/>
<path d="M4.32234 2.1714C4.32234 1.5033 4.32234 0.835117 4.32227 0.166858C4.40358 0.115246 4.48312 0.0230537 4.56667 0.0191962C4.92588 0.0026865 5.28623 0.0121755 5.64613 0.0121755C35.3143 0.0121755 64.9825 0.011867 94.6507 0.0151073C95.0554 0.0151844 95.4637 -0.0349619 95.8528 0.0470468C95.9014 0.0948788 95.9696 0.130599 95.9699 0.166935C95.9763 0.83504 95.9746 1.50315 95.9746 2.17133C95.8978 2.23999 95.8211 2.30857 95.745 2.37847C95.0234 2.74608 94.2405 2.66662 93.4751 2.66677C64.5906 2.67287 35.7062 2.67264 6.82172 2.66693C6.05633 2.66677 5.27343 2.74685 4.55055 2.38109C4.47402 2.31197 4.39818 2.24169 4.32234 2.1714Z" fill="#020403"/>
<path d="M99.9863 4.33024C99.9863 36.1233 99.9863 67.9164 99.9844 99.7094C99.9844 99.7544 99.9554 99.7993 99.9434 99.8343C99.9013 99.8782 99.8663 99.947 99.8304 99.9474C99.2652 99.9542 98.7001 99.9522 98.1348 99.9522C97.6407 99.4683 97.6583 98.8397 97.6602 98.2235C97.7518 67.8449 97.6703 37.4662 97.7045 7.08759C97.7055 6.17956 97.5538 5.23827 98.0489 4.33217C98.7017 4.11291 99.3395 4.09108 99.9863 4.33024Z" fill="black"/>
<path d="M95.9745 102.112C95.9745 102.677 95.9745 103.242 95.9746 103.808C95.8932 103.859 95.8137 103.951 95.7301 103.955C95.3709 103.972 95.0106 103.962 94.6507 103.962C64.9825 103.962 35.3144 103.963 5.64624 103.959C5.24152 103.959 4.83326 104.009 4.44366 103.927C4.39544 103.88 4.32747 103.844 4.32701 103.808C4.3203 103.242 4.3223 102.677 4.3223 102.112C4.86172 101.568 5.56154 101.683 6.21529 101.683C35.504 101.673 64.7928 101.673 94.0816 101.683C94.7353 101.683 95.4352 101.568 95.9745 102.112Z" fill="black"/>
<path d="M95.9745 102.112C65.4238 102.112 34.873 102.112 4.32226 102.112C3.67815 102.112 3.03396 102.112 2.38985 102.111C2.26765 102.111 2.20014 102.017 2.16211 101.804C2.53265 101.417 3.08357 101.45 3.60748 101.178C4.05818 101.096 3.87689 100.086 4.67869 100.285C5.42348 101.433 6.59212 101.31 7.7215 101.31C23.0849 101.31 38.4483 101.31 53.8117 101.31C66.8115 101.309 79.8113 101.314 92.811 101.301C93.7513 101.3 94.8331 101.536 95.2958 100.308C95.3717 100.161 95.477 100.029 95.6002 99.9182C96.5631 99.857 96.0893 101.206 96.9285 101.263C97.2246 100.64 97.2246 100.64 95.9132 99.8924C95.4852 99.3054 95.5413 98.6704 95.7165 98.0231C95.7779 97.8718 95.8755 97.7461 96.0038 97.6455C96.3764 97.3974 96.8903 97.4456 97.2287 97.0554C97.5198 96.5151 97.3846 95.9075 97.3807 95.3105C97.3557 94.0232 97.3456 92.739 97.3741 91.453C97.2666 81.6938 97.3467 71.9361 97.3315 62.1787C97.3262 58.8409 97.2708 55.5025 97.3671 52.165C97.2775 42.7622 97.343 33.3591 97.3316 23.9561C97.3263 19.5888 97.289 15.2212 97.354 10.8563C97.3672 10.6684 97.3785 10.4778 97.3822 10.2891C97.363 9.12443 97.3816 7.95764 97.3832 6.79463C97.3873 6.63686 97.3953 6.47531 97.4 6.31724C97.3744 5.86947 97.5107 5.39593 97.2127 4.98195C96.8795 4.62252 96.3243 4.733 95.9805 4.39871C95.9094 4.25985 95.9149 4.12329 95.9948 3.98967C96.3176 3.63425 96.8656 3.71286 97.1975 3.37086C97.5059 3.02285 97.4555 2.48659 97.8261 2.17167C97.9402 2.13734 98.0368 2.16743 98.0799 2.27598C98.1141 2.36207 98.1313 2.46013 98.1323 2.55317C98.1375 2.99955 98.1347 3.44601 98.1347 3.8525C98.2182 3.99029 98.3006 4.02076 98.4047 4.02462C98.8975 4.04283 99.3947 3.96606 99.8821 4.07839C99.9925 4.10385 100.021 4.21672 99.9862 4.3309C99.421 4.3309 98.8558 4.3309 98.2904 4.33082C98.2384 4.41167 98.1442 4.49129 98.1416 4.57384C98.127 5.03565 98.1346 5.49815 98.1346 5.96043C98.1346 37.2912 98.1346 68.622 98.1346 99.9529C98.1346 100.607 98.1359 101.262 98.1313 101.916C98.131 101.956 98.0831 101.995 98.0574 102.035C98.0177 102.061 97.9782 102.109 97.9383 102.109C97.2838 102.113 96.6291 102.112 95.9745 102.112Z" fill="#934E41"/>
<path d="M95.9745 4.02201C95.9745 4.12485 95.9745 4.22769 95.9745 4.33045C96.3451 4.64838 96.2999 5.18989 96.6198 5.53613C96.9663 5.85575 97.5073 5.81209 97.8261 6.18124C97.8261 6.28408 97.8261 6.38692 97.8261 6.48968C97.127 7.03296 96.4137 7.00179 95.7405 6.59198C95.2627 6.14707 95.233 5.51676 94.6335 4.8259C65.0951 4.82621 35.3517 4.82551 5.60734 4.91632C5.17746 5.25747 5.06305 5.75747 4.7317 6.07308C3.81117 6.28624 4.11012 5.2415 3.76372 5.09523C3.18889 4.67029 2.56044 4.7523 2.16212 4.33045C1.54494 4.33045 0.927749 4.33045 0.310562 4.33045C0.241745 4.26195 0.218832 4.19336 0.241746 4.12485C0.264659 4.05635 0.287571 4.02201 0.310562 4.02201C0.927749 4.02201 1.54494 4.02201 2.16212 4.02201C2.84851 3.43376 3.67755 3.5825 4.47657 3.57124C4.98845 3.49324 5.50349 3.52256 6.01707 3.52248C35.0152 3.5207 64.0133 3.51978 93.0115 3.52703C93.9283 3.52726 94.8687 3.39333 95.7462 3.81225C95.8228 3.88137 95.8987 3.95165 95.9745 4.02201Z" fill="#D9A649"/>
<path d="M4.32227 4.02173C3.60224 4.02173 2.88214 4.02173 2.16211 4.02173C2.16211 3.46896 2.1605 2.9162 2.16551 2.36351C2.1659 2.32401 2.21512 2.28497 2.24166 2.2457C2.28162 2.22078 2.32143 2.17449 2.36154 2.17426C3.01507 2.16971 3.66867 2.1711 4.32219 2.1711C4.80383 2.7879 4.80383 3.40485 4.32227 4.02173Z" fill="#0C0908"/>
<path d="M4.32226 100.261C4.32226 100.752 4.32226 101.244 4.32226 101.682C4.19952 101.755 4.1594 101.8 4.11898 101.8C3.46669 101.804 2.8144 101.803 2.16211 101.803C2.16211 101.186 2.16211 100.569 2.16211 99.9522C2.6797 99.4819 3.29364 99.5715 3.90667 99.6498C4.05602 99.69 4.19211 99.758 4.31578 99.8507C4.40983 99.9855 4.41669 100.122 4.32226 100.261Z" fill="#0F0F0F"/>
<path d="M97.826 2.17188C97.826 2.72356 97.8276 3.27533 97.8227 3.82694C97.8223 3.86667 97.7746 3.90602 97.7489 3.94552C97.7094 3.97121 97.67 4.01896 97.6303 4.01927C97.0784 4.02421 96.5264 4.02259 95.9745 4.02259C95.4929 3.40571 95.4929 2.78875 95.9745 2.17188C96.5916 2.17188 97.2088 2.17188 97.826 2.17188Z" fill="#0D0B0B"/>
<path d="M0.310547 4.02246C0.310547 4.1253 0.310547 4.22814 0.310547 4.3309C0.207708 4.3309 0.104792 4.3309 0.00195312 4.3309C0.0423789 4.08487 0.0643661 4.06289 0.310547 4.02246Z" fill="#DED4A3"/>
<path d="M4.32234 6.1818C4.44022 6.21814 4.54916 6.18743 4.58017 6.0714C4.61805 5.9296 4.6179 5.77723 4.63047 5.62919C4.66473 5.22755 4.56613 4.81897 4.67769 4.43501C4.73285 4.39188 4.77165 4.33487 4.81046 4.33487C35.0361 4.33109 65.2618 4.33109 95.4875 4.33487C95.5262 4.33487 95.5648 4.39234 95.6072 4.4259C95.7262 4.76806 95.6432 5.12525 95.6654 5.47628C95.6844 5.778 95.6254 6.08374 95.7082 6.3739C95.7498 6.41672 95.7852 6.48522 95.8213 6.48561C96.4895 6.49201 97.1577 6.49031 97.826 6.49031C97.826 7.72415 97.826 8.95798 97.826 10.1918C97.342 10.6014 96.8384 10.5998 96.3448 10.288C95.9095 9.89834 95.9466 9.35962 95.7802 8.90321C95.6862 8.79273 95.5904 8.68418 95.4791 8.59153C95.078 8.34581 94.5609 8.43114 94.1805 8.13442C93.6367 7.778 93.9254 6.73426 92.9862 6.70448C92.0038 6.6423 91.0274 6.68249 90.0517 6.68241C62.9775 6.67948 35.9035 6.68133 8.82935 6.67971C8.31569 6.67971 7.80181 6.66938 7.29587 6.71443C6.44307 6.74583 6.61141 7.6065 6.28916 7.97704C5.85181 8.42473 5.2968 8.35622 4.83507 8.54076C4.73184 8.63388 4.63155 8.72839 4.54607 8.83701C4.33445 9.23433 4.41145 9.72175 4.14143 10.0978C3.8279 10.5678 2.9832 10.5249 2.98428 11.3045C2.92117 23.7702 2.98289 36.229 2.95898 48.6878C2.9572 49.6095 3.01198 50.534 2.87673 51.4524C2.83909 51.6478 2.76649 51.8304 2.66427 52.0009C2.53666 52.1873 2.36887 52.2342 2.16211 52.1419C2.16211 36.8219 2.16211 21.5018 2.16211 6.18172C2.26124 6.07981 2.38275 6.0346 2.52363 6.03637C3.05086 6.14724 3.58866 6.12455 4.12245 6.15472C4.18918 6.16313 4.25576 6.17246 4.32234 6.1818Z" fill="#FCCB25"/>
<path d="M2.16211 52.1416C2.26495 52.1416 2.36786 52.1416 2.4707 52.1416C3.13649 52.8756 2.94393 53.7874 2.94501 54.6367C2.95982 65.9158 2.95242 77.1949 2.95874 88.474C2.95913 89.2361 2.86192 90.0149 3.22691 90.8261C4.03627 91.2741 4.77605 91.8854 4.97594 92.848C5.38151 93.3188 5.95758 93.3262 6.49738 93.7616C6.88914 94.4626 7.45719 95.2398 8.34771 95.5644C8.82873 96.3033 8.84833 96.9835 8.52384 97.6871C7.36006 98.6128 6.03804 98.1945 4.76031 98.1307C4.60031 98.0891 4.44979 98.0163 4.31455 97.9211C3.85282 97.4777 4.07847 96.7733 3.71349 96.291C3.26255 95.8647 2.63241 96.2583 2.16211 95.9426C2.16211 81.3422 2.16211 66.7419 2.16211 52.1416Z" fill="#C87435"/>
<path d="M4.32226 99.9524C3.60224 99.9524 2.88213 99.9524 2.16211 99.9524C2.16211 99.2326 2.16211 98.5129 2.16211 97.7931C2.88213 97.2539 3.60224 97.2539 4.32226 97.7931C4.84517 98.5128 4.89146 99.2326 4.32226 99.9524Z" fill="#955042"/>
<path d="M4.32226 97.7932C3.60224 97.7932 2.88213 97.7932 2.16211 97.7932C2.16211 97.1764 2.16211 96.5594 2.16211 95.9425C2.21218 95.9425 2.283 95.9638 2.30877 95.9388C2.41539 95.8351 2.50827 95.7175 2.58095 95.6341C3.13626 95.6341 3.63719 95.6322 4.13803 95.6377C4.17668 95.6382 4.2148 95.6908 4.25314 95.7191C4.27621 95.7596 4.3191 95.8 4.31941 95.8407C4.3235 96.4915 4.32226 97.1423 4.32226 97.7932Z" fill="#E7D39B"/>
<path d="M2.4707 6.18104C2.36786 6.18104 2.26495 6.18104 2.16211 6.18104C2.16211 5.56416 2.16211 4.94721 2.16211 4.33025C2.81563 4.33025 3.46923 4.32894 4.12276 4.33349C4.16287 4.3338 4.20268 4.38009 4.24265 4.40493C4.26919 4.4442 4.31848 4.48324 4.31887 4.52274C4.32396 5.07543 4.32226 5.6282 4.32226 6.18097C3.70508 6.41542 3.08789 6.41588 2.4707 6.18104Z" fill="#DED4A3"/>
<path d="M95.9745 2.17188C95.9745 2.78875 95.9745 3.40571 95.9745 4.02259C65.4238 4.02259 34.873 4.02259 4.32227 4.02259C4.32227 3.40571 4.32227 2.78875 4.32227 2.17188C34.873 2.17188 65.4238 2.17188 95.9745 2.17188Z" fill="#EFE1AE"/>
<path d="M8.33398 97.7935C8.33398 97.1263 8.33398 96.4589 8.33406 95.7916C8.25374 95.7392 8.17467 95.644 8.09266 95.6414C7.63092 95.6267 7.1685 95.6359 6.70638 95.6318C6.6631 95.6314 6.62013 95.5946 6.577 95.5747C6.54545 95.5365 6.48689 95.4985 6.48643 95.4599C6.48033 94.9484 6.48234 94.4368 6.48234 93.9379C6.43343 93.889 6.40157 93.8275 6.36014 93.8202C5.71232 93.7051 5.04807 93.8752 4.4133 93.726C4.37565 93.6693 4.32597 93.6292 4.32566 93.5887C4.32072 92.9764 4.32219 92.364 4.32219 91.7787C4.25916 91.7156 4.22652 91.6528 4.18594 91.6471C3.63896 91.571 3.07856 91.6916 2.55765 91.5771C2.51445 91.4937 2.4734 91.4514 2.4734 91.4091C2.47063 78.3199 2.4707 65.2308 2.4707 52.1418C3.21727 51.522 4.11666 51.7298 4.96792 51.6844C5.82373 51.6388 6.69889 51.7985 7.46799 51.5004C7.95541 51.0414 7.9102 50.3874 8.40603 49.883C9.08602 49.5672 9.85712 49.1827 10.6914 49.8412C10.9721 50.3583 10.9843 50.9251 10.9839 51.4879C10.9775 63.3144 11.0349 75.1409 10.9601 86.9642C10.9363 87.5634 10.8503 88.1729 11.1666 88.722C11.664 89.1873 12.4915 89.0141 12.875 89.6579C13.1212 90.0475 13.1699 90.5433 13.5411 91.014C37.9366 91.1349 62.3314 91.1306 86.7271 91.0241C87.1203 90.5839 87.1632 90.0843 87.3956 89.6941C87.7619 89.0305 88.5752 89.1771 89.1038 88.7609C89.4638 88.2254 89.3512 87.6081 89.3447 87.0041C89.258 75.2519 89.3199 63.5026 89.3121 51.7533C89.3117 51.1892 89.3244 50.6213 89.6023 50.1042C90.1703 49.4272 90.8468 49.6078 91.3815 49.7607C92.0746 50.2326 92.0398 50.9641 92.5377 51.43C94.2002 52.1427 96.1599 51.1082 97.826 52.1419C97.826 65.3028 97.826 78.4636 97.826 91.6245C97.4943 91.9624 96.9957 92.0216 96.6747 92.2948C96.3291 92.7483 96.3906 93.324 96.0607 93.7369C95.6776 94.2233 95.0076 94.1035 94.5564 94.4466C94.1952 94.7631 94.1772 95.2831 93.8596 95.6257C93.4893 96.0211 92.9165 96.0099 92.4973 96.3056C91.9322 96.7707 92.1591 97.7354 91.3815 98.073C90.6352 98.3492 89.8586 98.2928 89.0913 98.2929C63.0559 98.2972 37.0205 98.2985 10.9851 98.2864C10.0836 98.2858 9.11757 98.4893 8.33398 97.7935Z" fill="#FCCB25"/>
<path d="M10.4941 49.6742C10.443 49.6742 10.3746 49.653 10.3437 49.678C10.2267 49.7729 10.1218 49.8829 10.0116 49.988C9.49776 49.988 8.98758 49.988 8.48287 49.988C8.44129 50.0296 8.37502 50.0645 8.3734 50.1021C8.3457 50.7531 8.32603 51.4045 8.30559 52.0257C8.22813 52.0835 8.18909 52.1381 8.14998 52.1382C6.25691 52.1424 4.36377 52.1418 2.4707 52.1418C2.4707 38.2612 2.4707 24.3806 2.4707 10.5C2.94 10.1529 3.5558 10.5489 4.04384 10.1888C4.38136 9.61806 3.95619 8.91578 4.32226 8.34087C4.89771 7.97434 5.60339 8.40367 6.18879 8.04732C6.54529 7.46223 6.11581 6.75686 6.48242 6.18164C35.593 6.18164 64.7037 6.18164 93.8143 6.18164C94.181 6.75686 93.7515 7.46223 94.108 8.04732C94.6934 8.40367 95.399 7.97434 95.9745 8.34087C96.3232 8.91871 95.9504 9.61274 96.212 10.1581C96.7411 10.5504 97.3573 10.1507 97.8261 10.5001C97.8261 24.3807 97.8261 38.2613 97.8261 52.1419C95.9333 52.1419 94.0405 52.1419 92.0928 52.1419C91.9932 52.0114 91.8698 51.8498 91.6628 51.5784C91.6291 51.184 91.6722 50.6308 91.6496 50.1284C91.5649 50.0507 91.5281 49.9875 91.4907 49.9871C90.9281 49.9808 90.3654 49.9827 89.8026 49.9827C89.1078 49.1971 89.3194 48.2307 89.318 47.3297C89.3019 36.8004 89.3096 26.2711 89.3048 15.7418C89.3044 14.9233 89.3844 14.0953 89.1117 13.3022C88.7621 12.5878 87.7687 12.8177 87.3914 12.1417C87.0622 11.3289 86.4595 10.9613 85.5869 11.0005C85.28 11.0142 84.971 10.9926 84.6629 10.9926C61.6556 10.9919 38.6483 10.9908 15.641 10.9965C14.5854 10.9967 13.4161 10.7835 12.9164 12.1349C12.5376 12.8255 11.5336 12.5841 11.1776 13.31C10.9191 14.0628 10.992 14.8392 10.9917 15.606C10.9874 26.0783 10.995 36.5505 10.9788 47.0228C10.9773 47.9232 11.1888 48.8891 10.4941 49.6742Z" fill="#E9C95C"/>
<path d="M8.33398 97.7931C36.1074 97.7931 63.8808 97.7931 91.6542 97.7931C93.0943 97.0827 94.5344 97.0503 95.9745 97.7931C95.9745 98.5128 95.9745 99.2325 95.9745 99.9523C95.8717 99.9523 95.7688 99.9523 95.6659 99.9523C94.8211 100.644 93.8073 100.446 92.8502 100.447C74.9198 100.458 56.9894 100.455 39.059 100.455C28.3726 100.455 17.6864 100.456 7.00001 100.454C6.07747 100.454 5.13865 100.525 4.32227 99.9523C4.32227 99.2326 4.32227 98.5128 4.32227 97.7931C5.65948 97.7931 6.99677 97.7931 8.33398 97.7931Z" fill="#EDDCA3"/>
<path d="M4.32227 99.9521C34.7702 99.9521 65.218 99.9521 95.6659 99.9521C95.6659 100.517 95.6659 101.082 95.666 101.647C95.5853 101.699 95.5068 101.791 95.4233 101.796C95.1162 101.814 94.8073 101.803 94.499 101.803C64.7566 101.803 35.0141 101.803 5.27165 101.799C5.0784 101.799 4.86516 101.873 4.66588 101.7C4.63958 101.265 4.62253 100.816 4.57848 100.37C4.56729 100.257 4.44007 100.224 4.32227 100.261C4.32227 100.158 4.32227 100.055 4.32227 99.9521Z" fill="#954E41"/>
<path d="M95.9746 97.7935C94.5345 97.7935 93.0944 97.7935 91.6543 97.7935C91.6543 97.2287 91.6543 96.6639 91.6543 96.0947C91.7983 95.953 91.9446 95.8091 92.0942 95.662C92.6355 95.5779 93.1961 95.7015 93.761 95.5798C93.8888 95.013 93.7504 94.4517 93.8477 93.899C94.1644 93.656 94.5315 93.8134 94.875 93.789C95.2226 93.7642 95.5734 93.7835 95.8853 93.7835C96.033 93.3442 95.9524 92.9873 95.9743 92.6363C95.9931 92.3349 95.9334 92.0294 96.0157 91.7471C96.0612 91.6988 96.0958 91.6295 96.1313 91.6291C96.6962 91.6223 97.2612 91.6243 97.8262 91.6243C97.8262 92.961 97.8262 94.2976 97.8262 95.6342C97.5099 95.9933 96.9816 95.9711 96.6236 96.3057C96.2722 96.726 96.4279 97.3951 95.9746 97.7935Z" fill="#C77435"/>
<path d="M95.9745 97.7933C95.9745 97.14 95.9732 96.4868 95.9777 95.8335C95.978 95.7933 96.0243 95.7535 96.0492 95.7136C96.0885 95.687 96.1276 95.6378 96.1671 95.6374C96.72 95.6324 97.2731 95.634 97.8261 95.634C97.8261 96.2873 97.8274 96.9405 97.8229 97.5938C97.8226 97.634 97.7763 97.6738 97.7514 97.7136C97.7122 97.7402 97.673 97.7894 97.6335 97.7898C97.0806 97.7949 96.5275 97.7933 95.9745 97.7933Z" fill="#E3D199"/>
<path d="M97.8259 6.18102C97.274 6.18102 96.722 6.18264 96.1701 6.17771C96.1304 6.17732 96.091 6.12964 96.0515 6.10395C96.0258 6.06445 95.9781 6.02511 95.9777 5.98537C95.9728 5.43369 95.9744 4.882 95.9744 4.33031C96.5263 4.33031 97.0783 4.32877 97.6302 4.33363C97.6699 4.33401 97.7093 4.38169 97.7488 4.40738C97.7745 4.44688 97.8222 4.48623 97.8226 4.52596C97.8276 5.07757 97.8259 5.62933 97.8259 6.18102Z" fill="#DAD1A1"/>
<path d="M95.9744 99.9521C96.5709 99.9521 97.1675 99.9521 97.7128 99.9521C97.7818 100.082 97.8227 100.123 97.8231 100.164C97.8275 100.667 97.826 101.17 97.826 101.662C97.4153 101.837 97.4153 101.837 96.0624 101.737C96.0331 101.698 95.9786 101.66 95.9782 101.621C95.9726 101.065 95.9744 100.509 95.9744 99.9521Z" fill="#111313"/>
<path d="M97.8262 10.4996C97.2732 10.4996 96.7201 10.5012 96.1672 10.4962C96.1277 10.4958 96.0885 10.4466 96.0493 10.42C96.0244 10.3801 95.9781 10.3402 95.9778 10.3002C95.9733 9.64699 95.9745 8.9937 95.9745 8.34041C96.0915 8.30461 96.1998 8.3347 96.2309 8.44926C96.2691 8.58975 96.2713 8.74073 96.2823 8.8877C96.3124 9.28794 96.2281 9.69336 96.3236 10.0786C96.3735 10.1238 96.4102 10.1863 96.4478 10.1868C96.9071 10.1935 97.3666 10.1912 97.826 10.1912C97.8262 10.294 97.8262 10.3968 97.8262 10.4996Z" fill="#D9A649"/>
<path d="M95.9745 8.34074C95.3199 8.34074 94.6652 8.34205 94.0106 8.33742C93.9708 8.33712 93.9312 8.28928 93.8915 8.26359C93.8658 8.22394 93.818 8.18436 93.8177 8.14448C93.8131 7.49018 93.8144 6.83581 93.8144 6.18144C93.9286 6.14711 94.0252 6.17719 94.0682 6.28574C94.1024 6.37184 94.1196 6.46997 94.1207 6.56294C94.1258 7.00932 94.123 7.45577 94.123 7.86227C94.2065 8.00005 94.2889 8.03053 94.393 8.03439C94.8858 8.05259 95.383 7.97583 95.8705 8.08816C95.9808 8.11369 96.0089 8.22656 95.9745 8.34074Z" fill="#D9A649"/>
<path d="M6.48247 6.18174C6.48247 6.83612 6.48386 7.49041 6.47915 8.14478C6.47884 8.18467 6.43101 8.22417 6.40532 8.2639C6.36559 8.28959 6.32609 8.33742 6.2862 8.33773C5.6316 8.34236 4.977 8.34105 4.32232 8.34105C4.28799 8.22687 4.318 8.13036 4.42662 8.08731C4.51272 8.05313 4.61093 8.036 4.70397 8.03492C5.15066 8.02975 5.59743 8.03261 6.00384 8.03261C6.14163 7.94913 6.17218 7.86666 6.17604 7.76267C6.19424 7.27007 6.11741 6.77309 6.22981 6.28589C6.25535 6.17549 6.36829 6.14741 6.48247 6.18174Z" fill="#D9A649"/>
<path d="M4.32228 8.34088C4.32228 8.99417 4.32359 9.64746 4.31911 10.3007C4.3188 10.3408 4.27251 10.3806 4.2476 10.4206C4.20833 10.4471 4.16921 10.4963 4.12971 10.4967C3.57679 10.5017 3.02371 10.5001 2.47072 10.5001C2.43654 10.3862 2.4647 10.2822 2.57425 10.2467C3.00327 10.1073 3.45281 10.2531 3.86988 10.1742C3.98575 10.1053 4.01252 10.0226 4.0163 9.91756C4.03374 9.4262 3.95682 8.93029 4.07015 8.44441C4.09577 8.33455 4.2084 8.3067 4.32228 8.34088Z" fill="#D9A649"/>
<path d="M2.47068 6.18164C3.08786 6.18164 3.70505 6.18164 4.32224 6.18164C4.3578 6.29798 4.32779 6.41779 4.21469 6.43685C3.67064 6.52842 3.12227 6.52842 2.57822 6.43685C2.46512 6.41779 2.43511 6.29798 2.47068 6.18164Z" fill="#D9A649"/>
<path d="M87.6424 89.465C87.6424 90.1331 87.6424 90.8012 87.6425 91.4694C87.5611 91.5211 87.4817 91.6132 87.3982 91.6171C87.0391 91.6336 86.6787 91.6241 86.3188 91.6241C62.2052 91.6241 38.0915 91.6241 13.9779 91.6241C13.5723 91.6241 13.1668 91.6241 12.8121 91.6241C12.7275 91.5411 12.6593 91.5055 12.659 91.4692C12.6526 90.8012 12.6543 90.1331 12.6543 89.465C12.7309 89.3965 12.8075 89.3279 12.8834 89.2581C13.605 88.8907 14.3878 88.9707 15.153 88.9705C38.4833 88.9641 61.8136 88.9644 85.1439 88.9703C85.9091 88.9705 86.6919 88.8898 87.4148 89.2556C87.491 89.3246 87.5667 89.3948 87.6424 89.465Z" fill="#C67435"/>
<path d="M89.4941 12.6586C89.6117 12.6224 89.7194 12.6528 89.7531 12.7682C89.8543 13.1146 89.8001 13.4727 89.8002 13.8253C89.8031 25.8775 89.8027 37.9298 89.8027 49.9821C89.8027 62.4232 89.8027 74.8643 89.8027 87.3054C89.6411 87.4387 89.4617 87.5405 89.2649 87.612C88.7948 87.7019 88.3463 87.6808 87.9643 87.3606C87.3657 86.0261 87.3 14.2902 87.9057 12.6908C88.4134 12.4187 88.9491 12.4312 89.4941 12.6586Z" fill="#020201"/>
<path d="M10.4942 49.6742C10.4942 37.7248 10.4936 25.7753 10.4966 13.8258C10.4967 13.4733 10.4425 13.1152 10.5437 12.7689C10.5774 12.6534 10.6852 12.6231 10.8027 12.6593C11.294 12.3911 11.796 12.5326 12.2464 12.5679C12.8709 13.1363 12.773 13.8358 12.7733 14.4893C12.785 38.1459 12.7838 61.8025 12.776 85.4592C12.7757 86.0704 12.8203 86.6983 12.4501 87.2463C12.0556 87.6709 11.5624 87.7136 11.0317 87.6146C10.8341 87.5438 10.655 87.4407 10.4941 87.3061C10.4942 74.7621 10.4942 62.2181 10.4942 49.6742Z" fill="#020202"/>
<path d="M10.4941 87.3057C10.5969 87.3057 10.6998 87.3057 10.8027 87.3057C11.3564 87.6651 12.011 87.3009 12.6256 87.5641C13.1633 88.1686 13.1363 88.8079 12.6542 89.4649C11.9996 89.4649 11.345 89.4662 10.6904 89.4616C10.6505 89.4613 10.6109 89.4134 10.5712 89.3877C10.5455 89.3481 10.4976 89.3085 10.4974 89.2686C10.4927 88.6143 10.4941 87.96 10.4941 87.3057Z" fill="#C57334"/>
<path d="M89.4941 87.3057C89.5969 87.3057 89.6998 87.3057 89.8027 87.3057C89.8027 87.96 89.804 88.6143 89.7993 89.2687C89.799 89.3086 89.7512 89.3481 89.7255 89.3878C89.6858 89.4135 89.6463 89.4613 89.6064 89.4616C88.9518 89.4663 88.2972 89.465 87.6425 89.465C87.1755 88.8683 87.1701 88.2581 87.5803 87.6333C88.1713 87.2218 88.9084 87.7012 89.4941 87.3057Z" fill="#BC7134"/>
<path d="M89.494 87.3057C89.5298 87.4226 89.4997 87.5309 89.3849 87.562C89.2442 87.6001 89.093 87.6022 88.9459 87.6133C88.5454 87.6437 88.1395 87.5582 87.7542 87.6551C87.7091 87.7054 87.6471 87.7424 87.6467 87.78C87.6404 88.3415 87.6423 88.9032 87.6423 89.4648C62.6463 89.4648 37.6502 89.4648 12.6541 89.4648C12.6541 88.9032 12.6541 88.3415 12.6542 87.7798C12.5773 87.7245 12.5032 87.6265 12.4228 87.621C11.9195 87.5864 11.4108 87.6659 10.9113 87.5623C10.7966 87.5386 10.7668 87.4225 10.8026 87.3055C11.2654 87.3055 11.7281 87.3055 12.1909 87.3056C12.2425 87.2243 12.3347 87.1448 12.3386 87.0612C12.3551 86.7022 12.3456 86.342 12.3456 85.9822C12.3456 61.9822 12.3456 37.982 12.3456 13.9819C12.3456 13.5765 12.3456 13.1711 12.3456 12.8154C12.263 12.7318 12.2274 12.664 12.1908 12.6635C11.7282 12.6562 11.2654 12.6588 10.8026 12.6588C10.7693 12.5464 10.7983 12.4512 10.904 12.4079C10.9883 12.3734 11.0846 12.3537 11.1759 12.3528C11.6686 12.3476 12.1615 12.3503 12.6543 12.3503C12.7109 12.4089 12.7675 12.4673 12.8254 12.5258C12.9066 12.6722 12.9593 12.8279 12.9886 12.9927C13.0646 13.5828 13.0575 14.1768 13.0774 14.7732C13.0862 14.9618 13.0879 15.1469 13.0879 15.3353C13.0903 39.0531 13.0902 62.7676 13.0903 86.8062C37.8641 86.8064 62.2929 86.8063 86.5256 86.8063C87.3914 85.8222 87.1993 84.9145 87.1996 84.0642C87.2085 61.0984 87.2047 38.1324 87.2133 15.1666C87.2136 14.3016 87.069 13.415 87.4356 12.5774C87.504 12.5013 87.5733 12.4258 87.6426 12.3504C88.1846 12.3504 88.7267 12.3496 89.2688 12.351C89.389 12.3513 89.455 12.4452 89.4941 12.6589C89.0314 12.6589 88.5686 12.6589 88.1058 12.6588C88.0542 12.7401 87.962 12.8197 87.9583 12.9032C87.9417 13.2622 87.9512 13.6224 87.9512 13.9822C87.9512 37.9822 87.9512 61.9824 87.9512 85.9825C87.9512 86.3879 87.9512 86.7933 87.9512 87.149C88.0338 87.2326 88.0694 87.3004 88.106 87.3009C88.5685 87.3081 89.0312 87.3057 89.494 87.3057Z" fill="#020202"/>
<path d="M12.6544 12.3502C12.6544 11.7849 12.6544 11.2196 12.6543 10.6542C12.7356 10.6026 12.8152 10.5104 12.8987 10.5065C13.2578 10.49 13.6182 10.4995 13.9781 10.4995C38.0917 10.4995 62.2052 10.4991 86.3189 10.5024C86.7236 10.5025 87.1319 10.4523 87.5207 10.5344C87.5694 10.5823 87.6374 10.6179 87.6379 10.6543C87.6446 11.2196 87.6426 11.785 87.6426 12.3502C87.0894 12.8495 86.4021 12.7813 85.7401 12.7815C62.0123 12.7882 38.2846 12.7882 14.5569 12.7815C13.8948 12.7813 13.2075 12.8495 12.6544 12.3502Z" fill="#010000"/>
<path d="M12.6542 12.3506C37.6503 12.3506 62.6463 12.3506 87.6424 12.3506C87.6424 37.2813 87.6424 62.212 87.6425 87.1428C87.5639 87.1972 87.4873 87.2946 87.4063 87.2984C87.0471 87.3156 86.6867 87.3058 86.3267 87.3058C62.2079 87.3058 38.089 87.3058 13.9702 87.3058C13.5652 87.3058 13.1601 87.3058 12.8046 87.3058C12.7229 87.2173 12.6585 87.1802 12.6585 87.143C12.6541 63.0347 12.6542 38.9265 12.6542 14.8183C13.363 14.9008 13.3364 15.4903 13.405 15.9697C13.507 16.6818 13.4596 17.4052 13.4596 18.1239C13.4608 39.4361 13.4595 60.7483 13.4648 82.0605C13.465 82.8036 13.3664 83.5656 13.7533 84.5925C14.0946 83.5787 14.0035 82.8204 14.0037 82.0824C14.0091 60.5648 14.0057 39.0471 14.015 17.5295C14.0154 16.5648 13.8561 15.5708 14.3311 14.6527C14.4636 14.4641 14.6391 14.4086 14.8566 14.4846C15.6602 15.8464 15.1672 17.3429 15.2908 18.775C15.347 19.426 15.3039 20.0847 15.2702 20.7395C15.3387 30.4768 15.3427 40.2139 15.2727 49.9511C15.331 55.5062 15.3402 61.0614 15.2721 66.6166C15.3299 71.4491 15.3383 76.2816 15.2718 81.1138C15.4244 82.2718 15.0912 83.4758 15.7219 84.962C38.6251 84.9601 61.648 84.9654 84.5565 84.9579C85.2217 83.5123 84.8644 82.3044 85.0249 81.1494C84.9674 76.3275 84.958 71.5061 85.0257 66.6848C84.9565 61.7063 85.0036 56.7275 85.0018 51.7488C85.0015 51.2359 85.0132 50.7196 85.243 50.2409C85.3431 50.039 85.5058 49.9524 85.7294 49.9796C86.4979 50.7305 86.2726 51.7073 86.2743 52.604C86.293 62.4719 86.2837 72.3399 86.2895 82.2079C86.2898 82.8967 86.2094 83.6036 86.5446 84.545C86.954 83.5555 86.8326 82.7937 86.8328 82.0581C86.84 60.1635 86.8391 38.269 86.8381 16.3743C86.8381 15.7576 86.83 15.1408 86.8678 14.5252C86.827 14.1106 86.7265 13.7215 86.4243 13.4098C85.5826 13.0408 84.6992 13.1624 83.8359 13.1622C61.0467 13.1556 38.2574 13.1597 15.4682 13.1487C14.5122 13.1482 13.4994 13.3484 12.6541 12.6591C12.6542 12.5562 12.6542 12.4533 12.6542 12.3506Z" fill="#6B9AD3"/>
<path d="M12.6543 12.6592C37.4667 12.6592 62.2791 12.6592 87.0916 12.6611C87.1365 12.6611 87.1814 12.6903 87.2133 12.7014C87.2595 12.745 87.3287 12.7798 87.3291 12.8155C87.3359 13.3802 87.3339 13.9451 87.3339 14.51C86.7432 15.035 86.0188 14.955 85.3121 14.9595C84.9549 15.0209 84.5946 15.0108 84.2351 15.0108C61.931 15.0121 39.627 15.0138 17.3229 15.0053C16.4626 15.005 15.5575 15.1424 14.8145 14.51C14.7116 14.51 14.6087 14.51 14.5059 14.51C13.8887 15.0235 13.2715 14.9077 12.6543 14.51C12.6543 13.893 12.6543 13.2761 12.6543 12.6592Z" fill="#99BADF"/>
<path d="M12.6544 14.5098C13.2716 14.5098 13.8887 14.5098 14.5059 14.5098C14.5059 38.1295 14.5059 61.7493 14.5059 85.3195C14.3982 85.3977 14.3591 85.4507 14.3192 85.4513C13.9112 85.4575 13.5031 85.4551 13.132 85.4551C12.9937 85.3721 12.9601 85.2877 12.9611 85.1793C12.9654 84.7171 12.9629 84.2547 12.9629 83.7925C12.9629 61.3448 12.9633 38.8971 12.9603 16.4494C12.9603 15.9421 13.0136 15.4309 12.9124 14.9281C12.8891 14.8123 12.7721 14.7819 12.6543 14.8182C12.6544 14.7154 12.6544 14.6126 12.6544 14.5098Z" fill="#7DA7D9"/>
<path d="M14.8145 49.9821C14.8145 40.2142 14.8145 30.4464 14.8145 20.6786C16.1285 20.1469 16.3732 18.3189 17.8293 18.2161C18.3763 17.7067 18.3938 17.0662 18.8969 16.5802C19.46 16.1298 20.2488 16.1882 21.0112 16.1878C40.4131 16.1781 59.815 16.179 79.2169 16.1861C79.9815 16.1863 80.762 16.1461 81.5477 16.6669C81.7496 18.1718 83.5523 18.5181 84.0168 19.8373C84.534 20.2485 85.1681 20.2324 85.5902 20.6422C86.024 21.2796 85.9771 22.0115 85.9779 22.7247C85.9876 31.0827 85.9895 39.4407 85.9745 47.7988C85.9732 48.552 86.0932 49.3559 85.4825 49.9822C85.1053 50.3481 84.5691 50.4281 84.147 50.7169C83.7423 51.1263 83.7338 51.7639 83.3162 52.1644C83.0404 52.4233 82.6923 52.5337 82.3358 52.5493C79.5789 52.6706 76.8209 52.6442 74.0633 52.5658C73.7035 52.5555 73.3575 52.4517 73.0671 52.216C72.5482 51.4878 72.6657 50.644 72.6636 49.8334C72.6504 44.7005 72.66 39.5676 72.6547 34.4347C72.6539 33.6682 72.7175 32.8919 72.435 32.163C70.7971 30.9007 69.1942 29.624 67.7752 27.66C56.1687 27.6135 44.3289 27.6483 32.4882 27.7182C32.0231 28.0151 31.9339 28.5272 31.6343 28.8619C31.0699 28.696 31.0699 28.696 30.3627 27.4375C30.2039 27.3977 30.0545 27.4241 29.9491 27.5486C29.764 27.7673 29.7657 28.0095 29.9202 28.2923C30.2055 28.7126 30.8615 28.5975 31.1781 29.0381C31.1318 29.8306 30.2418 29.531 29.9679 29.9715C29.5879 30.3523 29.7336 31.0348 29.1348 31.2335C28.3958 30.9338 28.8912 29.9312 28.1273 29.5555C27.2677 29.7906 27.7083 30.8157 27.1941 31.2683C27.0575 31.3782 26.9098 31.4585 26.7468 31.5194C26.3783 31.6865 25.9333 31.7069 25.6796 32.1277C25.4018 32.7885 25.4811 33.5131 25.4802 34.2248C25.4734 39.3989 25.4826 44.5729 25.471 49.7468C25.4692 50.5575 25.5831 51.3954 25.1227 52.1445C24.5774 52.6431 23.8914 52.592 23.2322 52.6023C21.7981 52.6245 20.3627 52.5817 18.9293 52.6166C17.5102 52.6512 16.3642 52.3174 16.0608 50.863C15.5974 50.4667 15.1511 50.3033 14.8145 49.9821Z" fill="#548ACD"/>
<path d="M24.9981 52.1413C24.9981 45.1839 24.9981 38.2265 24.9981 31.3168C25.0863 31.235 25.123 31.1709 25.1603 31.1706C25.8262 31.1646 26.4922 31.1662 27.1583 31.1662C27.8251 31.9023 27.6322 32.8163 27.6333 33.6678C27.6485 44.3069 27.6409 54.9461 27.6468 65.5853C27.6472 66.3506 27.5513 67.131 27.867 67.8644C28.2292 68.3524 28.8811 68.3607 29.4592 68.9076C29.6748 69.1188 29.7891 69.645 30.1238 70.1479C30.9766 70.5653 31.9402 70.9902 32.1995 72.3212C44.1515 72.3251 56.0091 72.3241 67.8165 72.322C68.4594 71.2755 69.0788 70.464 70.0708 70.2574C70.5365 69.7567 70.5659 69.1224 71.0058 68.7253C71.5345 68.3387 72.1486 68.3199 72.7695 68.3305C75.9824 68.2938 79.1983 68.3705 82.1845 68.2854C82.9548 67.7471 82.8595 66.983 83.4947 66.4758C84.074 66.1346 84.7865 66.1015 85.4823 66.6389C85.4823 71.4714 85.4823 76.3039 85.4823 81.1364C84.8893 81.6652 84.1532 81.6321 83.4375 81.6324C61.2448 81.6421 39.0521 81.6421 16.8594 81.6324C16.1436 81.6321 15.4076 81.6652 14.8145 81.1364C14.8145 76.3039 14.8145 71.4714 14.8145 66.6389C15.3569 66.1896 15.9355 66.21 16.4 66.4174C17.0939 66.868 17.0583 67.612 17.6496 68.1605C19.7459 68.4546 21.9685 68.3648 24.0733 68.1983C24.6348 67.3584 24.5128 66.6208 24.5152 65.9141C24.5281 62.0587 24.5142 58.2032 24.5264 54.3478C24.5288 53.5848 24.4381 52.7904 24.9981 52.1413Z" fill="#3C5CB5"/>
<path d="M14.8145 81.1367C38.3704 81.1367 61.9265 81.1367 85.4824 81.1367C85.4824 82.5243 85.4824 83.9119 85.4825 85.2996C85.4015 85.3515 85.3222 85.4441 85.2389 85.448C84.8798 85.4646 84.5194 85.4551 84.1595 85.4551C61.4855 85.4551 38.8115 85.4551 16.1374 85.4551C15.7319 85.4551 15.3264 85.4551 14.9764 85.4551C14.8885 85.3705 14.8194 85.3351 14.8192 85.2995C14.8137 83.9119 14.8145 82.5243 14.8145 81.1367Z" fill="#4371C5"/>
<path d="M85.4824 66.6394C84.8149 66.6394 84.1475 66.6394 83.4801 66.6393C83.4274 66.7194 83.3311 66.7986 83.3292 66.88C83.316 67.4441 83.3235 68.0088 83.3197 68.5732C83.3194 68.6166 83.2831 68.6597 83.2636 68.7029C83.2255 68.7348 83.1873 68.7945 83.1492 68.7946C79.7094 68.7989 76.2697 68.7986 72.83 68.7986C72.5985 68.3704 72.6308 67.9043 72.6343 67.4421C72.6676 63.0731 72.6306 58.7041 72.6571 54.3352C72.6616 53.5794 72.5346 52.7748 73.1385 52.1418C76.5139 52.1418 79.8893 52.1418 83.2788 52.1418C83.3699 51.3975 83.2793 50.7383 83.3403 50.1375C83.4118 50.0584 83.4456 49.9879 83.4802 49.9875C84.1475 49.9809 84.8149 49.9826 85.4823 49.9826C85.4824 55.535 85.4824 61.0872 85.4824 66.6394Z" fill="#4371C5"/>
<path d="M85.4823 20.679C84.8146 20.679 84.1469 20.679 83.4791 20.6791C83.4267 20.5986 83.3318 20.5195 83.3292 20.4374C83.3145 19.9758 83.3237 19.5135 83.3195 19.0514C83.3191 19.0082 83.282 18.9653 83.2619 18.9223C83.2235 18.8909 83.1854 18.8328 83.1467 18.8323C82.6349 18.8262 82.1232 18.8282 81.6248 18.8282C81.5751 18.7785 81.5134 18.7466 81.5063 18.7052C81.3942 18.0574 81.5593 17.3936 81.4152 16.761C81.3549 16.7216 81.3144 16.6722 81.274 16.6722C60.5235 16.6689 39.7731 16.6689 19.0227 16.6722C18.9822 16.6722 18.9418 16.7217 18.8763 16.7643C18.7442 17.394 18.8955 18.0568 18.7948 18.711C18.4764 18.9559 18.1092 18.7982 17.7658 18.8227C17.4182 18.8474 17.0674 18.8281 16.7413 18.8281C16.5695 19.4639 16.754 20.0282 16.6264 20.5543C16.5795 20.6043 16.5448 20.6737 16.5093 20.6742C15.9444 20.6809 15.3794 20.6789 14.8145 20.6789C14.8145 18.6225 14.8145 16.5662 14.8145 14.5098C38.3704 14.5098 61.9264 14.5098 85.4823 14.5098C86.2443 16.5662 86.2494 18.6226 85.4823 20.679Z" fill="#4471C5"/>
<path d="M24.998 52.1416C24.998 57.6593 24.998 63.1769 24.998 68.6471C24.9109 68.7291 24.8742 68.794 24.8373 68.7941C22.2786 68.7989 19.7198 68.7984 17.1039 68.7984C17.0032 68.6713 16.8772 68.5124 16.679 68.2623C16.6319 67.8419 16.6934 67.2874 16.6558 66.7801C16.5772 66.7076 16.5406 66.6441 16.5032 66.6436C15.9403 66.6373 15.3773 66.6392 14.8145 66.6392C14.8145 61.087 14.8145 55.5347 14.8145 49.9825C15.3777 49.9825 15.941 49.9825 16.5043 49.9824C16.5582 50.061 16.6561 50.1382 16.6587 50.2185C16.6737 50.6787 16.6659 51.1396 16.6659 51.6022C16.7659 51.8412 16.9748 51.9821 17.1626 52.1417C19.775 52.1417 22.3866 52.1416 24.998 52.1416Z" fill="#4371C5"/>
<path d="M85.4824 20.6789C85.4824 18.6225 85.4824 16.5662 85.4824 14.5098C86.0996 14.5098 86.7168 14.5098 87.334 14.5098C87.334 38.0813 87.334 61.6528 87.3317 85.2243C87.3317 85.2681 87.2974 85.3119 87.2791 85.3556C87.2415 85.3887 87.2043 85.4501 87.1661 85.4507C86.7564 85.4576 86.3465 85.455 85.95 85.455C85.8399 85.3837 85.7911 85.3011 85.7911 85.1986C85.791 84.7364 85.791 84.2742 85.791 83.812C85.791 72.9249 85.7916 62.0379 85.7885 51.1508C85.7885 50.7977 85.8424 50.4391 85.7418 50.0922C85.7082 49.9764 85.6002 49.946 85.4824 49.9823C85.4824 40.2146 85.4824 30.4468 85.4824 20.6789Z" fill="#7DA7D9"/>
<path d="M73.1386 52.1414C73.1386 57.5309 73.1386 62.9204 73.1386 68.3203C73.0392 68.4247 72.929 68.5298 72.8338 68.6472C72.8087 68.6783 72.83 68.7468 72.83 68.7982C72.2648 68.7982 71.6997 68.7982 71.1345 68.7982C70.9785 69.0587 70.9785 69.0587 70.9785 70.4288C70.8614 70.6553 70.6728 70.8147 70.4443 70.9739C69.9576 70.9739 69.4482 70.9739 68.9496 70.9739C68.71 71.2557 68.8604 71.5736 68.8195 71.865C68.7783 72.1587 68.9028 72.4706 68.7279 72.7471C68.6793 72.7691 68.636 72.8057 68.5927 72.8057C56.265 72.8082 43.9374 72.8081 31.5914 72.8081C31.3256 72.225 31.6188 71.5936 31.4097 71.0096C30.8505 70.8711 30.2873 71.0337 29.7924 70.9293C29.6073 70.7651 29.4545 70.6296 29.3129 70.5039C29.3129 69.9656 29.3129 69.4534 29.3129 68.9437C29.0027 68.6447 28.6279 68.8438 28.2875 68.8014C27.9401 68.758 27.5804 68.8692 27.2427 68.73C27.2123 68.6847 27.1615 68.6446 27.1615 68.6044C27.1581 56.1252 27.1582 43.6457 27.1582 31.1663C27.7754 30.6849 28.3926 30.6847 29.0098 31.1663C29.1239 31.2006 29.2205 31.1706 29.2636 31.062C29.2978 30.9759 29.3149 30.8778 29.316 30.7848C29.3212 30.3384 29.3184 29.8919 29.3184 29.4854C29.4018 29.3477 29.4844 29.3172 29.5885 29.3133C30.0812 29.2951 30.5785 29.3719 31.0658 29.2595C31.1762 29.2341 31.2042 29.1212 31.1699 29.007C31.2877 29.0433 31.3967 29.0127 31.4277 28.8967C31.4656 28.755 31.4656 28.6027 31.478 28.4547C31.512 28.0533 31.4143 27.6448 31.5249 27.2608C31.5797 27.2175 31.6184 27.1601 31.6571 27.1601C43.9884 27.1562 56.3197 27.1563 68.6511 27.1562C68.7068 27.2333 68.8082 27.3089 68.8108 27.3878C68.826 27.8495 68.8182 28.3119 68.8182 28.7762C68.9198 29.0149 69.1266 29.1583 69.333 29.3282C69.829 29.3282 70.3393 29.3282 70.8321 29.3282C71.0572 29.4908 70.9629 29.7116 70.9754 29.904C70.9887 30.1086 70.9659 30.3156 70.9819 30.5198C70.9972 30.7139 70.8997 30.9274 71.0662 31.1021C71.3578 31.2246 71.6645 31.1453 71.9637 31.1652C72.2147 31.1819 72.469 31.1383 72.6345 31.177C72.85 31.3627 73.0045 31.4959 73.1385 31.6113C73.1386 38.4802 73.1386 45.3109 73.1386 52.1414Z" fill="#FFFFFD"/>
<path d="M31.1699 29.0069C30.5727 29.0069 29.9756 29.0069 29.4293 29.0069C29.3614 28.8755 29.3214 28.834 29.3211 28.7921C29.317 28.1875 29.3183 27.5828 29.3183 26.9885C29.7345 26.8114 29.7345 26.8114 31.0835 26.9155C31.1122 26.9542 31.1659 26.9927 31.1662 27.0317C31.1713 27.6901 31.1699 28.3485 31.1699 29.0069Z" fill="#4A6BBC"/>
<path d="M29.0098 31.1663C28.3927 31.1663 27.7755 31.1663 27.1583 31.1663C27.1583 30.5009 27.1583 29.8355 27.1582 29.17C27.2364 29.1157 27.3131 29.0171 27.393 29.0144C27.8534 28.9994 28.3145 29.0057 28.7753 29.0093C28.8195 29.0097 28.8634 29.0417 28.9075 29.059C28.9416 29.096 29.0051 29.1328 29.0055 29.1701C29.0115 29.8355 29.0098 30.5009 29.0098 31.1663Z" fill="#4161B7"/>
<path d="M31.4785 52.142C31.4785 45.9298 31.4784 39.7177 31.4823 33.5054C31.4823 33.4666 31.5393 33.4279 31.572 33.3862C31.8623 33.2707 32.1688 33.3489 32.4681 33.3263C32.7185 33.3073 32.9737 33.3682 33.2156 33.2864C33.2565 33.2455 33.324 33.2096 33.3244 33.1728C33.3314 32.6597 33.3291 32.1464 33.3291 31.6273C33.4735 31.4865 33.6203 31.3432 33.801 31.167C44.6484 31.167 55.5333 31.1669 66.4182 31.169C66.4628 31.169 66.5076 31.1992 66.5218 31.2043C66.5819 31.2577 66.6529 31.2912 66.6533 31.3255C66.66 31.9414 66.6582 32.5573 66.6582 33.1727C66.7409 33.2243 66.8216 33.3175 66.9043 33.3194C67.4691 33.3324 68.0342 33.3248 68.5991 33.3289C68.642 33.3292 68.6845 33.3683 68.7271 33.3893C68.7575 33.428 68.8145 33.4667 68.8145 33.5055C68.8185 39.7177 68.8183 45.9299 68.8183 52.1421C66.8023 52.9977 64.755 52.7182 62.7049 52.3128C62.0411 51.6512 62.2258 50.7931 62.1873 49.992C62.1019 48.2144 62.3493 46.421 62.0371 44.7727C61.5474 44.2053 60.8808 44.2574 60.4787 43.8384C60.1137 43.4539 60.0914 42.8993 59.8091 42.4699C59.4132 42.0255 58.7453 42.1103 58.3258 41.7099C57.9318 41.3375 57.9328 40.7747 57.6027 40.2386C56.796 39.8757 56.0873 39.245 55.6503 38.2303C51.8153 37.903 47.9725 38.3015 44.1529 38.009C43.6072 37.9196 43.065 37.6793 42.545 37.9205C41.9695 38.3034 42.1304 38.996 41.7737 39.4337C41.445 39.9451 40.6658 39.7181 40.3805 40.295C40.1765 40.8301 40.2551 41.3837 40.2545 41.933C40.2728 42.551 40.2797 43.165 39.9664 43.6848C39.5826 44.2136 38.9361 44.1911 38.4472 44.5568C38.0202 45.094 38.1324 45.78 38.1283 46.4311C38.1127 48.9361 38.1313 51.4413 38.1164 53.9463C38.1122 54.655 38.1934 55.3869 37.7697 56.0297C37.6287 56.1845 37.4635 56.215 37.2756 56.1228C36.7938 55.5023 36.8853 54.764 36.8805 54.056C36.8631 51.4949 36.8856 48.9336 36.8654 46.3726C36.8608 45.7816 37.005 45.1374 36.4567 44.5835C35.8551 44.9414 35.979 45.5363 35.9685 46.0486C35.9388 47.4824 35.9732 48.9171 35.9503 50.3511C35.9397 51.0113 35.9896 51.6948 35.515 52.2556C34.1536 52.7617 32.8036 52.8823 31.4785 52.142Z" fill="#548ACD"/>
<path d="M62.6465 52.1416C64.7038 52.1416 66.761 52.1416 68.8183 52.1416C68.8183 56.9541 68.8183 61.7666 68.8183 66.5493C68.3793 66.6978 68.0224 66.6169 67.6714 66.6387C67.3698 66.6575 67.0643 66.5985 66.7755 66.6813C66.7318 66.7234 66.6632 66.7587 66.6628 66.7946C66.6562 67.4106 66.6581 68.0265 66.6582 68.6426C66.5773 68.6946 66.4993 68.7846 66.4148 68.7911C66.1596 68.8109 65.9019 68.7983 65.6451 68.7983C55.3228 68.7983 45.0005 68.7983 34.6783 68.7983C34.3737 68.7983 34.0692 68.7983 33.7942 68.7983C33.6204 68.6254 33.4749 68.4805 33.33 68.3362C33.33 67.8217 33.33 67.3084 33.33 66.7617C32.776 66.4634 32.1429 66.773 31.572 66.5785C31.5409 66.54 31.4823 66.5016 31.4823 66.4632C31.4783 61.6893 31.4785 56.9155 31.4785 52.1416C32.8157 52.1416 34.153 52.1416 35.4902 52.1416C36.3071 53.0788 35.6354 54.3096 36.1377 55.3528C36.4156 55.752 36.9961 55.7805 37.3418 56.1516C37.4446 56.1516 37.5475 56.1516 37.6504 56.1516C37.7036 56.2023 37.7568 56.2531 37.8109 56.303C38.0614 56.6876 37.9725 57.1785 38.2432 57.6306C38.6711 58.1164 39.5762 57.8936 39.9662 58.5726C40.1858 58.9523 40.1775 59.4189 40.4379 59.7803C40.7522 60.1547 41.2979 60.077 41.5485 60.3232C42.0519 60.7306 41.982 61.3452 42.4076 61.7078C42.9528 61.9896 43.5643 61.8733 44.1686 61.8632C48.1493 61.8229 52.1263 61.822 56.0997 61.8562C56.589 61.8934 57.0802 61.9178 57.5233 61.7552C58.0054 61.3478 57.8569 60.823 57.8977 60.3455C57.9299 59.6181 57.7396 58.8365 58.4068 58.2689C59.3593 58.4024 58.6614 59.7671 59.6767 59.9257C60.2893 59.4376 59.9963 58.7359 60.0607 58.1219C60.0989 57.4109 59.8988 56.639 60.5868 56.1021C61.4906 56.2785 60.8536 57.5058 61.7916 57.7618C62.4744 57.2662 62.1515 56.5049 62.2004 55.8417C62.3023 54.6002 61.8303 53.2926 62.6465 52.1416Z" fill="#4371C5"/>
<path d="M62.6465 52.1412C62.6465 53.4779 62.6465 54.8145 62.6465 56.1511C62.0293 56.6325 61.4121 56.6327 60.7949 56.1511C60.6818 56.1174 60.5861 56.1468 60.5428 56.2536C60.5084 56.3385 60.4894 56.4356 60.4887 56.5274C60.4841 57.1217 60.4863 57.716 60.4863 58.3104C59.8691 58.7918 59.2519 58.7919 58.6347 58.3104C58.5216 58.2767 58.4259 58.306 58.3827 58.4128C58.3483 58.4978 58.3292 58.5947 58.3285 58.6866C58.3239 59.2809 58.3261 59.8752 58.3261 60.4696C58.0081 60.8378 57.4686 60.798 57.1235 61.1182C56.8032 61.4632 56.843 62.0025 56.4746 62.3203C52.2571 62.3203 48.0397 62.3203 43.8223 62.3203C43.4763 62.0072 43.4742 61.5123 43.2068 61.1377C42.7123 60.7537 41.9656 60.7977 41.5607 60.2328C41.2823 59.8759 41.3025 59.3982 41.0629 59.0286C40.7368 58.5772 40.069 58.7341 39.8668 58.4243C39.3822 57.8934 39.4723 57.3026 39.1121 56.8606C38.7326 56.4676 38.0471 56.5984 37.6504 56.1511C37.6504 52.0579 37.6504 47.9645 37.6504 43.8572C38.3943 43.764 39.0541 43.8563 39.6585 43.7944C39.7352 43.7243 39.8055 43.6901 39.8058 43.6553C39.8122 42.9882 39.8105 42.3209 39.8105 41.6536C40.1258 41.2847 40.6622 41.3309 41.0087 41.0192C41.3473 40.6705 41.2498 40.1398 41.5319 39.7679C41.9407 39.2889 42.5254 39.1268 42.9577 38.9968C43.5125 38.5962 43.3954 37.9603 43.8223 37.6436C47.9863 37.6436 52.1504 37.6436 56.3145 37.6436C56.368 37.723 56.4648 37.8012 56.4674 37.8823C56.4822 38.3443 56.473 38.807 56.4772 39.2695C56.4776 39.3129 56.514 39.3559 56.5338 39.3991C56.572 39.4309 56.61 39.4897 56.6486 39.4902C57.1608 39.4964 57.6732 39.4943 58.1719 39.4943C58.2216 39.544 58.2834 39.5759 58.2905 39.6172C58.4022 40.2654 58.238 40.9298 58.3896 41.5998C59.0495 41.7318 59.7128 41.5867 60.3685 41.6843C60.6159 42.0013 60.4417 42.3697 60.4849 42.7122C60.5284 43.0576 60.3948 43.4194 60.5894 43.7806C61.2295 43.8628 61.89 43.7684 62.4904 43.8306C62.5705 43.9024 62.6417 43.9365 62.6418 43.9707C62.6468 46.6944 62.6465 49.4178 62.6465 52.1412Z" fill="#FFFFFD"/>
<path d="M37.3419 56.1516C36.7849 56.1516 36.2278 56.1534 35.6708 56.1477C35.6322 56.1474 35.5941 56.0923 35.5557 56.0627C35.5339 56.0211 35.4932 55.9796 35.4931 55.9379C35.4897 54.6725 35.4903 53.4071 35.4903 52.1416C35.4903 49.4201 35.4903 46.6986 35.4902 43.9771C35.5685 43.9224 35.6454 43.8228 35.7251 43.8206C36.2315 43.8062 36.7384 43.8133 37.1947 43.8133C37.2761 43.9065 37.3378 43.9442 37.3378 43.9819C37.3421 48.0385 37.3419 52.0951 37.3419 56.1516Z" fill="#3E5EB6"/>
<path d="M66.658 39.4C66.5135 39.4588 66.4697 39.4922 66.4258 39.4923C65.2468 39.4952 64.0679 39.4951 62.889 39.4926C62.8441 39.4925 62.7992 39.4637 62.7609 39.4506C62.7197 39.4106 62.6511 39.3751 62.651 39.3393C62.6454 38.1097 62.6463 36.88 62.6463 35.6502C62.7236 35.595 62.8007 35.4925 62.8786 35.4918C64.0575 35.4815 65.2365 35.4841 66.4154 35.4866C66.4603 35.4867 66.5051 35.5155 66.5435 35.5287C66.5847 35.5686 66.6533 35.6041 66.6534 35.6399C66.659 36.8697 66.658 38.0993 66.658 39.4Z" fill="#FEFFFD"/>
<path d="M43.8222 37.6442C43.8222 38.1938 43.8238 38.7435 43.8192 39.2931C43.8189 39.3333 43.774 39.3731 43.7499 39.4131C43.7112 39.4404 43.6727 39.491 43.6338 39.4915C43.1339 39.4968 42.634 39.495 42.0829 39.495C42.0086 39.5797 41.9153 39.6968 41.8084 39.7998C41.7826 39.8248 41.712 39.8035 41.6621 39.8035C41.0449 40.285 40.4277 40.2849 39.8105 39.8035C39.775 39.6873 39.8063 39.5893 39.9182 39.5465C40.0064 39.5128 40.1066 39.4982 40.2018 39.4972C40.6529 39.4923 41.1042 39.495 41.5078 39.495C41.5898 39.413 41.6565 39.3775 41.657 39.3412C41.6639 38.8337 41.6616 38.3261 41.6616 37.7818C41.7947 37.6667 41.9473 37.5348 42.1457 37.3632C42.4247 37.2916 42.7771 37.3513 43.1263 37.3369C43.2784 37.3306 43.4311 37.3323 43.5832 37.338C43.628 37.3397 43.6739 37.3634 43.7154 37.3846C43.8231 37.4395 43.8577 37.528 43.8222 37.6442Z" fill="#4061B7"/>
<path d="M39.502 43.4216C39.349 43.474 39.3045 43.5023 39.2596 43.5026C38.8002 43.506 38.3407 43.5061 37.8814 43.5023C37.8376 43.502 37.7942 43.4686 37.7506 43.4506C37.7172 43.4134 37.6553 43.3765 37.6548 43.3389C37.6484 42.8288 37.6505 42.3185 37.6505 41.8082C37.9538 41.6313 37.9538 41.6313 39.4019 41.7081C39.4353 41.7453 39.4972 41.7822 39.4977 41.8197C39.5041 42.3299 39.502 42.8402 39.502 43.4216Z" fill="#4768BA"/>
<path d="M39.8105 39.8027C40.4277 39.8027 41.0449 39.8027 41.6621 39.8027C41.6621 40.3544 41.6637 40.9062 41.6588 41.4578C41.6584 41.4975 41.6106 41.5369 41.585 41.5764C41.5455 41.6021 41.5061 41.6498 41.4664 41.6501C40.9145 41.6551 40.3625 41.6534 39.8105 41.6534C39.8105 41.0366 39.8105 40.4197 39.8105 39.8027Z" fill="#3E5FB6"/>
<path d="M43.8221 62.6797C45.3935 62.6126 54.9174 62.6129 56.3594 62.6751C56.4004 62.7141 56.4692 62.749 56.4697 62.7848C56.4767 63.2978 56.4744 63.811 56.4745 64.3243C56.3936 64.3761 56.3126 64.473 56.2315 64.4731C52.1759 64.4805 48.1202 64.4798 44.0646 64.4777C44.0197 64.4777 43.9748 64.4485 43.9408 64.4368C43.8963 64.3943 43.8274 64.3594 43.827 64.3236C43.8199 63.8105 43.8221 63.2974 43.8221 62.6797Z" fill="#425FB6"/>
<path d="M37.6503 56.1514C38.2029 56.1514 38.7555 56.1514 39.3322 56.1514C39.4626 56.2752 39.6056 56.411 39.7869 56.5831C39.8468 57.0871 39.7795 57.6329 39.8272 58.173C39.8878 58.2692 39.9696 58.3077 40.0716 58.3118C40.567 58.3316 41.0668 58.2551 41.557 58.3655C41.6683 58.3906 41.6967 58.5042 41.662 58.619C41.0448 59.1004 40.4277 59.1005 39.8105 58.619C39.7604 58.619 39.6896 58.6402 39.6638 58.6153C39.5572 58.5116 39.4643 58.394 39.3916 58.3105C38.8363 58.3105 38.3354 58.3124 37.8346 58.3068C37.796 58.3064 37.7579 58.2538 37.7195 58.2254C37.6964 58.1849 37.6536 58.1445 37.6533 58.1038C37.6491 57.4532 37.6503 56.8023 37.6503 56.1514Z" fill="#4A64B9"/>
<path d="M41.662 60.1618C41.712 60.1618 41.7825 60.1405 41.8084 60.1655C41.9152 60.2686 42.0085 60.3856 42.0829 60.4703C42.6741 60.4703 43.214 60.4703 43.7004 60.4703C43.7739 60.5921 43.8187 60.6319 43.819 60.6721C43.8236 61.2217 43.8221 61.7714 43.8221 62.321C43.1665 62.321 42.5108 62.3224 41.8552 62.3176C41.8155 62.3173 41.7763 62.2681 41.7368 62.2416C41.7119 62.2015 41.6656 62.1617 41.6652 62.1213C41.6602 61.6188 41.6619 61.1161 41.6619 60.6197C41.57 60.5656 41.4914 60.482 41.4073 60.4762C40.9108 60.442 40.4087 60.5249 39.9163 60.4161C39.8042 60.3913 39.7754 60.2772 39.8104 60.1618C40.4276 59.6805 41.0448 59.6804 41.662 60.1618Z" fill="#3F5FB7"/>
<path d="M58.6347 58.3105C59.2519 58.3105 59.8691 58.3105 60.4863 58.3105C60.4863 58.976 60.4863 59.6414 60.4864 60.3068C60.4082 60.3612 60.3314 60.4598 60.2515 60.4624C59.7912 60.4775 59.3301 60.4712 58.8693 60.4675C58.825 60.4671 58.7812 60.4351 58.7371 60.4179C58.703 60.3808 58.6394 60.344 58.639 60.3067C58.6331 59.6414 58.6347 58.976 58.6347 58.3105Z" fill="#4662B8"/>
<path d="M60.7949 56.1514C61.4121 56.1514 62.0293 56.1514 62.6464 56.1514C62.6464 56.8168 62.6464 57.4822 62.6465 58.1476C62.5684 58.202 62.4916 58.3006 62.4117 58.3033C61.9513 58.3183 61.4902 58.312 61.0294 58.3083C60.9852 58.3079 60.9413 58.276 60.8973 58.2587C60.8632 58.2216 60.7996 58.1848 60.7992 58.1475C60.7933 57.4822 60.7949 56.8168 60.7949 56.1514Z" fill="#4662B8"/>
<path d="M56.4746 62.3208C56.4746 61.7691 56.473 61.2174 56.4779 60.6657C56.4783 60.626 56.5261 60.5866 56.5518 60.5471C56.5913 60.5214 56.6306 60.4737 56.6703 60.4733C57.2223 60.4684 57.7742 60.47 58.3262 60.47C58.3262 61.0217 58.3278 61.5734 58.3229 62.125C58.3225 62.1648 58.2747 62.204 58.249 62.2436C58.2095 62.2693 58.1702 62.3171 58.1305 62.3175C57.5785 62.3224 57.0265 62.3208 56.4746 62.3208Z" fill="#3D5CB5"/>
<path d="M41.6621 60.1614C41.0449 60.1614 40.4277 60.1614 39.8105 60.1614C39.8105 59.6473 39.8105 59.1333 39.8105 58.6191C40.4277 58.6191 41.0449 58.6191 41.6621 58.6191C41.6621 59.1333 41.6621 59.6474 41.6621 60.1614Z" fill="#405EB7"/>
<path d="M41.9706 53.9925C41.8529 54.0287 41.7538 53.9967 41.7112 53.8825C41.6778 53.7929 41.664 53.6911 41.664 53.5948C41.6615 51.1827 41.6614 48.7708 41.6643 46.3588C41.6643 46.2635 41.6976 46.1683 41.7156 46.0731C41.7532 46.0397 41.7903 45.9773 41.8281 45.9769C42.4433 45.9708 43.0586 45.9726 43.6703 45.9726C43.9798 45.6652 43.7868 45.2896 43.8155 44.9497C43.845 44.6008 43.8221 44.2475 43.8221 43.95C43.9287 43.8714 43.9678 43.8175 44.0073 43.8172C44.6207 43.8118 45.2342 43.8135 45.8303 43.8135C46.0831 43.5918 45.9563 43.3203 45.9784 43.0795C45.9971 42.876 45.969 42.6683 45.9857 42.4644C46.0058 42.2186 45.9041 41.9587 46.0516 41.7345C46.1042 41.7033 46.1454 41.6574 46.1866 41.6573C48.8529 41.6539 51.5192 41.6543 54.164 41.6543C54.4165 41.8848 54.287 42.1556 54.3102 42.3966C54.3299 42.5999 54.2999 42.808 54.3179 43.0117C54.3396 43.2567 54.2303 43.518 54.4138 43.7748C55.0485 43.8752 55.7093 43.7621 56.3396 43.8331C56.3954 43.8888 56.4629 43.9247 56.4632 43.9614C56.4697 44.5763 56.4679 45.1913 56.4679 45.8019C56.5515 45.8619 56.6273 45.9627 56.7063 45.9653C57.1679 45.9806 57.6303 45.9713 58.0923 45.9751C58.1365 45.9755 58.1804 46.008 58.2245 46.0256C58.2583 46.063 58.3216 46.1002 58.3217 46.1376C58.3265 48.139 58.3259 50.1404 58.3259 52.1419C57.6799 52.7005 56.8879 52.6144 56.1268 52.6169C52.3849 52.6291 48.6429 52.6184 44.9009 52.6251C44.2381 52.6263 43.5657 52.5663 42.935 52.8134C42.4338 53.0701 42.4008 53.6935 41.9706 53.9925Z" fill="#548ACD"/>
<path d="M41.9707 53.9925C41.9707 53.4298 41.9707 52.8671 41.9706 52.3043C42.0488 52.2501 42.127 52.1489 42.2055 52.1486C44.6619 52.1402 47.1184 52.1417 49.5749 52.1417C52.4919 52.1417 55.4091 52.1417 58.3261 52.1417C58.3261 52.8066 58.3261 53.4716 58.3262 54.1366C58.2486 54.1915 58.1724 54.2909 58.093 54.2935C57.633 54.3086 57.1722 54.2995 56.7117 54.3031C56.6673 54.3034 56.6231 54.3343 56.5789 54.3509C56.5442 54.3877 56.4796 54.4241 56.4791 54.4612C56.4725 54.9727 56.4747 55.4842 56.4747 55.9957C56.3943 56.0477 56.3148 56.1428 56.2331 56.1446C55.6705 56.1578 55.1075 56.1503 54.5446 56.154C54.501 56.1543 54.4575 56.1882 54.4139 56.2065C54.3808 56.2439 54.3191 56.2811 54.3187 56.3188C54.3127 56.9322 54.3145 57.5456 54.3145 58.1577C54.2306 58.2097 54.1493 58.3042 54.0678 58.3044C51.4119 58.3121 48.756 58.3107 46.1204 58.3107C45.861 57.9553 46.0255 57.5902 45.9838 57.2486C45.9417 56.9045 46.0731 56.5446 45.8762 56.1764C45.2422 56.1119 44.5855 56.1847 43.9535 56.1384C43.7212 55.8431 43.863 55.5286 43.8232 55.2376C43.7832 54.9451 43.9086 54.6341 43.7213 54.3459C43.1832 54.2107 42.6198 54.3957 42.0798 54.2506C41.9646 54.2198 41.9347 54.1098 41.9707 53.9925Z" fill="#4371C5"/>
</svg>
