<svg width="100" height="105" viewBox="0 0 100 105" fill="none" xmlns="http://www.w3.org/2000/svg">
<path d="M4.3205 0.309549C4.28416 0.191663 4.31626 0.0925243 4.4309 0.0500146C4.52071 0.0166857 4.62255 0.00496401 4.71937 0.00318956C5.02781 -0.0024424 5.33634 0.00109882 5.64486 0.00109882C35.3136 0.00109882 64.9823 0.00109882 94.651 0.00109882C95.0567 0.00109882 95.4622 0.00109882 95.8176 0.00109882C95.9017 0.0838809 95.9699 0.11953 95.9702 0.155945C95.9766 0.824065 95.9748 1.49226 95.9748 2.16038C96.4829 2.75721 96.4157 3.47563 96.4057 4.18086C96.4368 4.68087 96.336 5.19678 96.5755 5.6883C96.9302 6.21022 97.7521 6.0394 98.0597 6.65475C98.3687 7.98536 98.5569 9.30826 97.8659 10.588C97.2929 10.9689 96.7078 10.9177 96.207 10.697C95.6092 10.2934 95.5546 9.67109 95.1553 9.12564C94.3649 8.69083 93.3402 8.34696 93.0453 6.96836C64.3696 6.96844 35.7705 6.96791 7.29032 6.96876C6.47145 7.80645 6.13615 8.84388 5.1953 8.97566C4.78147 9.54271 4.72584 10.0896 4.32466 10.5415C3.72096 10.9947 2.98819 11.0935 2.19887 10.892C1.34999 9.56555 1.68867 8.14915 1.88479 6.74456C2.19223 6.02683 3.00872 6.19988 3.51351 5.822C4.00565 5.4067 3.86832 4.68913 4.27729 4.22878C4.42866 4.10935 4.59438 4.02541 4.77784 3.9684C5.74376 3.74636 6.72349 3.82612 7.69674 3.82589C35.8429 3.82126 63.989 3.82327 92.1351 3.81741C93.0001 3.81726 93.8827 3.93291 94.7062 3.59954C95.1589 3.20631 95.1328 2.67373 95.1962 2.17279C95.1566 1.75664 95.057 1.36664 94.7427 1.05272C93.8522 0.683018 92.9158 0.814175 91.9997 0.813944C63.7647 0.807 35.5297 0.810796 7.29464 0.798838C6.28775 0.798606 5.21922 1.02751 4.3205 0.309549Z" fill="#FCCB25"/>
<path d="M97.8263 10.4887C97.8263 9.15202 97.8263 7.81532 97.8263 6.47869C97.3373 5.86118 97.3537 5.19715 97.6438 4.50735C97.704 4.4444 97.7651 4.38192 97.8263 4.31943C98.4943 4.31943 99.1623 4.31941 99.8304 4.31934C99.8825 4.40011 99.9768 4.47965 99.9795 4.56205C99.994 5.02387 99.9865 5.4864 99.9865 5.94868C99.9865 37.2803 99.9865 68.6119 99.9865 99.9435C99.2965 100.239 98.5921 100.039 97.9601 100.084C97.3633 99.5482 97.3997 98.9249 97.3891 98.3152C97.3878 98.1285 97.39 97.9411 97.3897 97.7541C97.3509 97.1016 97.3866 96.4488 97.3872 95.7953C97.3289 94.3554 97.3478 92.9158 97.3734 91.4752C97.2675 81.589 97.3469 71.7038 97.3313 61.8186C97.3262 58.5922 97.2714 55.3652 97.3668 52.1389C97.2712 42.3277 97.3486 32.5163 97.326 22.7051C97.3182 19.3661 97.3164 16.027 97.3308 12.688C97.3341 11.9241 97.2609 11.1313 97.8263 10.4887Z" fill="#020201"/>
<path d="M2.1602 6.47889C2.1602 7.91836 2.1602 9.35791 2.1602 10.7974C2.66584 11.2748 2.64718 11.9134 2.64718 12.5219C2.64594 25.7175 2.71314 38.9131 2.61971 52.1086C2.71137 64.2537 2.6363 76.399 2.65713 88.5443C2.65883 89.5171 2.70858 90.4915 2.61484 91.4623C2.64185 92.9221 2.6633 94.3829 2.60628 95.8432C2.63282 96.6143 2.639 97.3855 2.60374 98.1571C2.6302 98.7735 2.6353 99.3851 2.16769 99.9814C1.48352 100.131 0.744884 100.208 0 99.9437C0 68.1498 1.88352e-06 36.356 0.00193064 4.56202C0.00193064 4.51712 0.0310953 4.47214 0.0424363 4.43927C0.0856404 4.39383 0.120587 4.32471 0.156231 4.32432C0.824119 4.31784 1.49216 4.31954 2.1602 4.31954C2.21999 4.38272 2.27979 4.44592 2.34058 4.50857C2.63244 5.19744 2.64933 5.86138 2.1602 6.47889Z" fill="#020202"/>
<path d="M95.9747 102.103C95.9747 102.747 95.9753 103.391 95.9742 104.035C95.9741 104.157 95.8797 104.224 95.6661 104.262C95.2974 103.888 95.1875 103.358 94.8505 102.914C94.0242 102.442 93.0807 102.61 92.1725 102.61C63.8781 102.601 35.5839 102.605 7.28952 102.593C6.28433 102.592 5.21735 102.82 4.32032 102.103C3.86822 101.559 3.88952 100.938 4.027 100.295C4.08594 100.108 4.18546 99.9476 4.3241 99.8081C4.49044 99.6946 4.6702 99.6161 4.86446 99.5656C5.6267 99.4054 6.39936 99.4476 7.16831 99.4475C35.8222 99.4439 64.4762 99.444 93.1302 99.4471C93.8481 99.4472 94.5687 99.4129 95.2827 99.528C95.481 99.5684 95.6697 99.6379 95.8496 99.7298C96.0209 99.8391 96.1466 99.9892 96.2285 100.175C96.4448 100.856 96.4551 101.512 95.9747 102.103Z" fill="#975143"/>
<path d="M4.32027 102.103C34.688 102.103 65.0558 102.103 95.4235 102.104C95.4685 102.104 95.5134 102.134 95.546 102.145C95.5916 102.188 95.6609 102.223 95.6612 102.259C95.6676 102.926 95.6659 103.594 95.6659 104.262C65.2982 104.262 34.9304 104.262 4.56267 104.26C4.51777 104.26 4.47279 104.231 4.44016 104.219C4.39449 104.176 4.32529 104.141 4.32498 104.106C4.31858 103.438 4.32027 102.77 4.32027 102.103Z" fill="#070707"/>
<path d="M4.32031 0.30957C34.688 0.30957 65.0556 0.309563 95.4233 0.311492C95.4683 0.311492 95.5133 0.340502 95.5477 0.352383C95.592 0.394739 95.6609 0.429691 95.6612 0.465566C95.668 1.03046 95.666 1.59543 95.666 2.1604C94.8206 2.85251 93.8065 2.65292 92.8492 2.65353C74.3484 2.6651 55.8475 2.66195 37.3466 2.66195C27.2739 2.66195 17.2013 2.66527 7.12858 2.65647C6.26257 2.6557 5.37488 2.77273 4.54937 2.37062C4.47261 2.30134 4.39646 2.23091 4.32031 2.16048C4.32031 1.54343 4.32031 0.92654 4.32031 0.30957Z" fill="#050303"/>
<path d="M95.9748 100.252C95.9748 100.149 95.9748 100.047 95.9748 99.9438C95.497 99.356 95.5384 98.7461 95.8531 98.136C96.5322 97.6023 97.1756 97.6056 97.8264 98.0929C97.8264 98.6457 97.8248 99.1985 97.8299 99.7513C97.8302 99.7908 97.8795 99.8298 97.906 99.8691C97.946 99.8939 97.9858 99.9403 98.0259 99.9405C98.6794 99.9451 99.3331 99.9438 99.9866 99.9438C100.021 100.058 99.9908 100.154 99.8822 100.198C99.7961 100.232 99.698 100.249 99.6049 100.25C99.1583 100.255 98.7116 100.252 98.3049 100.252C98.1671 100.336 98.1366 100.418 98.1327 100.522C98.1145 101.015 98.1914 101.512 98.079 101.999C98.0535 102.109 97.9406 102.137 97.8264 102.103C97.4577 101.785 97.4985 101.246 97.1781 100.9C96.8326 100.58 96.2929 100.621 95.9748 100.252Z" fill="#904A3E"/>
<path d="M4.32041 99.9439C4.32041 100.047 4.32041 100.15 4.32041 100.252C3.60036 100.792 2.88024 100.792 2.1602 100.252C1.51608 100.252 0.871875 100.253 0.227749 100.252C0.105621 100.252 0.038035 100.157 0 99.9439C0.653539 99.9439 1.30715 99.9452 1.96069 99.9407C2.00081 99.9404 2.04062 99.894 2.08059 99.8692C2.10713 99.8299 2.15643 99.7909 2.15681 99.7514C2.16183 99.1986 2.1602 98.6458 2.1602 98.0931C2.72278 97.6406 3.32347 97.6214 3.95409 97.9338C4.54722 98.5172 4.43752 99.2299 4.32041 99.9439Z" fill="#934F41"/>
<path d="M2.16033 4.31961C2.16033 3.6653 2.15901 3.01091 2.16364 2.35652C2.16395 2.31663 2.21179 2.27714 2.23748 2.2374C2.27721 2.21171 2.31671 2.16388 2.35659 2.16364C3.01121 2.15901 3.66584 2.16033 4.32053 2.16033C4.86004 2.88006 4.86004 3.5998 4.32053 4.31961C3.60049 4.85889 2.88037 4.85889 2.16033 4.31961Z" fill="#15100D"/>
<path d="M95.9746 4.31969C95.9746 3.59995 95.9746 2.88022 95.9746 2.16041C96.5276 2.16041 97.0806 2.15878 97.6336 2.1638C97.6731 2.16418 97.7123 2.21341 97.7515 2.23995C97.7764 2.27991 97.8227 2.31964 97.823 2.35976C97.8276 3.01307 97.8263 3.66629 97.8263 4.31959C97.209 4.80109 96.5918 4.8011 95.9746 4.31969Z" fill="#0B0605"/>
<path d="M2.16016 100.252C2.8802 100.252 3.60032 100.252 4.32036 100.252C4.32036 100.869 4.32036 101.486 4.32036 102.103C3.66682 102.103 3.01321 102.104 2.35967 102.1C2.31955 102.099 2.27974 102.053 2.23977 102.028C2.21323 101.989 2.16394 101.95 2.16363 101.91C2.15854 101.357 2.16016 100.805 2.16016 100.252Z" fill="#070504"/>
<path d="M95.9746 100.252C96.5265 100.252 97.0785 100.251 97.6305 100.256C97.6702 100.256 97.7096 100.304 97.7491 100.329C97.7748 100.369 97.8226 100.408 97.8229 100.448C97.8278 101 97.8262 101.551 97.8262 102.103C97.209 102.103 96.5918 102.103 95.9746 102.103C95.9746 101.486 95.9746 100.869 95.9746 100.252Z" fill="black"/>
<path d="M2.16016 52.132C2.16016 38.3539 2.16016 24.5758 2.16016 10.7978C2.21162 10.7978 2.28028 10.8191 2.31137 10.794C2.42902 10.6989 2.53442 10.5886 2.6486 10.48C3.16126 10.48 3.67307 10.48 4.17532 10.48C4.22107 10.4342 4.28564 10.4008 4.28957 10.3612C4.3543 9.70972 4.2986 9.05133 4.32638 8.44586C4.44434 8.37789 4.48561 8.33351 4.52735 8.33312C5.03677 8.32834 5.54628 8.33004 6.01759 8.33004C6.09119 8.25643 6.15869 8.22048 6.15923 8.18368C6.16617 7.67079 6.16394 7.15775 6.16394 6.65018C6.24957 6.58954 6.32534 6.49071 6.40565 6.48685C6.76486 6.46957 7.12531 6.47928 7.48537 6.47928C35.8239 6.47928 64.1625 6.47928 92.501 6.47928C92.9059 6.47928 93.3108 6.47928 93.6655 6.47928C93.7471 6.56986 93.8096 6.60696 93.8102 6.64484C93.8166 7.15774 93.8146 7.6708 93.8146 8.17937C93.905 8.23268 93.9865 8.32101 94.0706 8.32348C94.5331 8.33729 94.9962 8.33004 95.4919 8.33004C95.6211 8.45085 95.7678 8.58803 95.9262 8.73632C96.0712 9.27128 95.888 9.83617 96.0175 10.3775C96.0564 10.4166 96.0924 10.4841 96.1292 10.4846C96.6949 10.4913 97.2606 10.4893 97.8264 10.4893C97.8264 24.3702 97.8264 38.2512 97.8264 52.1321C95.7944 53.0353 93.7477 52.6059 91.936 52.4081C91.2944 51.8439 91.237 51.2938 90.9621 50.8633C90.6526 50.4277 90.0696 50.3589 89.6099 49.7812C89.2309 49.2171 89.3752 48.3734 89.3744 47.5654C89.3645 36.8329 89.3707 26.1005 89.362 15.368C89.3615 14.7147 89.5166 14.0216 89.0406 13.4471C88.5924 12.9781 87.8068 13.0651 87.4294 12.4794C87.1689 12.0994 87.1032 11.6093 86.7444 11.1109C62.3765 10.9807 38.0096 10.9814 13.6402 11.0764C13.1462 11.4775 13.1451 12.064 12.8635 12.4795C12.3982 13.2245 11.4526 12.8749 10.8728 13.3584C10.4557 14.0255 10.6273 14.7658 10.6265 15.4708C10.6147 26.1104 10.6213 36.7499 10.613 47.3895C10.6124 48.2032 10.7327 49.0383 10.3181 49.9104C9.41303 50.3913 8.76498 51.2197 8.28117 52.3827C6.24278 52.6057 4.19422 53.034 2.16016 52.132Z" fill="#E9C95C"/>
<path d="M4.32031 4.31944C4.32031 3.5997 4.32031 2.87997 4.32031 2.16016C34.7689 2.16016 65.2174 2.16016 95.666 2.16016C95.666 2.82781 95.666 3.49554 95.6661 4.16335C95.5853 4.21542 95.5058 4.30979 95.4234 4.31241C94.9614 4.32699 94.4987 4.31944 94.0362 4.31944C64.1309 4.31944 34.2256 4.31944 4.32031 4.31944Z" fill="#EDE0AD"/>
<path d="M2.16016 4.31934C2.8802 4.31934 3.60032 4.31934 4.32036 4.31934C4.32036 4.86903 4.32036 5.41864 4.32036 6.06122C4.19669 6.18482 4.0265 6.35493 3.90282 6.4786C3.25993 6.4786 2.71008 6.4786 2.16016 6.4786C2.16016 5.75886 2.16016 5.03907 2.16016 4.31934Z" fill="#E8DBA5"/>
<path d="M95.9748 4.31934C96.592 4.31934 97.2092 4.31934 97.8264 4.31934C97.8264 5.03907 97.8264 5.75879 97.8264 6.4786C97.2734 6.4786 96.7204 6.48022 96.1674 6.47513C96.1279 6.47475 96.0887 6.42552 96.0495 6.39898C96.0246 6.35902 95.9783 6.31929 95.978 6.27917C95.9735 5.62594 95.9748 4.97264 95.9748 4.31934Z" fill="#EBDFAA"/>
<path d="M89.4941 12.6482C89.6119 12.612 89.7198 12.6424 89.7534 12.7582C89.8541 13.1051 89.8002 13.4636 89.8003 13.8167C89.8033 25.3198 89.8027 36.8231 89.8027 48.3262C89.8027 48.8352 89.8027 49.3444 89.8027 49.8278C90.1032 50.0795 90.4208 49.9305 90.7123 49.9714C91.0061 50.0125 91.3184 49.887 91.5982 50.0662C91.7099 50.4157 91.6324 50.7725 91.6543 51.1238C91.673 51.4249 91.6104 51.7305 91.7023 52.0255C91.7415 52.0622 91.7783 52.1272 91.8154 52.1273C93.819 52.1322 95.8227 52.1316 97.8264 52.1316C97.8264 65.2928 97.8264 78.454 97.8264 91.6151C97.5054 91.9658 96.9934 91.9937 96.7333 92.2158C96.2964 92.7093 96.4155 93.3033 96.0774 93.7096C95.6942 94.1952 95.0294 94.0745 94.573 94.4055C94.1141 94.7994 94.2701 95.4825 93.8677 95.9013C93.4647 96.431 92.5504 96.1655 92.2032 96.9819C93.0704 97.597 93.9559 97.3405 94.6684 97.2644C95.4186 96.9433 95.1739 95.9771 95.952 95.8767C96.351 96.1635 96.2963 96.6866 96.5601 97.0448C96.8864 97.4546 97.488 97.3949 97.8264 97.7845C97.8264 97.8874 97.8264 97.9902 97.8264 98.093C97.2744 98.093 96.7224 98.0913 96.1705 98.0963C96.1308 98.0967 96.0914 98.1444 96.0519 98.1701C96.0262 98.2096 95.9784 98.2489 95.9781 98.2887C95.9732 98.8404 95.9748 99.3921 95.9748 99.9438C95.8719 99.9438 95.769 99.9438 95.6662 99.9438C95.3337 99.6206 95.1624 99.1698 94.8123 98.7022C64.9758 98.5889 35.1417 98.5886 5.6306 98.5891C4.83719 99.051 4.69716 99.5981 4.32043 99.9438C4.2081 99.9771 4.11283 99.9481 4.06947 99.8425C4.03491 99.7583 4.01523 99.662 4.01423 99.5708C4.00906 99.0783 4.01176 98.5856 4.01176 98.093C3.94981 97.7976 4.13072 97.6524 4.35469 97.5339C5.4216 97.1093 6.67459 97.7135 7.72538 97.0037C7.48922 96.1047 6.51605 96.4667 6.18037 95.9774C5.75821 95.54 5.83459 94.9605 5.54018 94.5387C5.21191 94.1144 4.59903 94.1551 4.2571 93.7536C3.90236 93.3633 3.96423 92.7816 3.59831 92.3454C3.2192 91.9728 2.55493 92.0519 2.16016 91.6153C2.16016 78.4542 2.16016 65.293 2.16016 52.1318C4.16266 52.1318 6.16525 52.1318 8.16783 52.1319C8.22269 52.0539 8.32214 51.9773 8.32476 51.8976C8.33988 51.4361 8.33216 50.974 8.33216 50.477C8.4114 50.3856 8.50375 50.2702 8.60605 50.1643C8.67464 50.0933 8.75734 50.0359 8.84915 49.9596C9.241 49.9596 9.64827 49.9596 10.0423 49.9596C10.0916 49.9103 10.1581 49.8752 10.1596 49.8375C10.174 49.4812 10.1829 49.1246 10.1829 48.768C10.1839 37.1173 10.1832 25.4666 10.1862 13.8159C10.1862 13.4631 10.1322 13.1047 10.2331 12.758C10.2667 12.6424 10.3746 12.612 10.4923 12.6482C11.1493 13.4566 10.9182 14.4204 10.9187 15.3233C10.93 39.2767 10.9306 63.2301 10.9289 87.1797C10.9574 87.8099 10.845 88.4627 11.1265 89.0089C11.6387 89.4617 12.347 89.3281 12.7754 89.8002C12.8956 89.9454 12.9876 90.1037 13.0592 90.2761C13.3049 90.9044 13.8384 91.0449 14.4273 91.0899C14.992 91.1331 15.5578 91.1198 16.1232 91.1199C38.9513 91.1205 61.7794 91.1206 84.6075 91.1191C85.275 91.1191 85.945 91.1555 86.6001 91.0227C87.2799 90.8797 87.246 90.1819 87.4648 89.8808C87.8946 89.4141 88.4089 89.4185 88.7963 89.0973C89.1871 88.5375 89.0304 87.8697 89.0248 87.2196C88.9545 74.0761 89.0051 60.9366 88.9941 47.7972C88.9851 36.9673 88.988 26.1373 88.9997 15.3073C89.0005 14.3998 88.8312 13.4413 89.4941 12.6482Z" fill="#FCCB25"/>
<path d="M95.9748 95.9339C95.8576 95.898 95.7492 95.9282 95.7181 96.0432C95.68 96.184 95.6783 96.3353 95.6668 96.4825C95.6358 96.883 95.7234 97.2892 95.6242 97.6741C95.5732 97.7189 95.5358 97.7805 95.4981 97.7806C94.271 97.7856 93.0439 97.7848 91.8167 97.7848C91.7625 97.7067 91.6638 97.6298 91.6616 97.5501C91.6472 97.0457 91.6543 96.5409 91.6543 96.0853C91.7414 96.0033 91.7779 95.9389 91.815 95.9384C92.4285 95.9322 93.0421 95.934 93.6558 95.9341C93.7088 95.8547 93.8056 95.7763 93.8075 95.6956C93.8209 95.1337 93.8134 94.5715 93.8168 94.0093C93.817 93.9652 93.8489 93.9213 93.8662 93.8773C93.9032 93.8432 93.9398 93.7795 93.9772 93.7791C94.5907 93.773 95.2043 93.7747 95.8179 93.7748C95.8702 93.6948 95.9659 93.6157 95.9678 93.5346C95.9811 92.9727 95.9736 92.4104 95.9771 91.8482C95.9774 91.8044 96.0101 91.7607 96.0278 91.7168C96.0649 91.683 96.1017 91.6203 96.1392 91.6199C96.7016 91.6135 97.264 91.6155 97.8264 91.6155C97.8264 93.055 97.8264 94.4945 97.8264 95.9341C97.2092 96.4154 96.592 96.4154 95.9748 95.9339Z" fill="#C87536"/>
<path d="M95.9746 95.9336C96.5918 95.9336 97.209 95.9336 97.8262 95.9336C97.8262 96.5505 97.8262 97.1674 97.8262 97.7843C97.2743 97.7843 96.7223 97.786 96.1704 97.781C96.1306 97.7806 96.0913 97.7329 96.0518 97.7072C96.0261 97.6677 95.9783 97.6283 95.9779 97.5886C95.973 97.037 95.9746 96.4853 95.9746 95.9336Z" fill="#EBD8A0"/>
<path d="M2.16016 91.6152C2.72212 91.6152 3.28408 91.6152 3.86834 91.6152C3.9944 91.7543 4.13096 91.905 4.31944 92.1129C4.3219 92.588 4.31928 93.1379 4.32067 93.6342C4.42251 93.714 4.46069 93.7701 4.49965 93.7706C5.00908 93.7765 5.5185 93.7745 6.01766 93.7745C6.06411 93.8209 6.13022 93.8557 6.13184 93.8933C6.15969 94.5436 6.17968 95.1942 6.20043 95.8157C6.2745 95.8735 6.31292 95.9296 6.3518 95.9299C6.96353 95.9354 7.57532 95.9338 8.18226 95.9338C8.36603 96.2822 8.36603 96.2822 8.26797 97.6946C8.22932 97.7246 8.19075 97.7807 8.15202 97.7808C6.8748 97.7855 5.59765 97.7846 4.32043 97.7846C3.94649 97.4773 3.9829 96.9421 3.68472 96.6136C3.22953 96.2311 2.55894 96.3871 2.16023 95.9338C2.16015 94.4943 2.16016 93.0547 2.16016 91.6152Z" fill="#C87536"/>
<path d="M2.16016 95.9338C2.81369 95.9338 3.46731 95.9325 4.12084 95.937C4.16096 95.9372 4.20078 95.9835 4.24074 96.0084C4.26728 96.0477 4.31658 96.0868 4.31697 96.1263C4.32198 96.679 4.32036 97.2318 4.32036 97.7846C4.07425 97.8249 4.05219 97.847 4.01176 98.093C3.39456 98.093 2.77736 98.093 2.16016 98.093C2.16016 97.3732 2.16016 96.6535 2.16016 95.9338Z" fill="#E9D39C"/>
<path d="M4.32039 99.944C4.32039 99.3787 4.32039 98.8133 4.32031 98.2478C4.40163 98.1962 4.48117 98.1041 4.5648 98.1003C4.92401 98.0838 5.28438 98.0932 5.64429 98.0932C35.2102 98.0932 64.7762 98.0929 94.3421 98.0961C94.7469 98.0962 95.1551 98.0461 95.5448 98.1282C95.593 98.1757 95.6609 98.2114 95.6613 98.2479C95.668 98.8132 95.666 99.3786 95.666 99.944C65.2175 99.944 34.769 99.944 4.32039 99.944Z" fill="#EEDDA4"/>
<path d="M12.6527 12.6482C12.6527 11.9803 12.6527 11.3125 12.6526 10.6445C12.7336 10.5926 12.8128 10.4999 12.8961 10.4961C13.2551 10.4795 13.6153 10.489 13.9751 10.489C37.9784 10.489 61.9817 10.489 85.985 10.489C86.3924 10.489 86.7999 10.489 87.177 10.489C87.3519 10.6624 87.4977 10.8071 87.6424 10.9506C87.6424 11.518 87.6424 12.0832 87.6424 12.6483C87.5656 12.7163 87.4889 12.7842 87.4128 12.8531C87.2288 12.947 87.0341 13.0074 86.8299 13.0374C86.1642 13.1046 85.4958 13.0822 84.8282 13.0822C61.6567 13.0842 38.4853 13.0851 15.3139 13.0776C14.4999 13.0774 13.6654 13.2084 12.88 12.8552C12.8039 12.7867 12.7283 12.7174 12.6527 12.6482Z" fill="#060607"/>
<path d="M89.4941 12.6484C89.4941 37.6341 89.4941 62.6197 89.4941 87.6054C88.8128 88.0938 88.1496 88.1183 87.5091 87.5294C87.1884 87.029 87.1696 86.4684 87.1715 85.8978C87.2504 62.3725 87.1818 38.847 87.2159 15.3217C87.2172 14.4193 86.986 13.4562 87.6424 12.6484C88.2597 12.6484 88.8769 12.6484 89.4941 12.6484Z" fill="black"/>
<path d="M10.4924 87.6054C10.4924 62.6197 10.4924 37.6341 10.4924 12.6484C11.2125 12.6484 11.9326 12.6484 12.6526 12.6484C12.7728 12.7942 12.8716 12.9533 12.951 13.1255C13.1602 13.7772 13.0661 14.4531 13.1137 15.1193C13.2001 20.1047 13.1476 25.0892 13.1499 30.0735C13.158 47.7513 13.1539 65.4292 13.1509 83.107C13.1508 83.8257 13.1911 84.546 13.1054 85.2627C13.0931 86.0624 13.2362 86.8884 12.7236 87.6075C11.98 88.1554 11.2358 88.1466 10.4924 87.6054Z" fill="#060607"/>
<path d="M87.334 91.6155C62.5211 91.6155 37.7083 91.6156 12.8954 91.6136C12.8504 91.6136 12.8055 91.5846 12.7712 91.5727C12.7268 91.5304 12.6581 91.4955 12.6575 91.4596C12.6503 90.9975 12.6527 90.5354 12.6527 90.0731C13.1962 89.5404 13.8935 89.6443 14.5498 89.644C38.1476 89.6346 61.7455 89.6351 85.3433 89.644C85.9992 89.6442 86.6894 89.5453 87.3002 90.0273C87.5758 90.5338 87.5606 91.0699 87.334 91.6155Z" fill="#C77435"/>
<path d="M87.3339 91.6155C87.3339 91.1534 87.3339 90.6912 87.334 90.2289C87.2531 90.1769 87.1735 90.0828 87.091 90.0801C86.6291 90.0656 86.1665 90.0731 85.7042 90.0731C61.3537 90.0731 37.0031 90.0731 12.6526 90.0731C12.6526 89.9703 12.6526 89.8674 12.6526 89.7647C12.7276 89.697 12.8026 89.6293 12.8769 89.5604C13.8039 89.1265 14.7947 89.2775 15.7604 89.2772C38.502 89.2682 61.2435 89.2718 83.985 89.2652C84.8994 89.265 85.8345 89.3873 86.6681 89.0203C87.1065 88.6913 87.1461 88.1805 87.4245 87.8156C87.4961 87.7446 87.5693 87.675 87.6425 87.6055C88.2597 87.6055 88.8769 87.6055 89.4941 87.6055C89.4941 88.2609 89.4955 88.9162 89.4907 89.5715C89.4904 89.6111 89.4412 89.6504 89.4146 89.6898C89.3745 89.7148 89.3346 89.761 89.2943 89.7615C88.7915 89.7664 88.2886 89.7647 87.792 89.7647C87.7379 89.8566 87.6542 89.9352 87.6484 90.0192C87.6142 90.5155 87.697 91.0174 87.5883 91.5096C87.5635 91.6217 87.4492 91.6505 87.3339 91.6155Z" fill="#C57636"/>
<path d="M10.4924 87.6055C11.2124 87.6055 11.9325 87.6055 12.6526 87.6055C12.7124 87.6687 12.7721 87.7319 12.8329 87.7945C13.1248 88.4831 13.1413 89.1471 12.6526 89.7647C11.9979 89.7647 11.3432 89.766 10.6886 89.7614C10.6487 89.7612 10.6092 89.7133 10.5695 89.6876C10.5438 89.6479 10.496 89.6083 10.4957 89.5685C10.491 88.9142 10.4924 88.2598 10.4924 87.6055Z" fill="#BE7234"/>
<path d="M12.6526 87.6055C12.6526 86.8857 12.6526 86.166 12.6526 85.4462C13.2129 84.9602 13.8949 85.0098 14.5674 85.0094C14.7653 85.0021 14.9618 84.9933 15.1594 84.9768C32.3684 84.9086 49.5761 84.9562 66.7837 84.9502C72.9988 84.948 79.214 84.896 85.4281 84.9808C85.8415 84.9444 86.2408 84.8709 86.5819 84.533C86.9638 83.7375 86.8313 82.8515 86.8316 81.9893C86.8388 60.6218 86.8366 39.2543 86.8391 17.8868C86.8392 16.9627 86.8062 16.0377 86.871 15.1153C86.9153 14.452 86.8194 13.7758 87.0298 13.1246C87.1097 12.9527 87.2118 12.7942 87.3337 12.6484C87.4366 12.6484 87.5395 12.6484 87.6423 12.6484C87.6423 37.6341 87.6423 62.6197 87.6423 87.6054C87.0493 88.1343 86.3131 88.1013 85.5972 88.1016C61.964 88.1111 38.3308 88.1112 14.6975 88.1016C13.9818 88.1013 13.2456 88.1344 12.6526 87.6055Z" fill="#6896CD"/>
<path d="M87.3339 12.6484C87.3339 12.7513 87.3339 12.8541 87.3339 12.9569C86.7408 13.4858 86.0047 13.4527 85.2888 13.453C61.7584 13.4625 38.228 13.4626 14.6977 13.4531C13.9818 13.4528 13.2457 13.4858 12.6526 12.9569C12.6526 12.854 12.6526 12.7512 12.6526 12.6484C37.5464 12.6484 62.4401 12.6484 87.3339 12.6484Z" fill="#7CA6D7"/>
<path d="M12.6526 12.957C37.5464 12.957 62.4401 12.957 87.3339 12.957C87.3339 13.5739 87.3339 14.1909 87.3339 14.8078C86.7455 15.3311 86.0237 15.2525 85.3194 15.2568C84.9621 15.3176 84.6019 15.3069 84.2424 15.3069C61.4769 15.3064 38.7113 15.3111 15.9458 15.3049C15.6888 15.3049 15.4319 15.3052 15.177 15.2813C14.9817 15.2666 14.7848 15.2542 14.5885 15.2502C13.9091 15.255 13.2184 15.3035 12.6527 14.8078C12.6526 14.1909 12.6526 13.574 12.6526 12.957Z" fill="#9BBBE2"/>
<path d="M12.6526 14.8076C13.2698 14.8076 13.887 14.8076 14.5042 14.8076C15.1336 15.5631 14.9247 16.4717 14.9331 17.3254C15.1374 37.9609 14.8619 58.5966 14.9395 79.2322C14.9452 80.7209 14.9475 82.2097 14.9357 83.6984C14.9308 84.3129 14.9652 84.942 14.5042 85.4461C13.887 85.4461 13.2698 85.4461 12.6526 85.4461C12.6526 61.8999 12.6526 38.3538 12.6526 14.8076Z" fill="#7EA8DA"/>
<path d="M10.9103 12.9976C11.3406 12.8865 11.7896 13.0099 12.1648 12.9508C12.2684 13.0452 12.3393 13.0797 12.3393 13.1141C12.344 37.7827 12.344 62.4512 12.3402 87.1198C12.3402 87.1584 12.2819 87.1969 12.224 87.2687C11.8039 87.3131 11.3561 87.3111 10.9455 87.2705C10.8766 87.2078 10.8057 87.1733 10.8057 87.1389C10.8009 62.4703 10.8009 37.8018 10.8048 13.1332C10.8049 13.0948 10.8631 13.0562 10.9103 12.9976Z" fill="#020203"/>
<path d="M12.6526 87.6055C37.6492 87.6055 62.6459 87.6055 87.6425 87.6055C87.6425 88.1701 87.6425 88.7348 87.6425 89.3046C87.4987 89.4457 87.3523 89.5894 87.1738 89.7647C62.3565 89.7647 37.5046 89.7647 12.6526 89.7647C12.6526 89.0449 12.6526 88.3252 12.6526 87.6055Z" fill="#020201"/>
<path d="M14.5042 85.4461C14.5042 61.9 14.5042 38.3538 14.5042 14.8076C14.607 14.8076 14.7099 14.8076 14.8128 14.8076C15.5225 15.7099 15.2188 16.7766 15.2957 17.7816C15.3556 18.5644 15.1288 19.3986 15.6171 20.1389C16.3421 19.8765 16.2001 19.1129 16.6076 18.818C17.0358 18.409 17.6029 18.392 18.0085 18.0657C18.4039 17.6481 18.4165 17.0078 18.8531 16.6157C20.3672 16.0011 79.5227 15.9768 81.1201 16.591C81.5703 16.9756 81.5899 17.6131 81.9705 18.0391C82.3736 18.3651 82.9244 18.4259 83.2154 18.6877C83.6882 19.1574 83.7535 19.7046 84.0523 20.1222C84.4835 20.5437 85.1629 20.3286 85.6059 20.7259C86.0365 21.3678 85.9748 22.1015 85.9755 22.8146C85.9843 31.2331 85.9837 39.6517 85.9762 48.0703C85.9756 48.7842 86.0327 49.5155 85.6381 50.1692C85.2725 50.6039 84.6662 50.4466 84.1539 50.7921C83.7654 51.0922 83.7661 51.7552 83.0522 52.3762C80.263 53.0629 77.0418 52.2183 73.7594 52.8506C73.3408 57.5797 73.936 62.2947 73.3115 66.943C72.6595 67.3873 72.033 67.3955 71.4192 67.4051C69.6731 67.4322 67.9259 67.4521 66.1811 67.3944C65.5679 67.3741 64.7973 67.5527 64.5145 66.6848C65.1702 65.9901 66.0377 66.2011 66.8382 66.1608C68.5709 66.0736 70.3207 66.3116 72.3282 65.9365C72.3767 58.8201 72.3552 51.7588 72.3415 44.756C71.4037 44.1502 70.5752 43.6943 70.3304 42.8237C69.8552 42.3941 69.2827 42.394 68.883 42.0543C68.4232 41.6719 68.4248 41.0344 68.0792 40.5844C67.6901 40.225 67.123 40.2111 66.7178 39.8836C66.2542 39.5043 66.2554 38.8599 65.7096 38.2201C62.9403 38.0147 59.9902 38.0804 57.2482 38.1853C56.6026 38.6897 56.6173 39.2792 56.3484 39.6001C55.9844 40.1211 55.4247 40.2178 55.0543 40.5755C54.0001 42.4455 53.7268 42.5745 52.1178 41.9517C51.3086 40.9011 52.0261 39.5092 51.2964 38.2823C49.1314 37.9776 46.9052 38.0532 44.7451 38.2437C44.1355 39.0313 44.3052 39.8291 44.3039 40.5799C44.2913 48.4457 44.3014 56.3114 44.2898 64.1772C44.2886 64.9884 44.4164 65.8331 43.9191 66.5747C43.8341 66.6198 43.7488 66.6636 43.6635 66.7073C43.5787 66.6627 43.4939 66.6182 43.4083 66.5739C42.9081 65.8358 43.0351 64.9918 43.0339 64.1814C43.0223 56.3236 43.0326 48.4659 43.0189 40.6081C43.0177 39.9149 43.1847 39.1723 42.6274 38.4594C41.9974 38.9041 42.162 39.5506 42.1578 40.0959C42.133 43.3826 42.1552 46.6697 42.1401 49.9565C42.1365 50.719 42.2226 51.5085 41.7389 52.1916C40.37 52.8261 38.9938 52.7892 37.6123 52.2377C37.0821 51.578 37.1745 50.7847 37.1705 50.0243C37.1536 46.8415 37.169 43.6586 37.1596 40.4758C37.1576 39.8153 37.2399 39.1385 36.8407 38.3451C34.6706 37.8962 32.4091 38.1533 29.8091 38.2151C29.7986 47.5441 29.7989 56.6861 29.8091 65.8622C31.7566 66.336 33.4541 66.057 35.1284 66.1475C35.9841 66.1937 36.8904 65.9807 37.646 66.6C37.6114 67.3261 37.0135 67.3461 36.5462 67.3683C34.3583 67.472 32.1676 67.4848 29.9793 67.3628C29.5136 67.3368 29.0767 67.1857 28.8061 66.7524C28.4375 65.979 28.5271 65.147 28.5263 64.3321C28.5186 56.3839 28.5275 48.4358 28.5129 40.4876C28.5117 39.8183 28.6817 39.0783 28.0494 38.4007C27.5461 39.0105 27.6524 39.6356 27.6498 40.2158C27.6352 43.4463 27.6512 46.6768 27.6376 49.9074C27.6343 50.6693 27.7212 51.4553 27.2745 52.1497C27.1551 52.245 27.0455 52.3783 26.8911 52.3965C23.5228 52.7921 20.1614 52.6546 16.8031 52.3644C16.2645 51.924 16.3068 51.1528 15.4331 50.526C15.1251 56.1046 15.401 61.3926 15.267 66.6692C15.3217 71.5204 15.3353 76.3705 15.2644 81.2201C15.2599 81.6077 15.2846 81.9961 15.2583 82.3836C15.2129 83.419 15.5184 84.5064 14.8128 85.4459C14.7099 85.4461 14.607 85.4461 14.5042 85.4461Z" fill="#548ACD"/>
<path d="M29.0084 66.6292C28.9722 66.7467 29.0074 66.836 29.1173 66.8909C29.1594 66.9119 29.2067 66.9357 29.2517 66.9358C31.9698 66.9379 34.6878 66.9378 37.4058 66.9373C37.5461 66.9373 37.6168 66.8452 37.6492 66.6292C37.1985 66.1339 37.1654 65.5159 37.1623 64.8994C37.1435 61.2169 37.1411 57.5343 37.1647 53.8518C37.1686 53.2433 37.1553 52.6108 37.6492 52.1314C38.9864 52.1314 40.3237 52.1314 41.661 52.1314C42.2638 52.7641 42.1254 53.5672 42.1304 54.3193C42.1513 57.4965 42.1354 60.674 42.1417 63.8513C42.1429 64.4634 42.0965 65.0836 42.3457 65.7057C42.6028 66.1452 43.1649 66.2557 43.5127 66.6293C43.6155 66.6293 43.7184 66.6293 43.8213 66.6293C45.5488 66.2343 47.2996 66.5682 49.0365 66.4633C49.7973 66.4174 50.5838 66.5711 51.3074 66.1648C51.775 65.5332 51.6679 64.7937 51.6713 64.0872C51.6862 60.9516 51.6712 57.8159 51.6818 54.6803C51.6845 53.9141 51.6109 53.1319 51.9773 52.4098C52.5439 51.6424 53.3907 51.6794 54.2023 51.6663C56.0907 51.6358 57.9797 51.6637 59.8684 51.6512C60.4252 51.6475 60.9963 51.7064 61.5848 51.3682C62.11 50.3128 61.7232 49.1155 61.8801 47.9772C61.9687 47.335 61.6648 46.4749 62.6765 46.2422C63.2659 46.9469 63.1146 47.8004 63.1173 48.6065C63.1339 53.5389 63.123 58.4714 63.1275 63.4039C63.1281 64.1212 63.0752 64.8439 63.2169 65.376C63.4287 66.058 63.9499 66.1376 64.3032 66.4169C64.369 66.4866 64.4332 66.5579 64.4973 66.6292C64.4611 66.7469 64.4931 66.846 64.6076 66.8886C64.6973 66.9219 64.7991 66.9356 64.8957 66.9357C67.5158 66.9381 70.1361 66.9382 72.7563 66.9352C72.8512 66.9352 72.946 66.8998 73.0409 66.8808C73.0733 66.8427 73.1341 66.8048 73.1342 66.7668C73.1385 61.9396 73.1382 57.1124 73.1383 52.2851C73.2199 52.2338 73.3013 52.1379 73.383 52.1377C76.4142 52.1301 79.4454 52.1323 82.4766 52.1292C82.726 52.129 82.9805 52.1688 83.2041 52.098C83.2566 52.0373 83.3173 51.9998 83.3178 51.9616C83.3241 51.4494 83.322 50.9372 83.322 50.4347C83.477 50.2798 83.6224 50.1345 83.7763 49.9807C84.1762 49.9807 84.5848 49.9807 85.0131 49.9807C85.1084 50.0714 85.2137 50.1816 85.3312 50.2768C85.3622 50.3018 85.4309 50.2805 85.4822 50.2805C86.0507 50.8597 85.9737 51.6066 85.9747 52.3137C85.9887 62.6769 85.9875 73.04 85.9772 83.4032C85.9765 84.118 86.0108 84.8531 85.4822 85.4456C61.9258 85.4456 38.3692 85.4456 14.8127 85.4456C14.8127 84.4173 14.8127 83.3891 14.8127 82.3609C15.5581 81.7105 16.4677 81.908 17.3225 81.9077C39.0967 81.8986 60.8707 81.9051 82.6449 81.8816C83.3314 81.8808 84.2423 82.3067 84.6387 81.2628C84.6924 76.6877 84.7483 72.1151 84.605 67.4132C83.6486 67.7384 83.7974 68.5208 83.0269 68.9531C81.894 69.4314 18.5046 69.4961 16.6794 68.8647C16.2335 68.042 15.7835 67.1108 14.8127 66.6293C14.8127 61.1491 14.8126 55.6689 14.8154 50.1887C14.8154 50.1464 14.8559 50.1041 14.8775 50.0618C14.9164 50.032 14.9549 49.9767 14.9941 49.9762C15.5044 49.9703 16.0147 49.9723 16.51 49.9723C16.5613 50.0236 16.6231 50.0555 16.6299 50.0966C16.7373 50.7437 16.5797 51.4056 16.717 52.0366C16.7776 52.0775 16.8176 52.1282 16.8577 52.1282C20.2907 52.1318 23.7238 52.1316 27.1568 52.1316C27.7595 52.7643 27.6212 53.5674 27.6261 54.3196C27.647 57.4968 27.6312 60.6742 27.6375 63.8515C27.6387 64.4637 27.5923 65.0839 27.8415 65.7059C28.0985 66.1452 28.6606 66.2557 29.0084 66.6292Z" fill="#4371C5"/>
<path d="M85.4823 85.4461C85.4823 73.7245 85.4823 62.0028 85.4823 50.2811C85.4823 40.4102 85.4823 30.5394 85.4823 20.6685C84.703 18.7149 84.7256 16.7613 85.4823 14.8076C86.0995 14.8076 86.7167 14.8076 87.3339 14.8076C87.3339 38.2731 87.3339 61.7386 87.332 85.204C87.332 85.2489 87.3027 85.2938 87.2918 85.325C87.2478 85.3716 87.213 85.4409 87.1775 85.4413C86.6125 85.4482 86.0474 85.4461 85.4823 85.4461Z" fill="#7CA6D7"/>
<path d="M85.4824 14.8076C85.4824 16.7612 85.4824 18.7149 85.4824 20.6685C85.431 20.6685 85.3624 20.6472 85.3313 20.6722C85.2138 20.7674 85.1085 20.8776 85.0133 20.9682C84.482 20.9682 83.9705 20.9682 83.4679 20.9682C83.4227 20.9232 83.36 20.8906 83.3541 20.8498C83.2597 20.2007 83.3934 19.5383 83.2741 18.8803C82.5957 18.7329 81.9319 18.8891 81.2782 18.7863C81.0368 18.4649 81.1915 18.0983 81.1674 17.7546C81.143 17.4071 81.162 17.0565 81.162 16.759C81.0221 16.6969 80.9787 16.6608 80.9353 16.6608C60.278 16.6584 39.6205 16.6584 18.979 16.6584C18.9268 16.7105 18.8645 16.7428 18.8581 16.7838C18.7565 17.4326 18.903 18.0957 18.7704 18.7585C18.0998 18.9002 17.4362 18.7478 16.7814 18.8491C16.5371 19.1678 16.7091 19.5358 16.666 19.8782C16.6226 20.2235 16.7573 20.5853 16.578 20.9137C16.5265 20.9373 16.4835 20.974 16.4401 20.9744C15.9776 20.9785 15.5151 20.9783 15.0526 20.9748C15.0077 20.9745 14.9632 20.9445 14.9186 20.9282C14.8834 20.8914 14.8175 20.8547 14.8174 20.8178C14.8125 18.8145 14.813 16.8111 14.813 14.8076C38.3694 14.8076 61.9259 14.8076 85.4824 14.8076Z" fill="#4371C5"/>
<path d="M14.813 66.629C15.3778 66.629 15.9427 66.629 16.5076 66.6289C16.56 66.7093 16.6559 66.7889 16.6576 66.8705C16.6704 67.4786 16.6646 68.0871 16.6646 68.6914C17.1092 68.8831 17.5198 68.761 17.9175 68.7824C18.3784 68.8072 18.8416 68.7882 19.3037 68.7882C19.7145 68.7882 20.1254 68.7882 20.5361 68.7882C20.9982 68.7882 21.4604 68.7882 21.9226 68.7882C22.3334 68.7882 22.7442 68.7882 23.155 68.7882C23.6171 68.7882 24.0793 68.7882 24.5414 68.7882C24.9523 68.7882 25.3631 68.7882 25.7738 68.7882C26.236 68.7882 26.6982 68.7882 27.1603 68.7882C27.5711 68.7882 27.9819 68.7882 28.3927 68.7882C28.8548 68.7882 29.317 68.7882 29.7791 68.7882C30.19 68.7882 30.6008 68.7882 31.0115 68.7882C31.4737 68.7882 31.9359 68.7882 32.398 68.7882C32.8088 68.7882 33.2197 68.7882 33.6304 68.7882C34.0925 68.7882 34.5547 68.7882 35.0169 68.7882C35.4277 68.7882 35.8385 68.7882 36.2493 68.7882C36.7114 68.7882 37.1736 68.7882 37.6357 68.7882C38.0466 68.7882 38.4573 68.7882 38.8681 68.7882C39.279 68.7882 39.6898 68.7882 40.1005 68.7882C40.5626 68.7882 41.0248 68.7882 41.487 68.7882C41.8978 68.7882 42.3086 68.7882 42.7194 68.7882C43.1815 68.7882 43.6437 68.7882 44.1058 68.7882C44.5167 68.7882 44.9274 68.7882 45.3382 68.7882C45.8004 68.7882 46.2626 68.7882 46.7247 68.7882C47.1355 68.7882 47.5463 68.7882 47.9571 68.7882C48.4192 68.7882 48.8814 68.7882 49.3436 68.7882C49.7544 68.7882 50.1652 68.7882 50.576 68.7882C51.0381 68.7882 51.5003 68.7882 51.9624 68.7882C52.3732 68.7882 52.7841 68.7882 53.1948 68.7882C53.657 68.7882 54.1192 68.7882 54.5813 68.7882C54.9921 68.7882 55.4028 68.7882 55.8137 68.7882C56.2758 68.7882 56.738 68.7882 57.2001 68.7882C57.611 68.7882 58.0217 68.7882 58.4325 68.7882C58.8947 68.7882 59.3569 68.7882 59.819 68.7882C60.2298 68.7882 60.6407 68.7882 61.0514 68.7882C61.4622 68.7882 61.873 68.7882 62.2838 68.7882C62.7459 68.7882 63.2081 68.7882 63.6702 68.7882C64.0811 68.7882 64.4918 68.7882 64.9027 68.7882C65.3648 68.7882 65.827 68.7882 66.2891 68.7882C66.6999 68.7882 67.1108 68.7882 67.5215 68.7882C67.9837 68.7882 68.4459 68.7882 68.908 68.7882C69.3188 68.7882 69.7296 68.7882 70.1404 68.7882C70.6025 68.7882 71.0647 68.7882 71.5268 68.7882C71.9377 68.7882 72.3485 68.7882 72.7592 68.7882C73.2214 68.7882 73.6836 68.7882 74.1457 68.7882C74.5565 68.7882 74.9674 68.7882 75.3781 68.7882C75.8402 68.7882 76.3024 68.7882 76.7646 68.7882C77.1754 68.7882 77.5861 68.7882 77.997 68.7882C78.4591 68.7882 78.9213 68.7882 79.3834 68.7882C79.7943 68.7882 80.205 68.7882 80.6158 68.7882C81.0779 68.7882 81.5404 68.7978 82.0022 68.7853C82.4065 68.7743 82.8139 68.8375 83.1846 68.7556C83.2461 68.6996 83.3163 68.6654 83.3167 68.6306C83.3234 68.0148 83.3215 67.3988 83.3216 66.7829C83.641 66.5974 83.641 66.5974 85.0808 66.6909C85.1116 66.7294 85.1692 66.768 85.1692 66.8067C85.1732 71.6829 85.1731 76.559 85.1731 81.4352C84.6275 81.9404 83.9468 81.8941 83.2797 81.8941C61.0884 81.8965 38.897 81.8965 16.7057 81.8941C16.0385 81.8941 15.3579 81.9405 14.8123 81.4352C14.813 76.4999 14.813 71.5644 14.813 66.629Z" fill="#3C5CB5"/>
<path d="M52.1535 52.4397C52.1535 57.0888 52.1536 61.7378 52.1516 66.3868C52.1516 66.4315 52.1227 66.4762 52.1391 66.4285C51.9517 66.6511 51.8211 66.8062 51.7105 66.9375C49.2135 66.9375 46.7601 66.9375 44.2978 66.9375C44.1932 66.8377 44.0885 66.7278 43.9715 66.6329C43.9407 66.6079 43.8724 66.6291 43.8213 66.6291C43.8213 57.0291 43.8212 47.4291 43.8246 37.8292C43.8246 37.7888 43.8744 37.7485 43.9008 37.7081C45.0943 37.5974 48.3603 37.5778 52.0252 37.6594C52.1277 37.7196 52.156 37.8046 52.1557 37.9143C52.1523 39.1464 52.1557 40.3785 52.1498 41.6105C52.1492 41.725 52.1535 41.8158 52.2391 41.8831C52.2809 41.906 52.3226 41.9485 52.3647 41.9489C52.8732 41.9529 53.3819 41.9531 53.8108 41.9509C54.0248 41.7605 54.1774 41.6248 54.3187 41.4991C54.3187 40.9609 54.3187 40.4489 54.3187 39.918C54.8794 39.6157 55.5145 39.9382 56.0779 39.7281C56.1104 39.6807 56.1615 39.6409 56.1618 39.6007C56.1669 38.9881 56.1653 38.3753 56.1653 37.7551C56.5595 37.5054 56.9763 37.6747 57.3695 37.64C57.7263 37.6084 58.088 37.6334 58.4475 37.6334C58.8584 37.6334 59.2692 37.6334 59.6801 37.6334C60.0396 37.6334 60.3992 37.6334 60.7587 37.6334C61.1696 37.6334 61.5804 37.6334 61.9913 37.6334C62.3508 37.6334 62.7103 37.6334 63.0699 37.6334C63.4808 37.6334 63.8916 37.6334 64.3025 37.6334C64.662 37.6334 65.0215 37.6334 65.381 37.6334C65.7828 37.6334 66.1846 37.6334 66.5908 37.6334C66.7364 38.3574 66.5908 39.0198 66.6884 39.6746C67.0054 39.922 67.3737 39.7481 67.716 39.791C68.0614 39.8343 68.4228 39.7024 68.7567 39.8794C68.8779 40.2298 68.7955 40.5867 68.8174 40.9374C68.8364 41.239 68.7783 41.5444 68.8614 41.8409C68.8995 41.879 68.9354 41.9465 68.9721 41.9469C69.5883 41.9534 70.2047 41.9516 70.8211 41.9516C70.8735 42.0321 70.9685 42.1112 70.9711 42.1932C70.9858 42.6548 70.9766 43.1171 70.9807 43.579C70.9811 43.6222 71.0182 43.6652 71.0382 43.7083C71.0765 43.7397 71.1145 43.7981 71.1532 43.7985C71.6649 43.8046 72.1768 43.8025 72.6679 43.8025C72.7867 43.8776 72.8303 43.9608 72.8303 44.0651C72.8296 45.9645 72.8297 47.864 72.8297 49.7635C72.8297 55.0511 72.8307 60.3388 72.8272 65.6265C72.827 65.927 72.8769 66.2326 72.7783 66.5262C72.7385 66.5618 72.7011 66.6246 72.6636 66.6247C69.9416 66.6293 67.2195 66.6289 64.4975 66.6289C63.9033 65.931 64.0223 65.0811 64.0203 64.2698C64.008 59.2326 64.0166 54.1955 64.0122 49.1584C64.0116 48.4407 64.0643 47.7173 63.8565 47.0142C63.6634 46.534 63.1438 46.451 62.8066 46.1508C62.0894 45.8017 62.428 44.907 61.7831 44.3059C60.2656 44.167 58.6087 44.1835 57.1256 44.3704C56.5727 44.9088 56.5994 45.488 56.2807 45.8958C55.9566 46.3294 55.353 46.3195 54.9961 46.7015C54.6633 47.1004 54.6614 47.6762 54.3173 47.9916C53.8885 48.4883 53.2315 48.4653 52.8106 48.8891C52.3005 50.0109 52.9537 51.3635 52.1535 52.4397Z" fill="#FFFFFD"/>
<path d="M37.6493 52.1312C37.6493 56.9638 37.6493 61.7964 37.6493 66.629C34.9287 66.629 32.208 66.6294 29.4874 66.6249C29.4495 66.6248 29.4117 66.5639 29.3738 66.5314C29.3549 66.4879 29.3195 66.4444 29.3195 66.4009C29.3171 56.8589 29.3171 47.3168 29.3171 37.7949C29.3919 37.6769 29.4751 37.6328 29.5792 37.6328C32.1972 37.6334 34.8152 37.633 37.4332 37.636C37.4755 37.636 37.5179 37.6767 37.5602 37.6984C37.5899 37.7374 37.6456 37.7764 37.6456 37.8154C37.6496 42.5874 37.6493 47.3593 37.6493 52.1312Z" fill="#FFFFFD"/>
<path d="M14.8127 81.4355C38.2664 81.4355 61.72 81.4355 85.1736 81.4355C85.1736 81.6923 85.1736 81.949 85.1737 82.2058C85.0926 82.2576 85.0128 82.3513 84.9302 82.3539C84.4683 82.3684 84.0058 82.3609 83.5435 82.3609C60.6333 82.3609 37.723 82.3609 14.8128 82.3609C14.8127 82.0525 14.8127 81.744 14.8127 81.4355Z" fill="#4371C5"/>
<path d="M29.0085 66.6297C28.4458 66.6297 27.8832 66.6298 27.3204 66.6298C27.2658 66.552 27.1639 66.4743 27.1637 66.3962C27.1557 63.3286 27.1568 60.2611 27.1568 57.1934C27.1568 55.5062 27.1568 53.819 27.1568 52.1319C27.1568 47.3535 27.1568 42.5751 27.1567 37.7967C27.2354 37.7424 27.3127 37.644 27.3931 37.6414C27.8553 37.6264 28.3182 37.6326 28.7807 37.6366C28.8244 37.637 28.8678 37.6722 28.9113 37.6913C28.9437 37.7292 29.0043 37.7672 29.0044 37.8052C29.0086 47.4134 29.0085 57.0215 29.0085 66.6297Z" fill="#3F5EB6"/>
<path d="M43.5126 66.6297C42.9499 66.6297 42.3873 66.6298 41.8245 66.6298C41.7699 66.552 41.668 66.4743 41.6678 66.3962C41.6598 63.3286 41.661 60.2611 41.661 57.1934C41.661 55.5062 41.661 53.819 41.661 52.1319C41.661 47.3535 41.661 42.5751 41.6609 37.7967C41.7396 37.7424 41.8169 37.644 41.8973 37.6414C42.3594 37.6264 42.8223 37.6326 43.2849 37.6366C43.3286 37.637 43.3719 37.6722 43.4154 37.6913C43.4478 37.7292 43.5085 37.7672 43.5086 37.8052C43.5126 47.4134 43.5126 57.0215 43.5126 66.6297Z" fill="#3E5DB6"/>
<path d="M31.1687 23.1358C32.5504 23.1358 33.9321 23.135 35.3138 23.1397C35.3521 23.1399 35.3902 23.1982 35.4695 23.2629C35.5229 23.8772 35.4606 24.5331 35.5006 25.1627C35.7425 25.4 36.0107 25.264 36.2518 25.2904C36.4541 25.3126 36.6623 25.2788 36.865 25.2992C37.1078 25.3237 37.3716 25.2002 37.5863 25.3782C37.6115 25.4359 37.6469 25.4791 37.647 25.5225C37.65 26.745 37.6493 27.9674 37.6493 29.169C37.2905 29.4235 36.9258 29.2624 36.5839 29.304C36.2399 29.346 35.8795 29.2126 35.5482 29.3938C35.4316 29.7442 35.5046 30.0994 35.4915 30.4495C35.4802 30.7507 35.4891 31.0528 35.4891 31.3102C35.4105 31.3887 35.3745 31.4563 35.3382 31.4564C34.1105 31.4619 32.8827 31.461 31.6422 31.461C31.5411 31.3646 31.4362 31.2546 31.3192 31.1596C31.2883 31.1346 31.22 31.1559 31.1687 31.1559C30.7648 30.8586 30.8591 30.2913 30.5208 29.9574C30.1775 29.6334 29.6358 29.6741 29.3171 29.305C29.3171 27.9868 29.3171 26.6685 29.3171 25.3662C29.9556 25.2041 30.5194 25.3902 31.0596 25.245C31.1749 25.214 31.2048 25.1038 31.1687 24.9865C30.687 24.3697 30.6872 23.7528 31.1687 23.1358Z" fill="#FEFEFD"/>
<path d="M29.0084 29.2404C28.5043 29.3561 28.0978 29.2844 27.695 29.3024C27.5491 29.3089 27.4019 29.2841 27.2786 29.2753C27.2235 29.2134 27.1611 29.1762 27.161 29.1386C27.156 27.8078 27.1568 26.477 27.1568 25.1462C27.2361 25.0929 27.314 24.9963 27.395 24.9938C27.8553 24.979 28.3165 24.9851 28.7773 24.989C28.8211 24.9894 28.8647 25.0228 28.9084 25.0409C28.9418 25.0783 29.0041 25.1156 29.0043 25.1531C29.0092 26.4839 29.0084 27.8146 29.0084 29.2404Z" fill="#4261B7"/>
<path d="M29.3171 29.3049C29.869 29.3049 30.421 29.3033 30.973 29.3083C31.0127 29.3086 31.0521 29.3564 31.0916 29.3821C31.1172 29.4216 31.165 29.4609 31.1654 29.5007C31.1703 30.0523 31.1687 30.6041 31.1687 31.1558C31.2046 31.2728 31.1746 31.3892 31.06 31.4128C30.5135 31.5247 29.9646 31.4246 29.4736 31.4737C29.3834 31.372 29.3217 31.3349 29.3213 31.2972C29.3155 30.6332 29.3171 29.9691 29.3171 29.3049Z" fill="#405EB6"/>
<path d="M31.1687 23.136C31.1687 23.753 31.1687 24.3699 31.1687 24.9868C30.6058 24.9868 30.0427 24.9868 29.4797 24.9869C29.4255 24.9087 29.3271 24.8319 29.3245 24.7519C29.3095 24.292 29.3158 23.8312 29.3194 23.3709C29.3198 23.3266 29.3515 23.2828 29.3687 23.2387C29.4057 23.2045 29.4424 23.1409 29.4798 23.1404C30.0427 23.1341 30.6058 23.136 31.1687 23.136Z" fill="#4366B9"/>
<path d="M52.1534 52.4397C52.1534 51.0605 52.1526 49.6814 52.1572 48.3023C52.1572 48.2635 52.213 48.2248 52.2452 48.1829C52.5331 48.064 52.8379 48.1374 53.1359 48.1236C53.3859 48.112 53.6368 48.1212 53.8259 48.1212C54.0256 47.9356 54.1747 47.797 54.3137 47.6678C54.3137 47.1375 54.3137 46.6268 54.3137 46.0773C54.8682 45.7968 55.4956 46.0872 56.0666 45.9065C56.0995 45.869 56.1606 45.8319 56.1611 45.794C56.1674 45.2836 56.1653 44.7732 56.1653 44.2654C56.3125 44.1183 56.457 43.9738 56.6282 43.8027C58.5834 43.8027 60.5652 43.8027 62.498 43.8027C62.5797 43.8952 62.6413 43.9323 62.6417 43.9699C62.6476 44.6339 62.6459 45.2979 62.6459 45.9619C62.7239 46.0304 62.7499 46.099 62.7239 46.1676C62.698 46.2361 62.672 46.2705 62.6459 46.2705C62.5284 46.2344 62.4197 46.2647 62.3886 46.3802C62.3506 46.5215 62.3397 46.6736 62.3393 46.821C62.3361 48.3584 62.3393 49.8957 62.3351 51.433C62.3346 51.6311 62.3809 51.8356 62.2887 52.0259C62.2504 52.0619 62.2135 52.1269 62.1766 52.127C58.9981 52.1316 55.8195 52.1313 52.631 52.1313C52.5266 52.2309 52.4215 52.3409 52.3043 52.436C52.2732 52.461 52.2047 52.4397 52.1534 52.4397Z" fill="#548ACD"/>
<path d="M62.6458 46.2704C62.6458 46.1676 62.6458 46.0648 62.6458 45.962C63.2093 45.962 63.7728 45.962 64.3364 45.9619C64.3902 46.0408 64.4894 46.1191 64.4905 46.1986C64.5017 47.0689 64.4975 47.9395 64.4975 48.81C64.4975 54.7497 64.4975 60.6895 64.4975 66.6292C63.9341 66.6292 63.3706 66.6292 62.807 66.6293C62.7532 66.5505 62.6537 66.4721 62.6529 66.3927C62.6421 65.42 62.6459 64.4472 62.6459 63.4744C62.6458 57.7396 62.6458 52.0051 62.6458 46.2704Z" fill="#3C5CB5"/>
<path d="M62.3374 45.9249C62.0906 45.9421 61.9444 45.9595 61.7979 45.961C61.3954 45.965 60.993 45.9624 60.6526 45.9624C60.5599 45.8754 60.491 45.8411 60.4905 45.8058C60.4835 45.2956 60.4857 44.7853 60.4856 44.2749C60.5633 44.2204 60.6397 44.1215 60.7191 44.1189C61.1781 44.1039 61.6378 44.1103 62.0972 44.1137C62.1418 44.114 62.1861 44.1434 62.2153 44.1537C62.2631 44.1985 62.332 44.233 62.3325 44.2682C62.3396 44.7783 62.3374 45.2887 62.3374 45.9249Z" fill="#4A65B9"/>
</svg>
