<svg width="100" height="105" viewBox="0 0 100 105" fill="none" xmlns="http://www.w3.org/2000/svg">
<path d="M95.9851 102.123C95.9851 102.791 95.9851 103.46 95.9852 104.128C95.9038 104.18 95.8243 104.272 95.7407 104.276C95.3815 104.292 95.0211 104.283 94.6612 104.283C64.9901 104.283 35.3189 104.283 5.64785 104.279C5.24324 104.279 4.83262 104.346 4.43349 104.234C4.31737 104.201 4.28697 104.092 4.32339 103.974C5.16987 103.283 6.18425 103.483 7.14183 103.483C26.3692 103.471 45.5965 103.474 64.8238 103.474C74.0776 103.474 83.3314 103.477 92.5852 103.469C93.3137 103.468 94.0804 103.583 94.982 103.049C94.0804 102.515 93.3137 102.629 92.5851 102.628C80.5038 102.62 68.4224 102.623 56.3411 102.623C39.9413 102.623 23.5415 102.626 7.14175 102.614C6.18416 102.614 5.16979 102.814 4.32331 102.123C3.86438 101.38 3.60868 100.621 4.12895 99.7939C4.29769 99.6862 4.47854 99.612 4.67275 99.5646C5.38636 99.4299 6.10731 99.4657 6.82548 99.4656C35.5922 99.4625 64.3589 99.4626 93.1256 99.4662C93.8942 99.4663 94.6682 99.4126 95.4276 99.597C95.6279 99.6516 95.8092 99.7447 95.9732 99.872C96.5301 100.619 96.5281 101.37 95.9851 102.123Z" fill="#964F42"/>
<path d="M2.16309 99.964C1.49461 99.964 0.82605 99.964 0.157491 99.964C0.105873 99.8827 0.0135912 99.8032 0.00973337 99.7197C-0.00677808 99.3606 0.00271659 99.0003 0.00271659 98.6406C0.00271659 67.6456 0.00271659 36.6506 0.00271659 5.65564C0.00271659 5.25019 0.00271659 4.84465 0.00271659 4.48919C0.0854282 4.40532 0.121148 4.33719 0.157566 4.33688C0.826048 4.33048 1.49453 4.33226 2.16309 4.33226C2.22451 4.39892 2.28592 4.46551 2.34842 4.53163C2.64825 5.12998 2.56932 5.7784 2.59995 6.41355C2.64833 7.8316 2.63861 9.24912 2.615 10.668C2.72318 18.2732 2.65034 25.8773 2.65774 33.4813C2.66368 39.5953 2.70465 45.7095 2.63568 51.8235C2.66268 65.0378 2.71098 78.252 2.61739 91.465C2.64038 92.9007 2.66353 94.3376 2.60459 95.773C2.60713 96.4079 2.63097 97.0441 2.59038 97.6791C2.56469 98.3827 2.67224 99.1029 2.34811 99.7726C2.28716 99.8367 2.22513 99.9003 2.16309 99.964Z" fill="#020202"/>
<path d="M97.8368 4.33211C98.5053 4.33211 99.1738 4.33211 99.8424 4.33203C99.894 4.41335 99.9863 4.49282 99.9902 4.57638C100.007 4.93547 99.9972 5.29571 99.9972 5.65549C99.9972 36.6505 99.9972 67.6454 99.9972 98.6404C99.9972 99.0459 99.9972 99.4513 99.9972 99.8073C99.9146 99.8908 99.8789 99.9587 99.8423 99.9592C99.2768 99.9659 98.7111 99.9639 98.1454 99.9639C97.554 99.359 97.7839 98.5877 97.7194 97.8759C97.7217 97.0673 97.7745 96.254 97.4935 95.4702C97.2932 94.142 97.3802 92.8069 97.3851 91.4725C97.2769 81.7599 97.3573 72.0481 97.3421 62.3365C97.3367 58.9455 97.2817 55.5539 97.3775 52.1631C97.285 40.6522 97.3568 29.1412 97.3413 17.6302C97.3381 15.3186 97.2756 13.006 97.3827 10.6962C97.3628 9.27374 97.3482 7.85005 97.3943 6.42714C97.4224 5.78851 97.3442 5.13438 97.6476 4.53171C97.71 4.46482 97.7734 4.39846 97.8368 4.33211Z" fill="#020201"/>
<path d="M4.32332 2.17313C4.32332 1.50542 4.32332 0.837629 4.32324 0.169764C4.40402 0.117684 4.48357 0.0233208 4.56598 0.0206975C5.02799 0.00611496 5.49069 0.0136807 5.95324 0.0136807C35.861 0.0136807 65.7687 0.0136807 95.6764 0.0136807C95.8775 0.791725 95.9887 1.56645 95.5912 2.32366C94.94 2.73182 94.2063 2.66894 93.4921 2.66909C64.4998 2.67542 35.5074 2.67681 6.51502 2.66924C5.84993 2.66909 5.17281 2.70813 4.55193 2.38307C4.47532 2.31386 4.39932 2.2435 4.32332 2.17313Z" fill="#040202"/>
<path d="M95.6766 2.1727C95.6766 1.45291 95.6766 0.733118 95.6766 0.0132491C95.7897 -0.0204682 95.8855 0.00892862 95.9287 0.115713C95.9631 0.200662 95.9822 0.297721 95.9829 0.389537C95.9875 0.983872 95.9853 1.57829 95.9853 2.1727C96.4829 2.75192 96.4218 3.4518 96.4142 4.13826C96.4358 4.57627 96.3507 5.02941 96.5736 5.44675C96.8928 5.86733 97.5034 5.78863 97.8371 6.18305C97.8371 7.62263 97.8371 9.0623 97.8371 10.5019C97.2948 10.9469 96.7171 10.9406 96.1889 10.6914C95.6142 10.2845 95.5839 9.65694 95.2567 9.17371C94.8701 8.76671 94.2203 8.77651 93.9688 8.51541C93.4283 7.99854 93.3532 7.44726 93.0171 6.8226C64.4037 6.67362 35.7906 6.67323 7.17618 6.78079C6.7053 7.20785 6.64773 7.77286 6.35423 8.18657C6.04113 8.62791 5.50097 8.74673 5.11827 9.08753C4.74645 9.52184 4.73665 10.1573 4.24894 10.6053C3.57784 11.0109 2.86329 11.045 2.16333 10.5019C2.16333 9.0623 2.16333 7.62263 2.16333 6.18305C2.55482 5.73153 3.2223 5.90244 3.64921 5.52854C4.01578 5.15935 3.9414 4.56671 4.32455 4.2013C4.47802 4.09359 4.64128 4.01913 4.82075 3.96859C5.79014 3.7659 6.76918 3.83796 7.74297 3.83788C35.8393 3.83379 63.9356 3.83542 92.032 3.83087C92.9483 3.83071 93.8793 3.93187 94.7192 3.63258C95.2107 3.20212 95.2609 2.56913 95.6766 2.1727Z" fill="#FCCB25"/>
<path d="M4.32349 102.123C34.7187 102.123 65.1139 102.123 95.5091 102.127C95.5468 102.127 95.5844 102.19 95.6244 102.225C95.7244 102.519 95.6715 102.825 95.6719 103.126C95.6721 103.375 95.7285 103.631 95.6285 103.868C95.5844 103.907 95.5468 103.97 95.5091 103.97C65.1139 103.974 34.7187 103.974 4.32349 103.974C4.32349 103.357 4.32349 102.74 4.32349 102.123Z" fill="#030303"/>
<path d="M98.1455 97.8041C98.1455 98.5239 98.1455 99.2437 98.1455 99.9636C98.1455 100.014 98.1668 100.084 98.1418 100.11C98.0387 100.217 97.9216 100.31 97.8369 100.384C97.8369 100.935 97.8387 101.435 97.8333 101.935C97.8329 101.974 97.7822 102.012 97.7549 102.051C97.715 102.075 97.6751 102.12 97.6349 102.12C97.085 102.124 96.535 102.123 95.9851 102.123C95.9851 101.403 95.9851 100.683 95.9851 99.9636C96.0319 99.9126 96.0788 99.8617 96.1248 99.8099C96.4574 99.59 96.8965 99.6359 97.1917 99.4021C97.5963 98.9464 97.3769 98.3009 97.7554 97.8695C97.8734 97.7727 98.0027 97.7478 98.1455 97.8041Z" fill="#171818"/>
<path d="M2.16301 4.33247C2.16301 3.67803 2.1617 3.02359 2.16633 2.36923C2.16664 2.32934 2.21448 2.28984 2.24017 2.25018C2.27991 2.22449 2.31941 2.17665 2.3593 2.17634C3.01397 2.17171 3.66864 2.17302 4.32339 2.17302C4.86295 2.89282 4.86295 3.6126 4.32339 4.33247C3.60329 4.87179 2.88311 4.87179 2.16301 4.33247Z" fill="#13120E"/>
<path d="M4.01477 99.9636C3.97009 100.219 4.24415 100.27 4.32339 100.457C4.32339 101.005 4.32339 101.564 4.32339 102.123C3.66872 102.123 3.01397 102.124 2.3593 102.12C2.31941 102.119 2.27983 102.071 2.24017 102.046C2.21448 102.006 2.16664 101.967 2.16633 101.927C2.1617 101.272 2.16301 100.618 2.16301 99.9634C2.78026 99.5083 3.39752 99.4316 4.01477 99.9636Z" fill="#0E0908"/>
<path d="M95.9851 4.33255C95.9851 3.61276 95.9851 2.89297 95.9851 2.1731C96.5382 2.1731 97.0912 2.17148 97.6443 2.17649C97.6838 2.17688 97.7229 2.2261 97.7622 2.25264C97.7871 2.29261 97.8334 2.33243 97.8337 2.37255C97.8382 3.02583 97.8369 3.67919 97.8369 4.33255C97.2196 4.81393 96.6024 4.81393 95.9851 4.33255Z" fill="#0A0806"/>
<path d="M95.6764 99.9644C65.2254 99.9644 34.7744 99.9644 4.32337 99.9644C3.83404 99.2864 3.79654 98.6194 4.37089 97.9663C4.98066 97.5963 5.66288 97.6826 6.32334 97.6824C35.3893 97.676 64.4552 97.6757 93.5212 97.6825C94.2322 97.6827 94.9672 97.5952 95.647 98.0303C96.1622 98.6485 96.1777 99.2984 95.6764 99.9644Z" fill="#EEDCA3"/>
<path d="M95.6765 99.9639C95.6765 99.3989 95.6765 98.8339 95.6766 98.2688C95.5957 98.2168 95.5161 98.1226 95.4336 98.12C94.9716 98.1055 94.5088 98.113 94.0463 98.113C64.1387 98.113 34.2311 98.113 4.32346 98.113C3.55043 98.3803 2.8284 98.2908 2.16309 97.8045C2.16309 97.1875 2.16309 96.5706 2.16309 95.9536C2.78628 95.4506 3.45391 95.4743 4.08088 95.749C4.66241 96.0871 4.68162 96.7456 5.15983 97.1638C6.22614 97.5209 7.39637 97.258 8.54376 97.3519C9.00639 97.2814 9.46987 97.3039 9.93211 97.3038C36.668 97.3027 63.4039 97.3025 90.1398 97.3039C90.6021 97.3039 91.0656 97.2818 91.5252 97.3492C93.0089 97.4262 94.5337 97.0204 95.9677 97.7159C96.5453 98.4604 96.5304 99.2103 95.9852 99.9638C95.8823 99.9639 95.7794 99.9639 95.6765 99.9639Z" fill="#EBD89F"/>
<path d="M2.16309 97.8047C2.72247 97.8047 3.28178 97.8047 3.83028 97.8047C4.017 97.8839 4.06831 98.1578 4.32346 98.1132C4.32346 98.7302 4.32346 99.3471 4.32346 99.9641C4.22061 99.9641 4.11769 99.9641 4.01484 99.9641C3.39759 99.9641 2.78034 99.9641 2.16309 99.9641C2.16309 99.2443 2.16309 98.5245 2.16309 97.8047Z" fill="#9C5848"/>
<path d="M91.6643 97.805C63.8881 97.805 36.1118 97.805 8.33552 97.805C7.9907 97.4799 7.95251 96.9782 7.65592 96.6256C7.2561 96.2956 6.68329 96.3172 6.30044 95.9558C5.82609 95.5854 5.86104 94.9404 5.51484 94.5006C5.1809 94.1649 4.6631 94.1684 4.31991 93.8514C3.88035 93.4436 4.01762 92.7815 3.63701 92.3175C3.23193 91.9455 2.55921 92.0821 2.16309 91.6352C2.16309 78.3702 2.16309 65.1051 2.16309 51.8401C3.90543 51.3208 5.74846 52.0101 7.5408 51.4253C7.92543 50.46 8.45086 49.5945 9.40976 49.223C9.79431 48.4025 9.69709 47.6216 9.69748 46.8584C9.70373 36.4263 9.70095 25.9943 9.7025 15.5622C9.70257 14.9458 9.64694 14.3205 9.77124 13.7169C9.86267 13.2728 9.76468 12.6019 10.5798 12.7063C11.0366 13.2781 10.9895 13.9639 10.9893 14.626C10.9831 38.788 11.0341 62.9501 10.9728 87.1084C10.9304 87.6591 10.8527 88.2161 11.1246 88.7483C11.5974 89.2205 12.4049 89.1182 12.8108 89.7162C12.917 89.8674 13.001 90.0268 13.0739 90.1947C13.28 90.8101 13.7204 91.0839 14.3513 91.1154C14.8134 91.1385 15.2752 91.1451 15.7374 91.1452C38.6952 91.1458 61.6532 91.1498 84.611 91.1327C85.6201 91.132 86.8745 91.5043 87.2564 89.9862C87.3045 89.8184 87.3815 89.6606 87.4791 89.5164C87.8245 89.102 88.4145 89.173 88.7949 88.8883C89.2014 88.4305 89.0418 87.9041 89.0731 87.4083C89.0634 87.2249 89.0517 87.0467 89.0298 86.8647C88.9804 62.469 89.0333 38.077 88.9165 13.6848C88.6335 13.2142 88.1141 13.1248 87.7878 12.8074C87.622 12.6515 87.5955 12.4735 87.7061 12.275C88.3751 11.8166 89.0504 11.8746 89.7547 12.2544C90.4708 13.0687 90.292 14.0823 90.2933 15.036C90.3073 25.617 90.2998 36.198 90.3052 46.7789C90.3056 47.5437 90.2207 48.3214 90.552 49.1631C91.4165 49.6119 92.1152 50.3302 92.4042 51.3565C94.1711 52.1451 96.1631 51.0746 97.8368 52.1485C97.8368 65.3107 97.8368 78.4729 97.8368 91.6352C97.5105 91.9794 97.0076 92.0306 96.6618 92.3419C96.3438 92.7602 96.4041 93.3335 96.0828 93.7495C95.6951 94.2339 95.0279 94.1 94.5707 94.4322C94.1252 94.8382 94.2874 95.5182 93.8889 95.9453C93.5179 96.3565 92.9389 96.2895 92.3489 96.6421C92.0439 96.8482 92.0538 97.4595 91.6643 97.805Z" fill="#FCCB25"/>
<path d="M97.837 52.1483C95.8331 52.1483 93.8291 52.1483 91.8251 52.1484C91.7715 52.0691 91.6736 51.9908 91.6717 51.9103C91.6582 51.3457 91.6658 50.7806 91.662 50.2156C91.6617 50.1721 91.626 50.1288 91.6068 50.0854C91.5687 50.0533 91.531 49.9936 91.4926 49.9931C90.9803 49.9868 90.468 49.9889 89.9735 49.9889C89.8582 49.9154 89.8124 49.8324 89.8125 49.7288C89.8132 49.2665 89.8128 48.8043 89.8128 48.342C89.8128 36.8887 89.8128 25.4354 89.8128 13.9821C89.8128 13.5198 89.8141 13.0576 89.8108 12.5954C89.8105 12.5504 89.7816 12.5056 89.7708 12.4745C89.7266 12.4276 89.6918 12.3583 89.6563 12.3579C88.9884 12.3515 88.3204 12.3532 87.6524 12.3532C87.2624 12.077 87.1721 11.5654 86.8045 11.1157C62.373 10.9954 37.9429 10.9955 13.5113 11.115C13.1207 11.6462 13.1028 12.2177 12.7737 12.6183C12.026 13.2257 11.2659 13.2125 10.496 12.6617C10.3783 12.6254 10.2704 12.6559 10.2368 12.7715C10.1359 13.1183 10.19 13.4766 10.1899 13.8295C10.1869 25.3272 10.1874 36.825 10.1874 48.3227C10.1874 48.8334 10.1874 49.344 10.1874 49.8698C9.60905 50.1524 8.9753 49.8391 8.39254 50.0629C8.25165 50.7164 8.40634 51.3794 8.30596 52.0239C8.26538 52.0644 8.22919 52.1323 8.19277 52.1324C6.34565 52.1376 4.49861 52.137 2.62919 52.137C2.53676 52.049 2.43152 51.9388 2.31408 51.8437C2.28307 51.8186 2.21447 51.8399 2.16309 51.8399C2.16309 38.0607 2.16309 24.2815 2.16309 10.5023C2.83172 10.5023 3.50044 10.5023 4.16915 10.5024C4.22061 10.4209 4.31467 10.3404 4.3166 10.2577C4.32971 9.69243 4.32207 9.12672 4.32624 8.56125C4.32655 8.5185 4.36598 8.47598 4.38727 8.43339C4.42624 8.40322 4.46481 8.34729 4.50416 8.34682C5.01593 8.34096 5.52772 8.34296 6.0209 8.34296C6.07584 8.28803 6.14335 8.25216 6.14389 8.21528C6.15083 7.70496 6.1486 7.1945 6.1486 6.68905C6.3033 6.52679 6.44279 6.3805 6.57913 6.23752C6.68043 6.21885 6.77596 6.18575 6.87155 6.18575C35.6753 6.18351 64.4791 6.18359 93.2848 6.18359C93.5241 6.28482 93.6676 6.49183 93.8381 6.69938C93.8381 7.19465 93.8381 7.70527 93.8381 8.20956C94.1666 8.47768 94.5366 8.29798 94.879 8.34119C95.225 8.38486 95.5867 8.2547 95.9223 8.4283C96.047 8.77821 95.9622 9.13575 95.9846 9.48674C96.0039 9.78873 95.9454 10.0947 96.0285 10.3913C96.0669 10.4297 96.1028 10.4973 96.1395 10.4977C96.7053 10.5044 97.2711 10.5024 97.8369 10.5024C97.837 24.3842 97.837 38.2663 97.837 52.1483Z" fill="#E9C95C"/>
<path d="M2.16309 91.6348C2.83087 91.6348 3.49866 91.6348 4.16661 91.6348C4.219 91.7152 4.31459 91.7948 4.31652 91.8765C4.32979 92.441 4.32216 93.006 4.32609 93.5708C4.3264 93.614 4.3635 93.6569 4.38349 93.6999C4.42183 93.7313 4.45988 93.7897 4.49861 93.7901C5.01039 93.7962 5.52232 93.7942 6.01319 93.7942C6.13239 93.8694 6.17614 93.9527 6.17584 94.0571C6.17452 94.5192 6.17521 94.9814 6.17521 95.4728C6.29843 95.6036 6.43631 95.7499 6.58244 95.905C7.11991 96.0502 7.68447 95.8658 8.21137 95.9934C8.26106 96.0401 8.33042 96.0747 8.33088 96.1102C8.33767 96.675 8.33567 97.2398 8.33567 97.8047C7.05402 97.8047 5.77246 97.8047 4.49074 97.8047C4.43495 97.7279 4.33365 97.6524 4.33103 97.5738C4.31575 97.1132 4.32493 96.6516 4.32131 96.1905C4.32092 96.1461 4.2899 96.102 4.27316 96.0577C4.23628 96.023 4.19963 95.9585 4.16236 95.9582C3.49596 95.9521 2.82948 95.9537 2.16309 95.9537C2.16309 94.514 2.16309 93.0744 2.16309 91.6348Z" fill="#C87435"/>
<path d="M2.16309 4.33203C2.88319 4.33203 3.60336 4.33203 4.32346 4.33203C4.32346 4.88486 4.32509 5.43768 4.32007 5.99051C4.31969 6.03001 4.27046 6.06905 4.24391 6.10832C4.20395 6.13324 4.16414 6.17954 4.12402 6.17977C3.47043 6.18425 2.81675 6.18294 2.16316 6.18294C2.16308 5.56599 2.16309 4.94905 2.16309 4.33203Z" fill="#ECDDA9"/>
<path d="M91.6643 97.8049C91.6643 97.246 91.6625 96.6872 91.6684 96.1284C91.6687 96.0902 91.7267 96.0526 91.7608 96.0111C92.0994 95.8951 92.4525 95.9695 92.8001 95.9563C93.1002 95.9448 93.4012 95.9539 93.6704 95.9539C93.7378 95.8865 93.803 95.8524 93.8053 95.8145C93.8452 95.1673 93.8118 94.5165 93.8282 93.9187C93.9421 93.8459 93.982 93.7981 94.0224 93.7977C94.6302 93.793 95.2381 93.7944 95.8308 93.7944C95.8818 93.7434 95.9477 93.7087 95.9492 93.6714C95.9747 93.0233 95.9923 92.3749 96.0107 91.7574C96.0839 91.6973 96.1214 91.6394 96.1597 91.6391C96.7187 91.6332 97.2778 91.635 97.8369 91.635C97.8369 92.9719 97.8369 94.3087 97.8369 95.6454C97.9177 95.7207 97.9506 95.8011 97.9357 95.8867C97.9203 95.9749 97.901 96.0191 97.8787 96.0186C97.5396 96.3333 97.0391 96.2441 96.6719 96.4938C96.2781 96.786 96.3902 97.308 96.1409 97.6659C96.0895 97.7127 96.0374 97.7588 95.9852 97.8049C94.5448 97.8049 93.1046 97.8049 91.6643 97.8049Z" fill="#C87536"/>
<path d="M95.9851 4.33203C96.6024 4.33203 97.2196 4.33203 97.8369 4.33203C97.8369 4.94897 97.8369 5.56599 97.8369 6.18294C97.2849 6.18294 96.7328 6.18456 96.1809 6.17962C96.1411 6.17931 96.1018 6.13155 96.0623 6.10585C96.0366 6.06635 95.9888 6.027 95.9884 5.98727C95.9835 5.4356 95.9851 4.88385 95.9851 4.33203Z" fill="#EEE1AE"/>
<path d="M97.8369 95.9536C97.8369 95.8507 97.8369 95.7479 97.8369 95.6451C97.95 95.6114 98.0458 95.6408 98.089 95.7475C98.1234 95.8325 98.1424 95.9295 98.1431 96.0213C98.1478 96.6156 98.1455 97.2101 98.1455 97.8045C98.0427 97.8045 97.9397 97.8045 97.8369 97.8045C97.7786 97.7431 97.7202 97.6818 97.6609 97.6209C97.3949 97.0312 97.4071 96.4703 97.8369 95.9536Z" fill="#9A5446"/>
<path d="M4.32349 4.3323C4.32349 3.6125 4.32349 2.89272 4.32349 2.17285C34.7745 2.17285 65.2255 2.17285 95.6766 2.17285C95.6766 2.84064 95.6766 3.50835 95.6766 4.17621C95.5959 4.22829 95.5163 4.32266 95.4339 4.32528C94.9719 4.33986 94.5091 4.3323 94.0466 4.3323C64.1389 4.3323 34.2312 4.3323 4.32349 4.3323Z" fill="#EEE0AD"/>
<path d="M95.9851 99.9639C95.9851 99.2441 95.9851 98.5243 95.9851 97.8045C96.6024 97.323 97.2196 97.323 97.8369 97.8045C97.8369 98.4578 97.8382 99.1111 97.8336 99.7645C97.8333 99.8046 97.787 99.8444 97.7621 99.8843C97.7228 99.9108 97.6837 99.9601 97.6442 99.9604C97.0912 99.9655 96.5382 99.9639 95.9851 99.9639Z" fill="#9A5446"/>
<path d="M89.504 87.3156C89.504 87.4185 89.504 87.5213 89.504 87.6241C89.1856 87.993 88.6448 87.95 88.2993 88.2707C87.9802 88.6171 88.0211 89.1566 87.6522 89.4751C87.3405 90.0336 86.8145 90.1918 86.2276 90.243C85.6634 90.2922 85.0981 90.2846 84.5331 90.2846C61.513 90.2857 38.4929 90.2879 15.4726 90.277C14.5154 90.2765 13.5015 90.4755 12.6562 89.7835C12.216 89.0789 12.1265 88.3576 12.5517 87.6093C12.696 87.466 12.8642 87.3627 13.0554 87.2942C13.9638 87.0457 14.8936 87.1301 15.8151 87.1299C38.5732 87.1247 61.3312 87.1256 84.0892 87.1273C85.22 87.1273 86.3499 87.1328 87.4706 86.9493C88.1838 86.8733 88.8992 86.7918 89.504 87.3156Z" fill="#030201"/>
<path d="M12.6563 12.6609C12.6563 11.9927 12.6563 11.3246 12.6562 10.6563C12.7376 10.6046 12.817 10.5124 12.9006 10.5086C13.2598 10.4921 13.6202 10.5015 13.9801 10.5015C38.0962 10.5015 62.2123 10.5011 86.3284 10.5044C86.7332 10.5045 87.1415 10.4542 87.5303 10.5363C87.579 10.5843 87.6472 10.6199 87.6476 10.6563C87.6543 11.2216 87.6523 11.787 87.6523 12.3524C87.6523 12.4552 87.6523 12.5581 87.6523 12.6608C87.5756 12.7291 87.4988 12.7974 87.4229 12.8668C87.2395 12.9617 87.046 13.0287 86.8442 13.0728C86.0274 13.1972 85.2036 13.1564 84.3823 13.1566C61.4604 13.16 38.5386 13.1607 15.6167 13.1531C14.7003 13.1528 13.7603 13.288 12.8829 12.8697C12.8069 12.8009 12.7316 12.7309 12.6563 12.6609Z" fill="#030203"/>
<path d="M10.4959 12.6611C11.216 12.6611 11.9362 12.6611 12.6563 12.6611C13.2446 13.3471 13.0962 14.1756 13.1073 14.9742C13.1746 15.3832 13.1566 15.7952 13.1566 16.2061C13.1573 38.7761 13.1581 61.3461 13.1559 83.9161C13.1558 84.3783 13.177 84.8419 13.1095 85.3016C13.103 86.1036 13.2489 86.9364 12.6562 87.6241C11.9361 88.1635 11.2159 88.1635 10.4958 87.6241C10.4959 62.6364 10.4959 37.6488 10.4959 12.6611Z" fill="#020203"/>
<path d="M12.6563 89.7837C37.4919 89.7837 62.3274 89.7837 87.1737 89.7837C87.2781 89.6844 87.3835 89.5742 87.5011 89.479C87.5322 89.4539 87.6008 89.4753 87.6522 89.4753C87.6522 90.1435 87.6522 90.8116 87.6523 91.4799C87.571 91.5316 87.4915 91.6238 87.4079 91.6276C87.0488 91.6441 86.6884 91.6346 86.3285 91.6346C62.2123 91.6346 38.0962 91.635 13.9801 91.6317C13.5754 91.6316 13.1671 91.6819 12.7781 91.5998C12.7295 91.5519 12.6615 91.5163 12.661 91.4798C12.6543 90.9145 12.6563 90.3491 12.6563 89.7837Z" fill="#C87435"/>
<path d="M89.504 87.3157C88.8867 87.3157 88.2695 87.3157 87.6522 87.3157C87.1553 86.8303 87.2032 86.2109 87.2038 85.5901C87.228 62.1714 87.2075 38.7527 87.2256 15.334C87.2263 14.4317 86.9962 13.4689 87.6522 12.6612C88.2174 12.6612 88.7825 12.6612 89.3478 12.6611C89.3999 12.7418 89.4943 12.8213 89.497 12.9036C89.5115 13.3653 89.504 13.8278 89.504 14.29C89.504 38.6319 89.504 62.9738 89.504 87.3157Z" fill="black"/>
<path d="M10.4959 87.624C11.216 87.624 11.9361 87.624 12.6562 87.624C12.6562 88.3438 12.6562 89.0636 12.6562 89.7835C12.6062 89.7835 12.5357 89.8047 12.5099 89.7798C12.4031 89.6767 12.3097 89.5596 12.2354 89.475C11.6842 89.475 11.1842 89.4768 10.6843 89.4714C10.6454 89.4711 10.607 89.4204 10.5682 89.3931C10.5441 89.3532 10.4993 89.3134 10.4989 89.2732C10.4943 88.7234 10.4959 88.1737 10.4959 87.624Z" fill="#C17435"/>
<path d="M87.6524 89.4752C87.6524 88.9234 87.6507 88.3716 87.6557 87.8199C87.656 87.7802 87.7038 87.7409 87.7295 87.7014C87.769 87.6757 87.8084 87.628 87.8481 87.6276C88.4001 87.6227 88.9521 87.6243 89.5041 87.6243C89.5041 88.176 89.5057 88.7278 89.5008 89.2795C89.5004 89.3192 89.4526 89.3586 89.4269 89.3981C89.3874 89.4238 89.3481 89.4715 89.3084 89.4718C88.7564 89.4768 88.2043 89.4752 87.6524 89.4752Z" fill="#C67435"/>
<path d="M97.8369 97.8043C97.2196 97.8043 96.6024 97.8043 95.9851 97.8043C95.9851 97.2526 95.9835 96.7008 95.9884 96.1491C95.9888 96.1094 96.0366 96.07 96.0623 96.0305C96.1018 96.0048 96.1411 95.9571 96.1809 95.9567C96.7328 95.9518 97.2848 95.9534 97.8369 95.9534C97.8369 96.5704 97.8369 97.1873 97.8369 97.8043Z" fill="#EEDDA4"/>
<path d="M87.6522 12.6611C87.6522 37.546 87.6522 62.4308 87.6522 87.3157C87.6007 87.3157 87.5321 87.2943 87.501 87.3194C87.3835 87.4147 87.2781 87.5248 87.1737 87.6241C62.3275 87.6241 37.4919 87.6241 12.6562 87.6241C12.6562 86.9043 12.6562 86.1845 12.6562 85.4647C13.2166 84.9786 13.8987 85.0283 14.5713 85.0279C14.7692 85.0206 14.9658 85.0117 15.1634 84.9953C32.2715 84.9267 49.3784 84.9744 66.4853 84.9685C72.8038 84.9662 79.1225 84.9143 85.4401 84.999C85.8575 84.9724 86.2447 84.8662 86.5712 84.5933C86.9719 83.7522 86.8406 82.8662 86.8409 82.0037C86.8482 60.3765 86.8459 38.7493 86.8486 17.1222C86.8487 16.4037 86.8081 15.6837 86.8912 14.9668C86.8971 14.1701 86.7546 13.3434 87.3435 12.6611C87.4464 12.6611 87.5493 12.6611 87.6522 12.6611Z" fill="#6A98D0"/>
<path d="M87.3436 12.6611C87.3436 13.3809 87.3436 14.1007 87.3436 14.8206C86.7551 15.3439 86.0332 15.2654 85.3288 15.2696C84.9715 15.3304 84.6113 15.3197 84.2518 15.3197C61.4844 15.3193 38.717 15.324 15.9497 15.3178C15.6927 15.3177 15.4357 15.3181 15.1808 15.2942C14.9854 15.2794 14.7886 15.2671 14.5923 15.263C13.9129 15.2679 13.222 15.3163 12.6562 14.8206C12.6562 14.1008 12.6562 13.381 12.6562 12.6611C37.552 12.6611 62.4478 12.6611 87.3436 12.6611Z" fill="#9BBBE1"/>
<path d="M12.6562 14.8203C13.2735 14.8203 13.8908 14.8203 14.508 14.8203C15.1374 15.5758 14.9285 16.4845 14.9369 17.3382C15.1411 38.0268 14.8655 58.7154 14.9435 79.404C14.9489 80.8415 14.9514 82.2791 14.9396 83.7166C14.9346 84.3311 14.9691 84.9602 14.508 85.4644C13.8908 85.4644 13.2735 85.4644 12.6562 85.4644C12.6562 61.9164 12.6562 38.3683 12.6562 14.8203Z" fill="#7EA8DA"/>
<path d="M14.5081 85.4645C14.5081 61.9165 14.5081 38.3684 14.5081 14.8203C14.6109 14.8203 14.7138 14.8203 14.8167 14.8203C15.5264 15.7226 15.2188 16.7898 15.301 17.7943C15.3649 18.5758 15.1137 19.415 15.6342 20.1523C16.3458 19.8895 16.1861 19.1132 16.5478 18.892C17.0396 18.422 17.6067 18.405 18.0127 18.0791C18.4045 17.6594 18.4267 17.0245 18.8407 16.6361C20.3682 16.015 79.5262 15.9891 81.1277 16.6023C81.5786 16.9865 81.5992 17.6235 81.9782 18.0504C82.3807 18.3776 82.9317 18.4382 83.2239 18.7001C83.6969 19.1684 83.7624 19.7154 84.0602 20.1335C84.491 20.5566 85.17 20.342 85.6141 20.7368C86.0453 21.3769 85.9839 22.1092 85.9846 22.8207C85.9928 31.2735 85.9932 39.7263 85.9854 48.1791C85.9847 48.8427 86.0151 49.5166 85.688 50.1323C85.318 50.689 84.6043 50.3648 84.1602 50.7391C83.7252 51.1228 83.7485 51.7811 83.1528 52.329C81.7546 52.8931 80.0914 52.5825 78.472 52.5906C77.2687 52.5967 75.9936 52.9266 74.8711 52.1556C74.2803 51.0471 74.5452 49.8456 74.5239 48.6839C74.4949 47.0975 74.4638 45.5087 74.5469 43.9227C74.6524 42.5521 74.1594 41.1143 74.9937 39.8264C75.9306 40.0317 75.6391 40.8145 75.7165 41.4066C75.7973 42.0252 75.5969 42.7156 76.2446 43.3194C77.0294 42.4511 76.6697 41.5579 76.6487 40.8015C76.3332 40.149 75.5939 40.2278 75.2801 39.7288C75.6218 38.9191 76.3555 39.1319 76.9841 39.0719C77.4894 39.0424 78.007 39.1419 78.5009 38.9468C79.0245 38.6718 78.8844 38.0142 79.1946 37.7233C79.5997 37.2411 80.2437 37.3709 80.5651 36.9206C80.8235 36.4606 80.74 35.9571 80.7562 35.468C80.7191 34.982 80.8457 34.4733 80.5489 34.0245C80.1904 33.6434 79.6018 33.7366 79.229 33.3842C78.9303 33.0285 78.9767 32.518 78.677 32.1639C78.2344 31.7344 77.4622 31.9959 77.0946 31.4065C77.5208 30.5099 78.3574 30.8268 79.055 30.7374C79.5816 30.6879 80.1791 30.9496 80.6652 30.3227C80.3536 29.4832 79.611 29.8118 79.022 29.759C77.9533 29.8538 76.8624 29.604 75.8665 29.9556C75.3605 30.3847 75.4369 31.0573 74.869 31.6323C73.7164 32.1156 72.3854 32.0316 71.1948 31.6956C70.5748 31.1873 70.6287 30.5313 70.2726 30.0878C69.8492 29.6898 69.1914 29.7478 68.7817 29.3231C68.416 28.9348 68.4419 28.3561 67.9423 27.7395C64.4057 27.5131 60.6944 27.5817 57.1629 27.7018C56.5824 28.241 56.6045 28.8209 56.2935 29.2324C55.9739 29.6695 55.389 29.7089 54.955 30.1533C54.6817 31.1268 53.9845 31.8266 52.9618 32.1413C52.3011 33.1864 52.9263 34.4574 52.2379 35.4413C51.8568 35.9085 51.1921 35.8561 50.6299 36.3691C50.1138 38.725 50.8198 41.3334 50.1814 43.9048C48.0211 44.4882 45.9693 44.3677 44.1058 44.0665C43.427 43.5482 43.4545 42.8947 43.0491 42.3976C42.0411 41.7883 40.7434 42.4141 39.6753 41.8148C39.1478 41.5212 39.1277 40.8337 38.5928 40.4508C37.6621 40.0342 36.4798 40.5245 35.5659 39.9056C35.0939 39.4721 35.0949 38.835 34.69 38.3217C33.2607 37.736 30.8989 38.8553 30.5994 36.4039C30.0819 35.9191 29.5943 35.8205 29.2759 35.4694C28.9249 35.0805 28.874 34.525 28.5345 34.1292C28.1425 33.7826 27.5885 33.7294 27.1075 33.3239C26.7373 32.6452 26.3201 31.8528 25.2768 31.8385C24.7349 31.7415 24.1944 31.4937 23.6612 31.804C23.1509 32.1911 23.3046 32.8768 22.923 33.303C22.5849 33.7856 21.8033 33.5542 21.5485 34.1669C21.3317 35.6959 21.3647 37.2143 21.5424 38.6296C22.0195 39.0838 22.4944 39.0383 22.9525 39.0631C23.7085 39.1167 24.566 38.8395 25.0647 39.7139C24.7533 40.2867 24.0568 40.1132 23.4511 40.6183C23.0753 41.91 23.334 43.3927 23.334 44.5514C23.8245 45.4802 24.9823 45.0321 25.001 46.0492C24.4064 46.5002 23.7136 46.4064 23.0406 46.4105C22.5972 46.4339 22.1351 46.3459 21.6261 46.6697C21.2528 47.4513 21.3748 48.3244 21.5356 49.1504C21.9699 49.6515 22.5005 49.5247 22.9918 49.5591C23.7315 49.6176 24.5749 49.3368 25.0629 50.1984C24.7219 50.7838 23.9713 50.633 23.5407 51.0549C23.1925 51.3777 23.1803 51.9133 22.5961 52.3714C20.8042 52.8381 18.7962 52.6505 17.0813 52.463C16.2447 51.9283 16.3397 51.142 15.412 50.4898C15.1361 56.1077 15.377 61.4353 15.2691 66.7535C15.3325 71.5288 15.3376 76.3023 15.2711 81.0758C15.1701 82.5438 15.6788 84.0754 14.8165 85.4645C14.7138 85.4645 14.6109 85.4645 14.5081 85.4645Z" fill="#548ACD"/>
<path d="M14.8167 85.4647C14.8167 84.025 14.8167 82.5855 14.8167 81.1458C15.6633 80.4558 16.6773 80.6569 17.6345 80.6563C39.0134 80.6451 60.3923 80.6498 81.7713 80.6416C82.6307 80.6413 83.5195 80.7848 84.3286 80.3565C84.7832 79.753 84.6755 79.0655 84.6787 78.4118C84.6938 75.2784 84.6767 72.1448 84.691 69.0113C84.6944 68.2479 84.6054 67.461 85.0405 66.7601C85.1218 66.6975 85.204 66.6359 85.2861 66.5742C85.3823 66.6101 85.4786 66.6459 85.5752 66.6812C86.0136 67.252 85.9791 67.9297 85.9811 68.5885C85.9961 73.5367 85.9936 78.4851 85.9828 83.4334C85.9812 84.1442 86.0173 84.8752 85.4918 85.4646C61.9335 85.4647 38.375 85.4647 14.8167 85.4647Z" fill="#4371C5"/>
<path d="M85.4919 85.4645C85.4919 79.1918 85.4919 72.9192 85.4919 66.6466C84.9985 66.1046 85.0043 65.4273 85.0019 64.7625C84.9867 60.5649 84.984 56.3672 85.005 52.1696C85.0083 51.5141 84.951 50.8219 85.4919 50.2966C85.4919 40.4249 85.4919 30.5533 85.4919 20.6816C84.7125 18.7279 84.735 16.7741 85.4919 14.8203C86.1092 14.8203 86.7264 14.8203 87.3437 14.8203C87.3437 38.2876 87.3437 61.755 87.3417 85.2224C87.3417 85.2673 87.3124 85.3122 87.3016 85.3433C87.2575 85.39 87.2227 85.4593 87.1872 85.4597C86.6222 85.4665 86.057 85.4645 85.4919 85.4645Z" fill="#7CA6D7"/>
<path d="M85.492 14.8203C85.492 16.7741 85.492 18.7278 85.492 20.6816C85.4406 20.6816 85.3719 20.6604 85.3409 20.6854C85.2234 20.7806 85.118 20.8908 85.0228 20.9814C84.4915 20.9814 83.9799 20.9814 83.4772 20.9814C83.4321 20.9363 83.3693 20.9039 83.3634 20.8631C83.269 20.2139 83.4028 19.5515 83.2835 18.8933C82.6051 18.7459 81.9412 18.9021 81.2875 18.7993C81.0461 18.4779 81.2008 18.1113 81.1767 17.7675C81.1523 17.4199 81.1713 17.0693 81.1713 16.7718C81.0313 16.7098 80.988 16.6737 80.9445 16.6737C60.2855 16.6713 39.6264 16.6713 18.9834 16.6713C18.9311 16.7234 18.8688 16.7557 18.8624 16.7967C18.7608 17.4455 18.9074 18.1087 18.7747 18.7716C18.104 18.9133 17.4404 18.7608 16.7856 18.8621C16.5412 19.1809 16.7132 19.5488 16.6701 19.8913C16.6267 20.2365 16.7614 20.5984 16.5822 20.9269C16.5306 20.9505 16.4876 20.9872 16.4442 20.9876C15.9817 20.9917 15.5191 20.9915 15.0566 20.988C15.0117 20.9877 14.9672 20.9577 14.9225 20.9414C14.8874 20.9046 14.8215 20.8679 14.8213 20.831C14.8164 18.8274 14.8169 16.8239 14.8169 14.8203C38.3751 14.8203 61.9336 14.8203 85.492 14.8203Z" fill="#4371C5"/>
<path d="M75.3073 39.808C75.1921 39.7732 75.085 39.8023 75.0536 39.9141C75.015 40.052 75.0013 40.2008 75.0008 40.345C74.9969 41.5028 74.9986 42.6606 74.9986 43.8184C74.596 44.2401 73.9424 44.1671 73.5342 44.5724C73.0042 45.5862 73.362 46.6699 73.2713 47.7143C73.1449 49.1685 73.5213 50.6533 73.0095 52.0849C72.688 52.5202 72.0962 52.4904 71.6639 52.8767C71.1225 53.8378 71.699 55.0431 71.1735 56.063C70.7885 56.6618 69.9849 56.3921 69.5388 56.8588C68.903 57.9156 69.4729 59.1312 69.0916 60.2174C69.036 60.3639 68.948 60.489 68.8322 60.5941C68.391 60.8922 67.8287 60.7914 67.375 61.0394C66.8275 61.4811 67.2008 62.2905 66.6952 62.746C66.2669 63.0595 65.7149 62.9766 65.2625 63.2027C64.7665 63.4886 64.93 64.1295 64.5692 64.4836C64.2239 64.9469 63.4753 64.7051 63.1962 65.2805C62.9867 65.7571 63.074 66.3342 62.6933 66.7492C62.2514 67.1282 61.618 66.9312 61.1618 67.2489C60.7739 67.6907 60.9591 68.3371 60.5867 68.776C60.1932 69.2243 59.5498 69.2089 59.1112 69.5743C58.7646 69.9678 58.7327 70.528 58.2661 71.0727C56.7082 71.9277 54.7501 71.0387 52.9264 71.6996C51.8349 74.8128 48.9567 73.0305 46.908 73.8131C46.4178 74.063 46.383 74.7542 45.8984 75.2345C40.3998 75.4849 34.9 75.521 29.4004 75.2255C28.9848 74.7537 28.9017 74.1889 28.5758 73.8745C27.3655 73.2134 25.7363 74.1534 24.8445 72.7516C24.4896 72.1939 24.5686 71.5713 25.0001 70.8901C26.622 70.0131 28.5761 70.8805 30.269 70.2876C30.7327 69.8829 30.7086 69.3049 30.9927 68.8822C32.0805 67.8708 33.5788 68.7626 34.7182 68.1041C35.1126 67.6957 35.0467 67.1245 35.3266 66.7022C36.0479 66.0116 36.9685 66.323 37.8068 66.2078C38.386 66.1282 39.1902 66.2209 38.7563 65.1901C37.9495 64.6612 37.0556 65.0046 36.2099 64.9181C35.2562 64.8206 34.2635 65.1106 33.3482 64.6277C32.9474 64.2875 32.9855 63.7003 32.5843 63.2945C31.6124 62.7919 30.4236 63.3419 29.4086 62.8182C28.74 62.4111 29.1937 61.4375 28.503 61.044C27.9979 60.7954 27.3344 60.9047 26.9623 60.3615C26.6721 59.6724 26.6689 59.0007 27.0576 58.3668C27.6038 57.851 28.2665 57.8851 28.9134 57.8718C29.5877 57.7179 30.8166 58.472 30.5866 56.8466C30.2784 56.4439 29.7213 56.5628 29.3533 56.2446C28.8572 55.9289 29.1113 55.1622 28.5621 54.8544C28.1119 54.641 27.5727 54.7255 27.1511 54.4284C26.6287 53.9715 26.9793 53.1784 26.4823 52.715C26.0423 52.4431 25.4927 52.56 25.0489 52.305C24.9143 52.2102 24.8182 52.0876 24.7545 51.9366C24.5774 51.3502 24.5735 50.7906 25.0013 50.2967C25.035 50.1836 25.0056 50.0879 24.8988 50.0448C24.8138 50.0103 24.7168 49.9914 24.6248 49.9906C24.0302 49.986 23.4355 49.9882 22.8409 49.9882C22.1381 48.6515 22.1381 47.3146 22.8409 45.9778C23.561 45.9778 24.2812 45.9778 25.0013 45.9778C25.4721 46.3485 25.3502 47.0437 25.8938 47.5119C26.8014 47.7 27.8148 48.04 28.7042 47.1793C28.5545 46.1892 27.5652 46.5129 27.222 46.0614C26.7824 45.6337 26.8068 45.0615 26.4665 44.5815C26.1348 44.1701 25.4655 44.2591 24.8658 43.7232C24.5227 42.5263 24.2494 41.1722 25.0012 39.808C25.0349 39.695 25.0055 39.5993 24.8987 39.5561C24.8137 39.5217 24.7167 39.5027 24.6247 39.502C24.0301 39.4973 23.4355 39.4996 22.8408 39.4996C21.9762 37.6747 22.3822 35.7843 22.5482 33.9077C22.883 33.2033 23.5689 32.993 24.088 32.8298C24.6594 32.4267 24.5805 31.7979 25.0012 31.4789C25.669 31.4789 26.3368 31.4789 27.0047 31.4788C27.0571 31.5592 27.1519 31.6385 27.1545 31.7206C27.1692 32.1822 27.16 32.6446 27.1642 33.1067C27.1646 33.1499 27.2018 33.1928 27.2219 33.2358C27.2603 33.2671 27.2984 33.3252 27.3371 33.3257C27.8489 33.3318 28.3607 33.3298 28.859 33.3298C29.0178 33.4886 29.1632 33.6338 29.3219 33.7925C29.3219 34.2905 29.3199 34.8022 29.326 35.3138C29.3265 35.3525 29.3847 35.3905 29.4268 35.4422C29.9583 35.5857 30.5229 35.4011 31.0468 35.5283C31.0988 35.5766 31.1684 35.6109 31.1688 35.6462C31.1759 36.1595 31.1737 36.6729 31.1737 37.1859C31.3194 37.3315 31.4647 37.4768 31.6366 37.6487C32.8799 37.6487 34.1505 37.6487 35.4245 37.6487C35.5761 38.3736 35.4252 39.0365 35.5245 39.684C35.5625 39.722 35.5931 39.7702 35.6368 39.7912C35.6787 39.8114 35.7342 39.8075 35.7837 39.8075C36.9652 39.8083 38.1467 39.8072 39.3282 39.812C39.367 39.8121 39.4055 39.8694 39.4471 39.9024C39.5613 40.1929 39.4837 40.4992 39.5064 40.7986C39.5254 41.0488 39.4636 41.3039 39.5469 41.5452C39.588 41.5863 39.6242 41.6542 39.6607 41.6544C40.9963 41.6599 42.3319 41.6589 43.6676 41.659C43.7209 41.7386 43.8183 41.8172 43.8202 41.898C43.8336 42.4624 43.826 43.0275 43.8298 43.5922C43.8301 43.6357 43.866 43.679 43.8853 43.7223C43.9235 43.7544 43.9614 43.8144 43.9995 43.8145C45.9506 43.8191 47.9016 43.8185 49.8487 43.8185C49.9018 43.729 49.9933 43.6467 49.9936 43.5642C50.0011 41.0996 49.9982 38.6349 50.0026 36.1702C50.003 35.9736 49.944 35.7664 50.0607 35.5821C50.1019 35.5499 50.1404 35.4936 50.1795 35.4932C50.7937 35.4877 51.4079 35.4894 51.9959 35.4894C52.1214 35.4115 52.1612 35.3279 52.1611 35.2222C52.1595 34.0925 52.1623 32.9629 52.1568 31.8333C52.1563 31.72 52.1601 31.6279 52.2746 31.5215C52.7795 31.4089 53.3404 31.5379 53.8779 31.4508C54.0304 31.3024 54.1773 31.1594 54.3211 31.0192C54.3211 30.4992 54.3211 29.9859 54.3211 29.4447C54.8763 29.1413 55.5106 29.4564 56.0807 29.2571C56.1117 29.2174 56.1681 29.1788 56.1684 29.1398C56.174 28.5259 56.1723 27.9119 56.1723 27.3243C56.2502 27.1988 56.3338 27.1592 56.4396 27.1592C60.4978 27.1603 64.556 27.1599 68.6142 27.1629C68.6561 27.1629 68.698 27.2056 68.7399 27.2284C68.7686 27.2679 68.8219 27.3072 68.8222 27.3469C68.8274 27.9601 68.8259 28.5735 68.8259 29.1681C69.0503 29.4209 69.322 29.2932 69.563 29.3156C69.7667 29.3346 69.9748 29.3058 70.1787 29.323C70.4245 29.3438 70.6851 29.239 70.9348 29.4087C71.0663 30.0491 70.9192 30.7118 71.0133 31.3517C71.0587 31.3971 71.0936 31.4636 71.1315 31.4654C72.6415 31.5369 74.3537 31.497 74.9685 31.3772C75.0448 30.7337 74.956 30.0742 75.0192 29.4515C75.0844 29.3895 75.1212 29.324 75.1582 29.3239C76.5452 29.3186 77.9321 29.3195 79.3191 29.3195C79.8006 29.9364 79.8006 30.5534 79.3191 31.1704C78.6749 31.1704 78.0306 31.1698 77.3865 31.1708C77.2642 31.171 77.1967 31.2653 77.1587 31.4789C77.5721 31.999 77.6363 32.5523 77.318 33.139C77.0421 33.5481 76.606 33.6486 76.1589 33.751C75.5431 33.8922 75.3148 34.2449 75.6526 34.9029C77.191 35.2929 76.4867 33.4249 77.3585 33.1651C78.049 32.8094 78.7024 32.8543 79.3191 33.3298C79.8721 33.3298 80.4252 33.3281 80.9782 33.3332C81.0177 33.3335 81.0569 33.3828 81.0961 33.4093C81.1211 33.4493 81.1674 33.4891 81.1677 33.5292C81.1722 34.1825 81.1709 34.8358 81.1709 35.4892C80.8511 35.8495 80.3289 35.8295 80.0581 36.0373C79.6341 36.4719 79.7316 37.0026 79.45 37.3745C79.0416 37.852 78.4598 38.0167 78.0001 38.1524C77.489 38.5553 77.5498 39.1603 77.1589 39.4996C76.6167 39.4996 76.0746 39.4988 75.5324 39.5002C75.4124 39.5004 75.3463 39.5943 75.3073 39.808Z" fill="#FFFFFD"/>
<path d="M31.1739 68.806C31.1739 69.4737 31.1739 70.1413 31.1739 70.8091C31.0932 70.8613 31.0127 70.9584 30.9317 70.9588C29.1848 70.9675 27.4377 70.9638 25.6908 70.9677C25.4929 70.9682 25.2875 70.921 25.1068 71.0127C25.0658 71.061 25.006 71.0987 25.0055 71.1371C24.9993 71.6491 25.0014 72.1612 25.0014 72.6621C25.1578 72.8185 25.3031 72.9638 25.4643 73.1249C26.6794 73.1249 27.9105 73.124 29.1414 73.1287C29.1805 73.1288 29.2193 73.1851 29.2855 73.2363C29.3729 73.7601 29.2816 74.3185 29.3377 74.8372C29.4023 74.9018 29.4386 74.9699 29.475 74.9699C34.9212 74.9751 40.3674 74.9756 45.8137 74.9719C45.852 74.9719 45.8903 74.9126 45.9313 74.8787C46.0401 74.587 45.9653 74.2809 45.9881 73.9811C46.0071 73.7312 45.9418 73.4758 46.0183 73.2702C46.0791 73.2014 46.1128 73.1298 46.1467 73.1298C47.9963 73.1244 49.8461 73.125 51.699 73.125C51.8418 72.9806 51.9862 72.8346 52.1329 72.6863C52.2153 72.1433 52.0948 71.583 52.2047 71.0615C52.2811 71.0152 52.3222 70.9688 52.3633 70.9687C54.3117 70.9651 56.2602 70.9656 58.1903 70.9656C58.4634 70.6192 58.3024 70.2514 58.3273 69.9082C58.3525 69.5606 58.3328 69.2096 58.3328 68.8633C59.073 68.739 59.7366 68.8813 60.3833 68.7558C60.4991 68.7333 60.5295 68.6154 60.4932 68.4977C60.829 68.0542 60.4958 67.4841 60.7953 66.9771C61.33 66.6542 61.9382 66.8368 62.5037 66.8545C62.9937 67.1555 63.0642 67.7346 63.657 68.3153C69.7681 68.3407 76.0889 68.3292 82.1472 68.3223C82.9596 67.7589 82.8767 67.0023 83.4227 66.5344C83.9757 66.2183 84.5895 66.1225 85.1832 66.6467C85.1832 71.4232 85.1834 76.1996 85.1792 80.9762C85.1792 81.014 85.1178 81.0518 85.0851 81.0896C85.0415 81.1082 84.9978 81.1434 84.9541 81.1434C61.575 81.1457 38.1958 81.1457 14.8167 81.1457C14.8167 76.3127 14.8167 71.4797 14.8167 66.6467C15.4189 66.1744 16.0338 66.1827 16.6087 66.5563C17.0911 66.9944 17.0689 67.6488 17.492 68.0607C18.1035 68.3995 18.7817 68.3175 19.4416 68.3195C22.6224 68.3293 25.8033 68.3115 28.984 68.3323C29.7375 68.3371 30.5412 68.2034 31.1739 68.806Z" fill="#3C5CB5"/>
<path d="M85.1834 66.6472C84.619 66.6472 84.0547 66.6472 83.4903 66.6472C83.4373 66.7269 83.3406 66.8056 83.3386 66.8867C83.3253 67.4504 83.3328 68.0146 83.3291 68.5786C83.3288 68.6222 83.2938 68.6656 83.275 68.709C83.2372 68.7416 83.1994 68.8026 83.1615 68.8026C76.3899 68.8069 69.6182 68.8068 62.8466 68.8033C62.8066 68.8033 62.7665 68.7523 62.6968 68.705C62.5771 68.183 62.7201 67.6221 62.6206 67.0768C62.1639 66.9135 61.6782 66.9059 60.8378 67.0536C60.8108 67.495 60.7936 67.9433 60.7493 68.389C60.7381 68.5021 60.611 68.5343 60.4934 68.4981C60.4934 67.9453 60.4918 67.3925 60.4969 66.8397C60.4973 66.8002 60.5465 66.7611 60.573 66.7219C60.613 66.6969 60.6528 66.6506 60.6929 66.6504C61.3465 66.6459 62.0002 66.6472 62.6538 66.6472C62.9703 66.1753 63.8081 66.4343 63.9638 65.721C63.8084 65.0081 62.9712 65.2668 62.6538 64.7962C62.6195 64.6821 62.6495 64.5855 62.7582 64.5424C62.8443 64.5082 62.9425 64.4911 63.0356 64.49C63.4823 64.4849 63.9291 64.4877 64.3356 64.4877C64.4734 64.4042 64.5039 64.3218 64.5078 64.2177C64.526 63.7252 64.4491 63.2281 64.5616 62.7408C64.587 62.6305 64.7 62.6025 64.8142 62.6368C65.2849 62.9541 65.0261 63.7909 65.7393 63.9462C66.453 63.7906 66.1938 62.9531 66.6659 62.6368C66.6659 61.9929 66.6654 61.349 66.6664 60.7051C66.6665 60.5829 66.7609 60.5154 66.9745 60.4774C67.5285 60.8652 67.1123 61.8159 67.8981 62.092C68.6839 61.8155 68.2737 60.8661 68.8263 60.4774C69.223 60.0286 69.8959 60.1666 70.3706 59.734C70.689 58.9488 70.609 58.1093 70.4432 57.3472C70.1055 56.793 69.4499 56.8982 69.1349 56.467C69.1016 56.3547 69.1306 56.2595 69.2362 56.2162C69.3206 56.1816 69.4168 56.1619 69.5081 56.1609C70.0009 56.1558 70.4938 56.1585 70.9867 56.1585C71.3086 55.8295 71.7913 55.7552 72.151 55.4229C72.7437 54.4269 72.0072 53.1174 72.8384 52.1481C72.8384 49.5534 72.8377 46.9586 72.8404 44.3639C72.8406 44.2178 72.8529 44.0671 72.8912 43.9271C72.9224 43.8131 73.0305 43.7833 73.147 43.8188C73.7063 44.4672 73.5831 45.2602 73.6077 46.0193C73.6641 47.7529 73.4959 49.4947 73.7131 51.0987C74.0815 51.6796 74.6419 51.7823 74.9987 52.1481C77.7135 52.1481 80.4283 52.1485 83.143 52.1446C83.1826 52.1445 83.2222 52.0919 83.2808 52.0501C83.4128 51.4185 83.2633 50.7575 83.36 50.1146C83.4011 50.0735 83.4369 50.0062 83.4736 50.0057C83.984 49.9988 84.4946 50.001 85.0275 50.001C85.1192 50.0883 85.2241 50.1984 85.3413 50.2934C85.3722 50.3185 85.4407 50.2972 85.4919 50.2972C85.4919 55.7472 85.4919 61.1972 85.4919 66.6472C85.3891 66.6472 85.2862 66.6472 85.1834 66.6472Z" fill="#4371C5"/>
<path d="M31.1739 68.8065C26.397 68.8065 21.6203 68.8067 16.8435 68.8026C16.8051 68.8026 16.7668 68.7436 16.725 68.7094C16.6105 68.3666 16.6906 68.0098 16.6688 67.6588C16.65 67.3574 16.7098 67.052 16.6277 66.7711C16.5815 66.7217 16.547 66.6522 16.5116 66.6519C15.9467 66.6451 15.3817 66.6471 14.8167 66.6471C14.8167 61.1731 14.8166 55.6992 14.8187 50.2253C14.8187 50.1811 14.8501 50.1369 14.8669 50.0926C14.9037 50.058 14.9401 49.9936 14.9774 49.9931C15.4891 49.9865 16.0009 49.9886 16.5128 49.9886C16.5647 50.0691 16.6594 50.1487 16.6614 50.2305C16.6746 50.7929 16.6671 51.3558 16.6707 51.9185C16.671 51.9621 16.7052 52.0056 16.7237 52.0491C16.7612 52.082 16.7987 52.1438 16.8363 52.1439C18.7812 52.1486 20.7261 52.1486 22.6709 52.1439C22.7087 52.1438 22.7463 52.083 22.7976 52.0388C22.931 51.5091 22.7458 50.9458 22.891 50.4061C22.9219 50.2909 23.0322 50.261 23.1495 50.297C23.518 50.615 23.4774 51.1546 23.7979 51.4997C24.1435 51.8195 24.6831 51.7796 25.0012 52.148C25.5538 52.5368 25.1436 53.4861 25.9294 53.7627C26.7152 53.4866 26.299 52.5359 26.853 52.148C26.966 52.1143 27.0617 52.1437 27.105 52.2505C27.1394 52.3354 27.1585 52.4324 27.1592 52.5243C27.1638 53.1186 27.1616 53.7131 27.1616 54.3075C27.6336 54.6238 27.3745 55.4613 28.0881 55.6169C28.8013 55.4616 28.5426 54.6247 29.0133 54.3075C29.1275 54.2731 29.2241 54.3032 29.2672 54.4118C29.3014 54.4979 29.3186 54.5959 29.3196 54.689C29.3248 55.1355 29.322 55.5821 29.322 55.9885C29.4055 56.1262 29.488 56.1567 29.592 56.1606C30.0849 56.1788 30.5822 56.102 31.0696 56.2144C31.18 56.2398 31.208 56.3527 31.1737 56.4669C30.8512 56.8273 30.3248 56.8115 30.0395 57.0405C29.6504 57.4605 29.6905 57.9999 29.322 58.3179C28.6673 58.3179 28.0125 58.3165 27.3579 58.3212C27.318 58.3215 27.2785 58.3694 27.2387 58.3951C27.213 58.4347 27.1652 58.4743 27.1649 58.5141C27.1603 59.1685 27.1616 59.8229 27.1616 60.4773C27.6908 60.8797 27.3604 61.7825 28.0269 62.1141C28.8756 61.816 28.4594 60.8652 29.0133 60.4773C29.1264 60.4437 29.2221 60.4731 29.2654 60.5798C29.2998 60.6648 29.3189 60.7617 29.3196 60.8536C29.3242 61.448 29.322 62.0424 29.322 62.6368C29.6512 62.9585 29.7254 63.4411 30.0578 63.8006C31.0544 64.393 32.3643 63.6569 33.3341 64.4878C35.3121 64.4878 37.2903 64.4876 39.2683 64.4882C39.4022 64.4882 39.4725 64.5816 39.5066 64.7963C38.3971 65.5638 37.137 65.0962 35.9502 65.2289C35.288 65.3031 34.5374 65.0409 33.9911 65.659C34.2681 66.4456 35.1548 66.1111 35.4945 66.6472C35.4945 67.3063 35.4959 67.9654 35.4908 68.6244C35.4904 68.6632 35.436 68.7016 35.4067 68.7402C35.3651 68.7623 35.3236 68.8037 35.2821 68.8038C33.9128 68.8071 32.5433 68.8065 31.1739 68.8065Z" fill="#4371C5"/>
<path d="M25.0013 39.8088C25.0013 41.0849 25.0005 42.3609 25.005 43.6371C25.0052 43.676 25.0604 43.7147 25.104 43.7721C25.7347 43.8947 26.3936 43.756 27.0331 43.845C27.0767 43.8885 27.1436 43.9241 27.1443 43.9608C27.155 44.5715 27.1558 45.1823 27.1652 45.7929C27.1659 45.8325 27.219 45.8713 27.2624 45.9304C27.8922 46.0561 28.5514 45.9132 29.1955 46.0065C29.2344 46.0454 29.3015 46.081 29.302 46.1176C29.3089 46.6258 29.3067 47.1342 29.3067 47.7121C29.1926 47.7974 29.03 47.9189 28.7726 48.1112C28.817 48.103 28.7222 48.1353 28.6272 48.1357C27.56 48.1393 26.4927 48.138 25.4944 48.138C25.2887 47.9498 25.1388 47.8125 25.0012 47.6864C25.0012 47.1016 25.0012 46.5401 25.0012 45.9786C25.0367 45.8622 25.007 45.7543 24.8931 45.723C24.7533 45.6848 24.6027 45.6739 24.4565 45.6723C23.9538 45.6665 23.4511 45.6701 22.9436 45.6701C22.7325 45.2498 22.8774 44.8411 22.8467 44.4493C22.8189 44.0957 22.8408 43.7381 22.8408 43.3823C22.8408 42.9756 22.8408 42.5689 22.8408 42.1623C22.8408 41.8064 22.8281 41.45 22.8442 41.095C22.8622 40.6968 22.7768 40.2931 22.887 39.9137C22.9415 39.8701 22.9794 39.8131 23.0179 39.8128C23.6791 39.8073 24.3402 39.8088 25.0013 39.8088Z" fill="#3F5FB6"/>
<path d="M74.9988 52.1475C74.438 52.1475 73.8773 52.1475 73.3163 52.1476C73.2599 52.072 73.1544 51.9965 73.1542 51.9207C73.1457 49.2199 73.1471 46.5191 73.1471 43.8184C73.7643 43.8184 74.3816 43.8184 74.9988 43.8184C74.9988 46.5947 74.9988 49.3711 74.9988 52.1475Z" fill="#4160B7"/>
<path d="M22.8411 33.6389C22.8411 35.5927 22.8411 37.5465 22.8411 39.5003C22.2819 39.5003 21.7227 39.502 21.1636 39.4962C21.1254 39.4959 21.0877 39.4378 21.0498 39.4066C21.0296 39.3641 20.9919 39.3216 20.9918 39.2792C20.9889 37.3991 20.9893 35.5191 20.9893 33.639C21.6066 33.4048 22.2239 33.4036 22.8411 33.6389Z" fill="#3C5CB5"/>
<path d="M22.841 45.9778C22.841 47.3146 22.841 48.6514 22.841 49.9882C22.2772 49.9882 21.7134 49.9882 21.1495 49.9882C21.096 49.9091 20.9969 49.8302 20.9962 49.7505C20.9862 48.5722 20.9888 47.3938 20.9914 46.2154C20.9915 46.1709 21.0225 46.1266 21.0391 46.0823C21.0759 46.0474 21.1124 45.9827 21.1496 45.9823C21.7133 45.9759 22.2772 45.9778 22.841 45.9778Z" fill="#3C5CB5"/>
<path d="M75.3072 39.8086C75.9067 39.8086 76.5062 39.8086 77.0569 39.8086C77.12 39.9473 77.1564 39.9901 77.1565 40.033C77.1596 41.2513 77.1589 42.4697 77.1589 43.678C76.7201 43.8656 76.7124 43.8659 75.3877 43.7452C75.3608 43.7054 75.3107 43.6656 75.3106 43.6258C75.3064 42.3534 75.3072 41.081 75.3072 39.8086Z" fill="#4361B8"/>
<path d="M22.841 33.639C22.2237 33.639 21.6065 33.639 20.9892 33.639C20.9538 33.5228 20.985 33.4248 21.097 33.382C21.1851 33.3482 21.2854 33.3337 21.3805 33.3327C21.8317 33.3278 22.2831 33.3305 22.6866 33.3305C22.7686 33.2485 22.8354 33.213 22.8358 33.1766C22.8427 32.6691 22.8405 32.1615 22.8405 31.6167C22.9753 31.5037 23.1299 31.374 23.3458 31.193C23.6036 31.1268 23.9561 31.1866 24.3053 31.1721C24.4574 31.1659 24.6102 31.1675 24.7623 31.1733C24.8071 31.175 24.853 31.1987 24.8945 31.2199C25.0022 31.2748 25.0368 31.3634 25.0013 31.4796C25.0013 32.0702 25.0013 32.6609 25.0013 33.1976C24.8902 33.2759 24.8518 33.3266 24.8128 33.327C24.3129 33.3323 23.8129 33.3306 23.2617 33.3306C23.1874 33.4152 23.0941 33.5323 22.9873 33.6353C22.9615 33.6603 22.891 33.639 22.841 33.639Z" fill="#4061B7"/>
<path d="M77.1589 39.5C77.1589 38.9093 77.1589 38.3186 77.1589 37.782C77.27 37.7036 77.3085 37.653 77.3474 37.6526C77.8473 37.6472 78.3473 37.6491 78.8983 37.6491C78.9727 37.5644 79.066 37.4473 79.1729 37.3443C79.1988 37.3194 79.2693 37.3406 79.3193 37.3406C79.9366 36.859 80.5538 36.8592 81.1711 37.3406C81.206 37.4559 81.1753 37.5533 81.0648 37.5962C80.9776 37.6301 80.8782 37.6458 80.784 37.6469C80.335 37.6519 79.8859 37.6492 79.4736 37.6492C79.4016 37.7211 79.338 37.7543 79.3345 37.7928C79.2853 38.3342 79.3676 38.8829 79.2843 39.394C79.205 39.4471 79.1657 39.4964 79.126 39.4967C78.4704 39.5014 77.8146 39.5 77.1589 39.5Z" fill="#405FB6"/>
<path d="M79.3196 33.3304C78.5995 33.3304 77.8793 33.3304 77.1592 33.3304C77.1592 32.7135 77.1592 32.0964 77.1592 31.4795C77.8537 31.4795 78.5481 31.4795 79.1895 31.4795C79.2665 31.5935 79.3158 31.6325 79.3161 31.672C79.3212 32.2247 79.3196 32.7776 79.3196 33.3304Z" fill="#4964B9"/>
<path d="M83.2672 33.3304C83.382 33.8341 83.3163 34.2393 83.3276 34.6411C83.3345 34.8891 83.3652 35.1422 83.3009 35.3672C83.2442 35.4206 83.2078 35.4848 83.1706 35.4853C82.6599 35.4919 82.149 35.4898 81.6381 35.4899C81.5852 35.4105 81.4886 35.332 81.4867 35.2514C81.4734 34.69 81.4785 34.1282 81.4818 33.5665C81.4822 33.5223 81.5133 33.4783 81.5301 33.4342C81.5669 33.3996 81.6033 33.3354 81.6404 33.3348C82.1512 33.3283 82.662 33.3304 83.2672 33.3304Z" fill="#4463B8"/>
<path d="M81.1711 37.3405C80.5538 37.3405 79.9366 37.3405 79.3193 37.3405C79.3193 36.7887 79.3177 36.2369 79.3227 35.6852C79.323 35.6455 79.3708 35.6062 79.3965 35.5666C79.436 35.541 79.4754 35.4932 79.5151 35.4928C80.0671 35.4879 80.619 35.4895 81.1711 35.4895C81.1711 36.1065 81.1711 36.7235 81.1711 37.3405Z" fill="#405EB6"/>
<path d="M79.3193 31.1703C79.3193 30.5534 79.3193 29.9364 79.3193 29.3194C79.8823 29.3194 80.4454 29.3194 81.0085 29.3193C81.0628 29.3976 81.1616 29.4746 81.1638 29.5544C81.1782 30.059 81.1711 30.5643 81.1711 31.0199C81.0824 31.1019 81.0458 31.1655 81.0084 31.1659C80.4454 31.1722 79.8823 31.1703 79.3193 31.1703Z" fill="#3C5CB5"/>
<path d="M25.0014 52.1479C24.4494 52.1479 23.8974 52.1495 23.3454 52.1445C23.3057 52.1442 23.2663 52.0964 23.2268 52.0707C23.2011 52.0312 23.1534 51.9918 23.153 51.9521C23.148 51.4004 23.1497 50.8486 23.1497 50.2969C23.7669 50.2969 24.3842 50.2969 25.0014 50.2969C25.0014 50.9139 25.0014 51.5308 25.0014 52.1479Z" fill="#4561B7"/>
<path d="M35.4947 66.6468C34.8277 66.6468 34.1608 66.6468 33.4938 66.6469C33.4405 66.5674 33.344 66.4893 33.3415 66.4081C33.3266 65.9471 33.3327 65.4853 33.3367 65.0238C33.3371 64.9803 33.3721 64.937 33.391 64.8934C33.4288 64.8609 33.4666 64.8001 33.5045 64.8C35.5052 64.7954 37.506 64.7959 39.5068 64.7959C39.5068 65.3528 39.5086 65.9097 39.503 66.4664C39.5026 66.5051 39.4475 66.5431 39.4179 66.5815C39.3763 66.6032 39.3347 66.644 39.2931 66.6441C38.0269 66.6475 36.7608 66.6468 35.4947 66.6468Z" fill="#4460B7"/>
<path d="M69.1348 56.4669C69.6988 56.4669 70.2626 56.4669 70.8267 56.4668C70.88 56.546 70.979 56.625 70.9797 56.7047C70.9897 57.8832 70.9871 59.0618 70.9845 60.2404C70.9844 60.2846 70.9531 60.3289 70.9363 60.3732C70.8994 60.4079 70.8628 60.4724 70.8255 60.4727C70.1591 60.4788 69.4926 60.4771 68.8262 60.4771C68.8262 59.2186 68.826 57.9602 68.8266 56.7017C68.8267 56.5719 68.9207 56.5021 69.1348 56.4669Z" fill="#415FB7"/>
<path d="M72.8381 52.1477C72.8381 53.4133 72.8388 54.6788 72.8354 55.9444C72.8353 55.9861 72.7945 56.0276 72.7727 56.0693C72.7344 56.0989 72.6962 56.1539 72.6576 56.1543C72.1006 56.1599 71.5434 56.1582 70.9864 56.1582C70.9864 54.8926 70.9858 53.627 70.9891 52.3614C70.9891 52.3198 71.0299 52.2783 71.0517 52.2367C71.0901 52.2071 71.1282 52.152 71.1669 52.1516C71.7239 52.146 72.2811 52.1477 72.8381 52.1477Z" fill="#3D5CB5"/>
<path d="M33.3341 64.4877C32.068 64.4877 30.802 64.4884 29.5358 64.485C29.4942 64.4849 29.4526 64.4442 29.411 64.4224C29.3814 64.384 29.3263 64.3459 29.3259 64.3073C29.3203 63.7505 29.322 63.1936 29.322 62.6368C30.5882 62.6368 31.8542 62.6362 33.1203 62.6395C33.162 62.6396 33.2036 62.6804 33.2452 62.7022C33.2748 62.7405 33.3299 62.7786 33.3303 62.8172C33.3359 63.374 33.3341 63.9309 33.3341 64.4877Z" fill="#3E5CB5"/>
<path d="M77.1591 33.3303C77.1591 33.9895 77.1606 34.6486 77.1554 35.3078C77.1551 35.3466 77.1004 35.3849 77.071 35.4234C77.0294 35.4455 76.988 35.4865 76.9463 35.4868C76.3407 35.4909 75.7351 35.4896 75.1397 35.4896C74.9502 35.0455 74.9486 34.9951 75.065 33.4182C75.1035 33.3889 75.1419 33.3343 75.1807 33.334C75.8402 33.3288 76.4997 33.3303 77.1591 33.3303Z" fill="#4C67BA"/>
<path d="M26.8532 52.1485C26.8532 52.814 26.8532 53.4795 26.8532 54.1449C26.7751 54.1993 26.6983 54.298 26.6185 54.3006C26.1581 54.3157 25.6969 54.3094 25.236 54.3056C25.1918 54.3053 25.1479 54.2733 25.1038 54.256C25.0697 54.219 25.0061 54.1822 25.0058 54.1448C24.9998 53.4794 25.0014 52.8139 25.0014 52.1484C25.6187 52.1485 26.2359 52.1485 26.8532 52.1485Z" fill="#4360B7"/>
<path d="M68.8261 60.4775C68.8261 61.143 68.8261 61.8085 68.8261 62.474C68.748 62.5284 68.6712 62.627 68.5914 62.6296C68.131 62.6446 67.6698 62.6383 67.209 62.6347C67.1647 62.6343 67.1208 62.6024 67.0768 62.5851C67.0427 62.548 66.9791 62.5112 66.9787 62.4739C66.9727 61.8085 66.9743 61.143 66.9743 60.4775C67.5916 60.4775 68.2088 60.4775 68.8261 60.4775Z" fill="#4360B7"/>
<path d="M29.0136 60.4776C29.0136 61.1431 29.0136 61.8086 29.0136 62.474C28.9355 62.5284 28.8587 62.627 28.7789 62.6297C28.3185 62.6447 27.8573 62.6384 27.3965 62.6347C27.3522 62.6344 27.3083 62.6024 27.2643 62.5851C27.2302 62.548 27.1666 62.5112 27.1662 62.4739C27.1602 61.8085 27.1618 61.143 27.1618 60.4775C27.7791 60.4776 28.3963 60.4776 29.0136 60.4776Z" fill="#4662B8"/>
<path d="M29.322 58.318C29.322 57.7663 29.3204 57.2145 29.3253 56.6628C29.3257 56.6231 29.3735 56.5837 29.3992 56.5442C29.4387 56.5185 29.478 56.4708 29.5178 56.4704C30.0698 56.4654 30.6217 56.4671 31.1738 56.4671C31.1738 57.0188 31.1754 57.5706 31.1705 58.1223C31.1701 58.162 31.1223 58.2013 31.0966 58.2409C31.0571 58.2666 31.0178 58.3143 30.978 58.3147C30.4261 58.3196 29.874 58.318 29.322 58.318Z" fill="#4862B8"/>
<path d="M29.0134 54.3077C29.0134 54.8705 29.0134 55.4333 29.0135 55.9961C28.9353 56.0503 28.8582 56.1491 28.7783 56.1513C28.2734 56.1656 27.7679 56.1586 27.3121 56.1586C27.2301 56.07 27.1665 56.0334 27.1661 55.9959C27.1597 55.4332 27.1617 54.8705 27.1617 54.3076C27.7789 54.3077 28.3962 54.3077 29.0134 54.3077Z" fill="#4563B8"/>
<path d="M62.6536 64.796C63.2166 64.796 63.7797 64.796 64.3428 64.7959C64.3971 64.8741 64.4955 64.951 64.4981 65.031C64.513 65.4909 64.5068 65.9517 64.5031 66.4121C64.5028 66.4563 64.4709 66.5002 64.4537 66.5443C64.4167 66.5784 64.38 66.6421 64.3426 66.6425C63.7797 66.6488 63.2166 66.6469 62.6536 66.6469C62.6536 66.0299 62.6536 65.4129 62.6536 64.796Z" fill="#4862B8"/>
<path d="M66.6657 62.6367C66.6657 63.1995 66.6657 63.7623 66.6657 64.3252C66.5874 64.3795 66.5106 64.4778 66.4306 64.4804C65.9704 64.4953 65.5095 64.4891 65.0489 64.4854C65.0046 64.4851 64.9607 64.4532 64.9167 64.4361C64.8824 64.3991 64.8189 64.3625 64.8184 64.3251C64.8121 63.7624 64.814 63.1995 64.814 62.6367C65.4312 62.6367 66.0484 62.6367 66.6657 62.6367Z" fill="#4563B8"/>
<path d="M26.853 60.4396C26.6072 60.4569 26.4603 60.4811 26.3146 60.4749C25.9125 60.4578 25.5071 60.5266 25.131 60.4436C25.0752 60.391 25.0063 60.3565 25.0059 60.3211C24.9994 59.7085 25.0012 59.0957 25.0012 58.4829C25.0785 58.4279 25.1545 58.3278 25.2334 58.3255C25.7378 58.3111 26.2428 58.3182 26.6871 58.3182C26.7789 58.4047 26.8478 58.4393 26.8482 58.4745C26.8548 59.0872 26.853 59.7 26.853 60.4396Z" fill="#4060B7"/>
</svg>
