<svg width="100" height="105" viewBox="0 0 100 105" fill="none" xmlns="http://www.w3.org/2000/svg">
<path d="M2.16307 99.9656C1.49457 99.9656 0.825995 99.9656 0.157417 99.9657C0.105798 99.8844 0.0135165 99.8049 0.00973575 99.7214C-0.00677616 99.3623 0.00271406 99.002 0.00271406 98.6422C0.00271406 67.6463 0.00271406 36.6506 0.00271406 5.6547C0.00271406 5.24923 0.00271406 4.84369 0.00271406 4.48822C0.0854279 4.40435 0.121153 4.33622 0.157571 4.33591C0.826072 4.3295 1.49457 4.33128 2.16315 4.33128C2.22665 4.40196 2.29015 4.47271 2.35481 4.54292C2.67325 5.17423 2.57363 5.85778 2.60496 6.52651C2.76298 8.78664 2.58575 11.045 2.58945 13.304C2.61067 26.2475 2.59516 39.191 2.60349 52.1346C2.59076 65.0076 2.59933 77.8806 2.60357 90.7535C2.60411 92.3934 2.72656 94.0329 2.6241 95.6719C2.59971 96.3284 2.6538 96.9879 2.594 97.6445C2.56669 98.3589 2.67757 99.0905 2.34972 99.7713C2.28823 99.8363 2.22565 99.901 2.16307 99.9656Z" fill="#030303"/>
<path d="M4.32356 2.17169C4.32356 1.50342 4.32356 0.835227 4.32349 0.16688C4.40481 0.115261 4.48436 0.0230522 4.56793 0.0191943C4.92718 0.00268238 5.28758 0.0121773 5.64753 0.0121773C35.3196 0.0121773 64.9917 0.0118659 94.6638 0.0151066C95.0685 0.0151837 95.4769 -0.0349645 95.866 0.047055C95.9145 0.0948932 95.9827 0.130614 95.983 0.166956C95.9894 0.835148 95.9877 1.50335 95.9877 2.17162C95.911 2.24029 95.8342 2.30888 95.7581 2.37878C95.0364 2.74644 94.2534 2.66697 93.488 2.66713C64.5997 2.67322 35.7114 2.67291 6.82319 2.6672C6.0577 2.66705 5.2747 2.74721 4.55172 2.38132C4.47526 2.31227 4.39941 2.24198 4.32356 2.17169Z" fill="#040202"/>
<path d="M95.9879 102.125C95.9879 102.793 95.9879 103.462 95.9879 104.13C95.9066 104.182 95.8271 104.274 95.7435 104.278C95.3842 104.294 95.0238 104.285 94.6639 104.285C64.9918 104.285 35.3197 104.285 5.64765 104.282C5.24288 104.282 4.83456 104.332 4.44552 104.25C4.39691 104.202 4.3287 104.166 4.3284 104.13C4.32199 103.462 4.32369 102.793 4.32369 102.125C4.40046 102.056 4.47724 101.988 4.55331 101.918C5.27505 101.55 6.05798 101.63 6.82347 101.63C35.7118 101.623 64.5999 101.624 93.4882 101.629C94.2537 101.63 95.0367 101.549 95.7597 101.915C95.8362 101.985 95.912 102.055 95.9879 102.125Z" fill="#030303"/>
<path d="M100 4.33109C100 36.1283 100 67.9256 99.9982 99.7228C99.9982 99.7678 99.9692 99.8128 99.9571 99.8476C99.9151 99.8915 99.88 99.9604 99.8442 99.9608C99.2789 99.9676 98.7136 99.9656 98.1483 99.9656C97.654 99.4823 97.672 98.8538 97.6739 98.2383C97.7651 67.8336 97.6837 37.4288 97.7192 7.02416C97.7202 6.16214 97.5588 5.27258 97.9758 4.44714C98.6259 3.98874 99.3119 4.14035 100 4.33109Z" fill="black"/>
<path d="M98.1483 4.33156C98.1483 36.2097 98.1483 68.0878 98.1483 99.966C98.1483 100.61 98.1488 101.254 98.1478 101.898C98.1476 102.02 98.0533 102.087 97.8396 102.126C97.4166 101.761 97.5442 101.186 97.3165 100.746C97.0476 100.295 96.5214 100.377 96.1288 100.176C95.9894 100.1 95.8827 99.9926 95.7979 99.8596C95.5514 99.2312 95.5572 98.5998 95.7643 97.9658C95.831 97.8204 95.9348 97.7056 96.0703 97.621C96.4488 97.3965 96.973 97.4786 97.2831 97.0341C97.5073 96.5892 97.4068 96.0852 97.3956 95.5866C97.3693 94.2119 97.3577 92.8406 97.3873 91.4675C97.2802 81.1414 97.3622 70.8169 97.3444 60.4926C97.3396 57.7193 97.2849 54.9453 97.3805 52.1724C97.291 42.7674 97.3564 33.362 97.3451 23.9568C97.3399 19.5885 97.3019 15.2199 97.3679 10.8536C97.3809 10.6636 97.3919 10.4713 97.3954 10.2805C97.3802 9.08576 97.3805 7.88935 97.4044 6.69347C97.4032 6.51315 97.4061 6.33244 97.4067 6.15204C97.3805 5.52382 97.4044 4.89552 97.4077 4.26668C97.3954 3.5363 97.3159 2.79164 97.8396 2.17228C97.952 2.13895 98.0473 2.16796 98.0906 2.27359C98.1252 2.35785 98.1449 2.45414 98.1458 2.54534C98.151 3.03792 98.1483 3.53066 98.1483 4.02324C98.2611 4.09183 98.2986 4.16027 98.2612 4.22895C98.2238 4.29723 98.1863 4.33156 98.1483 4.33156Z" fill="#945143"/>
<path d="M2.16303 4.33155C2.16303 3.67709 2.16164 3.02264 2.16635 2.36826C2.16666 2.32837 2.2145 2.28887 2.24019 2.24921C2.27993 2.22351 2.31943 2.17567 2.35932 2.17536C3.01401 2.17073 3.6687 2.17205 4.32347 2.17205C4.85725 2.89371 4.85903 3.62501 4.36421 4.3665C3.62279 4.87197 2.88855 4.86811 2.16303 4.33155Z" fill="#13110E"/>
<path d="M4.32345 102.125C3.66876 102.125 3.01399 102.127 2.35931 102.122C2.31941 102.122 2.27983 102.074 2.24017 102.048C2.21448 102.008 2.16656 101.969 2.16633 101.929C2.1617 101.275 2.16301 100.62 2.16301 99.9656C2.88499 99.4322 3.6166 99.4303 4.35848 99.9249C4.86402 100.666 4.86024 101.4 4.32345 102.125Z" fill="#0F0A0A"/>
<path d="M97.8397 2.17195C97.8397 2.89176 97.8397 3.61157 97.8397 4.33145C97.2648 4.78684 96.6562 4.79943 96.0204 4.47112C95.8752 4.34805 95.7705 4.19636 95.7029 4.01858C95.524 3.36142 95.5248 2.73073 95.9879 2.17188C96.6051 2.17195 97.2224 2.17195 97.8397 2.17195Z" fill="#141210"/>
<path d="M95.9877 99.9658C96.5813 99.9658 97.1748 99.9658 97.7152 99.9658C97.7897 100.085 97.836 100.125 97.8363 100.165C97.8409 100.819 97.8396 101.472 97.8396 102.125C97.2223 102.125 96.605 102.125 95.9878 102.125C95.4647 101.405 95.4183 100.686 95.9877 99.9658Z" fill="#110E0D"/>
<path d="M98.1482 4.33115C98.1482 4.2283 98.1482 4.12553 98.1482 4.02268C98.6903 4.02268 99.2325 4.0219 99.7746 4.02329C99.8948 4.0236 99.9609 4.11742 100 4.33123C99.3827 4.33115 98.7655 4.33115 98.1482 4.33115Z" fill="#FCCB25"/>
<path d="M97.8397 6.49027C97.8397 7.72426 97.8397 8.95826 97.8397 10.1923C97.3483 10.6024 96.8413 10.603 96.3937 10.3071C95.9087 9.91811 95.9921 9.29583 95.5646 8.97732C95.1063 8.67131 94.4931 8.77369 94.0593 8.40889C93.5618 7.94154 94.0372 6.89033 93.036 6.7283C92.5172 6.66132 92.0024 6.68 91.4884 6.68C63.9774 6.68146 36.4662 6.68039 8.95511 6.68062C8.3897 6.68062 7.82359 6.66333 7.26743 6.73956C6.28065 6.89226 6.73665 7.92711 6.26568 8.39315C5.83938 8.76706 5.25097 8.67848 4.78107 8.92098C4.44312 9.90699 3.496 10.4254 2.9981 11.2881C2.90605 22.5807 2.99709 33.8664 2.95759 45.1519C2.95026 47.2536 3.05928 49.3577 2.87804 51.4578C2.84038 51.6534 2.76778 51.8361 2.66554 52.0067C2.59525 52.0746 2.52357 52.1421 2.45197 52.2096C2.35567 52.1891 2.25938 52.1686 2.16309 52.148C2.16309 36.8259 2.16309 21.5038 2.16309 6.18178C2.33662 6.07098 2.52627 6.02029 2.73159 6.02855C3.85965 6.17639 4.17345 5.24338 4.89334 4.20414C34.9401 4.20414 65.2029 4.20399 95.4555 4.2043C95.9916 5.44053 96.8279 6.06752 97.8397 6.49027Z" fill="#FCCB25"/>
<path d="M2.163 52.1484C2.26585 52.1484 2.36878 52.1484 2.47163 52.1484C3.13843 52.8844 2.94484 53.7982 2.94592 54.6494C2.96081 65.9022 2.95426 77.155 2.9578 88.4078C2.95804 89.174 2.89361 89.9492 3.1669 90.7693C3.96387 91.3256 4.88576 91.8533 4.96115 92.8682C5.47556 93.3437 6.03998 93.3744 6.43472 93.7154C6.83679 94.077 6.89466 94.6226 7.15183 95.0627C7.46062 95.5012 8.0434 95.5663 8.4305 96.0167C8.78026 96.5163 8.80379 97.098 8.51892 97.7046C7.34311 98.6245 6.01698 98.2171 4.72975 98.1338C4.56687 98.087 4.4161 98.0074 4.28208 97.9035C3.93201 97.5376 4.00986 96.9542 3.63464 96.594C3.2041 96.2421 2.55056 96.4027 2.16284 95.9552C2.163 81.3529 2.163 66.7507 2.163 52.1484Z" fill="#C87435"/>
<path d="M4.32352 99.9654C3.6034 99.9654 2.88321 99.9654 2.16309 99.9654C2.16309 99.2456 2.16309 98.5258 2.16309 97.8059C2.88321 97.2665 3.6034 97.2665 4.32352 97.8059C4.81209 98.4235 4.7962 99.0875 4.50593 99.7774C4.44582 99.8404 4.38463 99.9029 4.32352 99.9654Z" fill="#985546"/>
<path d="M2.47172 6.18201C2.36887 6.18201 2.26594 6.18201 2.16309 6.18201C2.16309 5.56505 2.16309 4.94801 2.16309 4.33105C2.88321 4.33105 3.6034 4.33105 4.32352 4.33105C4.37175 4.40883 4.41989 4.48661 4.46819 4.56446C4.43656 5.1011 4.58115 5.65263 4.32414 6.21519C3.71351 6.38432 3.09346 6.42853 2.47172 6.18201Z" fill="#E9DCA9"/>
<path d="M4.32352 97.8063C3.6034 97.8063 2.88321 97.8063 2.16309 97.8063C2.16309 97.1892 2.16309 96.5723 2.16309 95.9553C2.8167 95.9553 3.47038 95.9539 4.12399 95.9585C4.16411 95.9588 4.20393 96.0051 4.2439 96.0299C4.27044 96.0692 4.31974 96.1083 4.32005 96.1478C4.32514 96.7006 4.32352 97.2534 4.32352 97.8063Z" fill="#E9D79F"/>
<path d="M95.9878 2.17188C95.9878 2.78891 95.9878 3.40587 95.9878 4.02291C95.5256 4.76255 94.783 4.46803 94.1595 4.46865C77.2032 4.484 60.2469 4.48092 43.2907 4.48092C30.856 4.48092 18.4215 4.48324 5.98687 4.47328C5.43333 4.47282 4.85627 4.62235 4.32349 4.33146C4.32349 3.61165 4.32349 2.89184 4.32349 2.17195C34.8783 2.17187 65.4331 2.17188 95.9878 2.17188Z" fill="#EEE0AD"/>
<path d="M95.9877 99.9658C95.9877 100.686 95.9877 101.405 95.9877 102.125C65.433 102.125 34.8782 102.125 4.32349 102.125C4.32349 101.406 4.32349 100.686 4.32349 99.9658C5.1686 99.2735 6.18262 99.4718 7.14008 99.4711C24.8705 99.4594 42.6009 99.4627 60.3313 99.4627C71.3294 99.4627 82.3274 99.4583 93.3254 99.4701C94.2342 99.4711 95.1939 99.3026 95.9877 99.9658Z" fill="#964F42"/>
<path d="M8.33572 97.8062C8.33572 97.2415 8.33572 96.6769 8.3358 96.112C8.25532 96.0597 8.17608 95.9649 8.09391 95.9622C7.63211 95.9476 7.16963 95.9568 6.70745 95.9526C6.66416 95.9522 6.62126 95.9152 6.57821 95.8952C6.54673 95.8568 6.48832 95.8188 6.48793 95.7802C6.48222 95.166 6.48392 94.5516 6.48392 93.95C6.435 93.9011 6.40198 93.8374 6.36186 93.8325C5.71172 93.7532 5.05294 93.8236 4.44755 93.7878C4.37688 93.6813 4.32726 93.6412 4.32688 93.6007C4.32194 92.9882 4.32341 92.3758 4.32341 91.7904C4.26029 91.7274 4.22773 91.6645 4.18714 91.6588C3.64009 91.5827 3.07961 91.7032 2.55864 91.5888C2.51543 91.5053 2.47438 91.463 2.4743 91.4208C2.4716 78.3301 2.47168 65.2393 2.47168 52.1485C3.2104 51.532 4.10289 51.7295 4.94908 51.6797C5.79937 51.6297 6.67249 51.8196 7.46553 51.4682C7.93836 51.0601 7.90911 50.4138 8.37993 49.9204C9.09218 49.4904 9.87982 49.3828 10.6581 50.0381C10.9947 50.5952 10.9884 51.2183 10.9881 51.8325C10.9813 63.638 11.0333 75.4435 10.9682 87.2459C10.9228 87.7526 10.9208 88.2565 11.1454 88.739C11.7223 89.2147 12.6393 89.2086 12.9715 90.0264C13.2406 90.8162 13.8055 91.1482 14.6201 91.1318C14.979 91.1246 15.3392 91.1438 15.6989 91.1438C38.6684 91.1445 61.638 91.1475 84.6076 91.1343C85.6351 91.1337 86.8529 91.4513 87.3177 90.0232C87.6423 89.2081 88.5457 89.2158 89.1195 88.7779C89.4698 88.2041 89.3675 87.5948 89.3344 86.9916C89.3002 75.39 89.3215 63.7913 89.3207 52.1925C89.3206 51.478 89.268 50.7489 89.629 50.0851C90.2154 49.4399 90.8854 49.5988 91.4267 49.7845C92.0976 50.2708 92.0267 51.0128 92.5212 51.4559C94.216 52.1258 96.1658 51.1121 97.8396 52.1484C97.8396 65.311 97.8396 78.4736 97.8396 91.6362C97.507 91.9716 97.0153 92.0506 96.695 92.3271C96.353 92.7805 96.3959 93.3532 96.0651 93.7651C95.673 94.241 95.0011 94.114 94.5714 94.4423C94.1441 94.8904 94.2688 95.5617 93.8482 95.979C93.4664 96.3671 92.8813 96.3035 92.3826 96.6563C91.9652 96.988 92.0727 97.7974 91.4189 98.0754C90.7261 98.3479 90.0009 98.3052 89.284 98.3054C63.134 98.3099 36.9841 98.311 10.8341 98.2997C9.98066 98.2994 9.06803 98.473 8.33572 97.8062Z" fill="#FCCB25"/>
<path d="M10.4962 49.9893C9.8292 49.9893 9.16224 49.9893 8.49521 49.9893C8.44197 50.0688 8.34467 50.1473 8.34282 50.2281C8.3294 50.7919 8.33696 51.3561 8.33333 51.9201C8.33302 51.9638 8.2983 52.0072 8.27963 52.0508C8.2419 52.0835 8.20424 52.1448 8.16636 52.1448C6.26811 52.1495 4.36993 52.1488 2.47168 52.1488C2.47168 38.2664 2.47168 24.384 2.47168 10.5016C2.94103 10.1544 3.55691 10.5505 4.04502 10.1903C4.38259 9.61949 3.95737 8.91712 4.32348 8.34213C4.94075 8.34213 5.55802 8.34213 6.17529 8.34213C6.59163 7.66707 6.08416 6.86007 6.48392 6.18262C35.5984 6.18262 64.7129 6.18262 93.8273 6.18262C94.2271 6.86007 93.7195 7.66707 94.1359 8.34213C94.7532 8.34213 95.3705 8.34213 95.9877 8.34213C96.354 8.91719 95.9283 9.61988 96.266 10.1898C96.7543 10.552 97.3707 10.1521 97.8395 10.5016C97.8395 24.384 97.8395 38.2664 97.8395 52.1488C95.8387 52.1488 93.8379 52.1494 91.8371 52.1448C91.7992 52.1447 91.7614 52.0838 91.7206 52.0487C91.6121 51.7052 91.6885 51.3489 91.667 50.9979C91.6486 50.6971 91.7096 50.392 91.6292 50.1265C91.5756 50.0658 91.5423 49.9947 91.5081 49.9943C90.9438 49.9874 90.3795 49.9894 89.8151 49.9894C89.1216 49.2056 89.3338 48.2412 89.3324 47.3424C89.3161 36.8881 89.3248 26.4336 89.3177 15.9793C89.3171 15.1672 89.4249 14.3373 89.0864 13.5671C88.6956 13.098 88.0449 13.1082 87.6276 12.7176C87.2627 12.3354 87.2023 11.7879 86.9014 11.1288C62.4568 10.9954 38.0151 10.9956 13.8664 10.9962C13.0987 11.6031 13.1094 12.2575 12.7229 12.6778C12.3196 13.0948 11.6716 13.0896 11.2515 13.5332C10.876 14.2864 10.9955 15.12 10.9948 15.931C10.9868 26.4002 10.9958 36.8694 10.9794 47.3386C10.9779 48.2386 11.1904 49.2042 10.4962 49.9893Z" fill="#E9C95C"/>
<path d="M8.33573 97.8058C36.1128 97.8058 63.8898 97.8058 91.6669 97.8058C93.1072 97.0954 94.5474 97.0629 95.9877 97.8058C95.9877 98.5257 95.9877 99.2455 95.9877 99.9654C65.433 99.9654 34.8782 99.9654 4.32349 99.9654C4.32349 99.2456 4.32349 98.5257 4.32349 97.8058C5.66087 97.8058 6.99834 97.8058 8.33573 97.8058Z" fill="#EEDCA3"/>
<path d="M4.32348 4.3316C34.7151 4.3316 65.1068 4.3316 95.5091 4.3316C95.6135 4.23229 95.7189 4.12204 95.8365 4.0269C95.8676 4.00175 95.9363 4.02312 95.9877 4.02312C95.9877 4.12597 95.9877 4.22874 95.9877 4.3316C96.3583 4.64957 96.3132 5.19107 96.6331 5.53743C96.9797 5.8571 97.5207 5.81342 97.8395 6.18263C97.8395 6.28548 97.8395 6.38826 97.8395 6.49111C97.1718 6.49111 96.5041 6.49111 95.8362 6.49118C95.7838 6.41079 95.6887 6.3317 95.6861 6.24968C95.6714 5.78804 95.6806 5.3257 95.6764 4.86368C95.676 4.82039 95.6391 4.7775 95.6191 4.73445C95.5807 4.70304 95.5424 4.64402 95.504 4.64402C65.2546 4.64008 35.0051 4.64015 4.77871 4.64015C4.52116 4.93451 4.66058 5.25225 4.6372 5.5443C4.61344 5.8409 4.63196 6.1408 4.63196 6.38524C4.49631 6.45013 4.45357 6.48817 4.41059 6.48848C3.84563 6.49249 3.2806 6.49219 2.71557 6.48918C2.67043 6.48895 2.62298 6.46565 2.58078 6.44474C2.47059 6.38996 2.43518 6.30037 2.47152 6.1827C3.02351 6.1827 3.57558 6.18432 4.12757 6.17939C4.16731 6.17908 4.20666 6.13132 4.24616 6.10563C4.27186 6.06612 4.31962 6.02677 4.32 5.98704C4.3251 5.4352 4.32348 4.88343 4.32348 4.3316Z" fill="#FCCB25"/>
<path d="M95.9877 97.806C94.5473 97.806 93.1071 97.806 91.6668 97.806C91.6668 97.2471 91.6649 96.6883 91.6708 96.1295C91.6712 96.0913 91.7291 96.0537 91.7632 96.0122C92.1019 95.8962 92.455 95.9706 92.8026 95.9574C93.1028 95.9459 93.4037 95.955 93.6729 95.955C93.7403 95.8876 93.8055 95.8535 93.8078 95.8156C93.8477 95.1684 93.8143 94.5175 93.8307 93.9198C93.9446 93.8469 93.9845 93.7992 94.0249 93.7988C94.6327 93.794 95.2406 93.7955 95.8333 93.7955C95.8843 93.7445 95.9503 93.7097 95.9518 93.6725C95.9773 93.0243 95.9949 92.3759 96.0133 91.7584C96.0864 91.6983 96.124 91.6404 96.1623 91.64C96.7213 91.6342 97.2804 91.636 97.8395 91.636C97.8395 93.0757 97.8395 94.5153 97.8395 95.955C97.5215 96.3234 96.9819 96.2836 96.6367 96.6037C96.3163 96.9488 96.3561 97.4881 95.9877 97.806Z" fill="#C77435"/>
<path d="M95.9878 97.8063C95.9878 97.2546 95.9862 96.7028 95.9911 96.1511C95.9915 96.1113 96.0392 96.072 96.065 96.0325C96.1045 96.0068 96.1438 95.959 96.1836 95.9586C96.7355 95.9538 97.2875 95.9553 97.8396 95.9553C97.8396 96.5071 97.8412 97.0589 97.8363 97.6106C97.8359 97.6503 97.7882 97.6897 97.7624 97.7292C97.7229 97.7549 97.6836 97.8026 97.6439 97.803C97.0919 97.8079 96.5398 97.8063 95.9878 97.8063Z" fill="#E5D49D"/>
<path d="M97.8396 6.18201C97.2876 6.18201 96.7355 6.18363 96.1835 6.17869C96.1438 6.17839 96.1044 6.13062 96.0649 6.10493C96.0392 6.06542 95.9915 6.02607 95.9911 5.98634C95.9862 5.43458 95.9878 4.88281 95.9878 4.33105C96.6051 4.33105 97.2223 4.33105 97.8396 4.33105C97.8396 4.94801 97.8396 5.56497 97.8396 6.18201Z" fill="#E5D8A7"/>
<path d="M97.8395 10.5009C97.2865 10.5009 96.7333 10.5025 96.1803 10.4975C96.1408 10.4971 96.1017 10.4479 96.0624 10.4213C96.0375 10.3814 95.9912 10.3416 95.9909 10.3014C95.9864 9.64814 95.9877 8.99476 95.9877 8.34138C96.1047 8.30558 96.213 8.33568 96.2441 8.45026C96.2823 8.59076 96.2846 8.74176 96.2956 8.88875C96.3257 9.28904 96.2413 9.69451 96.3369 10.0798C96.3868 10.1251 96.4234 10.1875 96.461 10.188C96.9204 10.1947 97.38 10.1924 97.8395 10.1924C97.8395 10.2953 97.8395 10.3981 97.8395 10.5009Z" fill="#FCCB25"/>
<path d="M4.32348 8.34186C4.32348 8.99523 4.3248 9.64853 4.32032 10.3019C4.32001 10.342 4.27372 10.3819 4.24879 10.4218C4.20952 10.4484 4.1704 10.4976 4.1309 10.498C3.5779 10.5031 3.02475 10.5014 2.47168 10.5014C2.4375 10.3876 2.46574 10.2836 2.57523 10.248C3.00423 10.1083 3.45406 10.2575 3.88808 10.1654C3.98692 10.1066 4.01377 10.0238 4.01747 9.91882C4.03491 9.4274 3.95798 8.93143 4.07133 8.44548C4.09695 8.33553 4.2096 8.30768 4.32348 8.34186Z" fill="#FCCB25"/>
<path d="M6.48407 6.18262C6.48407 6.82658 6.48461 7.47047 6.48361 8.11443C6.48338 8.23657 6.38909 8.30409 6.17544 8.34213C6.17544 7.69817 6.1749 7.05428 6.1759 6.41032C6.17606 6.28817 6.27034 6.22066 6.48407 6.18262Z" fill="#FCCB25"/>
<path d="M94.1361 8.34171C94.023 8.37543 93.9273 8.34603 93.884 8.23924C93.8496 8.15429 93.8305 8.05731 93.8298 7.96541C93.8252 7.37106 93.8274 6.77662 93.8274 6.18219C93.9405 6.14848 94.0362 6.17787 94.0795 6.28466C94.1139 6.36961 94.133 6.46668 94.1337 6.5585C94.1383 7.15285 94.1361 7.74728 94.1361 8.34171Z" fill="#FCCB25"/>
<path d="M10.4961 49.9886C10.4961 37.6256 10.496 25.2627 10.4981 12.8996C10.4981 12.855 10.5286 12.8104 10.5326 12.7993C10.5876 12.7368 10.6209 12.6655 10.655 12.6652C11.3222 12.6587 11.9893 12.6604 12.6565 12.6604C12.7168 12.7258 12.7771 12.7912 12.8385 12.8563C13.1163 13.45 13.0688 14.0862 13.0841 14.7173C13.0907 14.9105 13.0911 15.1012 13.0909 15.2943C13.1131 38.8367 13.0495 62.3767 13.1267 85.9167C13.1285 86.4876 13.1098 87.0488 12.7909 87.5525C12.0463 88.202 11.2793 88.1764 10.4961 87.6255C10.4961 75.0799 10.4961 62.5343 10.4961 49.9886Z" fill="#020202"/>
<path d="M87.6547 12.6602C88.3218 12.6602 88.989 12.6602 89.6563 12.6602C89.7093 12.7399 89.8054 12.8183 89.808 12.8997C89.8227 13.361 89.8152 13.8229 89.8152 14.2846C89.8152 26.1859 89.8152 38.0872 89.8152 49.9885C89.8152 62.4312 89.8152 74.874 89.8152 87.3168C89.094 88.2424 88.3081 88.218 87.4715 87.4774C87.2081 87.0127 87.1785 86.5016 87.1805 85.9852C87.2707 62.2764 87.1915 38.5673 87.2232 14.8585C87.224 14.1968 87.1408 13.5191 87.447 12.889C87.5156 12.8125 87.5851 12.7364 87.6547 12.6602Z" fill="#020201"/>
<path d="M87.6546 89.7852C87.6546 90.3507 87.6545 90.916 87.6546 91.4815C87.5733 91.5331 87.4938 91.6253 87.4102 91.6292C87.051 91.6457 86.6906 91.6362 86.3307 91.6362C62.2139 91.6362 38.0971 91.6365 13.9804 91.6332C13.5756 91.6332 13.1674 91.6834 12.7784 91.6013C12.7298 91.5534 12.6617 91.5178 12.6612 91.4813C12.6545 90.916 12.6565 90.3505 12.6565 89.7852C12.7331 89.7166 12.8098 89.6481 12.8856 89.5783C13.6072 89.2107 14.39 89.2906 15.1554 89.2904C38.4876 89.2843 61.82 89.2847 85.1522 89.2888C85.8186 89.2889 86.4905 89.2498 87.1443 89.44C87.3434 89.5123 87.513 89.6282 87.6546 89.7852Z" fill="#C87435"/>
<path d="M87.6547 89.7853C87.5518 89.7853 87.4489 89.7853 87.3461 89.7853C87.1022 89.0977 87.2559 88.4388 87.489 87.7851C87.5436 87.7317 87.5991 87.6787 87.6547 87.6259C88.2141 87.6259 88.7734 87.6259 89.3219 87.6259C89.5086 87.5466 89.56 87.2727 89.8151 87.3174C89.8151 87.9684 89.8164 88.6193 89.8122 89.2703C89.812 89.3109 89.769 89.3514 89.7459 89.3919C89.7076 89.4202 89.6695 89.4728 89.6309 89.4733C89.13 89.4788 88.629 89.477 88.0736 89.477C88.001 89.5604 87.908 89.6781 87.8014 89.7818C87.7756 89.8066 87.7048 89.7853 87.6547 89.7853Z" fill="#C57535"/>
<path d="M10.4963 87.626C11.2165 87.626 11.9367 87.626 12.6568 87.626C12.7166 87.6892 12.7764 87.7524 12.8372 87.815C13.1291 88.5038 13.1456 89.1678 12.6568 89.7855C12.6068 89.7855 12.5363 89.8067 12.5103 89.7818C12.4035 89.6787 12.3102 89.5617 12.2359 89.477C11.6446 89.477 11.1046 89.477 10.6182 89.477C10.5446 89.3551 10.4998 89.3153 10.4995 89.2752C10.4948 88.7254 10.4963 88.1757 10.4963 87.626Z" fill="#C37335"/>
<path d="M12.6566 12.6602C12.6566 11.992 12.6566 11.3238 12.6565 10.6555C12.7378 10.6038 12.8173 10.5116 12.9008 10.5078C13.26 10.4913 13.6204 10.5008 13.9803 10.5008C38.0971 10.5008 62.2139 10.5008 86.3307 10.5008C86.7363 10.5008 87.142 10.5008 87.4967 10.5008C87.5812 10.5837 87.6495 10.6194 87.6498 10.6557C87.6562 11.3238 87.6545 11.992 87.6545 12.6602C87.4946 12.7938 87.3187 12.9012 87.1276 12.9841C86.429 13.2168 85.7042 13.1577 84.9878 13.1579C61.7647 13.1628 38.5415 13.1633 15.3185 13.1542C14.4102 13.1538 13.4505 13.3231 12.6566 12.6602Z" fill="#030203"/>
<path d="M87.3461 12.6602C87.449 12.6602 87.5519 12.6602 87.6548 12.6602C87.6548 37.6485 87.6548 62.6369 87.6548 87.6252C87.0616 88.1542 86.3254 88.1212 85.6094 88.1215C61.9736 88.1311 38.3379 88.1309 14.7021 88.1215C13.9861 88.1212 13.2499 88.1544 12.6567 87.6252C12.6567 63.3567 12.6567 39.0882 12.6567 14.8197C12.7569 14.8021 12.857 14.7844 12.957 14.7666C13.1122 14.9032 13.2241 15.0692 13.295 15.2632C13.5451 16.1709 13.4564 17.1015 13.4566 18.0232C13.4624 39.3554 13.4593 60.6876 13.4674 82.0198C13.4677 82.776 13.3343 83.5541 13.7244 84.4614C14.1467 83.6395 14.0054 82.8914 14.0056 82.1828C14.0146 60.7992 14.0115 39.4156 14.0169 18.032C14.0171 17.1101 13.9304 16.1797 14.1706 15.269C14.2373 15.0741 14.3474 14.907 14.4972 14.7666C14.597 14.7635 14.6979 14.7605 14.7979 14.7569C14.8662 14.8289 14.9353 14.9016 15.0051 14.973C15.5771 16.9994 15.1806 19.0681 15.2694 21.117C15.3448 30.7317 15.3428 40.3458 15.2755 49.9598C15.3341 55.5148 15.3431 61.0699 15.275 66.6249C15.3328 71.458 15.3412 76.2911 15.2746 81.1239C15.4002 82.2846 15.154 83.4806 15.507 84.5756C16.9959 85.1089 83.1686 85.1348 84.7274 84.6231C85.2338 83.5227 84.8764 82.3147 85.037 81.1596C84.9794 76.3371 84.97 71.515 85.0378 66.6931C84.9685 61.7143 85.0158 56.7352 85.0138 51.7562C85.0135 51.2433 85.025 50.727 85.2544 50.2481C85.3542 50.0464 85.5167 49.9591 85.7402 49.9848C86.51 50.7341 86.2844 51.7103 86.2861 52.6061C86.3047 62.4659 86.2956 72.3259 86.3008 82.1858C86.3012 82.885 86.2267 83.5982 86.5403 84.5539C86.9715 83.5981 86.8447 82.8456 86.845 82.1248C86.8529 60.4023 86.8507 38.6797 86.8532 16.9571C86.8533 16.2902 86.8158 15.6218 86.8942 14.9563C86.8998 14.1624 86.7596 13.3394 87.3461 12.6602Z" fill="#6A98D0"/>
<path d="M87.3461 12.6602C87.3461 13.38 87.3461 14.0998 87.3461 14.8197C86.9685 15.1452 86.5161 15.2587 86.0488 15.15C84.5237 14.7952 82.9785 14.9557 81.4436 14.9548C60.2786 14.9428 39.1136 14.9474 17.9487 14.9444C17.0763 14.9442 16.2019 14.9917 15.3326 14.8824C15.0599 14.8433 14.8032 14.5899 14.5085 14.8197C13.9941 15.2268 13.4798 15.2268 12.9654 14.8197C12.8459 14.7336 12.7563 14.6174 12.6567 14.5113C12.6567 13.8943 12.6567 13.2773 12.6567 12.6603C37.5532 12.6602 62.4496 12.6602 87.3461 12.6602Z" fill="#9BBBE1"/>
<path d="M12.6567 14.5117C12.9029 14.5521 12.9249 14.5741 12.9654 14.8202C12.8625 14.8202 12.7596 14.8202 12.6567 14.8202C12.6567 14.7174 12.6567 14.6146 12.6567 14.5117Z" fill="#7DA7D9"/>
<path d="M12.6567 87.626C37.6561 87.626 62.6554 87.626 87.6548 87.626C87.6548 88.1851 87.6548 88.7441 87.6548 89.2924C87.5755 89.4791 87.3015 89.5303 87.3461 89.7854C62.4496 89.7854 37.5532 89.7854 12.6567 89.7854C12.6567 89.0656 12.6567 88.3458 12.6567 87.626Z" fill="#030201"/>
<path d="M14.8171 49.9888C14.8171 40.3226 14.8171 30.6563 14.8171 20.99C15.1463 20.6608 15.5952 20.4921 15.9109 20.1861C16.2203 19.743 16.2922 19.2013 16.656 18.8178C17.0324 18.4469 17.5871 18.3916 17.9932 18.0694C18.3947 17.6569 18.4134 17.0163 18.9102 16.5755C19.4725 16.1544 20.2068 16.1925 20.921 16.1921C40.3019 16.1816 59.6827 16.186 79.0636 16.1816C80.3702 16.1813 81.4097 16.4035 82.1255 17.742C82.6017 18.6324 83.8652 19.0012 84.052 20.0923C84.5597 20.5427 85.1972 20.5439 85.6095 20.9615C86.062 21.6521 85.9893 22.437 85.9902 23.1998C85.9993 31.3507 86.0014 39.5015 85.9864 47.6524C85.9849 48.4537 86.1372 49.312 85.4944 49.9891C85.1069 50.3435 84.5867 50.4562 84.2211 50.6496C83.7453 51.1368 83.7446 51.7798 83.0928 52.3978C80.6585 52.7825 77.993 52.7384 75.2584 52.3857C74.4181 49.7507 75.2514 47.1432 74.7035 44.656C74.2743 44.0378 73.6109 44.3449 73.0516 44.2433C72.81 44.1507 72.6889 43.9651 72.6428 43.7206C72.6151 42.5691 72.9795 41.3966 72.5188 40.3277C72.0697 39.8286 71.3883 39.9441 70.9957 39.5071C70.4856 38.9682 70.6215 38.284 70.5698 37.6384C70.5275 37.1104 70.7093 36.5103 70.0495 36.0593C69.1913 36.8449 69.6394 37.7805 69.665 38.5726C70.0284 39.1655 70.7475 39.1006 71.0525 39.6184C71.0538 39.8103 70.9682 39.9444 70.7968 40.029C70.1523 40.2956 69.5247 40.2785 68.7709 39.861C68.0598 38.6677 68.4496 37.2353 68.3687 35.8693C68.3362 35.208 68.639 34.4835 68.0329 33.8984C67.0077 34.0171 67.6539 35.3301 66.8146 35.551C66.0504 35.0286 66.2872 34.2278 66.2373 33.5081C66.2033 32.9783 66.3324 32.4289 66.0575 31.9118C65.7488 31.5042 65.1521 31.558 64.8205 31.1749C64.4659 30.8614 64.4617 30.3436 64.0659 29.9232C63.2058 29.7357 62.2687 29.4545 61.2867 30.2312C62.3587 31.3022 63.9101 30.2107 64.8532 31.239C64.9022 31.4216 64.8467 31.5599 64.6876 31.6603C63.2838 32.1142 61.8978 32.0407 60.6933 31.6824C60.0863 31.1414 60.1293 30.4911 59.7396 30.055C58.7445 29.3943 57.3622 30.2438 56.4462 29.2433C56.7449 28.3993 57.4954 28.6815 58.0906 28.5971C58.698 28.5112 59.3964 28.7516 59.9536 28.0304C58.7958 27.2045 57.5595 27.7791 56.428 27.5995C56.1674 27.5154 56.0304 27.3272 55.9724 27.0701C55.8887 26.6284 56.0537 26.1426 55.5571 25.5091C52.0452 25.3902 48.3532 25.4052 44.8437 25.5063C44.2032 26.05 44.4186 26.6298 44.2389 27.0917C44.1509 27.2326 44.0298 27.3377 43.88 27.408C42.7938 27.836 41.5469 27.2796 40.3039 27.9545C41.3532 29.1527 42.9 28.0884 43.852 28.9768C43.7911 29.8027 43.1075 29.6426 42.6133 29.7228C41.973 29.8266 41.3006 29.6702 40.7547 29.903C40.1507 30.2081 40.2532 30.9792 39.6682 31.1988C39.1134 30.9883 39.2098 30.3323 38.7689 29.9253C38.0307 29.5895 37.1909 29.7174 36.4142 29.8344C35.8391 30.1392 35.915 30.7542 35.6013 31.1397C35.1941 31.6393 34.4611 31.422 34.0304 31.8628C33.6796 32.2713 33.7521 32.8536 33.3775 33.3758C33.1115 33.7867 32.3296 33.5435 32.0401 34.1226C31.8415 34.6467 31.9284 35.1892 31.9187 35.7256C31.8029 37.0023 32.3344 38.3632 31.4209 39.5294C30.5925 39.1979 30.84 38.4455 30.7578 37.8243C30.6811 37.2438 30.9317 36.5773 30.2324 36.0581C29.3761 36.8789 29.8271 37.8179 29.8681 38.6183C30.2448 39.1476 30.878 39.1131 31.1918 39.5555C31.0999 40.264 30.2801 40.1045 29.8922 40.7409C29.3234 41.5761 30.382 43.0487 29.0859 43.883C28.3902 43.3018 28.6791 42.4892 28.5861 41.7648C28.5145 41.2073 28.7773 40.5363 27.9895 40.1105C27.1775 41.236 27.9139 42.6171 27.3492 43.7375C27.2548 43.8861 27.1288 43.9955 26.9716 44.0724C26.5637 44.2706 26.0679 44.2674 25.6173 44.7418C25.2728 46.371 25.5427 48.1547 25.4548 49.9199C25.4149 50.7202 25.5913 51.5637 25.0209 52.269C22.2591 52.9429 19.5004 52.6263 16.9675 52.4373C16.2962 51.8536 16.2571 51.2404 15.9192 50.7655C15.5954 50.4721 15.1501 50.3095 14.8171 49.9888Z" fill="#548ACD"/>
<path d="M14.8171 81.1473C14.8171 76.3142 14.8171 71.4811 14.8171 66.6479C15.413 66.1691 16.0256 66.2068 16.5797 66.5258C17.0739 66.9879 17.0688 67.6233 17.5865 68.1983C19.5551 68.4872 21.69 68.25 23.8106 68.3372C24.9171 68.3828 26.0556 68.1285 27.118 68.6475C28.0743 69.718 27.2307 71.1868 27.9467 72.3627C28.7937 72.8381 29.6889 72.6737 30.4875 72.5094C31.1024 72.0303 31.0465 71.2811 31.5491 70.8778C32.5022 70.2272 33.6948 70.7765 34.6402 70.2918C35.1181 69.8652 35.0712 69.2006 35.5615 68.7277C36.1982 68.3045 36.9168 68.3105 37.5781 68.6953C38.0948 69.1442 38.0141 69.8164 38.4752 70.2931C40.1703 70.9054 42.1126 70.0606 43.7248 70.8184C44.2267 71.2935 44.2411 71.8624 44.742 72.5327C48.2546 72.7969 51.9613 72.6802 55.434 72.6017C56.0832 71.9592 56.0548 71.3004 56.5486 70.862C57.4503 70.2384 58.6319 70.7474 59.6298 70.3041C60.118 69.934 60.033 69.2547 60.5563 68.7049C61.485 67.9767 62.8509 68.6537 63.979 68.13C64.4015 67.7951 64.4143 67.2007 64.7974 66.839C65.441 66.4795 66.0797 66.4739 66.7141 66.8575C67.0428 67.1928 67.1205 67.6832 67.6943 68.31C72.4262 68.3596 77.4228 68.3367 82.1725 68.3208C82.966 67.7674 82.8756 67.0061 83.447 66.5259C84.0842 66.1424 84.7963 66.1118 85.4944 66.648C85.4944 71.4811 85.4944 76.3143 85.4944 81.1474C84.9012 81.6763 84.1651 81.6432 83.4492 81.6435C61.2536 81.6531 39.058 81.6531 16.8625 81.6435C16.1464 81.6432 15.4103 81.6763 14.8171 81.1473Z" fill="#3C5CB5"/>
<path d="M14.8169 81.1475C38.376 81.1475 61.9351 81.1475 85.4941 81.1475C85.4941 82.5352 85.4941 83.923 85.4942 85.3109C85.4131 85.3628 85.3339 85.4555 85.2506 85.4594C84.8914 85.476 84.531 85.4665 84.1711 85.4665C61.494 85.4665 38.8171 85.4665 16.1401 85.4665C15.7345 85.4665 15.3289 85.4665 14.9787 85.4665C14.8909 85.3819 14.8217 85.3465 14.8216 85.3108C14.8161 83.923 14.8169 82.5352 14.8169 81.1475Z" fill="#4371C5"/>
<path d="M85.4942 66.6479C84.8289 66.6479 84.1637 66.6479 83.4983 66.6479C83.4434 66.7254 83.3428 66.802 83.3411 66.8808C83.3279 67.488 83.3338 68.0957 83.3338 68.7064C82.9059 68.9121 82.4952 68.7774 82.1002 68.801C81.6413 68.8285 81.1795 68.8074 80.7189 68.8074C80.3095 68.8074 79.9001 68.8074 79.4907 68.8074C79.0813 68.8074 78.6719 68.8074 78.2626 68.8074C77.802 68.8074 77.3415 68.8074 76.8809 68.8074C76.4715 68.8074 76.0621 68.8074 75.6528 68.8074C75.2434 68.8074 74.834 68.8074 74.4246 68.8074C74.0152 68.8074 73.6058 68.8074 73.1964 68.8074C72.7358 68.8074 72.2752 68.8074 71.8147 68.8074C71.4053 68.8074 70.9959 68.8074 70.5865 68.8074C70.1771 68.8074 69.7677 68.8074 69.3583 68.8074C68.8977 68.8074 68.4368 68.8179 67.9767 68.8043C67.5744 68.7923 67.1684 68.861 66.7812 68.7678C66.7357 68.7186 66.6723 68.6818 66.6719 68.6444C66.6656 68.0818 66.6675 67.5191 66.6675 66.9565C66.8992 66.2303 67.7032 66.4097 68.1938 65.9824C68.588 65.5281 68.4502 64.7116 69.0926 64.3306C69.4769 64.0912 69.9837 64.1429 70.374 63.7687C70.7851 62.9125 70.4521 61.9253 70.6456 60.9962C70.6755 60.8388 70.7315 60.692 70.8079 60.5532C70.8949 60.4212 71.0112 60.3217 71.1523 60.2524C71.5618 60.0541 72.0668 60.1363 72.5354 59.7421C72.8934 59.0143 72.7466 58.1671 72.6774 57.5507C72.3775 56.6819 71.3875 57.0124 71.2516 56.2537C71.7727 55.593 72.5199 55.7594 73.208 55.7091C73.6093 55.6371 74.0323 55.6185 74.4432 55.058C74.6398 52.4846 74.4605 49.7143 74.5399 46.9511C74.5702 45.8956 74.2708 44.777 75.0006 43.8191C75.1181 43.7829 75.2269 43.8133 75.258 43.929C75.296 44.0704 75.307 44.2226 75.3073 44.3702C75.31 46.7293 75.308 49.0884 75.3114 51.4475C75.3117 51.6459 75.2671 51.8504 75.338 52.002C75.4002 52.0723 75.434 52.1438 75.4679 52.1438C78.0333 52.149 80.5986 52.149 83.164 52.1445C83.2018 52.1445 83.2395 52.0834 83.3073 52.0248C83.3786 51.402 83.2923 50.7434 83.3547 50.1211C83.4196 50.0593 83.4561 49.9939 83.4932 49.9936C84.1602 49.9874 84.8271 49.9891 85.4942 49.9891C85.4942 55.5421 85.4942 61.095 85.4942 66.6479Z" fill="#4371C5"/>
<path d="M27.1622 68.8077C23.7222 68.8077 20.2821 68.808 16.8421 68.8037C16.8039 68.8037 16.7658 68.7441 16.6978 68.6875C16.6202 68.0637 16.7119 67.4043 16.6503 66.7998C16.5803 66.7235 16.5462 66.6535 16.5112 66.653C15.9465 66.6462 15.3817 66.6482 14.8169 66.6482C14.8169 61.0951 14.8169 55.5422 14.8169 49.9893C15.3815 49.9893 15.9461 49.9893 16.5108 49.9893C16.5635 50.0693 16.6597 50.1484 16.6617 50.2297C16.675 50.7937 16.6674 51.3582 16.6712 51.9226C16.6716 51.966 16.7074 52.0092 16.7267 52.0525C16.7648 52.0846 16.8027 52.1447 16.8408 52.1448C19.5612 52.1492 22.2815 52.1488 25.0019 52.1488C25.8306 53.0955 25.1196 54.3526 25.6698 55.3877C26.0984 55.8176 26.6871 55.6763 27.2325 55.7253C27.8912 55.7985 28.6796 55.5244 29.0398 56.3961C28.7351 56.8276 28.1404 56.8636 27.7092 57.4116C27.5591 58.8457 27.4811 60.4037 27.8284 62.2684C28.858 61.2883 28.4623 60.3785 28.5759 59.582C28.7278 58.518 28.1733 57.3218 29.1713 56.4152C29.858 56.8461 29.768 57.5576 29.7819 58.2025C29.8117 59.5807 29.8207 60.96 29.7758 62.3359C29.7647 62.7901 29.718 63.2504 29.8617 63.5726C30.2007 64.218 31.0081 64.0164 31.2367 64.6281C31.033 65.1733 30.3913 65.159 29.9592 65.7204C29.499 66.5494 30.0619 67.7891 29.3713 68.8066C28.6549 69.3226 27.9139 69.3638 27.1622 68.8077Z" fill="#4371C5"/>
<path d="M85.4941 20.9896C84.9283 20.9896 84.3625 20.9896 83.7966 20.9896C83.6512 20.8442 83.5057 20.6988 83.3602 20.5533C83.2828 20.0056 83.394 19.4453 83.2852 18.887C82.7082 18.7464 82.1447 18.9036 81.5989 18.793C81.5626 18.7565 81.495 18.7206 81.4945 18.6837C81.4876 18.1708 81.4898 17.6577 81.4898 17.1302C81.3426 16.9945 81.1921 16.8557 80.9911 16.6706C60.381 16.6706 39.7084 16.6705 19.0359 16.6735C18.9944 16.6735 18.9529 16.7185 18.9115 16.7425C18.884 16.7826 18.833 16.8225 18.8327 16.8628C18.8276 17.4761 18.8291 18.0895 18.8291 18.6858C18.4872 18.9647 18.118 18.799 17.7747 18.8244C17.4265 18.8503 17.0748 18.8301 16.7619 18.8301C16.6069 19.2655 16.6916 19.6229 16.6692 19.9739C16.6499 20.2759 16.7084 20.5819 16.6253 20.8782C16.5869 20.9168 16.551 20.9845 16.5142 20.9849C15.9485 20.9916 15.3827 20.9896 14.8169 20.9896C14.8169 18.9329 14.8169 16.8763 14.8169 14.8196C15.2989 14.5463 15.825 14.6765 16.3291 14.6764C38.8541 14.6691 61.3792 14.6696 83.9043 14.6735C84.4137 14.6736 84.9323 14.5985 85.6663 14.8631C86.0709 16.8447 86.403 18.9108 85.4941 20.9896Z" fill="#4371C5"/>
<path d="M85.4943 20.9902C85.4943 18.9873 85.4943 16.9844 85.4944 14.9815C85.4153 14.9277 85.3376 14.8301 85.2568 14.8275C84.7949 14.8126 84.3322 14.8202 83.8698 14.8202C60.8523 14.8202 37.8347 14.8202 14.8172 14.8202C14.7483 14.7516 14.7254 14.6831 14.7483 14.6146C14.7713 14.5461 14.7942 14.5117 14.8172 14.5117C38.419 14.5117 62.0209 14.5117 85.6326 14.5117C85.7384 14.6104 85.8494 14.714 85.9633 14.8202C86.4206 14.8202 86.8834 14.8202 87.3461 14.8202C87.3461 38.3358 87.3461 61.8514 87.3461 85.3186C87.2534 85.4 87.2163 85.4613 87.1781 85.4619C86.7684 85.4689 86.3584 85.4663 85.962 85.4663C85.8517 85.3949 85.8029 85.3122 85.8029 85.2097C85.8029 84.7474 85.8029 84.2852 85.8029 83.8229C85.8029 72.9345 85.8035 62.046 85.8005 51.1576C85.8004 50.8045 85.8543 50.446 85.7537 50.0989C85.7202 49.9831 85.6121 49.9527 85.4943 49.9889C85.4943 40.3228 85.4943 30.6565 85.4943 20.9902Z" fill="#7DA7D9"/>
<path d="M12.9653 14.8203C13.4797 14.8203 13.9941 14.8203 14.5085 14.8203C14.5085 38.3132 14.5085 61.8062 14.5086 85.2992C14.4314 85.3549 14.3528 85.4602 14.2772 85.4581C13.8733 85.4471 13.465 85.5225 13.0767 85.425C13.0319 85.3743 12.9694 85.3367 12.9694 85.299C12.9653 61.8061 12.9653 38.3132 12.9653 14.8203Z" fill="#7DA7D9"/>
<path d="M14.8172 14.5117C14.8172 14.6146 14.8172 14.7174 14.8172 14.8202C14.7143 14.8202 14.6114 14.8202 14.5085 14.8202C14.549 14.5742 14.571 14.5521 14.8172 14.5117Z" fill="#7DA7D9"/>
<path d="M29.3227 62.6369C29.3227 60.6597 29.3229 58.6824 29.3223 56.7051C29.3223 56.5713 29.2289 56.5011 29.0141 56.467C29.0474 56.3546 29.0184 56.2594 28.9127 56.2161C28.8284 56.1816 28.7321 56.1619 28.6408 56.1609C28.148 56.1557 27.6551 56.1585 27.1622 56.1585C26.7124 55.6638 26.6803 55.0469 26.6763 54.4313C26.6574 51.4695 26.6574 48.5075 26.6763 45.5457C26.6803 44.9301 26.7124 44.3131 27.1622 43.8185C27.7795 43.3371 28.3967 43.3369 29.014 43.8185C29.1295 43.8536 29.2368 43.8243 29.2681 43.712C29.3067 43.5735 29.3199 43.4243 29.3204 43.2796C29.3244 42.1706 29.3226 41.0617 29.3226 39.9581C29.413 39.9043 29.4915 39.8198 29.5754 39.814C30.0725 39.7798 30.5752 39.8624 31.0682 39.7541C31.1805 39.7294 31.2094 39.615 31.1744 39.4996C31.2895 39.5344 31.3966 39.5054 31.428 39.3936C31.4667 39.2556 31.4804 39.1068 31.4808 38.9626C31.4848 37.8047 31.4831 36.6469 31.4831 35.489C31.7954 35.12 32.327 35.1703 32.6756 34.869C33.0196 34.5265 32.9283 34.003 33.1918 33.6271C33.586 33.1249 34.1766 32.9897 34.7314 32.7911C35.3043 32.4687 35.0032 31.6455 35.5708 31.3214C36.7799 30.8516 38.027 31.1079 39.261 31.1199C39.3433 31.1361 39.4254 31.1531 39.5076 31.1702C39.6231 31.2052 39.7205 31.1744 39.7634 31.0638C39.7973 30.9764 39.8129 30.877 39.814 30.7827C39.819 30.3335 39.8162 29.8841 39.8162 29.5034C39.9119 29.3318 39.9966 29.3152 40.1086 29.3157C41.2698 29.3213 42.431 29.3194 43.5923 29.3188C43.7237 29.3187 43.7936 29.2251 43.8284 29.0107C43.3467 28.3937 43.3468 27.7767 43.8284 27.1598C43.9313 27.1598 44.0342 27.1598 44.1371 27.1598C44.5652 26.695 45.1445 26.6884 45.703 26.6822C48.6712 26.6489 51.6397 26.6489 54.6079 26.6822C55.1664 26.6884 55.7456 26.6951 56.1738 27.1598C56.2142 27.4058 56.2362 27.4278 56.4824 27.4683C56.9461 27.9824 56.868 28.4966 56.4824 29.0107C56.4469 29.1272 56.4766 29.2351 56.5906 29.2664C56.7305 29.3046 56.8812 29.3167 57.0273 29.3171C58.1423 29.321 59.2573 29.3193 60.346 29.3193C60.597 29.5565 60.4663 29.8243 60.4904 30.0633C60.5107 30.2646 60.4817 30.4706 60.4979 30.6728C60.5175 30.9165 60.4185 31.1737 60.5621 31.3962C60.6138 31.4284 60.6542 31.4755 60.6947 31.4756C62.0682 31.4795 63.4419 31.4788 64.8155 31.4788C65.2195 31.7761 65.1251 32.3434 65.4634 32.6774C65.8068 33.0015 66.3486 32.9607 66.6673 33.3298C66.6673 33.9737 66.6667 34.6176 66.6677 35.2616C66.6679 35.3837 66.7622 35.4512 66.9759 35.4893C67.5932 35.0076 68.2104 35.0078 68.8277 35.4893C68.8277 36.8581 68.8271 38.227 68.8305 39.5959C68.8306 39.6375 68.872 39.6789 68.8942 39.7204C68.9328 39.7497 68.9712 39.8041 69.01 39.8044C69.6693 39.8097 70.3287 39.8082 70.9881 39.8082C71.8056 40.7458 71.1326 41.9778 71.634 43.0155C71.9076 43.4302 72.5103 43.4249 72.8399 43.8188C72.8804 44.0648 72.9024 44.0869 73.1486 44.1272C73.6028 44.5588 73.621 45.1331 73.627 45.6929C73.6587 48.6564 73.6566 51.62 73.6291 54.5835C73.6239 55.1515 73.5581 55.7097 73.1486 56.1586C72.6065 56.1586 72.0643 56.1579 71.5221 56.1592C71.4019 56.1595 71.3359 56.2533 71.2968 56.4671C71.4539 57.8239 71.7341 59.1902 70.9881 60.4776C70.5856 60.9178 69.9362 60.8054 69.4693 61.116C68.9307 62.1985 69.6268 63.4889 68.8961 64.4501C68.4827 64.8842 67.9206 64.8849 67.5036 65.1755C67.062 65.5614 67.1143 66.2184 66.6741 66.6507C66.13 67.032 65.3967 66.561 64.8155 66.956C64.8155 67.5202 64.8155 68.0844 64.8155 68.6487C64.7357 68.7015 64.6561 68.7996 64.5757 68.8003C63.3957 68.8102 62.2155 68.806 61.0353 68.8085C60.8883 68.8088 60.7412 68.8277 60.6172 68.8364C60.5619 68.8977 60.4992 68.9348 60.4989 68.9724C60.4928 69.5872 60.4946 70.202 60.4946 70.8143C60.4082 70.8669 60.3265 70.9593 60.2441 70.9601C59.1667 70.9698 58.0891 70.9652 57.0117 70.9681C56.8655 70.9685 56.7194 70.9901 56.5979 70.9999C56.5443 71.0664 56.4869 71.1045 56.4864 71.1434C56.4804 71.6544 56.4824 72.1655 56.4824 72.6633C56.3241 72.8216 56.179 72.9666 56.0338 73.1117C55.9845 73.1165 55.9351 73.1255 55.8858 73.1255C52.0376 73.1261 48.1892 73.1261 44.3102 73.1261C44.1803 73.0041 44.034 72.8668 43.892 72.7333C43.7735 72.4335 43.851 72.1275 43.8287 71.8285C43.8099 71.5784 43.8698 71.3236 43.7894 71.0817C43.7487 71.041 43.7183 70.9909 43.6744 70.9723C43.6309 70.9538 43.574 70.9666 43.5229 70.9666C41.6244 70.9665 39.7259 70.967 37.8274 70.9625C37.7894 70.9624 37.7515 70.9021 37.6838 70.8447C37.6088 70.2215 37.6981 69.5626 37.6374 68.9602C37.5667 68.8825 37.5328 68.8122 37.498 68.8118C36.8823 68.8052 36.2665 68.807 35.6507 68.807C35.5989 68.8878 35.5041 68.9678 35.5022 69.0499C35.489 69.6138 35.4966 70.178 35.4927 70.7422C35.4924 70.7855 35.4557 70.8285 35.436 70.8716C35.3978 70.9033 35.3598 70.9625 35.3214 70.9626C34.091 70.9675 32.8605 70.9666 31.6341 70.9666C31.5809 71.0561 31.4921 71.1372 31.4896 71.221C31.4758 71.6821 31.483 72.1439 31.483 72.6418C31.365 72.7687 31.2289 72.915 31.0979 73.0558C30.9954 73.0807 30.9023 73.1228 30.809 73.1231C29.7361 73.1278 28.6633 73.1262 27.6485 73.1262C27.4514 72.9422 27.3019 72.8028 27.1621 72.6723C27.1621 71.3716 27.1621 70.0894 27.1621 68.8072C27.8213 68.8072 28.4805 68.8087 29.1396 68.8035C29.1784 68.8032 29.2169 68.7491 29.2555 68.72C29.2778 68.6785 29.3196 68.6372 29.3197 68.5956C29.3232 67.3797 29.3226 66.1638 29.3226 64.9495C29.4061 64.8974 29.4841 64.8087 29.5677 64.803C30.067 64.7687 30.5719 64.8502 31.0673 64.7435C31.1804 64.7192 31.2096 64.6042 31.1744 64.4882C31.0467 64.0746 31.1166 63.6006 30.8553 63.2878C30.357 62.9148 29.7097 63.0898 29.3227 62.6369Z" fill="#FFFFFD"/>
<path d="M56.174 27.1597C52.1618 27.1597 48.1496 27.1597 44.1373 27.1597C44.1373 27.1086 44.1586 27.0401 44.1335 27.0093C44.0385 26.8922 43.9285 26.7873 43.8345 26.6889C43.8345 26.1632 43.8345 25.653 43.8345 25.152C43.9024 25.0457 43.9851 25 44.0884 25C48.1332 25.0003 52.1781 25.0002 56.2229 25.0017C56.2694 25.0017 56.3159 25.023 56.3624 25.0343C56.3986 25.0705 56.4659 25.1063 56.4663 25.143C56.4733 25.6531 56.471 26.1632 56.471 26.695C56.3829 26.7873 56.2729 26.8922 56.1778 27.0093C56.1527 27.0401 56.174 27.1086 56.174 27.1597Z" fill="#3D5EB6"/>
<path d="M27.1624 43.8186C27.1624 47.9319 27.1624 52.0452 27.1624 56.1585C26.5035 56.1585 25.8446 56.16 25.1857 56.1548C25.1467 56.1545 25.1082 56.1007 25.0696 56.0718C25.0471 56.0304 25.005 55.9892 25.0048 55.9478C25.0014 54.6812 25.002 53.4145 25.002 52.148C25.002 49.4464 25.0017 46.7448 25.0044 44.0432C25.0045 44.0003 25.0409 43.9573 25.0603 43.9144C25.0981 43.8825 25.1356 43.8229 25.1736 43.8226C25.8365 43.817 26.4995 43.8186 27.1624 43.8186Z" fill="#3D5DB6"/>
<path d="M73.1488 56.159C73.1488 52.1485 73.1488 48.138 73.1488 44.1275C73.1155 44.0152 73.1445 43.9199 73.2502 43.8767C73.3346 43.8421 73.4309 43.8224 73.5221 43.8215C74.015 43.8163 74.5078 43.8191 75.0007 43.8191C75.0007 47.8551 75.0009 51.8911 74.9985 55.9272C74.9985 55.9709 74.965 56.0146 74.9472 56.0583C74.91 56.0919 74.8731 56.1543 74.8355 56.1546C74.2733 56.1609 73.7111 56.159 73.1488 56.159Z" fill="#3C5CB5"/>
<path d="M72.8401 43.819C72.283 43.819 71.7259 43.8208 71.1689 43.8152C71.1302 43.8149 71.0921 43.7598 71.0538 43.7301C71.032 43.6885 70.9913 43.647 70.9911 43.6053C70.9877 42.3397 70.9883 41.0741 70.9883 39.8085C70.9883 39.7056 70.9883 39.6028 70.9883 39.5C71.5416 39.5 72.0949 39.5 72.6711 39.5C72.8022 39.6248 72.9455 39.7612 73.0851 39.8941C73.1073 39.992 73.1457 40.0839 73.1461 40.1758C73.1503 41.2317 73.1488 42.2875 73.1488 43.4043C73.0677 43.4735 72.9488 43.5657 72.8438 43.6718C72.8187 43.6972 72.8401 43.7687 72.8401 43.819Z" fill="#3F60B7"/>
<path d="M29.0142 43.8189C28.397 43.8189 27.7797 43.8189 27.1624 43.8189C27.1624 42.4342 27.1624 41.0495 27.1624 39.6646C27.2401 39.6096 27.3166 39.5095 27.3959 39.5072C27.9018 39.4926 28.4085 39.4998 28.865 39.4998C28.9468 39.5901 29.0099 39.6273 29.0101 39.6647C29.015 41.0494 29.0142 42.4342 29.0142 43.8189Z" fill="#4060B7"/>
<path d="M70.9886 39.4996C70.4285 39.4996 69.8683 39.5014 69.3083 39.4955C69.2703 39.4951 69.2329 39.4357 69.1952 39.4037C69.1757 39.3609 69.1393 39.3182 69.1392 39.2753C69.1362 38.0569 69.1368 36.8384 69.1368 35.6301C69.5755 35.4425 69.5832 35.4422 70.9081 35.5629C70.9349 35.6027 70.985 35.6425 70.9852 35.6823C70.9893 36.9547 70.9886 38.2271 70.9886 39.4996Z" fill="#4262B8"/>
<path d="M31.1746 39.4996C30.6145 39.4996 30.0543 39.5014 29.4943 39.4955C29.4563 39.4951 29.4189 39.4357 29.3812 39.4037C29.3618 39.3609 29.3254 39.3182 29.3253 39.2753C29.3222 38.0569 29.3228 36.8384 29.3228 35.6301C29.7616 35.4425 29.7693 35.4422 31.0941 35.5629C31.121 35.6027 31.1711 35.6425 31.1712 35.6823C31.1753 36.9547 31.1746 38.2271 31.1746 39.4996Z" fill="#4464B9"/>
<path d="M35.4954 31.1706C35.4954 30.607 35.4954 30.0434 35.4954 29.4797C35.5746 29.4263 35.6535 29.3272 35.7332 29.3265C36.9121 29.3165 38.091 29.3191 39.27 29.3217C39.3144 29.3218 39.3588 29.3528 39.4031 29.3694C39.438 29.4062 39.5027 29.4427 39.5032 29.4799C39.5097 30.0434 39.5077 30.607 39.5077 31.1706C38.2593 31.4922 36.9912 31.2521 35.7333 31.3031C35.654 31.259 35.5747 31.2148 35.4954 31.1706Z" fill="#4466B9"/>
<path d="M64.8157 31.171C63.5024 31.171 62.189 31.171 60.926 31.171C60.8527 31.0499 60.8071 31.0094 60.8067 30.9685C60.8018 30.4626 60.8035 29.9567 60.8035 29.4897C60.8869 29.3509 60.9706 29.3181 61.0778 29.3184C62.198 29.3211 63.3183 29.3187 64.4385 29.3225C64.5323 29.3228 64.6261 29.3587 64.7198 29.3782C64.7518 29.416 64.8112 29.4535 64.8116 29.4914C64.8175 30.0512 64.8157 30.6111 64.8157 31.171Z" fill="#4365B9"/>
<path d="M56.4827 29.0112C56.4827 28.497 56.4827 27.9829 56.4827 27.4687C56.4472 27.3524 56.4818 27.2638 56.5897 27.2088C56.6313 27.1877 56.6777 27.1623 56.722 27.1622C57.9382 27.1597 59.1543 27.1602 60.3589 27.1602C60.5324 27.6161 60.5369 27.7843 60.4167 28.9351C60.3763 28.9605 60.336 29.0079 60.2957 29.008C59.0246 29.0119 57.7536 29.0112 56.4827 29.0112Z" fill="#3F61B7"/>
<path d="M43.8287 27.1602C43.8287 27.7772 43.8287 28.3942 43.8287 29.0112C42.5462 29.0112 41.2637 29.0112 39.9812 29.0112C39.9262 28.9335 39.8265 28.8572 39.8238 28.7777C39.8087 28.3167 39.815 27.8549 39.8188 27.3935C39.8191 27.3493 39.8517 27.3055 39.8694 27.2615C39.9066 27.2277 39.9438 27.1645 39.9813 27.1644C41.2637 27.1594 42.5462 27.1602 43.8287 27.1602Z" fill="#4061B7"/>
<path d="M35.1868 33.3302C34.73 33.3302 34.2731 33.3302 33.8269 33.3302C33.6414 33.4105 33.5899 33.683 33.335 33.6387C32.7177 34.1202 32.1005 34.1202 31.4832 33.6387C31.4489 33.5246 31.4789 33.4281 31.5876 33.3849C31.6737 33.3507 31.7719 33.3336 31.865 33.3325C32.3117 33.3274 32.7586 33.3302 33.165 33.3302C33.3028 33.2467 33.3334 33.1642 33.3372 33.0602C33.3555 32.5676 33.2786 32.0704 33.391 31.5833C33.4165 31.473 33.5294 31.4449 33.6436 31.4793C34.1292 31.2327 34.6233 31.3059 35.1854 31.4381C35.4167 32.0601 35.4214 32.6909 35.1868 33.3302Z" fill="#4061B7"/>
<path d="M68.828 35.4898C68.2107 35.4898 67.5934 35.4898 66.9761 35.4898C66.9761 34.8243 66.9762 34.1588 66.9761 33.4933C67.0542 33.4389 67.131 33.3402 67.2109 33.3377C67.6713 33.3226 68.1325 33.329 68.5934 33.3326C68.6376 33.333 68.6815 33.3649 68.7256 33.3822C68.7597 33.4192 68.8232 33.456 68.8236 33.4934C68.8296 34.1588 68.828 34.8243 68.828 35.4898Z" fill="#4564B9"/>
<path d="M66.6675 33.3296C66.1155 33.3296 65.5634 33.3312 65.0114 33.3263C64.9717 33.3259 64.9323 33.2782 64.8928 33.2525C64.8671 33.2129 64.8194 33.1737 64.819 33.1339C64.8141 32.5822 64.8157 32.0304 64.8157 31.4787C64.8157 31.3758 64.8157 31.2729 64.8157 31.1702C65.3688 31.1702 65.9218 31.1685 66.4749 31.1736C66.5144 31.1739 66.5535 31.2232 66.5928 31.2497C66.6177 31.2897 66.664 31.3295 66.6643 31.3695C66.6688 32.0229 66.6675 32.6763 66.6675 33.3296Z" fill="#3D5EB6"/>
<path d="M31.4834 33.6387C32.1007 33.6387 32.7179 33.6387 33.3352 33.6387C33.3352 34.1904 33.3368 34.7423 33.3319 35.294C33.3315 35.3337 33.2837 35.373 33.258 35.4125C33.2185 35.4382 33.1792 35.486 33.1395 35.4864C32.5875 35.4912 32.0355 35.4897 31.4834 35.4897C31.4834 34.8727 31.4834 34.2557 31.4834 33.6387Z" fill="#3E5FB6"/>
<path d="M35.187 33.3301C35.187 32.7796 35.1885 32.2291 35.1837 31.6786C35.1833 31.6386 35.1374 31.599 35.1127 31.5592C35.0736 31.5325 35.0349 31.4831 34.9955 31.4827C34.545 31.4772 34.0943 31.4792 33.6437 31.4792C33.6104 31.3668 33.6394 31.2716 33.745 31.2283C33.8294 31.1937 33.9257 31.174 34.0169 31.1731C34.5097 31.1679 35.0026 31.1706 35.4955 31.1706C35.6034 31.2392 35.6392 31.3077 35.6034 31.3763C35.5677 31.4448 35.5319 31.4792 35.4955 31.4792C35.4955 32.0211 35.4963 32.563 35.4949 33.1049C35.4948 33.225 35.4008 33.2911 35.187 33.3301Z" fill="#4466B9"/>
<path d="M64.8157 66.9562C64.7794 66.8385 64.81 66.7296 64.9259 66.6985C65.0677 66.6607 65.22 66.6519 65.3681 66.6498C65.7714 66.6438 66.175 66.6477 66.5258 66.6477C66.606 66.547 66.663 66.5087 66.6635 66.4697C66.6695 65.9584 66.6675 65.447 66.6675 64.951C66.8281 64.7903 66.9735 64.6451 67.1304 64.4882C67.6308 64.4882 68.1429 64.4903 68.655 64.4841C68.6935 64.4836 68.7313 64.4244 68.784 64.3802C68.888 63.9945 68.8109 63.5869 68.8244 63.1841C68.8398 62.7225 68.8183 62.2597 68.8308 61.7978C68.8417 61.3935 68.7792 60.986 68.8612 60.6106C68.9151 60.5526 68.9497 60.483 68.9849 60.4826C69.6527 60.4761 70.3205 60.4777 70.9884 60.4777C70.9884 60.5806 70.9884 60.6834 70.9884 60.7862C70.6659 61.1171 70.179 61.1813 69.8174 61.511C69.2606 62.4085 69.9221 63.6189 69.1366 64.4882C69.1366 64.538 69.1578 64.608 69.1329 64.6342C69.0307 64.7413 68.9144 64.8351 68.8279 64.912C68.8279 65.497 68.8279 66.0357 68.8279 66.583C68.2185 66.7094 67.6743 66.5985 67.0625 66.6802C67.0145 66.7341 66.9206 66.8503 66.8135 66.9525C66.7874 66.9774 66.7173 66.9562 66.6675 66.9562C66.0502 66.9562 65.4329 66.9562 64.8157 66.9562Z" fill="#4E68BA"/>
<path d="M70.9883 60.4773C70.9883 59.2188 70.9881 57.9603 70.9887 56.7018C70.9888 56.5718 71.0828 56.5021 71.297 56.4669C71.8609 56.4669 72.4248 56.4669 72.9888 56.4668C73.0422 56.546 73.1412 56.625 73.1419 56.7048C73.1518 57.8833 73.1493 59.0619 73.1467 60.2405C73.1466 60.2847 73.1153 60.329 73.0985 60.3733C73.0616 60.408 73.0249 60.4725 72.9877 60.4729C72.3212 60.479 71.6547 60.4773 70.9883 60.4773Z" fill="#415FB7"/>
<path d="M69.1365 64.4885C69.1365 63.3251 69.1358 62.1618 69.1393 60.9984C69.1395 60.957 69.1808 60.9156 69.203 60.8742C69.2415 60.845 69.2797 60.7906 69.3185 60.7902C69.8751 60.7846 70.4317 60.7864 70.9883 60.7864C70.9883 61.9497 70.989 63.1131 70.9856 64.2764C70.9854 64.3179 70.944 64.3592 70.9218 64.4007C70.8833 64.4299 70.8451 64.4842 70.8063 64.4846C70.2498 64.4902 69.6932 64.4885 69.1365 64.4885Z" fill="#405FB6"/>
<path d="M29.0143 56.4671C29.0143 58.4576 29.0148 60.448 29.0111 62.4386C29.011 62.479 28.9629 62.5194 28.9372 62.5598C28.8969 62.5856 28.8567 62.6333 28.816 62.6337C28.3086 62.6388 27.801 62.637 27.3168 62.637C27.2577 62.5779 27.1928 62.5441 27.1898 62.5054C27.1391 61.8627 27.1639 57.5535 27.2173 56.5665C27.2546 56.5334 27.2916 56.4718 27.3293 56.4714C27.891 56.4652 28.4527 56.4671 29.0143 56.4671Z" fill="#405FB7"/>
<path d="M28.9317 64.4886C28.9838 64.6421 29.0122 64.6869 29.0123 64.7318C29.0147 65.909 29.0148 67.086 29.0121 68.2631C29.012 68.3074 28.9804 68.3515 28.9635 68.3957C28.9266 68.4302 28.89 68.4943 28.8527 68.4948C28.3407 68.5014 27.8287 68.4992 27.3166 68.4993C27.2651 68.4183 27.1697 68.3375 27.169 68.256C27.1594 67.0791 27.1618 65.9019 27.1645 64.7248C27.1646 64.6806 27.1962 64.6364 27.2131 64.5922C27.25 64.5577 27.2866 64.4936 27.3239 64.4932C27.8359 64.4865 28.3479 64.4886 28.9317 64.4886Z" fill="#3F5FB7"/>
<path d="M29.323 62.6378C29.9875 62.6378 30.6519 62.6378 31.3165 62.6377C31.3722 62.7143 31.4764 62.7915 31.4756 62.8676C31.47 63.372 31.5353 63.8803 31.4318 64.38C31.4081 64.4947 31.2919 64.5246 31.1748 64.4887C30.6228 64.4887 30.0707 64.4903 29.5188 64.4854C29.479 64.485 29.4397 64.4373 29.4002 64.4116C29.3745 64.3721 29.3267 64.3327 29.3263 64.293C29.3214 63.7414 29.323 63.1895 29.323 62.6378Z" fill="#4B6BBC"/>
<path d="M31.4834 52.148C31.4834 49.4277 31.483 46.7075 31.4875 43.9873C31.4876 43.9495 31.5491 43.9118 31.5913 43.8636C32.1248 43.7253 32.6891 43.9085 33.2248 43.7753C33.2666 43.7301 33.3308 43.6931 33.331 43.6558C33.3362 42.4242 33.3353 41.1926 33.3353 39.9615C33.4181 39.9099 33.4987 39.8167 33.5814 39.8148C34.146 39.8018 34.7109 39.8094 35.2757 39.8053C35.3186 39.805 35.3612 39.7663 35.4039 39.7455C35.4345 39.7069 35.4914 39.6684 35.4918 39.6295C35.4974 39.0158 35.4957 38.4018 35.4957 37.8028C35.5468 37.7517 35.5789 37.6897 35.6201 37.683C36.2684 37.5762 36.9318 37.7324 37.5621 37.5971C37.604 37.5321 37.6525 37.4917 37.6528 37.451C37.6577 36.8389 37.6562 36.2268 37.6562 35.6433C37.7208 35.5788 37.7552 35.5132 37.7937 35.5105C38.446 35.4661 39.1028 35.5036 39.7795 35.4829C39.8591 34.751 39.7812 34.0923 39.8296 33.4708C39.8948 33.4058 39.9309 33.338 39.9674 33.3378C41.1992 33.3323 42.431 33.3333 43.6606 33.3333C43.7183 33.2522 43.8188 33.1762 43.8214 33.097C43.8366 32.6356 43.8274 32.1734 43.8312 31.7115C43.8316 31.6673 43.8645 31.6235 43.8822 31.5795C43.9197 31.5459 43.957 31.4828 43.9944 31.4828C48.1023 31.4784 52.21 31.4786 56.3179 31.4785C56.373 31.5563 56.4728 31.6327 56.4754 31.7122C56.4905 32.1736 56.4814 32.6358 56.4852 33.0978C56.4856 33.1417 56.5189 33.1855 56.5369 33.2294C56.5744 33.2628 56.6118 33.3252 56.6494 33.3255C57.8812 33.3306 59.113 33.3296 60.3426 33.3296C60.395 33.4154 60.4865 33.4964 60.4884 33.5795C60.5012 34.1438 60.4937 34.7086 60.4979 35.2731C60.4982 35.3156 60.5386 35.3577 60.5603 35.4001C60.5994 35.4298 60.6382 35.485 60.6775 35.4854C61.2913 35.4908 61.9051 35.4892 62.5013 35.4892C62.555 35.543 62.6194 35.5764 62.6235 35.616C62.6914 36.2664 62.6324 36.9242 62.662 37.5286C62.7751 37.5983 62.8159 37.6451 62.857 37.6454C63.469 37.6501 64.0811 37.6486 64.674 37.6486C64.945 37.9966 64.7716 38.3645 64.8143 38.7066C64.8575 39.0518 64.7259 39.4129 64.9088 39.7586C65.4503 39.9032 66.0143 39.7224 66.5555 39.8503C66.5944 39.8892 66.6623 39.9254 66.6626 39.9619C66.6681 41.1936 66.6671 42.4253 66.6671 43.657C66.7465 43.7111 66.8245 43.8098 66.9046 43.8115C67.5133 43.8245 68.1225 43.8186 68.6812 43.8186C68.7625 43.9124 68.8239 43.9501 68.824 43.9879C68.8285 46.8108 68.8281 49.6337 68.8281 52.4566C68.5008 52.6332 68.1448 52.6583 67.7833 52.6547C61.3271 52.5905 54.8705 52.6991 48.4177 52.6024C47.6087 52.5665 46.7693 52.6908 46.119 52.2861C45.5822 51.8136 45.6355 51.1549 45.2519 50.7258C44.855 50.3774 44.2777 50.4001 43.8237 50.0113C43.381 49.4747 43.3934 48.8555 43.7138 48.2491C44.1151 47.7379 44.7692 47.7525 45.3226 47.2572C45.7298 45.7758 45.5619 44.1602 45.4425 42.6835C44.9972 42.0235 44.3108 42.1177 43.9902 41.8152C43.4717 41.4088 43.4381 40.8117 42.9618 40.4529C42.2156 40.1484 41.4188 40.2227 40.7638 40.3833C40.1785 40.7837 40.2153 41.4337 39.7325 41.7034C38.8436 41.5205 39.3947 40.4044 38.602 40.0588C37.7717 40.4036 38.1776 41.1915 38.0798 41.7966C38.1616 43.523 37.9558 45.2578 38.1896 46.8368C38.5473 47.4527 39.1795 47.4234 39.5029 47.8359C39.5902 48.0066 39.5599 48.1531 39.4139 48.2768C39.057 48.5411 38.5598 48.5811 38.3696 48.8332C37.7391 50.0451 38.5709 51.4326 37.4902 52.3753C35.4728 52.6737 33.4553 53.0044 31.4834 52.148Z" fill="#548ACD"/>
<path d="M31.4832 52.1482C33.5408 52.1482 35.5983 52.1482 37.6559 52.1482C37.9779 51.819 38.461 51.7455 38.8216 51.4125C39.4125 50.4167 38.6766 49.1073 39.5077 48.1377C40.3188 48.2465 40.1907 48.9266 40.2415 49.4365C40.3222 50.2482 40.2925 51.0693 40.2583 51.8838C40.2602 52.4283 40.1912 52.9797 40.3736 53.5096C40.6249 54.0596 41.2917 53.8743 41.65 54.2294C42.0673 54.5656 41.9582 55.19 42.3626 55.5351C42.7434 55.8295 43.2418 55.7373 43.6544 55.9259C43.7852 55.9902 43.894 56.0817 43.9826 56.1965C44.3311 56.6702 44.0002 57.4503 44.6787 57.7792C45.564 57.7319 45.0973 56.5358 45.8716 56.411C46.5107 56.8444 46.3712 57.5178 46.4117 58.1347C46.5057 58.7309 46.1454 59.4336 46.8124 59.9182C47.8081 59.7763 47.1549 58.4684 48.0163 58.2598C48.7635 58.8011 48.5347 59.6039 48.5804 60.3322C48.613 60.8379 48.5043 61.36 48.7784 61.9233C49.8123 62.5898 51.0464 61.941 52.165 62.2544C52.2869 62.3602 52.3774 62.4891 52.4393 62.6376C52.613 63.0459 52.5614 63.5515 53.0932 63.9617C54.5107 64.1128 56.0538 64.1497 57.4953 63.9394C57.9356 63.4556 57.879 62.9867 57.9014 62.5358C57.9304 61.8028 57.7491 61.0198 58.4037 60.4411C59.3302 60.5952 58.7325 61.7694 59.5959 62.0933C60.3351 61.6809 59.9897 60.9095 60.0664 60.2787C59.9619 59.2697 60.2314 58.2325 59.8112 57.1825C58.8542 56.7541 57.8523 56.3006 57.7476 54.9777C56.0846 54.6289 54.5334 54.6922 53.0082 54.9016C52.3961 55.6898 52.2603 56.8788 50.9504 56.7794C49.9051 56.7 49.7266 55.8292 49.3989 55.1739C49.029 54.7035 48.4427 54.6704 48.0431 54.2219C47.6688 53.5585 47.6049 52.8457 48.1493 52.1484C54.8792 52.1484 61.6092 52.1484 68.3495 52.1484C68.4539 52.2478 68.5592 52.358 68.6767 52.4531C68.7078 52.4782 68.7764 52.4569 68.8278 52.4569C68.8278 53.6379 68.8278 54.8189 68.8278 56.0092C68.6852 56.1472 68.5378 56.2897 68.3555 56.4659C67.8447 56.4692 67.2919 56.466 66.793 56.4677C66.7188 56.5852 66.6708 56.6259 66.6706 56.6667C66.6667 57.8952 66.6674 59.1238 66.6674 60.3301C66.3765 60.591 66.0578 60.4486 65.7659 60.4725C65.4691 60.4967 65.1687 60.4778 64.8893 60.4778C64.7214 61.1105 64.9002 61.6745 64.7913 62.141C64.6151 62.3491 64.4833 62.5046 64.3644 62.645C63.8172 62.645 63.3055 62.645 62.8064 62.645C62.695 62.7143 62.6538 62.7979 62.6543 62.9033C62.6563 63.3655 62.6551 63.8276 62.6551 64.317C62.5305 64.4488 62.3921 64.5951 62.247 64.7485C61.708 64.8927 61.1434 64.7076 60.6056 64.84C60.5648 64.8828 60.4997 64.9193 60.4993 64.9565C60.4925 65.4696 60.4947 65.9828 60.4947 66.4948C60.4106 66.5467 60.3292 66.6405 60.247 66.6413C59.1682 66.6511 58.0894 66.6465 57.0106 66.6494C56.8644 66.6498 56.7183 66.6718 56.5968 66.6817C56.5437 66.7491 56.4868 66.7875 56.4864 66.8265C56.4808 67.4405 56.4825 68.0546 56.4825 68.6436C56.4052 68.7676 56.3216 68.8081 56.2161 68.8081C52.1577 68.8071 48.0994 68.8075 44.041 68.8045C43.9989 68.8045 43.9569 68.7622 43.915 68.7395C43.8861 68.7001 43.8325 68.6609 43.8322 68.6213C43.8269 68.0079 43.8285 67.3945 43.8285 66.8156C43.7468 66.6806 43.6624 66.6462 43.5548 66.6463C41.7054 66.6484 39.8561 66.6464 38.0066 66.6512C37.8929 66.6515 37.8012 66.6478 37.6945 66.5276C37.5812 66.0264 37.7201 65.4649 37.6236 64.9189C37.5873 64.8825 37.5514 64.8151 37.5146 64.8147C37.0028 64.8077 36.4909 64.81 35.9521 64.81C35.8252 64.663 35.6919 64.5086 35.5218 64.3114C35.4144 63.8313 35.5861 63.2678 35.4507 62.7416C35.3903 62.6963 35.3514 62.6416 35.312 62.6412C34.8009 62.6354 34.2898 62.6373 33.798 62.6373C33.6335 62.4729 33.4882 62.3277 33.335 62.1746C33.335 60.335 33.3355 58.4875 33.331 56.64C33.3309 56.6018 33.271 56.5638 33.2052 56.4853C32.692 56.4411 32.1364 56.4874 31.629 56.4609C31.5533 56.3813 31.4878 56.3446 31.4876 56.3076C31.4824 54.921 31.4832 53.5346 31.4832 52.1482Z" fill="#4371C5"/>
<path d="M35.4956 31.4794C35.4956 31.3765 35.4956 31.2737 35.4956 31.1709C36.833 31.1709 38.1705 31.1709 39.5078 31.1709C39.5427 31.286 39.5137 31.393 39.4018 31.4244C39.2638 31.463 39.1149 31.4767 38.9707 31.4772C37.8123 31.4811 36.654 31.4794 35.4956 31.4794Z" fill="#548ACD"/>
<path d="M48.1494 52.1484C48.1494 52.816 48.1494 53.4835 48.1493 54.1512C48.2299 54.2035 48.3091 54.2983 48.3913 54.3008C48.8532 54.3154 49.3158 54.3063 49.7781 54.3105C49.8213 54.3109 49.8642 54.3482 49.9072 54.3682C49.9386 54.4066 49.9967 54.4447 49.9971 54.4834C50.0032 54.995 50.0012 55.5066 50.0012 56.0047C50.1601 56.1635 50.3054 56.3087 50.4574 56.4607C50.8598 56.4607 51.2689 56.4607 51.7221 56.4607C51.8319 56.3335 51.9651 56.179 52.1352 55.9819C52.2427 55.5019 52.0708 54.9384 52.2098 54.3988C53.1092 54.2686 53.5302 54.2634 58.1951 54.3231C58.294 54.3848 58.3356 54.4683 58.3351 54.5735C58.3332 55.0357 58.3342 55.4978 58.3342 55.9874C58.4588 56.1192 58.597 56.2655 58.7423 56.419C59.2811 56.5634 59.8457 56.3782 60.3838 56.5105C60.4245 56.5531 60.4901 56.5898 60.4903 56.6267C60.4956 57.9105 60.4947 59.1942 60.4947 60.4779C59.8774 60.9594 59.2602 60.9596 58.6429 60.4779C58.5298 60.4443 58.4341 60.4737 58.3908 60.5804C58.3564 60.6653 58.3373 60.7623 58.3366 60.8542C58.332 61.4486 58.3342 62.043 58.3342 62.6374C56.2767 63.4011 54.2192 63.4011 52.1616 62.6374C52.1616 62.5346 52.1616 62.4317 52.1616 62.329C51.8159 62.0183 51.753 61.5295 51.4639 61.1883C50.4304 60.5718 49.1193 61.3089 48.1493 60.4779C48.1493 59.834 48.1499 59.1901 48.1489 58.5461C48.1487 58.424 48.0544 58.3565 47.8407 58.3184C47.2234 58.8001 46.6062 58.7999 45.9889 58.3184C45.9889 57.7765 45.9897 57.2346 45.9883 56.6927C45.988 56.5725 45.8941 56.5065 45.6803 56.4675C45.0217 56.6121 44.3836 56.634 43.8285 56.159C43.4782 55.8454 43.4846 55.3391 43.1626 54.9471C42.6853 54.6062 41.9557 54.6002 41.5427 54.0432C41.2855 53.708 41.3291 53.2585 41.1133 52.9064C40.7981 52.4532 40.1567 52.5573 39.8162 52.1485C39.8162 50.89 39.8165 49.6315 39.8158 48.373C39.8158 48.243 39.7219 48.1733 39.5076 48.138C39.5437 48.0206 39.5133 47.9119 39.3977 47.8809C39.2564 47.8429 39.1044 47.8421 38.9567 47.8302C38.5554 47.7975 38.1478 47.8905 37.7631 47.7852C37.7191 47.7321 37.6598 47.6941 37.6597 47.6559C37.6552 45.6572 37.6558 43.6584 37.6558 41.6597C38.2731 41.1782 38.8903 41.178 39.5076 41.6597C39.6255 41.696 39.7345 41.6653 39.7655 41.5492C39.8034 41.4073 39.8031 41.2548 39.8158 41.1067C39.8503 40.7049 39.7509 40.2961 39.8634 39.9121C39.9188 39.8691 39.9576 39.8127 39.9966 39.8125C41.2284 39.8079 42.4604 39.8086 43.6628 39.8086C43.7922 39.888 43.8304 39.972 43.8297 40.0786C43.8268 40.5413 43.8264 41.004 43.832 41.4665C43.8325 41.5071 43.8829 41.5469 43.9244 41.608C44.5571 41.7425 45.2211 41.59 45.8628 41.6878C45.9072 41.7321 45.9753 41.7684 45.9754 41.8048C45.9805 43.7571 45.9799 45.7093 45.9799 47.6957C45.851 47.8126 45.6994 47.9499 45.5234 48.1096C45.0163 48.2099 44.4531 48.0559 43.9296 48.182C43.883 48.2507 43.8325 48.2906 43.8321 48.331C43.8267 48.8414 43.8285 49.3518 43.8285 49.8449C44.1712 50.1228 44.541 49.9439 44.8834 49.9871C45.2294 50.0307 45.5911 49.9002 45.9265 50.0745C46.0504 50.4246 45.9661 50.782 45.9884 51.1331C46.0076 51.435 45.9491 51.741 46.0321 52.0358C46.0713 52.0754 46.1072 52.1433 46.1437 52.1437C46.8122 52.1501 47.4808 52.1484 48.1494 52.1484Z" fill="#FFFFFD"/>
<path d="M35.5457 47.8295C35.4781 46.2211 35.48 43.1604 35.5448 41.7645C35.5815 41.7295 35.6179 41.6645 35.6551 41.6641C36.1677 41.6573 36.6804 41.6595 37.1931 41.6595C37.2446 41.7407 37.3405 41.8217 37.3408 41.9032C37.3492 43.7992 37.3477 45.6951 37.3453 47.5911C37.3452 47.6356 37.3145 47.68 37.2981 47.7245C37.2613 47.7595 37.225 47.8245 37.1878 47.825C36.6752 47.8317 36.1625 47.8295 35.5457 47.8295Z" fill="#3F5FB6"/>
<path d="M39.5079 48.138C39.5079 49.4036 39.5085 50.6692 39.5051 51.9348C39.505 51.9764 39.4643 52.018 39.4424 52.0595C39.4041 52.0892 39.366 52.1443 39.3273 52.1446C38.7703 52.1503 38.2131 52.1484 37.656 52.1484C37.656 50.8828 37.6554 49.6173 37.6588 48.3516C37.659 48.31 37.6996 48.2685 37.7215 48.2268C37.7598 48.1972 37.7979 48.1421 37.8366 48.1417C38.3936 48.1362 38.9508 48.138 39.5079 48.138Z" fill="#4261B7"/>
<path d="M39.5076 41.6597C38.8904 41.6597 38.2731 41.6597 37.6558 41.6597C37.6558 40.9942 37.6558 40.3287 37.6558 39.6632C37.7339 39.6088 37.8107 39.5101 37.8906 39.5076C38.351 39.4925 38.8121 39.4989 39.273 39.5026C39.3172 39.5029 39.3611 39.5349 39.4052 39.5522C39.4393 39.5892 39.5029 39.626 39.5032 39.6634C39.5093 40.3287 39.5076 40.9942 39.5076 41.6597Z" fill="#4363B8"/>
<path d="M52.1619 62.6377C54.2195 62.6377 56.277 62.6377 58.3346 62.6377C58.3346 63.2017 58.3346 63.7658 58.3346 64.3299C58.2549 64.383 58.1753 64.4816 58.0953 64.482C56.1973 64.4907 54.2992 64.4891 52.4012 64.4867C52.3566 64.4867 52.312 64.4562 52.3012 64.4523C52.2384 64.3971 52.1672 64.3639 52.1668 64.3299C52.1599 63.7658 52.1619 63.2017 52.1619 62.6377Z" fill="#3D5CB5"/>
<path d="M48.1496 60.4776C49.4158 60.4776 50.6819 60.477 51.948 60.4804C51.9897 60.4804 52.0313 60.5212 52.0729 60.5429C52.1025 60.5813 52.1576 60.6193 52.158 60.658C52.1635 61.2148 52.1618 61.7717 52.1618 62.3285C52.1113 62.3285 52.0385 62.3071 52.0142 62.3322C51.91 62.44 51.8201 62.5616 51.7586 62.637C50.5321 62.637 49.3804 62.637 48.2807 62.637C48.2034 62.5244 48.1532 62.4852 48.1529 62.4457C48.1482 61.7897 48.1496 61.1337 48.1496 60.4776Z" fill="#3F5DB6"/>
<path d="M41.6681 53.9999C41.7181 53.9999 41.7886 53.9786 41.8145 54.0036C41.9214 54.1066 42.0146 54.2237 42.089 54.3083C42.6402 54.3083 43.1402 54.3065 43.6401 54.3119C43.679 54.3123 43.7174 54.363 43.7561 54.3902C43.7803 54.4302 43.825 54.47 43.8254 54.5102C43.83 55.0599 43.8285 55.6096 43.8285 56.1593C43.1728 56.1593 42.517 56.1606 41.8613 56.1559C41.8217 56.1556 41.7824 56.1064 41.7429 56.0799C41.718 56.0398 41.6717 56 41.6713 55.9596C41.6663 55.457 41.668 54.9543 41.668 54.4578C41.5761 54.4037 41.4974 54.3201 41.4134 54.3143C40.9168 54.2801 40.4146 54.3629 39.9222 54.2541C39.8101 54.2293 39.7813 54.1151 39.8162 53.9999C40.4336 53.5184 41.0509 53.5182 41.6681 53.9999Z" fill="#3F5FB7"/>
<path d="M58.643 60.4775C59.2603 60.4775 59.8776 60.4775 60.4948 60.4775C60.4948 61.143 60.4948 61.8085 60.4949 62.474C60.4167 62.5284 60.34 62.6271 60.26 62.6296C59.7996 62.6447 59.3384 62.6384 58.8776 62.6347C58.8334 62.6344 58.7895 62.6024 58.7454 62.5851C58.7113 62.5481 58.6477 62.5113 58.6474 62.4739C58.6414 61.8085 58.643 61.143 58.643 60.4775Z" fill="#4662B8"/>
<path d="M45.989 58.3184C46.6062 58.3184 47.2235 58.3184 47.8408 58.3184C47.8408 58.9839 47.8408 59.6493 47.8408 60.3148C47.7627 60.3692 47.6859 60.4679 47.606 60.4705C47.1456 60.4856 46.6844 60.4793 46.2235 60.4756C46.1793 60.4752 46.1354 60.4432 46.0914 60.4259C46.0573 60.3889 45.9937 60.352 45.9933 60.3147C45.9874 59.6493 45.989 58.9839 45.989 58.3184Z" fill="#4A64B9"/>
<path d="M43.8288 56.1584C44.3709 56.1584 44.9131 56.1577 45.4552 56.159C45.5754 56.1593 45.6415 56.2531 45.6806 56.4669C45.6806 57.0299 45.6806 57.5928 45.6807 58.1559C45.6022 58.21 45.5251 58.3081 45.445 58.3106C44.9846 58.3256 44.5235 58.3193 44.0628 58.3156C44.0187 58.3152 43.9749 58.2831 43.9309 58.2656C43.8969 58.2285 43.8335 58.1917 43.8332 58.1543C43.8272 57.4891 43.8288 56.8238 43.8288 56.1584Z" fill="#4B65B9"/>
<path d="M41.6682 53.9997C41.0509 53.9997 40.4337 53.9997 39.8164 53.9997C39.8164 53.3827 39.8164 52.7657 39.8164 52.1487C40.3684 52.1487 40.9205 52.1471 41.4725 52.152C41.5122 52.1523 41.5515 52.2001 41.5911 52.2258C41.6167 52.2653 41.6645 52.3046 41.6649 52.3444C41.6698 52.8961 41.6682 53.4479 41.6682 53.9997Z" fill="#405EB7"/>
</svg>
