<svg width="95" height="90" viewBox="0 0 95 90" fill="none" xmlns="http://www.w3.org/2000/svg">
<g clip-path="url(#clip0_44_31348)">
<path d="M49.3884 0.000488281H45.2681V4.09562H49.3884V0.000488281Z" fill="#FCCB25"/>
<path d="M53.5088 0.000488281H49.3884V4.09562H53.5088V0.000488281Z" fill="#FCCB25"/>
<path d="M57.6292 0.000488281H53.5088V4.09562H57.6292V0.000488281Z" fill="#FCCB25"/>
<path d="M61.7495 0.000488281H57.6292V4.09562H61.7495V0.000488281Z" fill="#FCCB25"/>
<path d="M94.6751 32.7246H90.5547V36.8197H94.6751V32.7246Z" fill="#FCCB25"/>
<path d="M94.6751 28.6294H90.5547V32.7245H94.6751V28.6294Z" fill="#FCCB25"/>
<path d="M94.6751 36.8193H90.5547V40.9145H94.6751V36.8193Z" fill="#FCCB25"/>
<path d="M94.6751 40.9146H90.5547V45.0097H94.6751V40.9146Z" fill="#FCCB25"/>
<path d="M94.6751 44.9912H90.5547V49.0863H94.6751V44.9912Z" fill="#FCCB25"/>
<path d="M94.6751 49.0859H90.5547V53.1811H94.6751V49.0859Z" fill="#FCCB25"/>
<path d="M94.6751 53.1816H90.5547V57.2768H94.6751V53.1816Z" fill="#FCCB25"/>
<path d="M94.6751 57.2764H90.5547V61.3715H94.6751V57.2764Z" fill="#FCCB25"/>
<path d="M45.2866 0.000488281H41.1663V4.09562H45.2866V0.000488281Z" fill="#FCCB25"/>
<path d="M41.1663 0.000488281H37.0459V4.09562H41.1663V0.000488281Z" fill="#FCCB25"/>
<path d="M37.0459 0.000488281H32.9255V4.09562H37.0459V0.000488281Z" fill="#FCCB25"/>
<path d="M32.9256 4.09521H28.8052V8.19034H32.9256V4.09521Z" fill="#FCCB25"/>
<path d="M28.824 4.09521H24.7036V8.19034H28.824V4.09521Z" fill="#FCCB25"/>
<path d="M24.7036 8.19092H20.5833V12.286H24.7036V8.19092Z" fill="#FCCB25"/>
<path d="M20.5833 12.2676H16.4629V16.3627H20.5833V12.2676Z" fill="#FCCB25"/>
<path d="M16.4629 12.2676H12.3425V16.3627H16.4629V12.2676Z" fill="#FCCB25"/>
<path d="M12.3613 16.3623H8.24097V20.4574H12.3613V16.3623Z" fill="#FCCB25"/>
<path d="M12.3613 20.4575H8.24097V24.5526H12.3613V20.4575Z" fill="#FCCB25"/>
<path d="M8.24074 24.5527H4.12036V28.6479H8.24074V24.5527Z" fill="#FCCB25"/>
<path d="M61.7436 8.17773H65.864V4.08261L61.7436 4.08261V8.17773Z" fill="#FCCB25"/>
<path d="M65.855 8.17773H69.9753V4.08261L65.855 4.08261V8.17773Z" fill="#FCCB25"/>
<path d="M69.9665 12.2637H74.0869V8.16854H69.9665V12.2637Z" fill="#FCCB25"/>
<path d="M74.0781 16.3687H78.1985V12.2735H74.0781V16.3687Z" fill="#FCCB25"/>
<path d="M78.1897 16.3687H82.3101V12.2735H78.1897V16.3687Z" fill="#FCCB25"/>
<path d="M78.1897 20.4556H82.3101V16.3604H78.1897V20.4556Z" fill="#FBA71A"/>
<path d="M74.0781 20.4556H78.1985V16.3604H74.0781V20.4556Z" fill="#FBA71A"/>
<path d="M69.9665 20.4556H74.0869V16.3604H69.9665V20.4556Z" fill="#FBA71A"/>
<path d="M65.855 20.4556H69.9753V16.3604H65.855V20.4556Z" fill="#FBA71A"/>
<path d="M78.1897 24.542H82.3101V20.4469H78.1897V24.542Z" fill="#FBA71A"/>
<path d="M74.0781 24.542H78.1985V20.4469H74.0781V24.542Z" fill="#FBA71A"/>
<path d="M69.9665 24.542H74.0869V20.4469H69.9665V24.542Z" fill="#FBA71A"/>
<path d="M65.855 24.542H69.9753V20.4469H65.855V24.542Z" fill="#D86100"/>
<path d="M78.1897 28.6279H82.3101V24.5328H78.1897V28.6279Z" fill="#FBA71A"/>
<path d="M74.0781 28.6279H78.1985V24.5328H74.0781V28.6279Z" fill="#FBA71A"/>
<path d="M69.9665 28.6279H74.0869V24.5328H69.9665V28.6279Z" fill="#D86100"/>
<path d="M65.855 28.6279H69.9753V24.5328H65.855V28.6279Z" fill="#FCCB25"/>
<path d="M78.1897 32.7329H82.3101V28.6378H78.1897V32.7329Z" fill="#FBA71A"/>
<path d="M74.0781 32.7329H78.1985V28.6378H74.0781V32.7329Z" fill="#D86100"/>
<path d="M69.9665 32.7329H74.0869V28.6378H69.9665V32.7329Z" fill="#FFCA45"/>
<path d="M65.855 32.7329H69.9753V28.6378H65.855V32.7329Z" fill="#FBA71A"/>
<path d="M78.1897 36.8193H82.3101V32.7242H78.1897V36.8193Z" fill="#D86100"/>
<path d="M74.0781 36.8193H78.1985V32.7242H74.0781V36.8193Z" fill="#FFEC8A"/>
<path d="M69.9665 36.8193H74.0869V32.7242H69.9665V36.8193Z" fill="#FFCA45"/>
<path d="M65.855 36.8193H69.9753V32.7242H65.855V36.8193Z" fill="#FBA71A"/>
<path d="M78.1897 40.9053H82.3101V36.8101H78.1897V40.9053Z" fill="#D86100"/>
<path d="M74.0781 40.9053H78.1985V36.8101H74.0781V40.9053Z" fill="#FFEC8A"/>
<path d="M69.9665 40.9053H74.0869V36.8101H69.9665V40.9053Z" fill="#FFCA45"/>
<path d="M65.855 40.9053H69.9753V36.8101H65.855V40.9053Z" fill="#FFCA45"/>
<path d="M61.7436 20.4556H65.864V16.3604H61.7436V20.4556Z" fill="#D86100"/>
<path d="M57.6133 20.4556H61.7336V16.3604H57.6133V20.4556Z" fill="#FCCB25"/>
<path d="M53.5017 20.4556H57.6221V16.3604H53.5017V20.4556Z" fill="#FCCB25"/>
<path d="M49.3899 20.4556H53.5103V16.3604H49.3899V20.4556Z" fill="#FCCB25"/>
<path d="M61.7436 24.542H65.864V20.4469H61.7436V24.542Z" fill="#FCCB25"/>
<path d="M57.6133 24.542H61.7336V20.4469H57.6133V24.542Z" fill="#FBA71A"/>
<path d="M53.5017 24.542H57.6221V20.4469H53.5017V24.542Z" fill="#FCCB25"/>
<path d="M49.3899 24.542H53.5103V20.4469H49.3899V24.542Z" fill="#FCCB25"/>
<path d="M61.7436 28.6279H65.864V24.5328H61.7436V28.6279Z" fill="#FBA71A"/>
<path d="M57.6133 28.6279H61.7336V24.5328H57.6133V28.6279Z" fill="#FBA71A"/>
<path d="M53.5017 28.6279H57.6221V24.5328H53.5017V28.6279Z" fill="#FBA71A"/>
<path d="M49.3899 28.6279H53.5103V24.5328H49.3899V28.6279Z" fill="#FCCB25"/>
<path d="M61.7436 32.7329H65.864V28.6378H61.7436V32.7329Z" fill="#FBA71A"/>
<path d="M57.6133 32.7329H61.7336V28.6378H57.6133V32.7329Z" fill="#FBA71A"/>
<path d="M53.5017 32.7329H57.6221V28.6378H53.5017V32.7329Z" fill="#FBA71A"/>
<path d="M49.3899 32.7329H53.5103V28.6378H49.3899V32.7329Z" fill="#FBA71A"/>
<path d="M61.7436 36.8193H65.864V32.7242H61.7436V36.8193Z" fill="#FBA71A"/>
<path d="M57.6133 36.8193H61.7336V32.7242H57.6133V36.8193Z" fill="#FBA71A"/>
<path d="M53.5017 36.8193H57.6221V32.7242H53.5017V36.8193Z" fill="#FBA71A"/>
<path d="M49.3899 36.8193H53.5103V32.7242H49.3899V36.8193Z" fill="#FBA71A"/>
<path d="M61.7436 40.9053H65.864V36.8101H61.7436V40.9053Z" fill="#FBA71A"/>
<path d="M57.6133 40.9053H61.7336V36.8101H57.6133V40.9053Z" fill="#FBA71A"/>
<path d="M53.5017 40.9053H57.6221V36.8101H53.5017V40.9053Z" fill="#FBA71A"/>
<path d="M49.3899 40.9053H53.5103V36.8101H49.3899V40.9053Z" fill="#FBA71A"/>
<path d="M45.2788 20.4556H49.3992V16.3604H45.2788V20.4556Z" fill="#FCCB25"/>
<path d="M41.1482 20.4556H45.2686V16.3604H41.1482V20.4556Z" fill="#FCCB25"/>
<path d="M37.0368 20.4556H41.1572V16.3604H37.0368V20.4556Z" fill="#FCCB25"/>
<path d="M32.9255 20.4556H37.0459V16.3604H32.9255V20.4556Z" fill="#FCCB25"/>
<path d="M45.2788 24.542H49.3992V20.4469H45.2788V24.542Z" fill="#FCCB25"/>
<path d="M41.1482 24.542H45.2686V20.4469H41.1482V24.542Z" fill="#FCCB25"/>
<path d="M37.0368 24.542H41.1572V20.4469H37.0368V24.542Z" fill="#FCCB25"/>
<path d="M32.9255 24.542H37.0459V20.4469H32.9255V24.542Z" fill="#FCCB25"/>
<path d="M45.2788 28.6279H49.3992V24.5328H45.2788V28.6279Z" fill="#FCCB25"/>
<path d="M41.1482 28.6279H45.2686V24.5328H41.1482V28.6279Z" fill="#FCCB25"/>
<path d="M37.0368 28.6279H41.1572V24.5328H37.0368V28.6279Z" fill="#FCCB25"/>
<path d="M32.9255 28.6279H37.0459V24.5328H32.9255V28.6279Z" fill="#FCCB25"/>
<path d="M45.2788 32.7329H49.3992V28.6378H45.2788V32.7329Z" fill="#FCCB25"/>
<path d="M41.1482 32.7329H45.2686V28.6378H41.1482V32.7329Z" fill="#FCCB25"/>
<path d="M37.0368 32.7329H41.1572V28.6378H37.0368V32.7329Z" fill="#FCCB25"/>
<path d="M32.9255 32.7329H37.0459V28.6378H32.9255V32.7329Z" fill="#FCCB25"/>
<path d="M45.2788 36.8193H49.3992V32.7242H45.2788V36.8193Z" fill="#FBA71A"/>
<path d="M41.1482 36.8193H45.2686V32.7242H41.1482V36.8193Z" fill="#FCCB25"/>
<path d="M37.0368 36.8193H41.1572V32.7242H37.0368V36.8193Z" fill="#FCCB25"/>
<path d="M32.9255 36.8193H37.0459V32.7242H32.9255V36.8193Z" fill="#FCCB25"/>
<path d="M45.2788 40.9053H49.3992V36.8101H45.2788V40.9053Z" fill="#FBA71A"/>
<path d="M41.1482 40.9053H45.2686V36.8101H41.1482V40.9053Z" fill="#FBA71A"/>
<path d="M37.0368 40.9053H41.1572V36.8101H37.0368V40.9053Z" fill="#FCCB25"/>
<path d="M32.9255 40.9053H37.0459V36.8101H32.9255V40.9053Z" fill="#FCCB25"/>
<path d="M28.8137 20.4556H32.9341V16.3604H28.8137V20.4556Z" fill="#D86100"/>
<path d="M24.6833 20.4556H28.8037V16.3604H24.6833V20.4556Z" fill="#FBA71A"/>
<path d="M20.572 20.4556H24.6924V16.3604H20.572V20.4556Z" fill="#FBA71A"/>
<path d="M69.9665 16.3687H74.0869V12.2735H69.9665V16.3687Z" fill="#FBA71A"/>
<path d="M65.855 16.3687H69.9753V12.2735H65.855V16.3687Z" fill="#FBA71A"/>
<path d="M61.7436 16.3687H65.864V12.2735H61.7436V16.3687Z" fill="#FBA71A"/>
<path d="M57.6133 16.3687H61.7336V12.2735H57.6133V16.3687Z" fill="#D86100"/>
<path d="M53.5017 16.3687H57.6221V12.2735H53.5017V16.3687Z" fill="#D86100"/>
<path d="M49.3899 16.3687H53.5103V12.2735H49.3899V16.3687Z" fill="#D86100"/>
<path d="M45.2788 16.3687H49.3992V12.2735H45.2788V16.3687Z" fill="#D86100"/>
<path d="M41.1482 16.3687H45.2686V12.2735H41.1482V16.3687Z" fill="#D86100"/>
<path d="M37.0368 16.3687H41.1572V12.2735H37.0368V16.3687Z" fill="#D86100"/>
<path d="M32.9255 16.3687H37.0459V12.2735H32.9255V16.3687Z" fill="#D86100"/>
<path d="M28.8137 16.3687H32.9341V12.2735H28.8137V16.3687Z" fill="#FBA71A"/>
<path d="M24.6833 16.3687H28.8037V12.2735H24.6833V16.3687Z" fill="#FBA71A"/>
<path d="M65.855 12.2637H69.9753V8.16854H65.855V12.2637Z" fill="#FBA71A"/>
<path d="M61.7436 12.2637H65.864V8.16854H61.7436V12.2637Z" fill="#FBA71A"/>
<path d="M57.6133 12.2637H61.7336V8.16854H57.6133V12.2637Z" fill="#FBA71A"/>
<path d="M53.5017 12.2637H57.6221V8.16854H53.5017V12.2637Z" fill="#FBA71A"/>
<path d="M49.3899 12.2637H53.5103V8.16854H49.3899V12.2637Z" fill="#FBA71A"/>
<path d="M45.2788 12.2637H49.3992V8.16854H45.2788V12.2637Z" fill="#FBA71A"/>
<path d="M41.1482 12.2637H45.2686V8.16854H41.1482V12.2637Z" fill="#FBA71A"/>
<path d="M37.0368 12.2637H41.1572V8.16854H37.0368V12.2637Z" fill="#FBA71A"/>
<path d="M32.9255 12.2637H37.0459V8.16854H32.9255V12.2637Z" fill="#FBA71A"/>
<path d="M57.6133 8.17773H61.7336V4.08261L57.6133 4.08261V8.17773Z" fill="#FBA71A"/>
<path d="M53.5017 8.17773H57.6221V4.08261L53.5017 4.08261V8.17773Z" fill="#FBA71A"/>
<path d="M49.3899 8.17773H53.5103V4.08261L49.3899 4.08261V8.17773Z" fill="#FBA71A"/>
<path d="M45.2788 8.17773H49.3992V4.08261L45.2788 4.08261V8.17773Z" fill="#FBA71A"/>
<path d="M41.1482 8.17773H45.2686V4.08261L41.1482 4.08261V8.17773Z" fill="#FBA71A"/>
<path d="M37.0368 8.17773H41.1572V4.08261L37.0368 4.08261V8.17773Z" fill="#FBA71A"/>
<path d="M32.9255 8.17773H37.0459V4.08261L32.9255 4.08261V8.17773Z" fill="#FBA71A"/>
<path d="M28.8137 12.2637H32.9341V8.16854H28.8137V12.2637Z" fill="#FBA71A"/>
<path d="M24.6833 12.2637H28.8037V8.16854H24.6833V12.2637Z" fill="#FBA71A"/>
<path d="M20.572 16.3687H24.6924V12.2735H20.572V16.3687Z" fill="#FBA71A"/>
<path d="M16.4607 20.4556H20.5811V16.3604H16.4607V20.4556Z" fill="#FBA71A"/>
<path d="M28.8137 24.542H32.9341V20.4469H28.8137V24.542Z" fill="#FCCB25"/>
<path d="M24.6833 24.542H28.8037V20.4469H24.6833V24.542Z" fill="#D86100"/>
<path d="M20.572 24.542H24.6924V20.4469H20.572V24.542Z" fill="#FBA71A"/>
<path d="M16.4607 24.542H20.5811V20.4469H16.4607V24.542Z" fill="#FBA71A"/>
<path d="M28.8137 28.6279H32.9341V24.5328H28.8137V28.6279Z" fill="#FCCB25"/>
<path d="M24.6833 28.6279H28.8037V24.5328H24.6833V28.6279Z" fill="#FCCB25"/>
<path d="M20.572 28.6279H24.6924V24.5328H20.572V28.6279Z" fill="#D86100"/>
<path d="M16.4607 28.6279H20.5811V24.5328H16.4607V28.6279Z" fill="#FBA71A"/>
<path d="M28.8137 32.7329H32.9341V28.6378H28.8137V32.7329Z" fill="#FCCB25"/>
<path d="M24.6833 32.7329H28.8037V28.6378H24.6833V32.7329Z" fill="#FCCB25"/>
<path d="M20.572 32.7329H24.6924V28.6378H20.572V32.7329Z" fill="#FCCB25"/>
<path d="M16.4607 32.7329H20.5811V28.6378H16.4607V32.7329Z" fill="#D86100"/>
<path d="M28.8137 36.8193H32.9341V32.7242H28.8137V36.8193Z" fill="#FCCB25"/>
<path d="M24.6833 36.8193H28.8037V32.7242H24.6833V36.8193Z" fill="#FCCB25"/>
<path d="M20.572 36.8193H24.6924V32.7242H20.572V36.8193Z" fill="#FCCB25"/>
<path d="M16.4607 36.8193H20.5811V32.7242H16.4607V36.8193Z" fill="#FCCB25"/>
<path d="M28.8137 40.9053H32.9341V36.8101H28.8137V40.9053Z" fill="#FCCB25"/>
<path d="M24.6833 40.9053H28.8037V36.8101H24.6833V40.9053Z" fill="#FCCB25"/>
<path d="M20.572 40.9053H24.6924V36.8101H20.572V40.9053Z" fill="#FCCB25"/>
<path d="M16.4607 40.9053H20.5811V36.8101H16.4607V40.9053Z" fill="#FCCB25"/>
<path d="M78.1897 44.9922H82.3101V40.8971H78.1897V44.9922Z" fill="#D86100"/>
<path d="M74.0781 44.9922H78.1985V40.8971H74.0781V44.9922Z" fill="#FFEC8A"/>
<path d="M69.9665 44.9922H74.0869V40.8971H69.9665V44.9922Z" fill="#FFCA45"/>
<path d="M65.855 44.9922H69.9753V40.8971H65.855V44.9922Z" fill="#FFCA45"/>
<path d="M78.1897 49.0972H82.3101V45.002H78.1897V49.0972Z" fill="#D86100"/>
<path d="M74.0781 49.0972H78.1985V45.002H74.0781V49.0972Z" fill="#FFEC8A"/>
<path d="M69.9665 49.0972H74.0869V45.002H69.9665V49.0972Z" fill="#FFCA45"/>
<path d="M65.855 49.0972H69.9753V45.002H65.855V49.0972Z" fill="#FFCA45"/>
<path d="M78.1897 53.1831H82.3101V49.088H78.1897V53.1831Z" fill="#D86100"/>
<path d="M74.0781 53.1831H78.1985V49.088H74.0781V53.1831Z" fill="#FFEC8A"/>
<path d="M69.9665 53.1831H74.0869V49.088H69.9665V53.1831Z" fill="#FFCA45"/>
<path d="M65.855 53.1831H69.9753V49.088H65.855V53.1831Z" fill="#FFCA45"/>
<path d="M78.1897 57.2695H82.3101V53.1744H78.1897V57.2695Z" fill="#D86100"/>
<path d="M74.0781 57.2695H78.1985V53.1744H74.0781V57.2695Z" fill="#FFEC8A"/>
<path d="M69.9665 57.2695H74.0869V53.1744H69.9665V57.2695Z" fill="#FFCA45"/>
<path d="M65.855 57.2695H69.9753V53.1744H65.855V57.2695Z" fill="#FFCA45"/>
<path d="M78.1897 61.356H82.3101V57.2608H78.1897V61.356Z" fill="#FBA71A"/>
<path d="M74.0781 61.356H78.1985V57.2608H74.0781V61.356Z" fill="#D86100"/>
<path d="M69.9665 61.356H74.0869V57.2608H69.9665V61.356Z" fill="#FFEC8A"/>
<path d="M65.855 61.356H69.9753V57.2608H65.855V61.356Z" fill="#FFCA45"/>
<path d="M78.1897 65.4614H82.3101V61.3663H78.1897V65.4614Z" fill="#FBA71A"/>
<path d="M82.3198 28.6279H86.4402V24.5328H82.3198V28.6279Z" fill="#FBA71A"/>
<path d="M82.3198 32.7329H86.4402V28.6378H82.3198V32.7329Z" fill="#FBA71A"/>
<path d="M82.3198 36.8193H86.4402V32.7242H82.3198V36.8193Z" fill="#FBA71A"/>
<path d="M82.3198 40.9053H86.4402V36.8101H82.3198V40.9053Z" fill="#FBA71A"/>
<path d="M82.3198 44.9922H86.4402V40.8971H82.3198V44.9922Z" fill="#FBA71A"/>
<path d="M82.3198 49.0972H86.4402V45.002H82.3198V49.0972Z" fill="#FBA71A"/>
<path d="M82.3198 53.1831H86.4402V49.088H82.3198V53.1831Z" fill="#FBA71A"/>
<path d="M82.3198 57.2695H86.4402V53.1744H82.3198V57.2695Z" fill="#FBA71A"/>
<path d="M82.3198 61.356H86.4402V57.2608H82.3198V61.356Z" fill="#FBA71A"/>
<path d="M86.4311 32.7329H90.5515V28.6378H86.4311V32.7329Z" fill="#FBA71A"/>
<path d="M86.4311 36.8193H90.5515V32.7242H86.4311V36.8193Z" fill="#FBA71A"/>
<path d="M86.4311 40.9053H90.5515V36.8101H86.4311V40.9053Z" fill="#FBA71A"/>
<path d="M86.4311 44.9922H90.5515V40.8971H86.4311V44.9922Z" fill="#FBA71A"/>
<path d="M86.4311 49.0972H90.5515V45.002H86.4311V49.0972Z" fill="#FBA71A"/>
<path d="M86.4311 53.1831H90.5515V49.088H86.4311V53.1831Z" fill="#FBA71A"/>
<path d="M86.4311 57.2695H90.5515V53.1744H86.4311V57.2695Z" fill="#FBA71A"/>
<path d="M86.4311 61.356H90.5515V57.2608H86.4311V61.356Z" fill="#FBA71A"/>
<path d="M82.3198 65.4614H86.4402V61.3663H82.3198V65.4614Z" fill="#FBA71A"/>
<path d="M74.0781 65.4614H78.1985V61.3663H74.0781V65.4614Z" fill="#FBA71A"/>
<path d="M69.9665 65.4614H74.0869V61.3663H69.9665V65.4614Z" fill="#D86100"/>
<path d="M65.855 65.4614H69.9753V61.3663H65.855V65.4614Z" fill="#FFEC8A"/>
<path d="M61.7436 44.9922H65.864V40.8971H61.7436V44.9922Z" fill="#FFCA45"/>
<path d="M57.6133 44.9922H61.7336V40.8971H57.6133V44.9922Z" fill="#FBA71A"/>
<path d="M53.5017 44.9922H57.6221V40.8971H53.5017V44.9922Z" fill="#FBA71A"/>
<path d="M49.3899 44.9922H53.5103V40.8971H49.3899V44.9922Z" fill="#FBA71A"/>
<path d="M61.7436 49.0972H65.864V45.002H61.7436V49.0972Z" fill="#FFCA45"/>
<path d="M57.6133 49.0972H61.7336V45.002H57.6133V49.0972Z" fill="#FFCA45"/>
<path d="M53.5017 49.0972H57.6221V45.002H53.5017V49.0972Z" fill="#FBA71A"/>
<path d="M49.3899 49.0972H53.5103V45.002H49.3899V49.0972Z" fill="#FBA71A"/>
<path d="M61.7436 53.1831H65.864V49.088H61.7436V53.1831Z" fill="#FFCA45"/>
<path d="M57.6133 53.1831H61.7336V49.088H57.6133V53.1831Z" fill="#FFCA45"/>
<path d="M53.5017 53.1831H57.6221V49.088H53.5017V53.1831Z" fill="#FFCA45"/>
<path d="M49.3899 53.1831H53.5103V49.088H49.3899V53.1831Z" fill="#FBA71A"/>
<path d="M61.7436 57.2695H65.864V53.1744H61.7436V57.2695Z" fill="#FFCA45"/>
<path d="M57.6133 57.2695H61.7336V53.1744H57.6133V57.2695Z" fill="#FFCA45"/>
<path d="M53.5017 57.2695H57.6221V53.1744H53.5017V57.2695Z" fill="#FFCA45"/>
<path d="M49.3899 57.2695H53.5103V53.1744H49.3899V57.2695Z" fill="#FFCA45"/>
<path d="M61.7436 61.356H65.864V57.2608H61.7436V61.356Z" fill="#FFCA45"/>
<path d="M57.6133 61.356H61.7336V57.2608H57.6133V61.356Z" fill="#FFCA45"/>
<path d="M53.5017 61.356H57.6221V57.2608H53.5017V61.356Z" fill="#FFCA45"/>
<path d="M49.3899 61.356H53.5103V57.2608H49.3899V61.356Z" fill="#FFCA45"/>
<path d="M61.7436 65.4614H65.864V61.3663H61.7436V65.4614Z" fill="#FFCA45"/>
<path d="M57.6133 65.4614H61.7336V61.3663H57.6133V65.4614Z" fill="#FFCA45"/>
<path d="M53.5017 65.4614H57.6221V61.3663H53.5017V65.4614Z" fill="#FFCA45"/>
<path d="M49.3899 65.4614H53.5103V61.3663H49.3899V65.4614Z" fill="#FFCA45"/>
<path d="M45.2788 44.9922H49.3992V40.8971H45.2788V44.9922Z" fill="#FBA71A"/>
<path d="M41.1482 44.9922H45.2686V40.8971H41.1482V44.9922Z" fill="#FBA71A"/>
<path d="M37.0368 44.9922H41.1572V40.8971H37.0368V44.9922Z" fill="#FBA71A"/>
<path d="M32.9255 44.9922H37.0459V40.8971H32.9255V44.9922Z" fill="#FCCB25"/>
<path d="M45.2788 49.0972H49.3992V45.002H45.2788V49.0972Z" fill="#FBA71A"/>
<path d="M41.1482 49.0972H45.2686V45.002H41.1482V49.0972Z" fill="#FBA71A"/>
<path d="M37.0368 49.0972H41.1572V45.002H37.0368V49.0972Z" fill="#FBA71A"/>
<path d="M32.9255 49.0972H37.0459V45.002H32.9255V49.0972Z" fill="#FBA71A"/>
<path d="M45.2788 53.1831H49.3992V49.088H45.2788V53.1831Z" fill="#FBA71A"/>
<path d="M41.1482 53.1831H45.2686V49.088H41.1482V53.1831Z" fill="#FBA71A"/>
<path d="M37.0368 53.1831H41.1572V49.088H37.0368V53.1831Z" fill="#FBA71A"/>
<path d="M32.9255 53.1831H37.0459V49.088H32.9255V53.1831Z" fill="#FBA71A"/>
<path d="M45.2788 57.2695H49.3992V53.1744H45.2788V57.2695Z" fill="#FBA71A"/>
<path d="M41.1482 57.2695H45.2686V53.1744H41.1482V57.2695Z" fill="#FBA71A"/>
<path d="M37.0368 57.2695H41.1572V53.1744H37.0368V57.2695Z" fill="#FBA71A"/>
<path d="M32.9255 57.2695H37.0459V53.1744H32.9255V57.2695Z" fill="#FBA71A"/>
<path d="M45.2788 61.356H49.3992V57.2608H45.2788V61.356Z" fill="#FFCA45"/>
<path d="M41.1482 61.356H45.2686V57.2608H41.1482V61.356Z" fill="#FBA71A"/>
<path d="M37.0368 61.356H41.1572V57.2608H37.0368V61.356Z" fill="#FBA71A"/>
<path d="M32.9255 61.356H37.0459V57.2608H32.9255V61.356Z" fill="#FBA71A"/>
<path d="M45.2788 65.4614H49.3992V61.3663H45.2788V65.4614Z" fill="#FFCA45"/>
<path d="M41.1482 65.4614H45.2686V61.3663H41.1482V65.4614Z" fill="#FFCA45"/>
<path d="M37.0368 65.4614H41.1572V61.3663H37.0368V65.4614Z" fill="#FBA71A"/>
<path d="M32.9255 65.4614H37.0459V61.3663H32.9255V65.4614Z" fill="#FBA71A"/>
<path d="M28.8137 44.9922H32.9341V40.8971H28.8137V44.9922Z" fill="#FCCB25"/>
<path d="M24.6833 44.9922H28.8037V40.8971H24.6833V44.9922Z" fill="#FCCB25"/>
<path d="M20.572 44.9922H24.6924V40.8971H20.572V44.9922Z" fill="#FCCB25"/>
<path d="M16.4607 44.9922H20.5811V40.8971H16.4607V44.9922Z" fill="#FCCB25"/>
<path d="M28.8137 49.0972H32.9341V45.002H28.8137V49.0972Z" fill="#FCCB25"/>
<path d="M24.6833 49.0972H28.8037V45.002H24.6833V49.0972Z" fill="#FCCB25"/>
<path d="M20.572 49.0972H24.6924V45.002H20.572V49.0972Z" fill="#FCCB25"/>
<path d="M16.4607 49.0972H20.5811V45.002H16.4607V49.0972Z" fill="#FCCB25"/>
<path d="M28.8137 53.1831H32.9341V49.088H28.8137V53.1831Z" fill="#FBA71A"/>
<path d="M24.6833 53.1831H28.8037V49.088H24.6833V53.1831Z" fill="#FCCB25"/>
<path d="M20.572 53.1831H24.6924V49.088H20.572V53.1831Z" fill="#FCCB25"/>
<path d="M16.4607 53.1831H20.5811V49.088H16.4607V53.1831Z" fill="#FCCB25"/>
<path d="M28.8137 57.2695H32.9341V53.1744H28.8137V57.2695Z" fill="#FBA71A"/>
<path d="M24.6833 57.2695H28.8037V53.1744H24.6833V57.2695Z" fill="#FBA71A"/>
<path d="M20.572 57.2695H24.6924V53.1744H20.572V57.2695Z" fill="#FCCB25"/>
<path d="M16.4607 57.2695H20.5811V53.1744H16.4607V57.2695Z" fill="#FCCB25"/>
<path d="M28.8137 61.356H32.9341V57.2608H28.8137V61.356Z" fill="#FBA71A"/>
<path d="M24.6833 61.356H28.8037V57.2608H24.6833V61.356Z" fill="#FBA71A"/>
<path d="M20.572 61.356H24.6924V57.2608H20.572V61.356Z" fill="#FCCB25"/>
<path d="M16.4607 61.356H20.5811V57.2608H16.4607V61.356Z" fill="#D86100"/>
<path d="M28.8137 65.4614H32.9341V61.3663H28.8137V65.4614Z" fill="#FBA71A"/>
<path d="M24.6833 65.4614H28.8037V61.3663H24.6833V65.4614Z" fill="#FCCB25"/>
<path d="M20.572 65.4614H24.6924V61.3663H20.572V65.4614Z" fill="#D86100"/>
<path d="M16.4607 65.4614H20.5811V61.3663H16.4607V65.4614Z" fill="#FBA71A"/>
<path d="M12.3489 20.4556H16.4692V16.3604H12.3489V20.4556Z" fill="#FBA71A"/>
<path d="M12.3489 24.542H16.4692V20.4469H12.3489V24.542Z" fill="#FBA71A"/>
<path d="M12.3489 28.6279H16.4692V24.5328H12.3489V28.6279Z" fill="#FBA71A"/>
<path d="M12.3489 32.7329H16.4692V28.6378H12.3489V32.7329Z" fill="#FBA71A"/>
<path d="M12.3489 36.8193H16.4692V32.7242H12.3489V36.8193Z" fill="#D86100"/>
<path d="M12.3489 40.9053H16.4692V36.8101H12.3489V40.9053Z" fill="#D86100"/>
<path d="M12.3489 44.9922H16.4692V40.8971H12.3489V44.9922Z" fill="#D86100"/>
<path d="M12.3489 49.0972H16.4692V45.002H12.3489V49.0972Z" fill="#D86100"/>
<path d="M12.3489 53.1831H16.4692V49.088H12.3489V53.1831Z" fill="#D86100"/>
<path d="M12.3489 57.2695H16.4692V53.1744H12.3489V57.2695Z" fill="#D86100"/>
<path d="M12.3489 61.356H16.4692V57.2608H12.3489V61.356Z" fill="#FBA71A"/>
<path d="M12.3489 65.4614H16.4692V61.3663H12.3489V65.4614Z" fill="#FBA71A"/>
<path d="M8.21849 28.6279H12.3389V24.5328H8.21849V28.6279Z" fill="#FBA71A"/>
<path d="M8.21849 32.7329H12.3389V28.6378H8.21849V32.7329Z" fill="#FBA71A"/>
<path d="M8.21849 36.8193H12.3389V32.7242H8.21849V36.8193Z" fill="#FBA71A"/>
<path d="M8.21849 40.9053H12.3389V36.8101H8.21849V40.9053Z" fill="#FBA71A"/>
<path d="M8.21849 44.9922H12.3389V40.8971H8.21849V44.9922Z" fill="#FBA71A"/>
<path d="M8.21849 49.0972H12.3389V45.002H8.21849V49.0972Z" fill="#FBA71A"/>
<path d="M8.21849 53.1831H12.3389V49.088H8.21849V53.1831Z" fill="#FBA71A"/>
<path d="M8.21849 57.2695H12.3389V53.1744H8.21849V57.2695Z" fill="#FBA71A"/>
<path d="M8.21849 61.356H12.3389V57.2608H8.21849V61.356Z" fill="#FBA71A"/>
<path d="M4.10716 32.7329H8.22754V28.6378H4.10716L4.10716 32.7329Z" fill="#FBA71A"/>
<path d="M4.10716 36.8193H8.22754V32.7242H4.10716L4.10716 36.8193Z" fill="#FBA71A"/>
<path d="M4.10716 40.9053H8.22754V36.8101H4.10716L4.10716 40.9053Z" fill="#FBA71A"/>
<path d="M4.10716 44.9922H8.22754V40.8971H4.10716L4.10716 44.9922Z" fill="#FBA71A"/>
<path d="M4.10716 49.0972H8.22754V45.002H4.10716L4.10716 49.0972Z" fill="#FBA71A"/>
<path d="M4.10716 53.1831H8.22754V49.088H4.10716L4.10716 53.1831Z" fill="#FBA71A"/>
<path d="M4.10716 57.2695H8.22754V53.1744H4.10716L4.10716 57.2695Z" fill="#FBA71A"/>
<path d="M4.10716 61.356H8.22754V57.2608H4.10716L4.10716 61.356Z" fill="#FBA71A"/>
<path d="M8.21849 65.4614H12.3389V61.3663H8.21849V65.4614Z" fill="#FBA71A"/>
<path d="M78.1897 69.5474H82.3101V65.4522H78.1897V69.5474Z" fill="#FBA71A"/>
<path d="M74.0781 69.5474H78.1985V65.4522H74.0781V69.5474Z" fill="#FBA71A"/>
<path d="M69.9665 69.5474H74.0869V65.4522H69.9665V69.5474Z" fill="#FBA71A"/>
<path d="M65.855 69.5474H69.9753V65.4522H65.855V69.5474Z" fill="#D86100"/>
<path d="M78.1897 73.6338H82.3101V69.5387H78.1897V73.6338Z" fill="#FBA71A"/>
<path d="M74.0781 73.6338H78.1985V69.5387H74.0781V73.6338Z" fill="#FBA71A"/>
<path d="M69.9665 73.6338H74.0869V69.5387H69.9665V73.6338Z" fill="#FBA71A"/>
<path d="M65.855 73.6338H69.9753V69.5387H65.855V73.6338Z" fill="#FBA71A"/>
<path d="M61.7436 69.5474H65.864V65.4522H61.7436V69.5474Z" fill="#FFEC8A"/>
<path d="M57.6133 69.5474H61.7336V65.4522H57.6133V69.5474Z" fill="#FFCA45"/>
<path d="M53.5017 69.5474H57.6221V65.4522H53.5017V69.5474Z" fill="#FFCA45"/>
<path d="M49.3899 69.5474H53.5103V65.4522H49.3899V69.5474Z" fill="#FFCA45"/>
<path d="M61.7436 73.6338H65.864V69.5387H61.7436V73.6338Z" fill="#D86100"/>
<path d="M57.6133 73.6338H61.7336V69.5387H57.6133V73.6338Z" fill="#FFEC8A"/>
<path d="M53.5017 73.6338H57.6221V69.5387H53.5017V73.6338Z" fill="#FFEC8A"/>
<path d="M49.3899 73.6338H53.5103V69.5387H49.3899V73.6338Z" fill="#FFEC8A"/>
<path d="M45.2788 69.5474H49.3992V65.4522H45.2788V69.5474Z" fill="#FFCA45"/>
<path d="M41.1482 69.5474H45.2686V65.4522H41.1482V69.5474Z" fill="#FFCA45"/>
<path d="M37.0368 69.5474H41.1572V65.4522H37.0368V69.5474Z" fill="#FFCA45"/>
<path d="M32.9255 69.5474H37.0459V65.4522H32.9255V69.5474Z" fill="#FBA71A"/>
<path d="M45.2788 73.6338H49.3992V69.5387H45.2788V73.6338Z" fill="#FFEC8A"/>
<path d="M41.1482 73.6338H45.2686V69.5387H41.1482V73.6338Z" fill="#FFEC8A"/>
<path d="M37.0368 73.6338H41.1572V69.5387H37.0368V73.6338Z" fill="#FFEC8A"/>
<path d="M32.9255 73.6338H37.0459V69.5387H32.9255V73.6338Z" fill="#FFEC8A"/>
<path d="M28.8137 69.5474H32.9341V65.4522H28.8137V69.5474Z" fill="#FBA71A"/>
<path d="M24.6833 69.5474H28.8037V65.4522H24.6833V69.5474Z" fill="#D86100"/>
<path d="M20.572 69.5474H24.6924V65.4522H20.572V69.5474Z" fill="#FBA71A"/>
<path d="M16.4607 69.5474H20.5811V65.4522H16.4607V69.5474Z" fill="#FBA71A"/>
<path d="M28.8137 73.6338H32.9341V69.5387H28.8137V73.6338Z" fill="#D86100"/>
<path d="M24.6833 73.6338H28.8037V69.5387H24.6833V73.6338Z" fill="#FBA71A"/>
<path d="M20.572 73.6338H24.6924V69.5387H20.572V73.6338Z" fill="#FBA71A"/>
<path d="M69.9665 77.7202H74.0869V73.6251H69.9665V77.7202Z" fill="#FBA71A"/>
<path d="M65.855 77.7202H69.9753V73.6251H65.855V77.7202Z" fill="#FBA71A"/>
<path d="M61.7436 77.7202H65.864V73.6251H61.7436V77.7202Z" fill="#FBA71A"/>
<path d="M57.6133 77.7202H61.7336V73.6251H57.6133V77.7202Z" fill="#D86100"/>
<path d="M53.5017 77.7202H57.6221V73.6251H53.5017V77.7202Z" fill="#D86100"/>
<path d="M49.3899 77.7202H53.5103V73.6251H49.3899V77.7202Z" fill="#D86100"/>
<path d="M45.2788 77.7202H49.3992V73.6251H45.2788V77.7202Z" fill="#D86100"/>
<path d="M41.1482 77.7202H45.2686V73.6251H41.1482V77.7202Z" fill="#D86100"/>
<path d="M37.0368 77.7202H41.1572V73.6251H37.0368V77.7202Z" fill="#D86100"/>
<path d="M32.9255 77.7202H37.0459V73.6251H32.9255V77.7202Z" fill="#D86100"/>
<path d="M28.8137 77.7202H32.9341V73.6251H28.8137V77.7202Z" fill="#FBA71A"/>
<path d="M24.6833 77.7202H28.8037V73.6251H24.6833V77.7202Z" fill="#FBA71A"/>
<path d="M65.855 81.8066H69.9753V77.7115H65.855V81.8066Z" fill="#FBA71A"/>
<path d="M61.7436 81.8066H65.864V77.7115H61.7436V81.8066Z" fill="#FBA71A"/>
<path d="M57.6133 81.8066H61.7336V77.7115H57.6133V81.8066Z" fill="#FBA71A"/>
<path d="M53.5017 81.8066H57.6221V77.7115H53.5017V81.8066Z" fill="#FBA71A"/>
<path d="M49.3899 81.8066H53.5103V77.7115H49.3899V81.8066Z" fill="#FBA71A"/>
<path d="M45.2788 81.8066H49.3992V77.7115H45.2788V81.8066Z" fill="#FBA71A"/>
<path d="M41.1482 81.8066H45.2686V77.7115H41.1482V81.8066Z" fill="#FBA71A"/>
<path d="M37.0368 81.8066H41.1572V77.7115H37.0368V81.8066Z" fill="#FBA71A"/>
<path d="M32.9255 81.8066H37.0459V77.7115H32.9255V81.8066Z" fill="#FBA71A"/>
<path d="M57.6133 85.9116H61.7336V81.8165H57.6133V85.9116Z" fill="#FBA71A"/>
<path d="M53.5017 85.9116H57.6221V81.8165H53.5017V85.9116Z" fill="#FBA71A"/>
<path d="M49.3899 85.9116H53.5103V81.8165H49.3899V85.9116Z" fill="#FBA71A"/>
<path d="M45.2788 85.9116H49.3992V81.8165H45.2788V85.9116Z" fill="#FBA71A"/>
<path d="M41.1482 85.9116H45.2686V81.8165H41.1482V85.9116Z" fill="#FBA71A"/>
<path d="M37.0368 85.9116H41.1572V81.8165H37.0368V85.9116Z" fill="#FBA71A"/>
<path d="M32.9255 85.9116H37.0459V81.8165H32.9255V85.9116Z" fill="#FBA71A"/>
<path d="M28.8137 81.8066H32.9341V77.7115H28.8137V81.8066Z" fill="#FBA71A"/>
<path d="M24.6833 81.8066H28.8037V77.7115H24.6833V81.8066Z" fill="#FBA71A"/>
<path d="M20.572 77.7202H24.6924V73.6251H20.572V77.7202Z" fill="#FBA71A"/>
<path d="M16.4607 73.6338H20.5811V69.5387H16.4607V73.6338Z" fill="#FBA71A"/>
<path d="M12.3489 69.5474H16.4692V65.4522H12.3489V69.5474Z" fill="#FBA71A"/>
<path d="M12.3489 73.6338H16.4692V69.5387H12.3489V73.6338Z" fill="#FBA71A"/>
<path d="M82.3198 20.4556H86.4402V16.3604H82.3198V20.4556Z" fill="#FCCB25"/>
<path d="M82.3198 24.542H86.4402V20.4469H82.3198V24.542Z" fill="#FCCB25"/>
<path d="M86.4311 28.6279H90.5515V24.5328H86.4311V28.6279Z" fill="#FCCB25"/>
<path d="M49.3884 85.9053H45.2681V90.0004H49.3884V85.9053Z" fill="#FCCB25"/>
<path d="M53.5088 85.9053H49.3884V90.0004H53.5088V85.9053Z" fill="#FCCB25"/>
<path d="M57.6292 85.9053H53.5088V90.0004H57.6292V85.9053Z" fill="#FCCB25"/>
<path d="M61.7495 85.9053H57.6292V90.0004H61.7495V85.9053Z" fill="#FCCB25"/>
<path d="M45.2866 85.9053H41.1663V90.0004H45.2866V85.9053Z" fill="#FCCB25"/>
<path d="M41.1663 85.9053H37.0459V90.0004H41.1663V85.9053Z" fill="#FCCB25"/>
<path d="M37.0459 85.9053H32.9255V90.0004H37.0459V85.9053Z" fill="#FCCB25"/>
<path d="M32.9256 81.8101H28.8052V85.9052H32.9256V81.8101Z" fill="#FCCB25"/>
<path d="M28.824 81.8101H24.7036V85.9052H28.824V81.8101Z" fill="#FCCB25"/>
<path d="M24.7036 77.7334H20.5833V81.8285H24.7036V77.7334Z" fill="#FCCB25"/>
<path d="M20.5833 73.6387H16.4629V77.7338H20.5833V73.6387Z" fill="#FCCB25"/>
<path d="M16.4629 73.6387H12.3425V77.7338H16.4629V73.6387Z" fill="#FCCB25"/>
<path d="M12.3613 69.5435H8.24097V73.6386H12.3613V69.5435Z" fill="#FCCB25"/>
<path d="M12.3613 65.4478H8.24097V69.5429H12.3613V65.4478Z" fill="#FCCB25"/>
<path d="M8.24074 61.353H4.12036V65.4482H8.24074V61.353Z" fill="#FCCB25"/>
<path d="M61.7436 85.9116H65.864V81.8165H61.7436V85.9116Z" fill="#FCCB25"/>
<path d="M65.855 85.9116H69.9753V81.8165H65.855V85.9116Z" fill="#FCCB25"/>
<path d="M69.9665 81.8066H74.0869V77.7115H69.9665V81.8066Z" fill="#FCCB25"/>
<path d="M74.0781 77.7202H78.1985V73.6251H74.0781V77.7202Z" fill="#FCCB25"/>
<path d="M78.1897 77.7202H82.3101V73.6251H78.1897V77.7202Z" fill="#FCCB25"/>
<path d="M82.3198 73.6338H86.4402V69.5387H82.3198V73.6338Z" fill="#FCCB25"/>
<path d="M82.3198 69.5474H86.4402V65.4522H82.3198V69.5474Z" fill="#FCCB25"/>
<path d="M86.4311 65.4614H90.5515V61.3663H86.4311V65.4614Z" fill="#FCCB25"/>
<path d="M4.12038 28.6294H0V32.7245H4.12038V28.6294Z" fill="#FCCB25"/>
<path d="M4.12038 32.7246H0V36.8197H4.12038V32.7246Z" fill="#FCCB25"/>
<path d="M4.12038 36.8193H0V40.9145H4.12038V36.8193Z" fill="#FCCB25"/>
<path d="M4.12038 40.9146H0V45.0097H4.12038V40.9146Z" fill="#FCCB25"/>
<path d="M4.12038 44.9912H0V49.0863H4.12038V44.9912Z" fill="#FCCB25"/>
<path d="M4.12038 49.0859H0V53.1811H4.12038V49.0859Z" fill="#FCCB25"/>
<path d="M4.12038 53.1816H0V57.2768H4.12038V53.1816Z" fill="#FCCB25"/>
<path d="M4.12038 57.2764H0V61.3715H4.12038V57.2764Z" fill="#FCCB25"/>
</g>
<defs>
<clipPath id="clip0_44_31348">
<rect width="94.6752" height="90" fill="white" transform="translate(0 0.000488281)"/>
</clipPath>
</defs>
</svg>
