<svg width="70" height="71" viewBox="0 0 70 71" fill="none" xmlns="http://www.w3.org/2000/svg">
<g clip-path="url(#clip0_61_396)">
<path d="M11.3932 3.7716V65.3854C11.3932 66.3833 12.2021 67.1922 13.2 67.1922H60.0637C61.0616 67.1922 61.8705 66.3833 61.8705 65.3854V3.7716C61.8705 2.77372 61.0616 1.96484 60.0637 1.96484H13.1999C12.2021 1.96484 11.3932 2.77372 11.3932 3.7716Z" fill="#EAF6FF"/>
<path d="M60.0632 1.96484H55.5562C56.5541 1.96484 57.363 2.77372 57.363 3.7716V65.3854C57.363 66.3831 56.5541 67.1922 55.5562 67.1922H60.0632C61.0611 67.1922 61.87 66.3833 61.87 65.3854V3.7716C61.87 2.77372 61.0611 1.96484 60.0632 1.96484Z" fill="#C4E2FF"/>
<path d="M55.0533 58.1919L65.4983 68.6369C66.5445 69.6831 68.2407 69.6831 69.2869 68.6369C70.3331 67.5907 70.3331 65.8945 69.2869 64.8484L58.8419 54.4033C58.505 54.0664 57.9588 54.0664 57.6219 54.4033L55.0533 56.9719C54.7164 57.3088 54.7164 57.855 55.0533 58.1919Z" fill="#E19974"/>
<path d="M52.7524 52.1C57.2748 47.5775 57.2748 40.2452 52.7524 35.7228C48.2299 31.2003 40.8976 31.2003 36.3752 35.7228C31.8527 40.2452 31.8527 47.5775 36.3752 52.1C40.8976 56.6224 48.2299 56.6224 52.7524 52.1Z" fill="#FEE97D"/>
<path d="M49.5644 48.9117C52.326 46.1501 52.326 41.6727 49.5644 38.9111C46.8029 36.1495 42.3255 36.1495 39.5639 38.9111C36.8023 41.6727 36.8023 46.1501 39.5639 48.9117C42.3255 51.6732 46.8029 51.6732 49.5644 48.9117Z" fill="#8AC9FE"/>
<path d="M1.9223 55.4767V70.3489C1.9223 71.2412 2.64568 71.9646 3.53793 71.9646H30.4407C31.3329 71.9646 32.0563 71.2412 32.0563 70.3489V55.4767C32.0563 54.5845 31.3329 53.8611 30.4407 53.8611H3.53793C2.64568 53.8611 1.9223 54.5845 1.9223 55.4767Z" fill="#0ED2B3"/>
<path d="M30.4376 53.8611H26.2122C27.1045 53.8611 27.8279 54.5845 27.8279 55.4767V70.3489C27.8279 71.2412 27.1045 71.9646 26.2122 71.9646H30.4376C31.3298 71.9646 32.0532 71.2412 32.0532 70.3489V55.4767C32.0531 54.5845 31.3298 53.8611 30.4376 53.8611Z" fill="#0AB69F"/>
<path d="M16.9862 66.9555C18.7452 66.9555 20.1711 65.1454 20.1711 62.9126C20.1711 60.6797 18.7452 58.8696 16.9862 58.8696C15.2272 58.8696 13.8013 60.6797 13.8013 62.9126C13.8013 65.1454 15.2272 66.9555 16.9862 66.9555Z" fill="#EAF6FF"/>
<path d="M3.58604 60.5164C6.2566 60.5164 8.42152 58.3515 8.42152 55.6809C8.42152 55.037 8.29462 54.4231 8.06603 53.8611H3.53787C2.64562 53.8611 1.92224 54.5845 1.92224 55.4767V60.2226C2.44111 60.4128 3.00139 60.5164 3.58604 60.5164Z" fill="#EAF6FF"/>
<path d="M30.3897 65.3096C27.7192 65.3096 25.5543 67.4745 25.5543 70.1451C25.5543 70.789 25.6812 71.4029 25.9096 71.9649H30.4378C31.33 71.9649 32.0534 71.2415 32.0534 70.3493V65.6034C31.5345 65.4134 30.9742 65.3096 30.3897 65.3096Z" fill="#EAF6FF"/>
<path d="M8.42138 70.1451C8.42138 67.4745 6.25646 65.3096 3.5859 65.3096C3.00125 65.3096 2.44097 65.4134 1.92224 65.6034V70.3493C1.92224 71.2415 2.64562 71.9649 3.53787 71.9649H8.06603C8.29448 71.4031 8.42138 70.789 8.42138 70.1451Z" fill="#EAF6FF"/>
<path d="M25.5543 55.6809C25.5543 58.3515 27.7192 60.5164 30.3897 60.5164C30.9742 60.5164 31.5347 60.4126 32.0534 60.2226V55.4767C32.0534 54.5845 31.33 53.8611 30.4378 53.8611H25.9096C25.6812 54.4231 25.5543 55.037 25.5543 55.6809Z" fill="#EAF6FF"/>
<path d="M30.3901 60.5164C30.9746 60.5164 31.535 60.4126 32.0537 60.2226V55.4767C32.0537 54.5845 31.3304 53.8611 30.4381 53.8611H26.2128C27.105 53.8611 27.8284 54.5845 27.8284 55.4767V59.7815C28.5712 60.2467 29.449 60.5164 30.3901 60.5164Z" fill="#C4E2FF"/>
<path d="M32.0537 70.3493V65.6034C31.535 65.4134 30.9747 65.3096 30.3901 65.3096C29.449 65.3096 28.5712 65.5793 27.8284 66.0445V70.3494C27.8284 71.2417 27.105 71.965 26.2128 71.965H30.4381C31.3305 71.9649 32.0537 71.2415 32.0537 70.3493Z" fill="#C4E2FF"/>
<path d="M20.2064 25.1997H51.7967" stroke="black" stroke-width="2" stroke-miterlimit="10" stroke-linecap="round" stroke-linejoin="round"/>
<path d="M35.7176 36.4434H20.2064" stroke="black" stroke-width="2" stroke-miterlimit="10" stroke-linecap="round" stroke-linejoin="round"/>
<path d="M33.619 47.6887H20.2064" stroke="black" stroke-width="2" stroke-miterlimit="10" stroke-linecap="round" stroke-linejoin="round"/>
<path d="M61.8714 65.0059V65.3861C61.8714 66.3833 61.0629 67.1918 60.0644 67.1918H32.0574" stroke="black" stroke-width="2" stroke-miterlimit="10" stroke-linecap="round" stroke-linejoin="round"/>
<path d="M53.1204 1.96484H60.0668C61.0654 1.96484 61.8739 2.77329 61.8739 3.77188V57.4281" stroke="black" stroke-width="2" stroke-miterlimit="10" stroke-linecap="round" stroke-linejoin="round"/>
<path d="M11.3934 53.8619V3.77188C11.3934 2.77329 12.2018 1.96484 13.2004 1.96484H48.1877" stroke="black" stroke-width="2" stroke-miterlimit="10" stroke-linecap="round" stroke-linejoin="round"/>
<path d="M56.3438 55.6871L52.7563 52.0996" stroke="black" stroke-width="2" stroke-miterlimit="10" stroke-linecap="round" stroke-linejoin="round"/>
<path d="M55.06 58.1919L65.5051 68.6369C66.5513 69.6831 68.2475 69.6831 69.2937 68.6369C70.3399 67.5907 70.3399 65.8945 69.2937 64.8484L58.8486 54.4033C58.5117 54.0664 57.9655 54.0664 57.6286 54.4033L55.06 56.9719C54.7231 57.3088 54.7231 57.855 55.06 58.1919Z" stroke="black" stroke-width="2" stroke-miterlimit="10" stroke-linecap="round" stroke-linejoin="round"/>
<path d="M36.3732 35.7226C31.8507 40.2451 31.8508 47.5774 36.3732 52.0999C40.8956 56.6224 48.2281 56.6226 52.7507 52.1C57.2732 47.5775 57.273 40.245 52.7505 35.7226C48.228 31.2002 40.8956 31.2002 36.3732 35.7226Z" stroke="black" stroke-width="2" stroke-miterlimit="10" stroke-linecap="round" stroke-linejoin="round"/>
<path d="M49.5642 48.9109C52.3258 46.1493 52.3258 41.6719 49.5642 38.9104C46.8026 36.1488 42.3252 36.1488 39.5636 38.9104C36.8021 41.6719 36.8021 46.1493 39.5636 48.9109C42.3252 51.6725 46.8026 51.6725 49.5642 48.9109Z" stroke="black" stroke-width="2" stroke-miterlimit="10" stroke-linecap="round" stroke-linejoin="round"/>
<path d="M18.0004 17.7517L21.1316 9.53031C21.1956 9.37383 21.4171 9.37369 21.4813 9.52988L24.5842 17.7516" stroke="black" stroke-width="2" stroke-miterlimit="10" stroke-linecap="round" stroke-linejoin="round"/>
<path d="M18.6724 16.4565H23.9209" stroke="black" stroke-width="2" stroke-miterlimit="10" stroke-linecap="round" stroke-linejoin="round"/>
<path d="M46.9949 9.41284V17.7517" stroke="black" stroke-width="2" stroke-miterlimit="10" stroke-linecap="round" stroke-linejoin="round"/>
<path d="M37.6219 9.54492V17.4973" stroke="black" stroke-width="2" stroke-miterlimit="10" stroke-linecap="round" stroke-linejoin="round"/>
<path d="M43.1804 13.5822C43.1804 15.8119 41.943 17.5761 39.9796 17.6105C39.3261 17.6219 37.6289 17.6284 37.6289 17.6284V9.53613C37.6289 9.53613 39.1402 9.53613 39.9126 9.53613C42.0661 9.53613 43.1804 11.3525 43.1804 13.5822Z" stroke="black" stroke-width="2" stroke-miterlimit="10" stroke-linecap="round" stroke-linejoin="round"/>
<path d="M27.9969 9.41284V15.1509C27.9969 16.128 28.4817 16.7859 29.3051 17.312C29.706 17.5682 30.2127 17.7507 30.8421 17.7516C31.3873 17.7523 31.8428 17.6261 32.2196 17.4363C33.1793 16.9531 33.7911 16.2192 33.7911 15.1447V9.41284" stroke="black" stroke-width="2" stroke-miterlimit="10" stroke-linecap="round" stroke-linejoin="round"/>
<path d="M50.6493 9.41284H55.2544" stroke="black" stroke-width="2" stroke-miterlimit="10" stroke-linecap="round" stroke-linejoin="round"/>
<path d="M52.9453 9.67896V17.7515" stroke="black" stroke-width="2" stroke-miterlimit="10" stroke-linecap="round" stroke-linejoin="round"/>
<path d="M16.9863 66.9563C18.7453 66.9563 20.1712 65.1462 20.1712 62.9133C20.1712 60.6804 18.7453 58.8704 16.9863 58.8704C15.2273 58.8704 13.8014 60.6804 13.8014 62.9133C13.8014 65.1462 15.2273 66.9563 16.9863 66.9563Z" stroke="black" stroke-width="2" stroke-miterlimit="10" stroke-linecap="round" stroke-linejoin="round"/>
<path d="M20.1743 71.9646H30.4407C31.333 71.9646 32.0564 71.2412 32.0564 70.3489V55.4767C32.0564 54.5845 31.333 53.8611 30.4407 53.8611H3.53799C2.64574 53.8611 1.92236 54.5845 1.92236 55.4767V70.3489C1.92236 71.2412 2.64574 71.9646 3.53799 71.9646H15.2447" stroke="black" stroke-width="2" stroke-miterlimit="10" stroke-linecap="round" stroke-linejoin="round"/>
<path d="M1.92236 60.2226C2.44109 60.4126 3.00137 60.5164 3.58602 60.5164C6.25658 60.5164 8.4215 58.3515 8.4215 55.6809C8.4215 55.037 8.2946 54.4231 8.06601 53.8611" stroke="black" stroke-width="2" stroke-miterlimit="10" stroke-linecap="round" stroke-linejoin="round"/>
<path d="M32.0535 65.6034C31.5348 65.4134 30.9745 65.3096 30.3899 65.3096C27.7193 65.3096 25.5544 67.4745 25.5544 70.1451C25.5544 70.789 25.6813 71.4029 25.9097 71.9649" stroke="black" stroke-width="2" stroke-miterlimit="10" stroke-linecap="round" stroke-linejoin="round"/>
<path d="M8.06615 71.9649C8.2946 71.4031 8.4215 70.789 8.4215 70.1451C8.4215 67.4745 6.25658 65.3096 3.58602 65.3096C3.00137 65.3096 2.44109 65.4134 1.92236 65.6034" stroke="black" stroke-width="2" stroke-miterlimit="10" stroke-linecap="round" stroke-linejoin="round"/>
<path d="M25.9097 53.8611C25.6813 54.4229 25.5544 55.037 25.5544 55.6809C25.5544 58.3515 27.7193 60.5164 30.3899 60.5164C30.9744 60.5164 31.5348 60.4126 32.0535 60.2226" stroke="black" stroke-width="2" stroke-miterlimit="10" stroke-linecap="round" stroke-linejoin="round"/>
</g>
<defs>
<clipPath id="clip0_61_396">
<rect width="70" height="70" fill="white" transform="translate(0 0.939453)"/>
</clipPath>
</defs>
</svg>
