<svg width="62" height="71" viewBox="0 0 62 71" fill="none" xmlns="http://www.w3.org/2000/svg">
<path d="M30.2631 69.3242L37.331 65.753C47.5624 60.5835 54.0136 50.096 54.0136 38.6328L54.0189 11.9093C54.0189 11.1466 53.4005 10.5282 52.6378 10.5282H52.0853C48.4238 10.5282 45.4557 7.56003 45.4557 3.8987V3.34622C45.4557 2.58347 44.8373 1.96509 44.0745 1.96509H27.777H11.4793C10.7165 1.96509 10.0982 2.58347 10.0982 3.34622V3.8987C10.0982 7.56017 7.13 10.5282 3.46867 10.5282H2.91619C2.15343 10.5282 1.53506 11.1466 1.53506 11.9093L1.52959 38.6328C1.52959 50.096 7.9808 60.5835 18.2121 65.753L25.2801 69.3242C26.8468 70.1157 28.6964 70.1157 30.2631 69.3242Z" fill="#F7E365"/>
<path d="M44.579 41.261C34.6974 53.0504 21.3319 59.4151 9.52612 59.1757C11.9612 61.8304 14.8867 64.0729 18.2121 65.7531L25.2801 69.3243C26.8467 70.1159 28.6963 70.1159 30.2629 69.3243L37.3309 65.7531C47.5622 60.5836 54.0134 50.0961 54.0134 38.6329L54.0162 25.0493C51.99 30.6382 48.8377 36.1803 44.579 41.261Z" fill="#F3D332"/>
<path d="M20.2054 61.8083C15.9155 59.6407 12.317 56.3313 9.79861 52.2374C7.28025 48.1435 5.9493 43.439 5.9493 38.6328L5.95463 14.6657C10.0548 13.7193 13.2895 10.4847 14.2358 6.38452H41.3182C42.2645 10.4847 45.4992 13.7193 49.5993 14.6657L49.5939 38.6328C49.5939 43.439 48.2628 48.1435 45.7446 52.2374C43.2263 56.3313 39.6278 59.6407 35.3379 61.8083L28.3945 65.3166C28.0028 65.5144 27.5405 65.5144 27.1488 65.3166L20.2054 61.8083Z" fill="#EEF7FF"/>
<path d="M27.777 52.4988C36.9305 52.4988 44.3509 45.0784 44.3509 35.9249C44.3509 26.7714 36.9305 19.3511 27.777 19.3511C18.6235 19.3511 11.2031 26.7714 11.2031 35.9249C11.2031 45.0784 18.6235 52.4988 27.777 52.4988Z" fill="#EDF6FF"/>
<path d="M38.2252 23.0598C40.5435 25.9109 41.9338 29.5468 41.9338 33.508C41.9338 42.6615 34.5134 50.0819 25.3599 50.0819C21.3988 50.0819 17.7629 48.6914 14.9118 46.3732C17.9506 50.1106 22.5845 52.4989 27.777 52.4989C36.9304 52.4989 44.3509 45.0785 44.3509 35.925C44.3509 30.7326 41.9625 26.0987 38.2252 23.0598Z" fill="#DDEBFD"/>
<path d="M27.777 34.8201C30.8282 34.8201 33.3017 32.3466 33.3017 29.2954C33.3017 26.2442 30.8282 23.7708 27.777 23.7708C24.7258 23.7708 22.2523 26.2442 22.2523 29.2954C22.2523 32.3466 24.7258 34.8201 27.777 34.8201Z" fill="#FED2A4"/>
<path d="M30.1903 24.3269C30.5462 25.0566 30.7464 25.8754 30.7464 26.7403C30.7464 29.7866 28.2681 32.2649 25.2217 32.2649C24.3568 32.2649 23.5379 32.0646 22.8083 31.7089C23.7058 33.549 25.5955 34.8201 27.7768 34.8201C30.8232 34.8201 33.3015 32.3418 33.3015 29.2954C33.3015 27.1141 32.0306 25.2243 30.1903 24.3269Z" fill="#FFBD86"/>
<path d="M36.6164 44.212H18.9376V40.3447C18.9376 37.2936 21.4111 34.8201 24.4622 34.8201H31.0917C34.1429 34.8201 36.6164 37.2936 36.6164 40.3447V44.212Z" fill="#E175A5"/>
<path d="M48.1809 68.6375C54.9697 68.6375 60.4731 63.134 60.4731 56.3452C60.4731 49.5564 54.9697 44.053 48.1809 44.053C41.3921 44.053 35.8886 49.5564 35.8886 56.3452C35.8886 63.134 41.3921 68.6375 48.1809 68.6375Z" fill="#A2F5C3"/>
<path d="M55.58 46.5291C57.1341 48.5876 58.0561 51.1501 58.0561 53.9281C58.0561 60.717 52.5526 66.2204 45.7638 66.2204C42.9857 66.2204 40.4232 65.2983 38.3648 63.7443C40.6085 66.7163 44.1701 68.6374 48.1809 68.6374C54.9698 68.6374 60.4731 63.134 60.4731 56.3452C60.4733 52.3345 58.552 48.7727 55.58 46.5291Z" fill="#88F2A9"/>
<path d="M48.1809 62.9748C51.8422 62.9748 54.8104 60.0067 54.8104 56.3453C54.8104 52.6839 51.8422 49.7158 48.1809 49.7158C44.5195 49.7158 41.5514 52.6839 41.5514 56.3453C41.5514 60.0067 44.5195 62.9748 48.1809 62.9748Z" fill="#77D192"/>
<path d="M32.4044 33.9267C33.5916 32.7405 34.327 31.1022 34.327 29.2952C34.327 25.6835 31.3887 22.7451 27.777 22.7451C24.1653 22.7451 21.2269 25.6833 21.2269 29.2952C21.2269 31.102 21.9625 32.7404 23.1496 33.9267C20.1648 34.5363 17.9122 37.1822 17.9122 40.3445V44.2117C17.9122 44.7782 18.3713 45.2371 18.9376 45.2371H36.6164C37.1827 45.2371 37.6418 44.778 37.6418 44.2117V40.3445C37.6418 37.1822 35.3892 34.5362 32.4044 33.9267ZM27.777 24.796C30.2579 24.796 32.2761 26.8144 32.2761 29.2952C32.2761 31.7759 30.2578 33.7943 27.777 33.7943C25.2961 33.7943 23.2777 31.7759 23.2777 29.2952C23.2777 26.8144 25.2961 24.796 27.777 24.796ZM35.591 43.1862H33.2222V41.7256C33.2222 41.1592 32.7631 40.7003 32.1968 40.7003C31.6305 40.7003 31.1714 41.1594 31.1714 41.7256V43.1862H24.3829V41.7256C24.3829 41.1592 23.9238 40.7003 23.3576 40.7003C22.7913 40.7003 22.3322 41.1594 22.3322 41.7256V43.1862H19.9634V40.3445C19.9634 37.8636 21.9818 35.8452 24.4625 35.8452H31.092C33.5729 35.8452 35.5913 37.8636 35.5913 40.3445V43.1862H35.591Z" fill="black"/>
<path d="M59.4447 56.1654C59.4534 56.7263 59.9108 57.1749 60.4697 57.1749C60.4752 57.1749 60.4807 57.1749 60.486 57.1747C61.0523 57.166 61.5043 56.6998 61.4954 56.1335C61.441 52.6208 60.0317 49.3271 57.5274 46.859C56.6067 45.9518 55.5763 45.1948 54.467 44.5994C54.8466 42.6377 55.0393 40.6348 55.0393 38.6338L55.0434 21.5196C55.0435 20.9532 54.5845 20.4941 54.0182 20.4939C54.0181 20.4939 54.0181 20.4939 54.018 20.4939C53.4518 20.4939 52.9927 20.9529 52.9926 21.519L52.9885 38.6335C52.9885 40.3499 52.8347 42.0668 52.5357 43.7544C51.7893 43.4969 51.0185 43.306 50.2304 43.1847C50.4869 41.6872 50.6189 40.1615 50.6189 38.6338L50.6243 14.6656C50.6245 14.188 50.2948 13.7735 49.8295 13.6662C46.121 12.8105 43.1721 9.86199 42.3166 6.15459C42.2093 5.68934 41.7949 5.35971 41.3173 5.35971H14.236C13.7584 5.35971 13.3441 5.68934 13.2367 6.15459C12.3812 9.86199 9.43234 12.8103 5.72385 13.6662C5.25859 13.7735 4.9291 14.1878 4.92896 14.6651L4.92486 33.532C4.92473 34.0984 5.38383 34.5575 5.95012 34.5576C6.51627 34.5576 6.97551 34.0985 6.97564 33.5325L6.97947 15.4519C10.8081 14.2836 13.8538 11.2382 15.0221 7.41062H40.5307C41.6989 11.2379 44.7447 14.2832 48.573 15.4517L48.5677 38.6335C48.5677 40.1101 48.4348 41.5842 48.1758 43.0279C46.5189 43.0285 44.9322 43.334 43.4677 43.8899C44.6873 41.4969 45.376 38.7898 45.376 35.9247C45.376 26.2204 37.481 18.3253 27.7767 18.3253C18.0724 18.3253 10.1773 26.2203 10.1773 35.9247C10.1773 45.6288 18.0724 53.5239 27.7767 53.5239C30.6363 53.5239 33.3386 52.8379 35.7283 51.6225C35.1694 53.091 34.8623 54.6826 34.8623 56.345C34.8623 57.811 35.101 59.2221 35.5406 60.5424C35.3184 60.6631 35.096 60.7802 34.8742 60.8919L27.9275 64.4022C27.8283 64.4531 27.7136 64.453 27.6106 64.4002L20.6675 60.8917C16.5466 58.8103 13.0898 55.6319 10.671 51.7005C8.2526 47.7673 6.97414 43.2486 6.97414 38.6334V38.3174C6.97414 37.751 6.51504 37.292 5.94875 37.292C5.38246 37.292 4.92336 37.7511 4.92336 38.3174V38.6334C4.92336 43.6281 6.30681 48.5181 8.92429 52.7749C11.5422 57.03 15.2832 60.4697 19.7428 62.7222L26.6834 66.2294C27.0248 66.4031 27.3991 66.4898 27.7728 66.4897C28.1459 66.4897 28.5183 66.4033 28.8565 66.2306L35.7986 62.7225C35.9792 62.6315 36.1603 62.5366 36.3413 62.4398C36.7071 63.1474 37.1348 63.8179 37.6166 64.4449C37.3678 64.5797 37.118 64.7115 36.8678 64.8374L29.8011 68.4085C28.5304 69.0495 27.0125 69.0495 25.7417 68.4088L18.6743 64.8374C13.8237 62.3866 9.755 58.6445 6.90756 54.0152C4.06025 49.3863 2.55525 44.0671 2.55525 38.6334L2.56072 11.9085C2.56072 11.7125 2.72014 11.5529 2.91619 11.5529H3.46853C7.68972 11.5529 11.1238 8.11869 11.1238 3.89764V3.34529C11.1238 3.14924 11.2834 2.98982 11.4793 2.98982H44.0748C44.2709 2.98982 44.4303 3.14924 44.4303 3.34529V3.89764C44.4303 8.11883 47.8644 11.5529 52.0856 11.5529H52.6379C52.834 11.5529 52.9934 11.7125 52.9934 11.9083L52.992 16.7332C52.9919 17.2995 53.4509 17.7587 54.0171 17.7589H54.0174C54.5836 17.7589 55.0427 17.2999 55.0428 16.7338L55.0442 11.9085C55.0442 10.5815 53.9646 9.50201 52.6378 9.50201H52.0854C48.9952 9.50201 46.4811 6.98789 46.4811 3.8975V3.34516C46.4815 2.01898 45.402 0.939453 44.0751 0.939453H11.4796C10.1527 0.939453 9.07318 2.01898 9.07318 3.34584V3.89818C9.07318 6.98857 6.55906 9.5027 3.46867 9.5027H2.91633C1.58947 9.5027 0.50994 10.5822 0.50994 11.9089L0.504471 38.6338C0.504471 44.4475 2.11461 50.138 5.1607 55.0903C8.20707 60.043 12.5602 64.0466 17.7494 66.6686L24.8178 70.2404C25.7428 70.7065 26.7571 70.9397 27.7715 70.9397C28.7861 70.9397 29.8007 70.7065 30.7255 70.2401L37.792 66.6692C38.2051 66.461 38.6178 66.2396 39.0265 66.0098C41.4148 68.2733 44.6385 69.6637 48.1809 69.6637C50.9094 69.6637 53.5325 68.844 55.7666 67.293C57.9485 65.7783 59.6133 63.6759 60.5807 61.213C60.7877 60.6858 60.5284 60.0907 60.0012 59.8837C59.474 59.676 58.8789 59.9361 58.6717 60.4632C57.8533 62.5468 56.4443 64.3261 54.5971 65.6084C52.7081 66.9198 50.4894 67.613 48.1809 67.613C41.968 67.613 36.9134 62.5583 36.9134 56.3454C36.9134 50.1332 41.968 45.0791 48.1809 45.0791C51.1589 45.0791 53.967 46.2301 56.0878 48.3202C58.2063 50.408 59.3985 53.1942 59.4447 56.1654ZM12.2285 35.9248C12.2285 27.3513 19.2035 20.3763 27.777 20.3763C36.3505 20.3763 43.3255 27.3513 43.3255 35.9248C43.3255 44.4983 36.3505 51.4732 27.777 51.4732C19.2035 51.4732 12.2285 44.4983 12.2285 35.9248Z" fill="black"/>
<path d="M47.1105 55.6201C46.7099 55.2198 46.0607 55.2197 45.6602 55.6203C45.2598 56.0207 45.2599 56.67 45.6602 57.0705L46.8572 58.2673C47.0575 58.4674 47.3198 58.5675 47.5823 58.5675C47.8448 58.5675 48.1072 58.4674 48.3074 58.2673L50.7013 55.8733C51.1018 55.4728 51.1018 54.8236 50.7013 54.423C50.301 54.0227 49.6516 54.0227 49.2511 54.423L47.5822 56.092L47.1105 55.6201Z" fill="black"/>
<path d="M40.5259 56.3454C40.5259 60.5664 43.96 64.0003 48.1809 64.0003C52.4018 64.0003 55.8359 60.5662 55.8359 56.3454C55.8359 52.1244 52.4018 48.6904 48.1809 48.6904C43.96 48.6904 40.5259 52.1244 40.5259 56.3454ZM53.785 56.3454C53.785 59.4356 51.271 61.9495 48.1809 61.9495C45.0908 61.9495 42.5768 59.4356 42.5768 56.3454C42.5768 53.2553 45.0908 50.7412 48.1809 50.7412C51.271 50.7412 53.785 53.2553 53.785 56.3454Z" fill="black"/>
</svg>
