<svg width="24" height="24" viewBox="0 0 24 24" fill="none" xmlns="http://www.w3.org/2000/svg">
<path d="M19.941 5.27587C18.057 3.75978 15.0766 3.50278 14.949 3.49354C14.7512 3.4769 14.5626 3.58783 14.4813 3.77087C14.4739 3.78197 14.4092 3.93173 14.3371 4.16469C15.5832 4.37546 17.1141 4.79885 18.4989 5.65859C18.7208 5.79541 18.7892 6.08753 18.6524 6.3094C18.5618 6.45546 18.4083 6.53496 18.2493 6.53496C18.1643 6.53496 18.0774 6.51093 17.9997 6.46285C15.6183 4.98559 12.6453 4.91164 12.0722 4.91164C11.499 4.91164 8.52415 4.98559 6.14463 6.46285C5.92277 6.60152 5.63064 6.53311 5.49382 6.31125C5.35516 6.08753 5.42357 5.79725 5.64543 5.65859C7.03025 4.8007 8.56113 4.37546 9.80728 4.16653C9.73518 3.93173 9.67046 3.78381 9.66492 3.77087C9.58172 3.58783 9.39498 3.4732 9.1953 3.49354C9.06773 3.50278 6.08732 3.75978 4.17742 5.29621C3.18086 6.2188 1.18591 11.6102 1.18591 16.2712C1.18591 16.3544 1.2081 16.4339 1.24878 16.506C2.62435 18.9244 6.37944 19.5567 7.23548 19.5844C7.23918 19.5844 7.24472 19.5844 7.25027 19.5844C7.40188 19.5844 7.54424 19.5123 7.63299 19.3903L8.49827 18.1996C6.16312 17.5969 4.97059 16.5726 4.90218 16.5116C4.7062 16.3396 4.68771 16.0401 4.8615 15.8441C5.03345 15.6481 5.33297 15.6296 5.52895 15.8016C5.55669 15.8275 7.75317 17.6912 12.0722 17.6912C16.3986 17.6912 18.5951 15.8201 18.6172 15.8016C18.8132 15.6315 19.1109 15.6481 19.2847 15.846C19.4566 16.0419 19.4381 16.3396 19.2422 16.5116C19.1738 16.5726 17.9812 17.5969 15.6461 18.1996L16.5114 19.3903C16.6001 19.5123 16.7425 19.5844 16.8941 19.5844C16.8996 19.5844 16.9052 19.5844 16.9089 19.5844C17.7649 19.5567 21.52 18.9244 22.8956 16.506C22.9362 16.4339 22.9584 16.3544 22.9584 16.2712C22.9584 11.6102 20.9635 6.2188 19.941 5.27587ZM8.99562 14.3779C8.08042 14.3779 7.33902 13.5312 7.33902 12.4847C7.33902 11.4382 8.08042 10.5914 8.99562 10.5914C9.91082 10.5914 10.6522 11.4382 10.6522 12.4847C10.6522 13.5312 9.91082 14.3779 8.99562 14.3779ZM15.1487 14.3779C14.2335 14.3779 13.4921 13.5312 13.4921 12.4847C13.4921 11.4382 14.2335 10.5914 15.1487 10.5914C16.0639 10.5914 16.8053 11.4382 16.8053 12.4847C16.8053 13.5312 16.0639 14.3779 15.1487 14.3779Z" fill="black"/>
</svg>
