<svg width="50" height="50" viewBox="0 0 50 50" fill="none" xmlns="http://www.w3.org/2000/svg">
<rect width="50" height="50" rx="25" fill="#5865F2"/>
<path d="M34.1161 16.8052C37.0623 21.1676 38.5173 26.0882 37.9734 31.753C37.9711 31.777 37.9588 31.799 37.9392 31.8135C35.7081 33.4633 33.5465 34.4646 31.4152 35.1286C31.3986 35.1337 31.3808 35.1334 31.3644 35.1278C31.348 35.1222 31.3337 35.1116 31.3235 35.0974C30.8312 34.4075 30.3838 33.6801 29.9918 32.9162C29.9693 32.8712 29.9899 32.817 30.0362 32.7993C30.7467 32.5297 31.4223 32.2066 32.0722 31.824C32.1234 31.7938 32.1267 31.7199 32.0794 31.6844C31.9415 31.5813 31.8048 31.4729 31.6741 31.3646C31.6496 31.3445 31.6167 31.3406 31.589 31.354C27.3697 33.3162 22.7478 33.3162 18.4787 31.354C18.451 31.3416 18.418 31.3458 18.3942 31.3655C18.2638 31.4739 18.1268 31.5813 17.9902 31.6844C17.9429 31.7199 17.9468 31.7938 17.9983 31.824C18.6482 32.1993 19.3239 32.5297 20.0335 32.8006C20.0794 32.8184 20.1013 32.8712 20.0785 32.9162C19.695 33.6811 19.2476 34.4085 18.7461 35.0984C18.7242 35.1263 18.6883 35.1391 18.6544 35.1286C16.5332 34.4646 14.3716 33.4633 12.1405 31.8135C12.1219 31.799 12.1086 31.776 12.1066 31.7521C11.6521 26.8521 12.5785 21.8907 15.9603 16.8042C15.9685 16.7907 15.9809 16.7802 15.9952 16.774C17.6592 16.0049 19.4419 15.439 21.3052 15.1159C21.3391 15.1106 21.373 15.1264 21.3906 15.1566C21.6208 15.5671 21.884 16.0935 22.062 16.5237C24.0261 16.2216 26.0207 16.2216 28.0258 16.5237C28.2039 16.1027 28.4579 15.5671 28.6871 15.1566C28.6953 15.1416 28.708 15.1296 28.7233 15.1223C28.7386 15.115 28.7559 15.1127 28.7726 15.1159C30.6368 15.44 32.4195 16.0058 34.0822 16.774C34.0969 16.7802 34.109 16.7907 34.1161 16.8052V16.8052ZM23.0605 26.1217C23.0811 24.6732 22.0324 23.4745 20.716 23.4745C19.4103 23.4745 18.3717 24.6627 18.3717 26.1217C18.3717 27.5805 19.4308 28.7686 20.716 28.7686C22.0219 28.7686 23.0605 27.5805 23.0605 26.1217V26.1217ZM31.7285 26.1217C31.7491 24.6732 30.7004 23.4745 29.3843 23.4745C28.0783 23.4745 27.0397 24.6627 27.0397 26.1217C27.0397 27.5805 28.0989 28.7686 29.3843 28.7686C30.7004 28.7686 31.7285 27.5805 31.7285 26.1217V26.1217Z" fill="white"/>
</svg>
