<svg width="51" height="51" viewBox="0 0 51 51" fill="none" xmlns="http://www.w3.org/2000/svg">
<rect x="0.932861" y="0.0388184" width="50" height="50" rx="25" fill="#1B1F23"/>
<path fill-rule="evenodd" clip-rule="evenodd" d="M25.9076 11.5066C18.1432 11.5066 11.8544 17.7704 11.8544 25.5039C11.8544 31.6977 15.8771 36.9292 21.4632 38.7838C22.1659 38.9063 22.4294 38.4864 22.4294 38.1189C22.4294 37.7865 22.4118 36.6842 22.4118 35.5119C18.881 36.1593 17.9675 34.6546 17.6864 33.8673C17.5283 33.4648 16.8433 32.2226 16.246 31.8901C15.7541 31.6277 15.0515 30.9803 16.2284 30.9628C17.3351 30.9453 18.1256 31.9776 18.3891 32.3976C19.6539 34.5146 21.674 33.9198 22.4821 33.5523C22.6051 32.6425 22.974 32.0301 23.378 31.6802C20.2511 31.3303 16.9838 30.123 16.9838 24.769C16.9838 23.2468 17.5283 21.9871 18.4242 21.0073C18.2837 20.6573 17.7918 19.2226 18.5648 17.298C18.5648 17.298 19.7417 16.9305 22.4294 18.7327C23.5536 18.4178 24.7482 18.2603 25.9427 18.2603C27.1372 18.2603 28.3317 18.4178 29.456 18.7327C32.1437 16.913 33.3206 17.298 33.3206 17.298C34.0935 19.2226 33.6017 20.6573 33.4611 21.0073C34.357 21.9871 34.9016 23.2293 34.9016 24.769C34.9016 30.1405 31.6167 31.3303 28.4898 31.6802C28.9993 32.1176 29.4384 32.9574 29.4384 34.2697C29.4384 36.1418 29.4209 37.6465 29.4209 38.1189C29.4209 38.4864 29.6843 38.9238 30.387 38.7838C35.938 36.9292 39.9607 31.6802 39.9607 25.5039C39.9607 17.7704 33.6719 11.5066 25.9076 11.5066Z" fill="white"/>
</svg>
