<svg width="70" height="71" viewBox="0 0 70 71" fill="none" xmlns="http://www.w3.org/2000/svg">
<g clip-path="url(#clip0_61_533)">
<path d="M50.2149 1.96484H7.25104C4.98574 1.96484 3.14948 3.80111 3.14948 6.06641V65.8125C3.14948 68.0778 4.98574 69.9141 7.25104 69.9141H50.2149C52.4802 69.9141 54.3165 68.0778 54.3165 65.8125V6.06641C54.3165 3.80111 52.4802 1.96484 50.2149 1.96484Z" fill="#EEF7FF"/>
<path d="M52.7827 2.86914C42.386 3.37705 34.1124 11.9668 34.1124 22.4896C34.1124 33.3391 42.9077 42.1344 53.757 42.1344C53.9442 42.1344 54.1305 42.1312 54.3163 42.1259V6.06645C54.3165 4.7735 53.7176 3.62096 52.7827 2.86914Z" fill="#DFEEFF"/>
<path d="M17.3322 31.4301H9.83868C9.08359 31.4301 8.4715 30.818 8.4715 30.0629V22.0437C8.4715 20.9111 9.3897 19.9929 10.5223 19.9929H17.3322V31.4301Z" fill="#66CCAC"/>
<path d="M26.3486 31.4303H17.4879V10.8806C17.4879 9.74804 18.4061 8.82983 19.5386 8.82983H24.2978C25.4304 8.82983 26.3486 9.74804 26.3486 10.8806V31.4303Z" fill="#B1EBA0"/>
<path d="M33.9976 31.4302H26.504V15.821H33.314C34.4466 15.821 35.3648 16.7392 35.3648 17.8718V30.063C35.3648 30.8181 34.7527 31.4302 33.9976 31.4302Z" fill="#FCEF53"/>
<path d="M53.7572 35.5831C60.9885 35.5831 66.8506 29.721 66.8506 22.4897C66.8506 15.2584 60.9885 9.39624 53.7572 9.39624C46.5259 9.39624 40.6638 15.2584 40.6638 22.4897C40.6638 29.721 46.5259 35.5831 53.7572 35.5831Z" fill="#E162AC"/>
<path d="M54.3165 35.9395V65.8125C54.3165 68.0778 52.4802 69.9141 50.2149 69.9141H44.454" stroke="black" stroke-width="2" stroke-miterlimit="10" stroke-linecap="round" stroke-linejoin="round"/>
<path d="M18.8167 1.96484H50.2149C52.4802 1.96484 54.3165 3.80111 54.3165 6.06641V8.76551" stroke="black" stroke-width="2" stroke-miterlimit="10" stroke-linecap="round" stroke-linejoin="round"/>
<path d="M39.6688 69.9141H7.25104C4.98574 69.9141 3.14948 68.0778 3.14948 65.8125V6.06641C3.14948 3.80111 4.98574 1.96484 7.25104 1.96484H13.8947" stroke="black" stroke-width="2" stroke-miterlimit="10" stroke-linecap="round" stroke-linejoin="round"/>
<path d="M53.7572 35.5831C60.9885 35.5831 66.8506 29.721 66.8506 22.4897C66.8506 15.2584 60.9885 9.39624 53.7572 9.39624C46.5259 9.39624 40.6638 15.2584 40.6638 22.4897C40.6638 29.721 46.5259 35.5831 53.7572 35.5831Z" stroke="black" stroke-width="2" stroke-miterlimit="10" stroke-linecap="round" stroke-linejoin="round"/>
<path d="M49.3841 21.0111C50.6572 21.0111 51.6893 19.979 51.6893 18.7059C51.6893 17.4327 50.6572 16.4006 49.3841 16.4006C48.1109 16.4006 47.0789 17.4327 47.0789 18.7059C47.0789 19.979 48.1109 21.0111 49.3841 21.0111Z" stroke="black" stroke-width="2" stroke-miterlimit="10" stroke-linecap="round" stroke-linejoin="round"/>
<path d="M58.1302 28.5784C59.4034 28.5784 60.4354 27.5464 60.4354 26.2732C60.4354 25.0001 59.4034 23.968 58.1302 23.968C56.8571 23.968 55.825 25.0001 55.825 26.2732C55.825 27.5464 56.8571 28.5784 58.1302 28.5784Z" stroke="black" stroke-width="2" stroke-miterlimit="10" stroke-linecap="round" stroke-linejoin="round"/>
<path d="M50.2037 26.6751L57.2556 18.5247" stroke="black" stroke-width="2" stroke-miterlimit="10" stroke-linecap="round" stroke-linejoin="round"/>
<path d="M17.3247 31.4304H9.83118C9.07608 31.4304 8.46399 30.8183 8.46399 30.0632V22.0439C8.46399 20.9114 9.38219 19.9932 10.5148 19.9932H17.3247V31.4304Z" stroke="black" stroke-width="2" stroke-miterlimit="10" stroke-linecap="round" stroke-linejoin="round"/>
<path d="M26.3411 31.4303H17.4803V10.8806C17.4803 9.74804 18.3985 8.82983 19.5311 8.82983H24.2903C25.4229 8.82983 26.3411 9.74804 26.3411 10.8806V31.4303Z" stroke="black" stroke-width="2" stroke-miterlimit="10" stroke-linecap="round" stroke-linejoin="round"/>
<path d="M33.9901 31.4302H26.4965V15.821H33.3065C34.4391 15.821 35.3573 16.7392 35.3573 17.8718V30.063C35.3573 30.8181 34.7452 31.4302 33.9901 31.4302Z" stroke="black" stroke-width="2" stroke-miterlimit="10" stroke-linecap="round" stroke-linejoin="round"/>
<path d="M14.8849 44.9912C14.8849 44.9912 13.9488 44.1279 12.506 44.5625C11.1812 44.9616 10.8521 46.7743 11.7524 47.4805C12.2693 47.886 13.0472 48.2193 14.0955 48.59C16.4418 49.4193 15.5745 52.7283 13.1878 52.7442C12.2563 52.7503 11.821 52.6912 11.0027 52.156" stroke="black" stroke-width="2" stroke-miterlimit="10" stroke-linecap="round" stroke-linejoin="round"/>
<path d="M13.1876 52.7441V54.2997" stroke="black" stroke-width="2" stroke-miterlimit="10" stroke-linecap="round" stroke-linejoin="round"/>
<path d="M13.1876 42.9756V44.4403" stroke="black" stroke-width="2" stroke-miterlimit="10" stroke-linecap="round" stroke-linejoin="round"/>
<path d="M22.1863 44.4402H49.2676" stroke="black" stroke-width="2" stroke-miterlimit="10" stroke-linecap="round" stroke-linejoin="round"/>
<path d="M22.1863 49.3699H49.2676" stroke="black" stroke-width="2" stroke-miterlimit="10" stroke-linecap="round" stroke-linejoin="round"/>
<path d="M22.1863 54.2998H49.2676" stroke="black" stroke-width="2" stroke-miterlimit="10" stroke-linecap="round" stroke-linejoin="round"/>
<path d="M10.6322 62.0593H49.2676" stroke="black" stroke-width="2" stroke-miterlimit="10" stroke-linecap="round" stroke-linejoin="round"/>
</g>
<defs>
<clipPath id="clip0_61_533">
<rect width="70" height="70" fill="white" transform="translate(0 0.939453)"/>
</clipPath>
</defs>
</svg>
