<svg width="50" height="50" viewBox="0 0 50 50" fill="none" xmlns="http://www.w3.org/2000/svg">
<rect width="50" height="50" rx="25" fill="url(#paint0_linear_101_423)"/>
<path d="M20.8391 25.0641C20.8391 22.7609 22.7051 20.8934 25.0076 20.8934C27.3101 20.8934 29.1771 22.7609 29.1771 25.0641C29.1771 27.3672 27.3101 29.2348 25.0076 29.2348C22.7051 29.2348 20.8391 27.3672 20.8391 25.0641ZM18.5852 25.0641C18.5852 28.6122 21.4605 31.4884 25.0076 31.4884C28.5547 31.4884 31.4301 28.6122 31.4301 25.0641C31.4301 21.5159 28.5547 18.6398 25.0076 18.6398C21.4605 18.6398 18.5852 21.5159 18.5852 25.0641ZM30.1834 18.3851C30.1833 18.682 30.2712 18.9723 30.436 19.2193C30.6009 19.4662 30.8352 19.6587 31.1094 19.7725C31.3836 19.8862 31.6854 19.9161 31.9765 19.8583C32.2677 19.8004 32.5352 19.6576 32.7452 19.4477C32.9552 19.2378 33.0982 18.9703 33.1563 18.6791C33.2143 18.3879 33.1847 18.0861 33.0712 17.8117C32.9577 17.5373 32.7654 17.3027 32.5187 17.1377C32.2719 16.9726 31.9818 16.8844 31.6849 16.8843H31.6843C31.2864 16.8845 30.9049 17.0427 30.6234 17.324C30.342 17.6054 30.1838 17.987 30.1834 18.3851V18.3851ZM19.9546 35.2478C18.7352 35.1923 18.0724 34.9891 17.6319 34.8175C17.0479 34.59 16.6313 34.3192 16.1932 33.8816C15.7552 33.444 15.484 33.0277 15.2577 32.4435C15.086 32.0032 14.8829 31.34 14.8274 30.1202C14.7668 28.8014 14.7547 28.4053 14.7547 25.0642C14.7547 21.7231 14.7678 21.3281 14.8274 20.0082C14.883 18.7884 15.0876 18.1265 15.2577 17.6848C15.485 17.1007 15.7558 16.6839 16.1932 16.2458C16.6307 15.8076 17.0469 15.5363 17.6319 15.3099C18.0722 15.1382 18.7352 14.935 19.9546 14.8795C21.273 14.8189 21.669 14.8068 25.0076 14.8068C28.3462 14.8068 28.7427 14.8199 30.0622 14.8795C31.2816 14.9351 31.9433 15.1398 32.3848 15.3099C32.9688 15.5363 33.3854 15.8082 33.8235 16.2458C34.2616 16.6833 34.5317 17.1007 34.7591 17.6848C34.9308 18.1252 35.1339 18.7884 35.1893 20.0082C35.25 21.3281 35.2621 21.7231 35.2621 25.0642C35.2621 28.4053 35.25 28.8003 35.1893 30.1202C35.1338 31.34 34.9297 32.003 34.7591 32.4435C34.5317 33.0277 34.261 33.4444 33.8235 33.8816C33.386 34.3188 32.9688 34.59 32.3848 34.8175C31.9446 34.9892 31.2816 35.1924 30.0622 35.2478C28.7438 35.3085 28.3477 35.3206 25.0076 35.3206C21.6675 35.3206 21.2726 35.3085 19.9546 35.2478V35.2478ZM19.851 12.6287C18.5195 12.6894 17.6097 12.9006 16.8151 13.2099C15.9922 13.5292 15.2956 13.9577 14.5995 14.6529C13.9034 15.3482 13.4761 16.0461 13.1568 16.8692C12.8476 17.6645 12.6365 18.5741 12.5759 19.906C12.5142 21.24 12.5001 21.6665 12.5001 25.0641C12.5001 28.4617 12.5142 28.8882 12.5759 30.2222C12.6365 31.5542 12.8476 32.4637 13.1568 33.259C13.4761 34.0816 13.9035 34.7803 14.5995 35.4752C15.2955 36.1702 15.9922 36.598 16.8151 36.9183C17.6112 37.2276 18.5195 37.4388 19.851 37.4994C21.1853 37.5601 21.611 37.5752 25.0076 37.5752C28.4043 37.5752 28.8306 37.5611 30.1642 37.4994C31.4958 37.4388 32.4051 37.2276 33.2001 36.9183C34.0225 36.598 34.7196 36.1705 35.4158 35.4752C36.1119 34.78 36.5382 34.0816 36.8584 33.259C37.1676 32.4637 37.3797 31.5541 37.4394 30.2222C37.5 28.8872 37.5141 28.4617 37.5141 25.0641C37.5141 21.6665 37.5 21.24 37.4394 19.906C37.3787 18.574 37.1676 17.664 36.8584 16.8692C36.5382 16.0466 36.1108 15.3493 35.4158 14.6529C34.7207 13.9566 34.0225 13.5292 33.2011 13.2099C32.4051 12.9006 31.4957 12.6884 30.1652 12.6287C28.8316 12.5681 28.4053 12.553 25.0086 12.553C21.612 12.553 21.1853 12.5671 19.851 12.6287Z" fill="white"/>
<defs>
<linearGradient id="paint0_linear_101_423" x1="49.039" y1="50" x2="-0.960998" y2="-1.34586e-06" gradientUnits="userSpaceOnUse">
<stop stop-color="#FBE18A"/>
<stop offset="0.21" stop-color="#FCBB45"/>
<stop offset="0.38" stop-color="#F75274"/>
<stop offset="0.52" stop-color="#D53692"/>
<stop offset="0.74" stop-color="#8F39CE"/>
<stop offset="1" stop-color="#5B4FE9"/>
</linearGradient>
</defs>
</svg>
