<svg width="70" height="71" viewBox="0 0 70 71" fill="none" xmlns="http://www.w3.org/2000/svg">
<g clip-path="url(#clip0_61_450)">
<path d="M50.6907 32.3008C50.3313 32.1982 49.2082 31.791 49.2065 30.8885L49.1982 28.241L40.3807 28.2601L40.3823 30.9078C40.3838 31.7032 39.5131 32.1168 39.0608 32.2751L44.8037 35.7911L50.6907 32.3008Z" fill="#D6AC7A"/>
<path d="M49.2065 30.8884L49.1996 28.6719C48.0416 30.9231 45.6972 32.464 42.9914 32.464C41.9044 32.464 40.8755 32.2155 39.9583 31.772C39.6728 32.0277 39.3058 32.1891 39.0608 32.2749L44.8037 35.7909L50.6907 32.3007C50.3315 32.1981 49.2082 31.7909 49.2065 30.8884Z" fill="#D6AC7A"/>
<path d="M49.1996 28.6717L49.1982 28.2407L40.3807 28.2599L40.3823 30.9075C40.383 31.2721 40.1998 31.5555 39.9583 31.772C40.8755 32.2152 41.9043 32.464 42.9913 32.464C45.6972 32.4639 48.0418 30.923 49.1996 28.6717Z" fill="#C29970"/>
<path d="M51.3471 11.6945C48.0111 12.1774 43.6318 9.04053 40.3711 11.715C38.3966 11.7187 37.1414 13.2935 37.1454 15.3925C37.1491 17.3707 38.2414 21.2969 38.2414 21.2969L38.2434 22.3571C38.2397 20.4316 39.3711 17.1907 39.3711 17.1907C45.0315 17.1801 49.6919 18.7981 51.362 19.4603C51.4829 19.5084 51.5875 19.551 51.6763 19.5879C52.5695 15.7623 51.7469 12.5985 51.3471 11.6945Z" fill="#6F5651"/>
<path d="M38.2433 22.3571C38.2509 26.4556 41.1404 30.2785 44.8056 30.2717C48.4708 30.2647 51.3754 26.6386 51.3677 22.5401L51.362 19.4603C49.6921 18.7979 45.0315 17.1799 39.3711 17.1907C39.3711 17.1907 38.2396 20.4315 38.2433 22.3571Z" fill="#E2BE88"/>
<path d="M40.6092 23.3064C40.4975 17.9842 41.3822 18.2519 41.3822 18.2519C42.9887 17.8811 45.3706 17.9758 47.9732 18.3515C45.7347 17.751 42.7288 17.1842 39.3708 17.1905C39.3708 17.1905 38.2396 20.4312 38.2431 22.3568C38.2502 26.1603 40.7398 29.7246 44.0276 30.2127C42.6035 29.0879 40.6764 26.5104 40.6092 23.3064Z" fill="#D6AC7A"/>
<path d="M57.9516 37.7079C57.9482 35.8712 56.7866 33.9126 54.7878 33.3567L50.6914 32.3009L50.6909 32.3007L44.8038 35.7909L39.0609 32.2749C38.9997 32.2962 38.9457 32.3133 38.9029 32.3257L34.8105 33.3968C32.8137 33.9604 31.6597 35.9232 31.6632 37.7599L31.6654 38.9423C31.6667 39.6339 32.308 40.1935 33.0978 40.1918L56.5257 40.1452C57.3156 40.1437 57.9547 39.5818 57.9535 38.8902L57.9516 37.7079Z" fill="#C0DFF8"/>
<path d="M36.449 40.1272V38.8093C36.449 38.1343 36.143 37.491 35.6074 37.0398L32.7975 34.696C32.0612 35.5537 31.6615 36.6786 31.6635 37.7601L31.6657 38.9424C31.6665 39.4105 31.961 39.8173 32.3957 40.0314C32.5781 40.0923 32.7539 40.1275 32.8968 40.1275H36.4491V40.1272H36.449Z" fill="#AED0ED"/>
<path d="M57.9538 38.8904L57.9516 37.708C57.9498 36.7644 57.6416 35.789 57.0719 34.9878L54.5449 37.0399C54.0092 37.4912 53.7033 38.1344 53.7033 38.8095V40.1274H56.756C57.4358 40.0295 57.9549 39.5132 57.9538 38.8904Z" fill="#AED0ED"/>
<path d="M51.3471 11.6947C49.8987 11.9043 48.2534 11.4316 46.5885 11.0486C44.419 10.5492 42.216 10.202 40.371 11.7153C40.3553 11.7153 40.3401 11.7162 40.3245 11.7165C40.096 11.9524 40.5283 12.6223 40.5283 12.6223C40.5283 12.6223 39.6616 13.0328 39.2967 14.675C39.0971 15.5735 39.1508 16.5367 39.4316 17.1913C42.0011 17.1917 44.3616 17.5265 46.328 17.9536C48.6723 18.4625 50.4568 19.1017 51.3616 19.4606C51.4825 19.5087 51.587 19.5513 51.6759 19.5882C52.5694 15.7625 51.7469 12.5986 51.3471 11.6947Z" fill="#624C4C"/>
<path d="M5.35972 69.9133C4.27168 69.9154 3.18295 69.5024 2.35141 68.6739C0.688053 67.0168 0.682997 64.3251 2.34007 62.6619L16.9409 48.006C18.5978 46.3426 21.2898 46.3376 22.9529 47.9946C24.6162 49.6517 24.6213 52.3434 22.9642 54.0066L8.36338 68.6625C7.53471 69.4942 6.44763 69.9113 5.35972 69.9133Z" fill="#717384"/>
<path d="M3.78956 64.1111L18.3905 49.4551C19.8 48.0402 21.9583 47.8262 23.5953 48.8136C23.4191 48.5216 23.2056 48.2458 22.953 47.9944C21.2898 46.3373 18.5978 46.3424 16.941 48.0057L2.33993 62.6618C0.682718 64.3251 0.687774 67.0168 2.35127 68.6737C2.59943 68.9211 2.8711 69.1306 3.15835 69.3037C2.17485 67.6723 2.38407 65.5219 3.78956 64.1111Z" fill="#5C5D6D"/>
<path d="M2.52974 68.841C2.47016 68.7881 2.41167 68.7336 2.35442 68.6768C2.41167 68.7336 2.47044 68.7881 2.52974 68.841Z" fill="#717384"/>
<path d="M23.1665 48.2253C23.2064 48.2715 23.2457 48.3183 23.2834 48.3657C23.2455 48.3183 23.2065 48.2717 23.1665 48.2253Z" fill="#717384"/>
<path d="M2.72134 69.0009C2.67269 68.9626 2.62486 68.9226 2.57758 68.8818C2.62486 68.9226 2.67282 68.9625 2.72134 69.0009Z" fill="#717384"/>
<path d="M23.3242 48.4185C23.3634 48.4697 23.4015 48.5212 23.438 48.5738C23.4015 48.5212 23.3635 48.4696 23.3242 48.4185Z" fill="#717384"/>
<path d="M22.9544 47.9961C23.0126 48.0542 23.0682 48.1136 23.1223 48.1742C23.0682 48.1136 23.0125 48.0539 22.9544 47.9961Z" fill="#717384"/>
<path d="M2.92863 69.1543C2.87397 69.1165 2.82013 69.0769 2.76683 69.0361C2.82013 69.0769 2.87397 69.1162 2.92863 69.1543Z" fill="#717384"/>
<path d="M23.4659 48.613C23.5108 48.6791 23.5544 48.7458 23.5953 48.8139C21.9583 47.8263 19.8 48.0404 18.3905 49.4553L18.3862 49.4597L22.9488 54.0222L22.9644 54.0066C24.4282 52.537 24.5938 50.2654 23.4659 48.613Z" fill="#C7CDDF"/>
<path d="M2.57771 68.8819C2.56185 68.8681 2.54573 68.855 2.53001 68.8411C2.54546 68.855 2.56185 68.8683 2.57771 68.8819Z" fill="#5C5D6D"/>
<path d="M2.95911 69.1753C2.949 69.1684 2.93888 69.1613 2.92877 69.1543C2.93875 69.1613 2.94872 69.1684 2.95911 69.1753Z" fill="#5C5D6D"/>
<path d="M2.76697 69.036C2.7518 69.0243 2.73663 69.0129 2.72147 69.001C2.7365 69.0129 2.75167 69.0243 2.76697 69.036Z" fill="#5C5D6D"/>
<path d="M23.1222 48.1741C23.1372 48.191 23.1516 48.2082 23.1663 48.2255C23.1517 48.2082 23.1372 48.191 23.1222 48.1741Z" fill="#5C5D6D"/>
<path d="M23.2833 48.3655C23.2971 48.3828 23.3106 48.4005 23.3242 48.4181C23.3108 48.4006 23.2972 48.3831 23.2833 48.3655Z" fill="#5C5D6D"/>
<path d="M1.14543 66.2803C1.27348 67.1566 1.67551 68.0005 2.35127 68.6738C2.35236 68.6749 2.35346 68.6758 2.35455 68.6768C2.35346 68.6757 2.35236 68.6747 2.35127 68.6738C1.67565 68.0006 1.27361 67.1566 1.14543 66.2803Z" fill="#5C5D6D"/>
<path d="M23.4381 48.5735C23.4473 48.5866 23.4567 48.5996 23.4657 48.6128C23.4567 48.5997 23.4473 48.5866 23.4381 48.5735Z" fill="#5C5D6D"/>
<path d="M22.9544 47.9962C22.954 47.9957 22.9534 47.9952 22.953 47.9946C22.7452 47.7875 22.5212 47.6064 22.285 47.4512C22.5211 47.6064 22.745 47.7875 22.953 47.9946C22.9534 47.9951 22.9538 47.9956 22.9544 47.9962Z" fill="#5C5D6D"/>
<path d="M16.9409 48.0058L16.9365 48.0101L18.386 49.4596L18.3904 49.4553C19.7999 48.0403 21.9582 47.8263 23.5952 48.8138C23.5543 48.7457 23.5107 48.6791 23.4658 48.6129C23.4567 48.5997 23.4473 48.5867 23.4381 48.5736C23.4015 48.5211 23.3634 48.4694 23.3243 48.4182C23.3108 48.4007 23.2973 48.3831 23.2835 48.3656C23.2459 48.3182 23.2065 48.2714 23.1665 48.2252C23.1517 48.2081 23.1375 48.1909 23.1223 48.1738C23.0682 48.1133 23.0126 48.0539 22.9544 47.9958C22.954 47.9954 22.9534 47.9948 22.953 47.9943C22.7452 47.7871 22.5212 47.606 22.2851 47.4508C21.6359 47.024 20.896 46.7935 20.1486 46.7593C18.9936 46.7066 17.8211 47.1222 16.9409 48.0058Z" fill="#AFB7CF"/>
<path d="M44.7702 1.96562C31.4689 1.99063 20.7063 12.7936 20.7313 26.095C20.7563 39.3962 31.5594 50.1589 44.8606 50.1338C58.1619 50.1088 68.9245 39.3058 68.8995 26.0045C68.8745 12.7031 58.0714 1.94061 44.7702 1.96562ZM44.853 46.0323C33.8169 46.0531 24.8535 37.1234 24.8328 26.0872C24.8121 15.0511 33.7417 6.08766 44.778 6.06703C55.8142 6.04639 64.7775 14.9759 64.7981 26.0121C64.8187 37.0482 55.8891 46.0117 44.853 46.0323Z" fill="#D7DCEB"/>
<path d="M62.5536 8.27643C57.8126 3.54504 51.5134 0.939453 44.8162 0.939453H44.7681C38.061 0.952025 31.7601 3.57579 27.0261 8.32754C22.2924 13.0793 19.6923 19.3898 19.7049 26.097C19.7168 32.4241 22.0542 38.3904 26.3084 43.0201L22.7873 46.5544C21.9479 46.0178 20.9725 45.7288 19.9526 45.7288C18.5391 45.7288 17.2113 46.2802 16.2139 47.2817L1.61293 61.9373C0.617947 62.936 0.0714653 64.2622 0.0741984 65.672C0.0769315 67.0816 0.628332 68.4059 1.627 69.4007C2.62308 70.393 3.94575 70.9393 5.35179 70.9393C5.35234 70.9393 5.36095 70.9393 5.36149 70.9393C6.77108 70.9367 8.09527 70.3852 9.09038 69.3864L23.6912 54.7306C24.6862 53.7319 25.2326 52.4057 25.23 50.996C25.2279 49.8978 24.8915 48.8523 24.2712 47.973L27.757 44.4741C32.4122 48.7917 38.432 51.1598 44.8144 51.1598H44.8625C58.7085 51.1338 69.9518 39.8482 69.9258 26.0023C69.9132 19.3038 67.2949 13.0085 62.5536 8.27643ZM22.2371 53.2822L7.63624 67.938C7.02827 68.5483 6.219 68.8853 5.35767 68.8869L5.35166 69.9132V68.8869C4.49251 68.8869 3.68406 68.553 3.07554 67.9467C2.46524 67.3389 2.12839 66.5297 2.12675 65.6683C2.12511 64.8068 2.45895 63.9964 3.06707 63.3861L17.6682 48.7302C18.2777 48.1183 19.089 47.7814 19.9528 47.7814C20.8119 47.7814 21.6201 48.1152 22.2286 48.7216C22.8388 49.3295 23.1758 50.1386 23.1774 51.0001C23.179 51.8615 22.8451 52.6719 22.2371 53.2822ZM44.8587 49.1075H44.8144C32.1249 49.1075 21.7816 38.7834 21.7576 26.0932C21.7461 19.9341 24.1336 14.1394 28.4803 9.77621C32.8273 5.41297 38.6129 3.00375 44.7719 2.99214H44.8162C57.506 2.99214 67.8491 13.3162 67.8731 26.0065C67.897 38.7204 57.5728 49.0836 44.8587 49.1075Z" fill="black"/>
<path d="M64.3536 19.1017C63.3215 16.1996 61.6146 13.5132 59.4171 11.3329C57.219 9.15187 54.5187 7.46583 51.6079 6.45691C51.0723 6.27093 50.4876 6.55503 50.3021 7.09044C50.1165 7.62585 50.4001 8.2106 50.9356 8.39618C56.2439 10.2364 60.5371 14.4955 62.4196 19.7893C62.5691 20.2097 62.9645 20.4721 63.3866 20.4721C63.5007 20.4721 63.6167 20.4529 63.7304 20.4123C64.2645 20.2227 64.5435 19.6357 64.3536 19.1017Z" fill="black"/>
<path d="M55.1003 32.4795C55.094 32.4777 55.0877 32.4761 55.0814 32.4745L50.9993 31.4224C50.6067 31.3077 50.3011 31.0933 50.2705 30.9969L50.2634 28.739C50.272 28.7288 50.2812 28.7192 50.2898 28.7089C51.675 27.0468 52.4355 24.8952 52.4313 22.6498L52.4281 20.9873C53.8135 16.455 52.8276 12.5315 52.3232 11.3911C52.3217 11.3877 52.3198 11.3847 52.3183 11.3813C52.3088 11.3604 52.2983 11.3403 52.2874 11.3201C52.2818 11.3097 52.2766 11.2993 52.2707 11.2892C52.2601 11.271 52.2484 11.2535 52.2368 11.2359C52.2295 11.2247 52.2222 11.2134 52.2144 11.2026C52.2036 11.1877 52.1919 11.1736 52.1804 11.1594C52.1706 11.1473 52.1611 11.135 52.1509 11.1234C52.1397 11.111 52.1278 11.0992 52.116 11.0874C52.1044 11.0756 52.0932 11.0636 52.0812 11.0525C52.0685 11.0408 52.0549 11.03 52.0417 11.0189C52.0299 11.0092 52.0185 10.9989 52.0063 10.9898C51.9899 10.9773 51.9727 10.966 51.9555 10.9545C51.9458 10.9481 51.9365 10.9411 51.9266 10.935C51.9049 10.9215 51.8825 10.9093 51.8598 10.8975C51.8541 10.8945 51.8485 10.8911 51.8426 10.8881C51.8162 10.875 51.7892 10.8632 51.7617 10.8523C51.7591 10.8514 51.7565 10.85 51.7539 10.849C51.7256 10.8381 51.6965 10.8287 51.6673 10.8203C51.6649 10.8196 51.6627 10.8188 51.6606 10.8181C51.6332 10.8105 51.6053 10.8045 51.5773 10.7992C51.5724 10.7982 51.5675 10.7968 51.5626 10.796C51.5388 10.7919 51.5147 10.7892 51.4904 10.7866C51.4804 10.7856 51.4705 10.7841 51.4605 10.7834C51.4415 10.7821 51.4222 10.7818 51.4028 10.7815C51.3871 10.7812 51.3714 10.7807 51.3555 10.7812C51.3407 10.7817 51.3258 10.783 51.3109 10.7841C51.2908 10.7856 51.2705 10.7871 51.2503 10.7899C51.2462 10.7904 51.2423 10.7904 51.2382 10.791C50.1702 10.9458 48.8768 10.6384 47.5074 10.3132C45.1057 9.74281 42.3963 9.10095 40.0392 10.8179C37.764 11.0088 36.1523 12.9221 36.1571 15.5066C36.1607 17.4076 37.0547 20.8141 37.2534 21.5477L37.2545 22.095C37.2545 22.0956 37.2545 22.0962 37.2545 22.0969V22.0975L37.2551 22.4708C37.2592 24.691 38.038 26.9285 39.3916 28.6093C39.392 28.6099 39.3924 28.6103 39.3928 28.6108L39.3946 31.0233C39.3641 31.1167 39.0592 31.3323 38.6672 31.4483L34.589 32.5157C34.5827 32.5175 34.5764 32.519 34.5701 32.5209C32.0077 33.244 30.6713 35.7611 30.6752 37.8737L30.6774 39.056C30.6785 39.6815 30.96 40.2851 31.4496 40.7124C31.9065 41.1109 32.5042 41.3302 33.1332 41.3302C33.1349 41.3302 33.1366 41.3302 33.1383 41.3302L44.8261 41.307C44.8341 41.3071 44.842 41.3082 44.8501 41.3082C44.8508 41.3082 44.8515 41.3082 44.8522 41.3082C44.8606 41.3082 44.8688 41.3071 44.8773 41.3068L56.566 41.2836C57.9206 41.281 59.0206 40.2569 59.0183 39.0004L59.016 37.8181C59.0113 35.7048 57.6654 33.1928 55.1003 32.4795ZM44.8434 34.7081L40.9397 32.3759C41.2482 32.0089 41.4474 31.5578 41.4465 31.0187L41.446 30.4367C42.4874 31.072 43.6389 31.4096 44.8329 31.4096C44.8369 31.4096 44.841 31.4096 44.8449 31.4096C46.0346 31.4073 47.1808 31.0856 48.2163 30.4818L48.218 31.002C48.2191 31.5568 48.4306 32.018 48.7553 32.3895L44.8434 34.7081ZM38.2091 15.5021C38.2069 14.2819 38.7821 12.8561 40.4105 12.8528C40.4143 12.8528 40.4181 12.8522 40.422 12.8522C40.4518 12.8518 40.4817 12.8505 40.5113 12.8476C40.5224 12.8465 40.5331 12.8445 40.544 12.843C40.5663 12.8399 40.5885 12.8371 40.6108 12.8326C40.6246 12.8298 40.638 12.826 40.6517 12.8226C40.6705 12.8181 40.6893 12.8137 40.708 12.8081C40.7229 12.8036 40.7372 12.798 40.7518 12.7928C40.7687 12.7869 40.7855 12.7812 40.802 12.7744C40.8177 12.7678 40.8329 12.7601 40.8482 12.7529C40.8629 12.7459 40.8778 12.7392 40.8923 12.7316C40.9098 12.7223 40.9264 12.7116 40.9432 12.7014C40.9549 12.6941 40.9668 12.6876 40.9783 12.6799C40.9997 12.6656 41.0201 12.6499 41.0405 12.6341C41.0465 12.6294 41.0529 12.6254 41.0589 12.6205C42.6934 11.28 44.8009 11.7802 47.0319 12.31C48.2242 12.593 49.4487 12.8838 50.6333 12.8838C50.646 12.8838 50.6586 12.8833 50.6712 12.8833C50.9685 13.9486 51.2715 15.8849 50.9497 18.1937C49.2266 17.562 45.0368 16.2763 39.4736 16.2763C39.451 16.2763 39.4285 16.2763 39.4058 16.2763C39.4033 16.2763 39.401 16.2765 39.3986 16.2767C39.3746 16.2768 39.3509 16.2784 39.327 16.2804C39.316 16.2812 39.3051 16.2816 39.2943 16.2828C39.2748 16.285 39.2555 16.2886 39.2359 16.2917C39.2212 16.2943 39.2063 16.2962 39.1918 16.2994C39.1787 16.3022 39.166 16.3061 39.1531 16.3093C39.1332 16.3145 39.113 16.3193 39.0934 16.3256C39.0869 16.3276 39.0806 16.3305 39.0741 16.3327C39.0491 16.3413 39.0243 16.3502 39.0001 16.3607C38.9971 16.3619 38.9942 16.3636 38.9912 16.3649C38.9643 16.377 38.9376 16.3897 38.9119 16.4039C38.9061 16.407 38.9006 16.411 38.8949 16.4143C38.8726 16.4271 38.8506 16.4402 38.8293 16.4546C38.8152 16.4642 38.8021 16.475 38.7885 16.4852C38.7764 16.4945 38.7637 16.5032 38.7519 16.5131C38.7341 16.5277 38.7175 16.5438 38.7005 16.5598C38.6937 16.5664 38.6863 16.5724 38.6795 16.5792C38.6636 16.5951 38.649 16.6123 38.6341 16.6294C38.6271 16.6374 38.6196 16.645 38.6129 16.6532C38.6013 16.6674 38.5907 16.6827 38.5797 16.6977C38.5707 16.7101 38.5613 16.7222 38.5527 16.7349C38.545 16.7465 38.5382 16.7588 38.5309 16.7708C38.5203 16.7883 38.5096 16.8057 38.5001 16.824C38.4951 16.8333 38.4909 16.8432 38.4863 16.8527C38.4757 16.8743 38.4655 16.896 38.4563 16.9185C38.4554 16.9209 38.4541 16.9229 38.4533 16.9252C38.4465 16.9425 38.4179 17.0156 38.3746 17.1314C38.2757 16.515 38.2099 15.942 38.2091 15.5021ZM39.307 22.4664L39.3063 22.0909C39.3047 20.9766 39.7789 19.3435 40.1241 18.335C45.1719 18.4338 48.9708 19.6514 50.374 20.1716L50.3752 20.8264C50.3752 20.8304 50.3752 20.8344 50.3752 20.8382L50.3786 22.6532C50.3854 26.2811 47.8495 29.3508 44.841 29.3565C44.8382 29.3565 44.8356 29.3565 44.833 29.3565C43.4113 29.3565 42.0465 28.6341 40.9898 27.3215C39.9236 25.998 39.3103 24.2282 39.307 22.4664ZM33.1335 39.2771C33.1332 39.2771 33.1328 39.2771 33.1324 39.2771C33.0016 39.2771 32.8797 39.2364 32.7983 39.1652C32.7777 39.1472 32.7294 39.0999 32.7294 39.052L32.7272 37.8696C32.7246 36.533 33.5451 34.9476 35.1183 34.4986L38.854 33.5208L43.8162 36.4855L43.8214 39.2559L33.1335 39.2771ZM56.5614 39.2304L45.8738 39.2516L45.8686 36.4864L50.8855 33.5126L54.5587 34.4592C56.1337 34.9021 56.9602 36.4846 56.9626 37.8213L56.9649 39.0037C56.9652 39.0835 56.812 39.23 56.5614 39.2304Z" fill="black"/>
</g>
<defs>
<clipPath id="clip0_61_450">
<rect width="70" height="70" fill="white" transform="translate(0 0.939453)"/>
</clipPath>
</defs>
</svg>
