<svg width="24" height="24" viewBox="0 0 24 24" fill="none" xmlns="http://www.w3.org/2000/svg">
<path d="M7.33902 5.8584C5.70711 5.8584 4.14205 6.50667 2.98812 7.6606C1.83418 8.81453 1.18591 10.3796 1.18591 12.0115C1.18591 13.6434 1.83418 15.2085 2.98812 16.3624C4.14205 17.5163 5.70711 18.1646 7.33902 18.1646C8.97092 18.1646 10.536 17.5163 11.6899 16.3624C12.8438 15.2085 13.4921 13.6434 13.4921 12.0115C13.4921 10.3796 12.8438 8.81453 11.6899 7.6606C10.536 6.50667 8.97092 5.8584 7.33902 5.8584ZM17.042 6.33171C15.3428 6.33171 13.9654 8.87484 13.9654 12.0115C13.9654 12.5998 14.0137 13.1669 14.1036 13.7003C14.2234 14.4117 14.417 15.063 14.6678 15.6243C14.7933 15.905 14.9329 16.163 15.0848 16.3944C15.3887 16.8573 15.7418 17.2147 16.1271 17.4362C16.4163 17.6018 16.7234 17.6913 17.042 17.6913C17.3605 17.6913 17.6677 17.6018 17.9569 17.4362C18.3422 17.2147 18.6953 16.8573 18.9991 16.3944C19.1511 16.163 19.2907 15.905 19.4161 15.6243C19.667 15.0634 19.8606 14.4117 19.9803 13.7003C20.0703 13.1669 20.1185 12.5998 20.1185 12.0115C20.1185 8.87484 18.7412 6.33171 17.042 6.33171ZM21.7751 6.80503C21.6526 6.80503 21.5342 6.88691 21.4235 7.03932C21.3492 7.14061 21.2782 7.27314 21.2114 7.43359C21.1778 7.51358 21.1452 7.60067 21.1139 7.69439C21.051 7.88135 20.9923 8.09481 20.9388 8.33005C20.8318 8.801 20.7452 9.36235 20.6851 9.98524C20.6553 10.2967 20.6321 10.6237 20.616 10.9626C20.5999 11.3011 20.5919 11.6523 20.5919 12.0115C20.5919 12.3707 20.5999 12.7219 20.616 13.0608C20.6316 13.3997 20.6548 13.7268 20.6851 14.0382C20.7452 14.6611 20.8318 15.222 20.9388 15.6934C20.9923 15.9291 21.051 16.1421 21.1139 16.3291C21.1452 16.4228 21.1778 16.5099 21.2114 16.5899C21.2786 16.7503 21.3496 16.8829 21.4235 16.9842C21.5342 17.1361 21.6526 17.218 21.7751 17.218C22.4288 17.218 22.9584 14.8869 22.9584 12.0115C22.9584 9.13611 22.4288 6.80503 21.7751 6.80503Z" fill="black"/>
</svg>
