<svg width="50" height="50" viewBox="0 0 50 50" fill="none" xmlns="http://www.w3.org/2000/svg">
<rect width="50" height="50" rx="25" fill="black"/>
<path d="M26.7999 25.6683C26.7999 29.9491 23.2713 33.4252 18.9002 33.4252C14.529 33.4252 11.0005 29.9491 11.0005 25.6683C11.0005 21.3874 14.529 17.9114 18.9002 17.9114C23.2713 17.9114 26.7999 21.3874 26.7999 25.6683ZM35.4544 25.6683C35.4544 29.6923 33.6814 32.9628 31.5046 32.9628C29.3278 32.9628 27.5547 29.6923 27.5547 25.6683C27.5547 21.6443 29.3278 18.3737 31.5046 18.3737C33.6814 18.3737 35.4544 21.6271 35.4544 25.6683ZM39.0005 25.6683C39.0005 29.2813 38.3861 32.2094 37.6137 32.2094C36.8412 32.2094 36.2268 29.2813 36.2268 25.6683C36.2268 22.0552 36.8412 19.1271 37.6137 19.1271C38.3861 19.1271 39.0005 22.0552 39.0005 25.6683Z" fill="white"/>
</svg>
