<svg width="50" height="50" viewBox="0 0 50 50" fill="none" xmlns="http://www.w3.org/2000/svg">
<rect width="50" height="50" rx="25" fill="#6B488E"/>
<path d="M37.1816 22.3609C35.6045 15.6371 29.1473 11.5485 22.3961 12.9423C17.2459 14.0054 12.9796 18.4247 12.5366 24.2596C12.3552 26.6581 12.8524 28.9251 14.0324 31.0294C14.1543 31.2474 14.1731 31.4446 14.1064 31.6824C13.8333 32.6621 13.6279 33.4456 12.5001 37.6916C13.1745 37.5393 15.5469 36.8789 18.4654 36.1163C18.6259 36.0746 18.8427 36.085 18.9866 36.1612C21.7321 37.6249 24.6246 38.0693 27.6692 37.41C34.4246 35.9483 38.791 29.2214 37.1816 22.3609V22.3609ZM27.2408 19.6067C28.1299 19.6025 28.8054 20.2712 28.8064 21.1559C28.8075 22.0396 28.131 22.7198 27.2513 22.7198C26.3757 22.7187 25.6982 22.0344 25.7003 21.1507C25.7023 20.2817 26.3726 19.6109 27.2408 19.6067ZM20.9076 20.7501C21.7488 20.7626 22.4576 21.4741 22.469 22.316C22.4805 23.1569 21.7456 23.8987 20.8972 23.9028C20.0518 23.906 19.3191 23.1705 19.3233 22.3213C19.3264 21.47 20.0654 20.7376 20.9076 20.7501V20.7501ZM33.1957 25.9278C29.2307 31.4759 22.9016 32.2594 17.6607 28.7989C17.174 28.4775 17.0593 27.8933 17.3678 27.4312C17.6722 26.9763 18.2642 26.8615 18.7458 27.1703C23.5583 30.2574 28.6636 29.0806 31.6228 24.8199C31.9824 24.3024 32.5307 24.1772 33.0029 24.4996C33.4813 24.8282 33.5647 25.4135 33.1957 25.9278V25.9278Z" fill="white"/>
</svg>
