<svg width="50" height="51" viewBox="0 0 50 51" fill="none" xmlns="http://www.w3.org/2000/svg">
<rect x="6.10352e-05" y="0.939453" width="50" height="50" rx="25" fill="#FF4500"/>
<path d="M37.4999 26.1682C37.5036 26.4231 37.4717 26.6775 37.4042 26.9235C37.3366 27.1695 37.2343 27.4053 37.1001 27.6229C36.9664 27.8405 36.8022 28.0387 36.6126 28.2112C36.4231 28.3837 36.2101 28.5288 35.9797 28.6423C35.9849 28.7102 35.9891 28.7786 35.9914 28.8469C35.9971 28.9833 35.9971 29.1198 35.9914 29.2562C35.9891 29.3245 35.9849 29.3929 35.9797 29.4608C35.9797 33.6276 31.0813 37.0132 25.0381 37.0132C18.9949 37.0132 14.0965 33.6276 14.0965 29.4608C14.0913 29.3929 14.0871 29.3245 14.0847 29.2562C14.0791 29.1198 14.0791 28.9833 14.0847 28.8469C14.0871 28.7786 14.0913 28.7102 14.0965 28.6423C13.7355 28.4779 13.415 28.2377 13.1569 27.9383C12.8989 27.639 12.7096 27.2876 12.6021 26.9086C12.4947 26.5294 12.4719 26.1316 12.5351 25.7428C12.5983 25.354 12.746 24.9834 12.968 24.6568C13.1899 24.3303 13.4808 24.0555 13.8205 23.8515C14.1602 23.6475 14.5406 23.5192 14.9354 23.4756C15.3302 23.4317 15.7299 23.4735 16.1067 23.5979C16.4836 23.7224 16.8287 23.9266 17.1181 24.1964C17.6552 23.8355 18.218 23.5137 18.802 23.2333C19.3862 22.9533 19.99 22.7152 20.6089 22.5218C21.2277 22.3283 21.8602 22.1799 22.5007 22.0772C23.1411 21.9744 23.7886 21.9181 24.4375 21.9084L25.8263 15.4535C25.8418 15.3786 25.8723 15.3079 25.9159 15.2446C25.9591 15.1819 26.0149 15.1279 26.0792 15.0865C26.144 15.0451 26.2162 15.0168 26.2922 15.0028C26.3678 14.9893 26.4457 14.9907 26.5207 15.007L31.1188 15.9185C31.5829 15.1284 32.5569 14.7898 33.417 15.1191C34.277 15.4483 34.7687 16.3482 34.5763 17.242C34.3844 18.1359 33.5652 18.759 32.6447 18.7121C31.7236 18.6651 30.9734 17.9619 30.8749 17.0532L26.8586 16.2161L25.6386 22.02C26.2796 22.0335 26.9191 22.093 27.5516 22.1976C28.8181 22.4069 30.0476 22.7963 31.2019 23.3537C31.7784 23.6318 32.334 23.9508 32.8642 24.308C33.2455 23.9452 33.7246 23.6995 34.2437 23.6007C34.7627 23.5015 35.2997 23.5533 35.7897 23.75C36.2797 23.9465 36.7019 24.2794 37.0054 24.7084C37.3089 25.1375 37.4806 25.6445 37.4999 26.1682ZM18.8747 28.7404C18.9695 28.966 19.1075 29.1711 19.282 29.3436C19.4561 29.5166 19.663 29.6533 19.8905 29.7473C20.1183 29.8406 20.3624 29.8887 20.6089 29.8886C21.368 29.8886 22.0521 29.4352 22.343 28.7404C22.6335 28.0452 22.4725 27.2453 21.9358 26.7133C21.399 26.1812 20.592 26.0217 19.8905 26.3096C19.1896 26.5979 18.7321 27.276 18.7321 28.0284C18.7321 28.2726 18.7804 28.5144 18.8747 28.7404ZM29.624 33.2058C29.7202 33.1128 29.7751 32.9859 29.7769 32.8529C29.7788 32.7194 29.7267 32.591 29.6329 32.4957C29.5391 32.4004 29.411 32.346 29.2768 32.3441C29.1421 32.3422 29.0126 32.3939 28.9042 32.4743C28.622 32.6749 28.3232 32.8515 28.0109 33.0021C27.6986 33.1528 27.374 33.2771 27.0406 33.3737C26.7075 33.47 26.3664 33.5384 26.0215 33.5779C25.6762 33.6174 25.3285 33.6276 24.9818 33.609C24.6355 33.6244 24.2883 33.6104 23.9444 33.5676C23.6004 33.5253 23.2607 33.4537 22.929 33.3537C22.5969 33.2542 22.2745 33.1268 21.9644 32.9733C21.6542 32.8198 21.3577 32.6403 21.0781 32.4371C20.981 32.358 20.8576 32.3176 20.7318 32.3236C20.6061 32.3297 20.4874 32.3822 20.3982 32.4701C20.3095 32.5585 20.2565 32.6761 20.2504 32.8008C20.2443 32.9254 20.2851 33.0477 20.3649 33.144C20.6947 33.3905 21.0452 33.6081 21.4126 33.7951C21.78 33.982 22.1633 34.1369 22.5574 34.2587C22.9516 34.3806 23.3555 34.4685 23.7652 34.5219C24.1748 34.5749 24.5881 34.5931 25.0005 34.5763C25.413 34.5931 25.8263 34.5749 26.2359 34.5219C27.0563 34.415 27.8521 34.1691 28.5885 33.7951C28.9559 33.6081 29.3063 33.3905 29.6362 33.144L29.624 33.2058ZM29.2796 30.0374C29.5339 30.0402 29.7863 29.9914 30.0214 29.8947C30.2565 29.7975 30.469 29.6542 30.6464 29.4733C30.8237 29.2924 30.9617 29.0776 31.0527 28.8418C31.1438 28.6063 31.1854 28.3548 31.1751 28.1028C31.1751 27.3504 30.7177 26.6723 30.0167 26.384C29.3153 26.0961 28.5082 26.2557 27.9715 26.7877C27.4347 27.3197 27.2738 28.1196 27.5642 28.8148C27.8551 29.5096 28.5392 29.963 29.2984 29.963L29.2796 30.0374Z" fill="white"/>
</svg>
