<svg width="22" height="22" viewBox="0 0 22 22" fill="none" xmlns="http://www.w3.org/2000/svg">
<g clip-path="url(#clip0_152_127)">
<path d="M17.2296 1.06299C16.9597 1.06331 16.6941 1.13007 16.4562 1.25737C16.2183 1.38468 16.0154 1.5686 15.8654 1.79291L12.4154 1.17212L11.8511 1.07005L11.6624 1.65682L10.0439 6.68926C7.86384 6.85919 5.9358 7.6143 4.56404 8.72689C4.36377 8.48876 4.11392 8.29724 3.83193 8.16573C3.54995 8.03422 3.24264 7.96588 2.93149 7.96551C2.40664 7.96828 1.90116 8.16415 1.51149 8.51577C1.12181 8.86739 0.875204 9.35014 0.818697 9.87196C0.76219 10.3938 0.899741 10.9181 1.20511 11.345C1.51049 11.7719 1.96231 12.0714 2.47441 12.1865C2.45199 12.3661 2.43846 12.5478 2.43846 12.7315C2.43846 16.0908 6.26442 18.8123 10.9844 18.8123C15.7044 18.8123 19.5304 16.0908 19.5304 12.7315C19.5304 12.5482 19.5168 12.367 19.4945 12.1878C20.0078 12.0739 20.4612 11.7747 20.7677 11.3474C21.0742 10.9201 21.2124 10.3948 21.1558 9.87205C21.0992 9.34925 20.8518 8.86569 20.461 8.51392C20.0701 8.16216 19.5632 7.96689 19.0374 7.96551C18.7262 7.96588 18.4189 8.03422 18.1369 8.16573C17.8549 8.29724 17.6051 8.48876 17.4048 8.72689C16.0572 7.63388 14.1717 6.8885 12.0386 6.70146L12.8224 2.58062L15.6311 3.08649C15.7165 3.44619 15.9208 3.76656 16.2109 3.99581C16.501 4.22506 16.8598 4.34981 17.2296 4.3499C17.6654 4.3499 18.0835 4.17675 18.3917 3.86854C18.6999 3.56034 18.873 3.14232 18.873 2.70644C18.873 2.27057 18.6999 1.85255 18.3917 1.54435C18.0835 1.23614 17.6654 1.06299 17.2296 1.06299ZM7.41826 9.93765C8.29915 9.93765 9.01228 10.6739 9.01228 11.5811C9.01228 12.4883 8.29915 13.2246 7.41826 13.2246C6.54065 13.2443 5.82423 12.4883 5.82423 11.5811C5.82423 10.6739 6.54065 9.93765 7.41826 9.93765ZM14.5506 9.93765C15.4282 9.93765 16.1446 10.6739 16.1446 11.5811C16.1446 12.4883 15.4282 13.2443 14.5506 13.2246C13.6697 13.2246 12.9566 12.4883 12.9566 11.5811C12.9566 10.6739 13.6697 9.93765 14.5506 9.93765ZM7.763 14.6709C7.77286 14.6775 8.95641 15.657 10.9844 15.657C13.0125 15.657 14.3077 14.822 14.3176 14.8154L14.9942 15.7225C14.9318 15.7685 13.4759 16.8402 10.9844 16.8402C8.49295 16.8402 7.03711 15.7685 6.97465 15.7225L7.763 14.6709Z" fill="black"/>
</g>
<defs>
<clipPath id="clip0_152_127">
<rect width="21.0362" height="21.0362" fill="white" transform="translate(0.466309 0.405762)"/>
</clipPath>
</defs>
</svg>
