<svg width="18" height="19" viewBox="0 0 18 19" fill="none" xmlns="http://www.w3.org/2000/svg">
<g clip-path="url(#clip0_90_487)">
<path d="M15.094 4.89535C15.1663 5.33687 15.411 5.7316 15.7743 5.99277L17.0484 6.9071C17.412 7.16803 17.6571 7.56273 17.7297 8.00435C17.8023 8.44597 17.6965 8.89835 17.4356 9.26197L16.5219 10.5352C16.2608 10.899 16.1547 11.3517 16.2281 11.7936L16.4815 13.3393C16.5175 13.558 16.5101 13.7817 16.4596 13.9976C16.4092 14.2135 16.3167 14.4173 16.1874 14.5974C16.0582 14.7775 15.8947 14.9304 15.7063 15.0473C15.518 15.1642 15.3084 15.2429 15.0896 15.2788L13.5433 15.533C13.1017 15.6053 12.707 15.85 12.4458 16.2133L11.5315 17.4874C11.2706 17.851 10.8759 18.0961 10.4343 18.1687C9.99264 18.2413 9.54026 18.1355 9.17665 17.8746L7.90343 16.9609C7.5397 16.7004 7.08741 16.595 6.64598 16.6678L5.0987 16.9214C4.65739 16.9937 4.20544 16.8878 3.84212 16.6271C3.4788 16.3664 3.23382 15.9721 3.161 15.5309L2.9065 13.983C2.83419 13.5414 2.58951 13.1467 2.22625 12.8855L0.952114 11.9712C0.588656 11.7104 0.343635 11.3159 0.270913 10.8745C0.19819 10.4331 0.303715 9.98088 0.564293 9.61725L1.47796 8.34403C1.73849 7.98031 1.84392 7.52801 1.77106 7.08658L1.51813 5.53839C1.48209 5.31964 1.48952 5.09593 1.53997 4.88005C1.59042 4.66417 1.68292 4.46035 1.81217 4.28023C1.94143 4.10011 2.10491 3.94723 2.29327 3.83032C2.48163 3.7134 2.69118 3.63475 2.90996 3.59885L4.45632 3.34462C4.89746 3.27237 5.29191 3.02805 5.55309 2.66527L6.46742 1.39114C6.72835 1.02753 7.12304 0.782457 7.56467 0.70985C8.00629 0.637243 8.45867 0.743044 8.82229 1.00398L10.0955 1.91765C10.4592 2.17818 10.9115 2.2836 11.353 2.21074L12.9005 1.95873C13.342 1.8862 13.7943 1.99202 14.1579 2.2529C14.5214 2.51378 14.7664 2.90837 14.8391 3.3499L15.0936 4.89783L15.094 4.89535Z" fill="#E56D29"/>
<path fill-rule="evenodd" clip-rule="evenodd" d="M12.8658 7.09216C12.988 6.92431 13.0289 6.72088 12.9796 6.52663C12.9303 6.33237 12.7949 6.16321 12.603 6.05635C12.4112 5.94948 12.1786 5.91367 11.9566 5.9568C11.7346 5.99993 11.5413 6.11845 11.4191 6.2863L8.06287 10.9005L6.52701 9.22078C6.38502 9.0654 6.17829 8.96572 5.95231 8.94369C5.72632 8.92166 5.49958 8.97907 5.32198 9.10331C5.14438 9.22754 5.03046 9.40841 5.00528 9.60613C4.9801 9.80385 5.04572 10.0022 5.18771 10.1576L7.47321 12.6572C7.55838 12.7504 7.66778 12.8246 7.7923 12.8734C7.91683 12.9222 8.05287 12.9443 8.18912 12.9379C8.32538 12.9314 8.4579 12.8966 8.57567 12.8363C8.69344 12.776 8.79305 12.692 8.86622 12.5912L12.8658 7.09216Z" fill="white"/>
</g>
<defs>
<clipPath id="clip0_90_487">
<rect width="18" height="18" fill="white" transform="translate(0 0.438965)"/>
</clipPath>
</defs>
</svg>
