<svg width="632" height="631" viewBox="0 0 632 631" fill="none" xmlns="http://www.w3.org/2000/svg">
<path d="M537.966 443.514C560.36 404.726 572.15 360.727 572.15 315.939C572.15 271.151 560.36 227.152 537.966 188.364L317 315.939L537.966 443.514Z" fill="#E72682" stroke="black" stroke-width="3"/>
<path d="M537.966 443.514C554.506 414.866 565.317 383.276 569.798 350.502L317 315.939L537.966 443.514Z" fill="#268AE7" stroke="black" stroke-width="3"/>
<path d="M172.1 566.913C205.058 585.942 241.442 598.292 279.173 603.26C316.905 608.227 355.245 605.714 392.006 595.864C428.766 586.014 463.226 569.02 493.419 545.853C523.612 522.685 548.946 493.797 567.974 460.839L317 315.939L172.1 566.913Z" fill="#8B30FF" stroke="black" stroke-width="3"/>
<path d="M584.108 259.058C570.918 196.663 536.259 140.872 486.168 101.4C436.077 61.9281 373.728 41.2772 309.978 43.0435L317.525 315.414L584.108 259.058Z" fill="#FA912E" stroke="black" stroke-width="3"/>
<path d="M469.197 69.0898C425.958 42.4658 376.473 27.6925 325.715 26.2549C274.957 24.8172 224.715 36.7659 180.038 60.8998L317.525 315.414L469.197 69.0898Z" fill="#3148A6" stroke="black" stroke-width="3"/>
<path d="M235.472 11.6723C175.294 27.797 121.248 61.4046 80.1705 108.245C39.0925 155.085 12.8268 213.055 4.69487 274.823C-3.43706 336.591 6.93 399.384 34.4851 455.26C62.0402 511.136 105.546 557.586 159.5 588.737L317 315.939L235.472 11.6723Z" fill="#4FCA7A" stroke="black" stroke-width="3"/>
<path d="M116.94 322.939V314.363H95.6923V308.091L114.444 284.539H125.708V307.259H130.508V314.363H125.708V322.939H116.94ZM116.94 291.579L116.364 291.387L103.82 307.515L104.14 307.963C108.236 307.451 112.396 307.259 115.532 307.259H116.94V291.579ZM150.606 283.643C161.166 283.643 167.822 290.555 167.822 303.611C167.822 316.667 161.422 323.835 150.606 323.835C139.79 323.835 133.39 316.667 133.39 303.611C133.39 290.555 140.174 283.643 150.606 283.643ZM150.606 291.643C144.974 291.643 142.542 295.931 142.542 303.611C142.542 311.291 144.974 315.963 150.542 315.963C156.11 315.963 158.67 311.291 158.67 303.611C158.67 295.931 156.174 291.643 150.606 291.643ZM181.894 306.299C174.982 306.299 170.694 302.011 170.694 295.035C170.694 288.059 174.982 283.835 181.894 283.835C188.742 283.835 193.03 288.059 193.03 295.035C193.03 302.011 188.742 306.299 181.894 306.299ZM205.19 323.579C198.342 323.579 194.054 319.355 194.054 312.251C194.054 305.339 198.342 301.115 205.19 301.115C212.102 301.115 216.39 305.339 216.39 312.251C216.39 319.355 212.102 323.579 205.19 323.579ZM194.63 300.859L203.078 284.539H215.366V284.923L196.038 301.883L194.63 300.859ZM192.646 306.555L184.262 322.939H171.91V322.555L191.302 305.595L192.646 306.555ZM181.83 300.603C184.582 300.603 186.31 298.683 186.31 295.035C186.31 291.387 184.518 289.531 181.894 289.531C179.142 289.531 177.478 291.387 177.478 295.035C177.478 298.683 179.078 300.603 181.83 300.603ZM205.19 317.883C207.942 317.883 209.606 315.899 209.606 312.251C209.606 308.603 207.942 306.811 205.19 306.811C202.566 306.811 200.774 308.603 200.774 312.251C200.774 315.899 202.438 317.883 205.19 317.883Z" fill="white"/>
<path d="M317.755 469.179C314.107 469.179 312.331 471.291 311.899 475.467L305.419 474.699C306.187 467.883 309.643 463.515 317.803 463.515C325.147 463.515 329.179 466.539 329.179 473.067C329.179 478.635 324.475 481.419 317.515 482.859C312.331 484.107 310.699 485.019 310.411 487.611C313.051 487.275 316.459 487.083 318.715 487.083H329.275V492.939H304.603C304.555 491.835 304.507 490.635 304.507 489.435C304.507 482.859 307.435 480.171 314.155 478.443C321.211 476.619 322.411 475.323 322.411 472.827C322.411 470.667 321.019 469.179 317.755 469.179ZM345.361 463.467C353.281 463.467 358.273 468.651 358.273 478.443C358.273 488.235 353.473 493.611 345.361 493.611C337.249 493.611 332.449 488.235 332.449 478.443C332.449 468.651 337.537 463.467 345.361 463.467ZM345.361 469.467C341.137 469.467 339.313 472.683 339.313 478.443C339.313 484.203 341.137 487.707 345.313 487.707C349.489 487.707 351.409 484.203 351.409 478.443C351.409 472.683 349.537 469.467 345.361 469.467ZM368.827 480.459C363.643 480.459 360.427 477.243 360.427 472.011C360.427 466.779 363.643 463.611 368.827 463.611C373.963 463.611 377.179 466.779 377.179 472.011C377.179 477.243 373.963 480.459 368.827 480.459ZM386.299 493.419C381.163 493.419 377.947 490.251 377.947 484.923C377.947 479.739 381.163 476.571 386.299 476.571C391.483 476.571 394.699 479.739 394.699 484.923C394.699 490.251 391.483 493.419 386.299 493.419ZM378.379 476.379L384.715 464.139H393.931V464.427L379.435 477.147L378.379 476.379ZM376.891 480.651L370.603 492.939H361.339V492.651L375.883 479.931L376.891 480.651ZM368.779 476.187C370.843 476.187 372.139 474.747 372.139 472.011C372.139 469.275 370.795 467.883 368.827 467.883C366.763 467.883 365.515 469.275 365.515 472.011C365.515 474.747 366.715 476.187 368.779 476.187ZM386.299 489.147C388.363 489.147 389.611 487.659 389.611 484.923C389.611 482.187 388.363 480.843 386.299 480.843C384.331 480.843 382.987 482.187 382.987 484.923C382.987 487.659 384.235 489.147 386.299 489.147Z" fill="white"/>
<path d="M318.385 133.939V131.035H321.889V122.683C321.049 123.163 320.113 123.571 318.937 123.979L317.857 121.243L323.233 119.539H325.153V131.035H327.865V133.939H318.385ZM335.52 131.515C337.44 131.515 338.136 130.771 338.136 129.451C338.136 128.203 337.44 127.435 335.544 127.435C334.32 127.435 333.336 127.795 332.64 128.275L329.976 127.243V119.539H340.704V122.659C337.44 122.659 334.872 122.515 332.976 122.347V125.971C333.84 125.467 335.016 125.107 336.648 125.107C339.984 125.107 341.496 126.883 341.496 129.475C341.496 132.739 339.336 134.179 335.496 134.179C331.92 134.179 329.928 132.955 329.184 130.291L332.4 129.451C332.808 130.603 333.672 131.515 335.52 131.515ZM347.046 127.699C344.454 127.699 342.846 126.091 342.846 123.475C342.846 120.859 344.454 119.275 347.046 119.275C349.614 119.275 351.222 120.859 351.222 123.475C351.222 126.091 349.614 127.699 347.046 127.699ZM355.782 134.179C353.214 134.179 351.606 132.595 351.606 129.931C351.606 127.339 353.214 125.755 355.782 125.755C358.374 125.755 359.982 127.339 359.982 129.931C359.982 132.595 358.374 134.179 355.782 134.179ZM351.822 125.659L354.99 119.539H359.598V119.683L352.35 126.043L351.822 125.659ZM351.078 127.795L347.934 133.939H343.302V133.795L350.574 127.435L351.078 127.795ZM347.022 125.563C348.054 125.563 348.702 124.843 348.702 123.475C348.702 122.107 348.03 121.411 347.046 121.411C346.014 121.411 345.39 122.107 345.39 123.475C345.39 124.843 345.99 125.563 347.022 125.563ZM355.782 132.043C356.814 132.043 357.438 131.299 357.438 129.931C357.438 128.563 356.814 127.891 355.782 127.891C354.798 127.891 354.126 128.563 354.126 129.931C354.126 131.299 354.75 132.043 355.782 132.043Z" fill="white"/>
<path d="M428.385 225.939V223.035H431.889V214.683C431.049 215.163 430.113 215.571 428.937 215.979L427.857 213.243L433.233 211.539H435.153V223.035H437.865V225.939H428.385ZM445.52 223.515C447.44 223.515 448.136 222.771 448.136 221.451C448.136 220.203 447.44 219.435 445.544 219.435C444.32 219.435 443.336 219.795 442.64 220.275L439.976 219.243V211.539H450.704V214.659C447.44 214.659 444.872 214.515 442.976 214.347V217.971C443.84 217.467 445.016 217.107 446.648 217.107C449.984 217.107 451.496 218.883 451.496 221.475C451.496 224.739 449.336 226.179 445.496 226.179C441.92 226.179 439.928 224.955 439.184 222.291L442.4 221.451C442.808 222.603 443.672 223.515 445.52 223.515ZM457.046 219.699C454.454 219.699 452.846 218.091 452.846 215.475C452.846 212.859 454.454 211.275 457.046 211.275C459.614 211.275 461.222 212.859 461.222 215.475C461.222 218.091 459.614 219.699 457.046 219.699ZM465.782 226.179C463.214 226.179 461.606 224.595 461.606 221.931C461.606 219.339 463.214 217.755 465.782 217.755C468.374 217.755 469.982 219.339 469.982 221.931C469.982 224.595 468.374 226.179 465.782 226.179ZM461.822 217.659L464.99 211.539H469.598V211.683L462.35 218.043L461.822 217.659ZM461.078 219.795L457.934 225.939H453.302V225.795L460.574 219.435L461.078 219.795ZM457.022 217.563C458.054 217.563 458.702 216.843 458.702 215.475C458.702 214.107 458.03 213.411 457.046 213.411C456.014 213.411 455.39 214.107 455.39 215.475C455.39 216.843 455.99 217.563 457.022 217.563ZM465.782 224.043C466.814 224.043 467.438 223.299 467.438 221.931C467.438 220.563 466.814 219.891 465.782 219.891C464.798 219.891 464.126 220.563 464.126 221.931C464.126 223.299 464.75 224.043 465.782 224.043Z" fill="white"/>
<path d="M484.5 314.515C486.42 314.515 487.116 313.771 487.116 312.451C487.116 311.203 486.42 310.435 484.524 310.435C483.3 310.435 482.316 310.795 481.62 311.275L478.956 310.243V302.539H489.684V305.659C486.42 305.659 483.852 305.515 481.956 305.347V308.971C482.82 308.467 483.996 308.107 485.628 308.107C488.964 308.107 490.476 309.883 490.476 312.475C490.476 315.739 488.316 317.179 484.476 317.179C480.9 317.179 478.908 315.955 478.164 313.291L481.38 312.451C481.788 313.603 482.652 314.515 484.5 314.515ZM496.027 310.699C493.435 310.699 491.827 309.091 491.827 306.475C491.827 303.859 493.435 302.275 496.027 302.275C498.595 302.275 500.203 303.859 500.203 306.475C500.203 309.091 498.595 310.699 496.027 310.699ZM504.763 317.179C502.195 317.179 500.587 315.595 500.587 312.931C500.587 310.339 502.195 308.755 504.763 308.755C507.355 308.755 508.963 310.339 508.963 312.931C508.963 315.595 507.355 317.179 504.763 317.179ZM500.803 308.659L503.971 302.539H508.579V302.683L501.331 309.043L500.803 308.659ZM500.059 310.795L496.915 316.939H492.283V316.795L499.555 310.435L500.059 310.795ZM496.003 308.563C497.035 308.563 497.683 307.843 497.683 306.475C497.683 305.107 497.011 304.411 496.027 304.411C494.995 304.411 494.371 305.107 494.371 306.475C494.371 307.843 494.971 308.563 496.003 308.563ZM504.763 315.043C505.795 315.043 506.419 314.299 506.419 312.931C506.419 311.563 505.795 310.891 504.763 310.891C503.779 310.891 503.107 311.563 503.107 312.931C503.107 314.299 503.731 315.043 504.763 315.043Z" fill="white"/>
<path d="M474.5 382.515C476.42 382.515 477.116 381.771 477.116 380.451C477.116 379.203 476.42 378.435 474.524 378.435C473.3 378.435 472.316 378.795 471.62 379.275L468.956 378.243V370.539H479.684V373.659C476.42 373.659 473.852 373.515 471.956 373.347V376.971C472.82 376.467 473.996 376.107 475.628 376.107C478.964 376.107 480.476 377.883 480.476 380.475C480.476 383.739 478.316 385.179 474.476 385.179C470.9 385.179 468.908 383.955 468.164 381.291L471.38 380.451C471.788 381.603 472.652 382.515 474.5 382.515ZM486.027 378.699C483.435 378.699 481.827 377.091 481.827 374.475C481.827 371.859 483.435 370.275 486.027 370.275C488.595 370.275 490.203 371.859 490.203 374.475C490.203 377.091 488.595 378.699 486.027 378.699ZM494.763 385.179C492.195 385.179 490.587 383.595 490.587 380.931C490.587 378.339 492.195 376.755 494.763 376.755C497.355 376.755 498.963 378.339 498.963 380.931C498.963 383.595 497.355 385.179 494.763 385.179ZM490.803 376.659L493.971 370.539H498.579V370.683L491.331 377.043L490.803 376.659ZM490.059 378.795L486.915 384.939H482.283V384.795L489.555 378.435L490.059 378.795ZM486.003 376.563C487.035 376.563 487.683 375.843 487.683 374.475C487.683 373.107 487.011 372.411 486.027 372.411C484.995 372.411 484.371 373.107 484.371 374.475C484.371 375.843 484.971 376.563 486.003 376.563ZM494.763 383.043C495.795 383.043 496.419 382.299 496.419 380.931C496.419 379.563 495.795 378.891 494.763 378.891C493.779 378.891 493.107 379.563 493.107 380.931C493.107 382.299 493.731 383.043 494.763 383.043Z" fill="white"/>
</svg>