<svg width="50" height="50" viewBox="0 0 50 50" fill="none" xmlns="http://www.w3.org/2000/svg">
<rect width="50" height="50" rx="25" fill="#9146FF"/>
<path d="M31.8094 26.8213L28.205 30.1655H24.6006L21.4467 33.0916V30.1655H17.3917V17.625H31.8094V26.8213Z" fill="#9146FF"/>
<path d="M19.293 14.1304L18.206 15.2173L16.3038 27.4456L22.0104 30.4347L22.8256 31.5217L28.2604 29.6195L34.2386 24.9999L34.5104 20.6521L34.2386 14.4021L33.4234 14.1304H19.293Z" fill="white"/>
<path d="M18.6356 13.2734L14.1301 17.4536V32.5021H19.5368V36.6823L24.0423 32.5021H27.6467L35.7566 24.9779V13.2734H18.6356ZM33.9544 24.1418L30.35 27.486H26.7456L23.5917 30.4121V27.486H19.5368V14.9455H33.9544V24.1418Z" fill="black"/>
<path d="M31.2517 17.8716H29.4495V22.8878H31.2517V17.8716Z" fill="black"/>
<path d="M26.2963 17.8718H24.4941V22.888H26.2963V17.8718Z" fill="black"/>
</svg>
